G04 #@! TF.GenerationSoftware,KiCad,Pcbnew,(5.1.0-47-g8a7e501fe)*
G04 #@! TF.CreationDate,2019-04-01T01:15:26-05:00*
G04 #@! TF.ProjectId,usb_c_wien_bridge,7573625f-635f-4776-9965-6e5f62726964,0.1a*
G04 #@! TF.SameCoordinates,Original*
G04 #@! TF.FileFunction,Legend,Top*
G04 #@! TF.FilePolarity,Positive*
%FSLAX46Y46*%
G04 Gerber Fmt 4.6, Leading zero omitted, Abs format (unit mm)*
G04 Created by KiCad (PCBNEW (5.1.0-47-g8a7e501fe)) date 2019-04-01 01:15:26*
%MOMM*%
%LPD*%
G04 APERTURE LIST*
%ADD10C,0.127000*%
%ADD11C,0.010000*%
%ADD12C,0.120000*%
G04 APERTURE END LIST*
D10*
X126767166Y-90323609D02*
X126597833Y-90081704D01*
X126476880Y-90323609D02*
X126476880Y-89815609D01*
X126670404Y-89815609D01*
X126718785Y-89839800D01*
X126742976Y-89863990D01*
X126767166Y-89912371D01*
X126767166Y-89984942D01*
X126742976Y-90033323D01*
X126718785Y-90057514D01*
X126670404Y-90081704D01*
X126476880Y-90081704D01*
X127081642Y-89815609D02*
X127130023Y-89815609D01*
X127178404Y-89839800D01*
X127202595Y-89863990D01*
X127226785Y-89912371D01*
X127250976Y-90009133D01*
X127250976Y-90130085D01*
X127226785Y-90226847D01*
X127202595Y-90275228D01*
X127178404Y-90299419D01*
X127130023Y-90323609D01*
X127081642Y-90323609D01*
X127033261Y-90299419D01*
X127009071Y-90275228D01*
X126984880Y-90226847D01*
X126960690Y-90130085D01*
X126960690Y-90009133D01*
X126984880Y-89912371D01*
X127009071Y-89863990D01*
X127033261Y-89839800D01*
X127081642Y-89815609D01*
X127468690Y-90275228D02*
X127492880Y-90299419D01*
X127468690Y-90323609D01*
X127444500Y-90299419D01*
X127468690Y-90275228D01*
X127468690Y-90323609D01*
X127976690Y-90323609D02*
X127686404Y-90323609D01*
X127831547Y-90323609D02*
X127831547Y-89815609D01*
X127783166Y-89888180D01*
X127734785Y-89936561D01*
X127686404Y-89960752D01*
X128412119Y-90323609D02*
X128412119Y-90057514D01*
X128387928Y-90009133D01*
X128339547Y-89984942D01*
X128242785Y-89984942D01*
X128194404Y-90009133D01*
X128412119Y-90299419D02*
X128363738Y-90323609D01*
X128242785Y-90323609D01*
X128194404Y-90299419D01*
X128170214Y-90251038D01*
X128170214Y-90202657D01*
X128194404Y-90154276D01*
X128242785Y-90130085D01*
X128363738Y-90130085D01*
X128412119Y-90105895D01*
X141312295Y-101677409D02*
X141312295Y-101169409D01*
X141433247Y-101169409D01*
X141505819Y-101193600D01*
X141554200Y-101241980D01*
X141578390Y-101290361D01*
X141602580Y-101387123D01*
X141602580Y-101459695D01*
X141578390Y-101556457D01*
X141554200Y-101604838D01*
X141505819Y-101653219D01*
X141433247Y-101677409D01*
X141312295Y-101677409D01*
X141820295Y-101411314D02*
X141989628Y-101411314D01*
X142062200Y-101677409D02*
X141820295Y-101677409D01*
X141820295Y-101169409D01*
X142062200Y-101169409D01*
X142255723Y-101653219D02*
X142328295Y-101677409D01*
X142449247Y-101677409D01*
X142497628Y-101653219D01*
X142521819Y-101629028D01*
X142546009Y-101580647D01*
X142546009Y-101532266D01*
X142521819Y-101483885D01*
X142497628Y-101459695D01*
X142449247Y-101435504D01*
X142352485Y-101411314D01*
X142304104Y-101387123D01*
X142279914Y-101362933D01*
X142255723Y-101314552D01*
X142255723Y-101266171D01*
X142279914Y-101217790D01*
X142304104Y-101193600D01*
X142352485Y-101169409D01*
X142473438Y-101169409D01*
X142546009Y-101193600D01*
X142763723Y-101677409D02*
X142763723Y-101169409D01*
X143271723Y-101193600D02*
X143223342Y-101169409D01*
X143150771Y-101169409D01*
X143078200Y-101193600D01*
X143029819Y-101241980D01*
X143005628Y-101290361D01*
X142981438Y-101387123D01*
X142981438Y-101459695D01*
X143005628Y-101556457D01*
X143029819Y-101604838D01*
X143078200Y-101653219D01*
X143150771Y-101677409D01*
X143199152Y-101677409D01*
X143271723Y-101653219D01*
X143295914Y-101629028D01*
X143295914Y-101459695D01*
X143199152Y-101459695D01*
X143513628Y-101677409D02*
X143513628Y-101169409D01*
X143803914Y-101677409D01*
X143803914Y-101169409D01*
X144045819Y-101629028D02*
X144070009Y-101653219D01*
X144045819Y-101677409D01*
X144021628Y-101653219D01*
X144045819Y-101629028D01*
X144045819Y-101677409D01*
X144045819Y-101362933D02*
X144070009Y-101387123D01*
X144045819Y-101411314D01*
X144021628Y-101387123D01*
X144045819Y-101362933D01*
X144045819Y-101411314D01*
X144674771Y-101411314D02*
X144844104Y-101411314D01*
X144916676Y-101677409D02*
X144674771Y-101677409D01*
X144674771Y-101169409D01*
X144916676Y-101169409D01*
X145134390Y-101677409D02*
X145134390Y-101169409D01*
X145255342Y-101169409D01*
X145327914Y-101193600D01*
X145376295Y-101241980D01*
X145400485Y-101290361D01*
X145424676Y-101387123D01*
X145424676Y-101459695D01*
X145400485Y-101556457D01*
X145376295Y-101604838D01*
X145327914Y-101653219D01*
X145255342Y-101677409D01*
X145134390Y-101677409D01*
X146029438Y-101677409D02*
X146029438Y-101169409D01*
X146222961Y-101169409D01*
X146271342Y-101193600D01*
X146295533Y-101217790D01*
X146319723Y-101266171D01*
X146319723Y-101338742D01*
X146295533Y-101387123D01*
X146271342Y-101411314D01*
X146222961Y-101435504D01*
X146029438Y-101435504D01*
X146537438Y-101411314D02*
X146706771Y-101411314D01*
X146779342Y-101677409D02*
X146537438Y-101677409D01*
X146537438Y-101169409D01*
X146779342Y-101169409D01*
X147263152Y-101193600D02*
X147214771Y-101169409D01*
X147142200Y-101169409D01*
X147069628Y-101193600D01*
X147021247Y-101241980D01*
X146997057Y-101290361D01*
X146972866Y-101387123D01*
X146972866Y-101459695D01*
X146997057Y-101556457D01*
X147021247Y-101604838D01*
X147069628Y-101653219D01*
X147142200Y-101677409D01*
X147190580Y-101677409D01*
X147263152Y-101653219D01*
X147287342Y-101629028D01*
X147287342Y-101459695D01*
X147190580Y-101459695D01*
X147505057Y-101169409D02*
X147505057Y-101580647D01*
X147529247Y-101629028D01*
X147553438Y-101653219D01*
X147601819Y-101677409D01*
X147698580Y-101677409D01*
X147746961Y-101653219D01*
X147771152Y-101629028D01*
X147795342Y-101580647D01*
X147795342Y-101169409D01*
X148037247Y-101677409D02*
X148037247Y-101169409D01*
X148521057Y-101677409D02*
X148279152Y-101677409D01*
X148279152Y-101169409D01*
X148932295Y-101677409D02*
X148690390Y-101677409D01*
X148690390Y-101169409D01*
X149077438Y-101532266D02*
X149319342Y-101532266D01*
X149029057Y-101677409D02*
X149198390Y-101169409D01*
X149367723Y-101677409D01*
X149537057Y-101677409D02*
X149537057Y-101169409D01*
X149827342Y-101677409D01*
X149827342Y-101169409D01*
X150456295Y-101677409D02*
X150456295Y-101169409D01*
X150698200Y-101677409D02*
X150698200Y-101169409D01*
X150940104Y-101677409D02*
X150940104Y-101169409D01*
D11*
G36*
X153873455Y-96596365D02*
G01*
X153907672Y-96596623D01*
X153938383Y-96597020D01*
X153964640Y-96597536D01*
X153985498Y-96598152D01*
X154000011Y-96598848D01*
X154007231Y-96599604D01*
X154007775Y-96599793D01*
X154009923Y-96604793D01*
X154013369Y-96617556D01*
X154017989Y-96637501D01*
X154023657Y-96664044D01*
X154030249Y-96696604D01*
X154037639Y-96734598D01*
X154044184Y-96769275D01*
X154051060Y-96805734D01*
X154057601Y-96839621D01*
X154063621Y-96870024D01*
X154068932Y-96896031D01*
X154073348Y-96916732D01*
X154076681Y-96931214D01*
X154078744Y-96938567D01*
X154079102Y-96939262D01*
X154084307Y-96942209D01*
X154096059Y-96947664D01*
X154113164Y-96955141D01*
X154134425Y-96964159D01*
X154158648Y-96974234D01*
X154184639Y-96984882D01*
X154211201Y-96995622D01*
X154237140Y-97005969D01*
X154261260Y-97015440D01*
X154282367Y-97023553D01*
X154299266Y-97029823D01*
X154310762Y-97033769D01*
X154315659Y-97034906D01*
X154315665Y-97034904D01*
X154320090Y-97032178D01*
X154330703Y-97025174D01*
X154346724Y-97014421D01*
X154367370Y-97000448D01*
X154391862Y-96983784D01*
X154419417Y-96964958D01*
X154449255Y-96944500D01*
X154456481Y-96939535D01*
X154486838Y-96918798D01*
X154515224Y-96899655D01*
X154540839Y-96882629D01*
X154562883Y-96868239D01*
X154580558Y-96857005D01*
X154593064Y-96849449D01*
X154599601Y-96846090D01*
X154600172Y-96845966D01*
X154604940Y-96848893D01*
X154614769Y-96857144D01*
X154628867Y-96869927D01*
X154646441Y-96886448D01*
X154666700Y-96905917D01*
X154688850Y-96927539D01*
X154712100Y-96950522D01*
X154735658Y-96974075D01*
X154758730Y-96997402D01*
X154780524Y-97019714D01*
X154800248Y-97040216D01*
X154817111Y-97058115D01*
X154830318Y-97072620D01*
X154839079Y-97082938D01*
X154842600Y-97088276D01*
X154842633Y-97088515D01*
X154840303Y-97093615D01*
X154833666Y-97104842D01*
X154823257Y-97121377D01*
X154809609Y-97142399D01*
X154793253Y-97167088D01*
X154774723Y-97194625D01*
X154754551Y-97224188D01*
X154753257Y-97226071D01*
X154732845Y-97255838D01*
X154713850Y-97283683D01*
X154696833Y-97308770D01*
X154682357Y-97330265D01*
X154670983Y-97347335D01*
X154663273Y-97359144D01*
X154659789Y-97364859D01*
X154659740Y-97364959D01*
X154659087Y-97368893D01*
X154660027Y-97375426D01*
X154662849Y-97385353D01*
X154667844Y-97399470D01*
X154675301Y-97418572D01*
X154685509Y-97443456D01*
X154698759Y-97474916D01*
X154705725Y-97491277D01*
X154719282Y-97522611D01*
X154731776Y-97550658D01*
X154742792Y-97574540D01*
X154751913Y-97593377D01*
X154758722Y-97606288D01*
X154762803Y-97612394D01*
X154763192Y-97612690D01*
X154768900Y-97614340D01*
X154781973Y-97617318D01*
X154801447Y-97621429D01*
X154826357Y-97626476D01*
X154855739Y-97632266D01*
X154888630Y-97638604D01*
X154924065Y-97645293D01*
X154927941Y-97646017D01*
X154968555Y-97653717D01*
X155004311Y-97660751D01*
X155034592Y-97666985D01*
X155058782Y-97672286D01*
X155076264Y-97676520D01*
X155086421Y-97679554D01*
X155088809Y-97680828D01*
X155089577Y-97686147D01*
X155090288Y-97698986D01*
X155090924Y-97718399D01*
X155091466Y-97743439D01*
X155091893Y-97773162D01*
X155092186Y-97806619D01*
X155092326Y-97842866D01*
X155092335Y-97851923D01*
X155092308Y-97894857D01*
X155092172Y-97930068D01*
X155091902Y-97958300D01*
X155091472Y-97980297D01*
X155090857Y-97996804D01*
X155090030Y-98008563D01*
X155088966Y-98016319D01*
X155087639Y-98020816D01*
X155086430Y-98022518D01*
X155081013Y-98024400D01*
X155068236Y-98027566D01*
X155049071Y-98031815D01*
X155024493Y-98036942D01*
X154995476Y-98042745D01*
X154962992Y-98049019D01*
X154928738Y-98055430D01*
X154890276Y-98062648D01*
X154855766Y-98069384D01*
X154825986Y-98075472D01*
X154801714Y-98080743D01*
X154783729Y-98085032D01*
X154772808Y-98088171D01*
X154769872Y-98089511D01*
X154766520Y-98094888D01*
X154760695Y-98106889D01*
X154752862Y-98124357D01*
X154743486Y-98146135D01*
X154733033Y-98171067D01*
X154721967Y-98197995D01*
X154710754Y-98225762D01*
X154699860Y-98253213D01*
X154689750Y-98279190D01*
X154680888Y-98302536D01*
X154673741Y-98322095D01*
X154668773Y-98336709D01*
X154666451Y-98345223D01*
X154666397Y-98346769D01*
X154669184Y-98351365D01*
X154676223Y-98362118D01*
X154686964Y-98378211D01*
X154700855Y-98398827D01*
X154717347Y-98423149D01*
X154735890Y-98450360D01*
X154755527Y-98479052D01*
X154775506Y-98508398D01*
X154793872Y-98535785D01*
X154810086Y-98560379D01*
X154823607Y-98581343D01*
X154833898Y-98597842D01*
X154840420Y-98609040D01*
X154842633Y-98614057D01*
X154839714Y-98618782D01*
X154831485Y-98628581D01*
X154818736Y-98642662D01*
X154802259Y-98660231D01*
X154782842Y-98680495D01*
X154761278Y-98702660D01*
X154738357Y-98725932D01*
X154714870Y-98749519D01*
X154691606Y-98772625D01*
X154669358Y-98794459D01*
X154648915Y-98814227D01*
X154631068Y-98831134D01*
X154616608Y-98844388D01*
X154606326Y-98853195D01*
X154601012Y-98856762D01*
X154600761Y-98856800D01*
X154595864Y-98854474D01*
X154584842Y-98847857D01*
X154568519Y-98837487D01*
X154547722Y-98823905D01*
X154523279Y-98807651D01*
X154496015Y-98789262D01*
X154467829Y-98770017D01*
X154438593Y-98750073D01*
X154411345Y-98731744D01*
X154386916Y-98715571D01*
X154366139Y-98702093D01*
X154349847Y-98691852D01*
X154338873Y-98685386D01*
X154334110Y-98683233D01*
X154327922Y-98685167D01*
X154315846Y-98690488D01*
X154299397Y-98698476D01*
X154280093Y-98708409D01*
X154271225Y-98713135D01*
X154249933Y-98724189D01*
X154231362Y-98733046D01*
X154216910Y-98739085D01*
X154207980Y-98741687D01*
X154206620Y-98741710D01*
X154204463Y-98740548D01*
X154201662Y-98737277D01*
X154197989Y-98731384D01*
X154193215Y-98722356D01*
X154187112Y-98709678D01*
X154179451Y-98692838D01*
X154170003Y-98671321D01*
X154158541Y-98644614D01*
X154144837Y-98612204D01*
X154128660Y-98573577D01*
X154109784Y-98528219D01*
X154087979Y-98475616D01*
X154084151Y-98466366D01*
X154065315Y-98420673D01*
X154047526Y-98377185D01*
X154031040Y-98336546D01*
X154016111Y-98299399D01*
X154002994Y-98266388D01*
X153991943Y-98238158D01*
X153983214Y-98215353D01*
X153977060Y-98198617D01*
X153973737Y-98188593D01*
X153973234Y-98185908D01*
X153977557Y-98180981D01*
X153987369Y-98172589D01*
X154001128Y-98161986D01*
X154014411Y-98152424D01*
X154049540Y-98126542D01*
X154078228Y-98102093D01*
X154101936Y-98077469D01*
X154122127Y-98051064D01*
X154140262Y-98021273D01*
X154149153Y-98004332D01*
X154169064Y-97955641D01*
X154180997Y-97905365D01*
X154185083Y-97854361D01*
X154181453Y-97803482D01*
X154170236Y-97753583D01*
X154151564Y-97705518D01*
X154125566Y-97660142D01*
X154092373Y-97618310D01*
X154089820Y-97615576D01*
X154050115Y-97579261D01*
X154005774Y-97549752D01*
X153956228Y-97526696D01*
X153932317Y-97518406D01*
X153918378Y-97514379D01*
X153905238Y-97511593D01*
X153890812Y-97509832D01*
X153873015Y-97508878D01*
X153849761Y-97508513D01*
X153837217Y-97508483D01*
X153810863Y-97508659D01*
X153790880Y-97509330D01*
X153775178Y-97510715D01*
X153761664Y-97513031D01*
X153748249Y-97516497D01*
X153741967Y-97518402D01*
X153690305Y-97538738D01*
X153643401Y-97565808D01*
X153601741Y-97599203D01*
X153565812Y-97638511D01*
X153536101Y-97683323D01*
X153527874Y-97698983D01*
X153510731Y-97738031D01*
X153499462Y-97775005D01*
X153493317Y-97813103D01*
X153491539Y-97853500D01*
X153495589Y-97907724D01*
X153507594Y-97959454D01*
X153527340Y-98008159D01*
X153554614Y-98053306D01*
X153588396Y-98093546D01*
X153603550Y-98107709D01*
X153623236Y-98124226D01*
X153644890Y-98141110D01*
X153665953Y-98156373D01*
X153683862Y-98168028D01*
X153686049Y-98169303D01*
X153695793Y-98176721D01*
X153701660Y-98184620D01*
X153702037Y-98185774D01*
X153700827Y-98191335D01*
X153696467Y-98204261D01*
X153689127Y-98224126D01*
X153678973Y-98250505D01*
X153666173Y-98282973D01*
X153650894Y-98321103D01*
X153633305Y-98364471D01*
X153613572Y-98412651D01*
X153594040Y-98459966D01*
X153575350Y-98505051D01*
X153557528Y-98547972D01*
X153540853Y-98588066D01*
X153525599Y-98624671D01*
X153512045Y-98657124D01*
X153500468Y-98684761D01*
X153491145Y-98706922D01*
X153484352Y-98722941D01*
X153480366Y-98732158D01*
X153479478Y-98734074D01*
X153472617Y-98740831D01*
X153466943Y-98742500D01*
X153460515Y-98740562D01*
X153448221Y-98735229D01*
X153431592Y-98727223D01*
X153412159Y-98717264D01*
X153403135Y-98712460D01*
X153378295Y-98699560D01*
X153358697Y-98690391D01*
X153344996Y-98685239D01*
X153338285Y-98684264D01*
X153332333Y-98687124D01*
X153320548Y-98694150D01*
X153304024Y-98704638D01*
X153283855Y-98717887D01*
X153261134Y-98733193D01*
X153246667Y-98743117D01*
X153207569Y-98770085D01*
X153174836Y-98792579D01*
X153147893Y-98810977D01*
X153126167Y-98825655D01*
X153109084Y-98836991D01*
X153096069Y-98845363D01*
X153086549Y-98851148D01*
X153079949Y-98854724D01*
X153075695Y-98856467D01*
X153073756Y-98856800D01*
X153069368Y-98853899D01*
X153059713Y-98845632D01*
X153045483Y-98832647D01*
X153027368Y-98815598D01*
X153006057Y-98795134D01*
X152982240Y-98771906D01*
X152956608Y-98746564D01*
X152951542Y-98741518D01*
X152925713Y-98715625D01*
X152901776Y-98691385D01*
X152880397Y-98669494D01*
X152862247Y-98650645D01*
X152847994Y-98635536D01*
X152838306Y-98624860D01*
X152833851Y-98619313D01*
X152833656Y-98618911D01*
X152832906Y-98616430D01*
X152832644Y-98613894D01*
X152833296Y-98610617D01*
X152835288Y-98605910D01*
X152839048Y-98599087D01*
X152845000Y-98589460D01*
X152853571Y-98576342D01*
X152865188Y-98559046D01*
X152880277Y-98536883D01*
X152899263Y-98509168D01*
X152922575Y-98475211D01*
X152924696Y-98472122D01*
X152944401Y-98443254D01*
X152962488Y-98416432D01*
X152978411Y-98392489D01*
X152991626Y-98372257D01*
X153001588Y-98356571D01*
X153007751Y-98346265D01*
X153009600Y-98342291D01*
X153008076Y-98336959D01*
X153003758Y-98324780D01*
X152997029Y-98306755D01*
X152988269Y-98283887D01*
X152977860Y-98257178D01*
X152966184Y-98227628D01*
X152960345Y-98212989D01*
X152945564Y-98176328D01*
X152933438Y-98146942D01*
X152923663Y-98124172D01*
X152915938Y-98107360D01*
X152909961Y-98095845D01*
X152905429Y-98088971D01*
X152902137Y-98086116D01*
X152896005Y-98084501D01*
X152882547Y-98081574D01*
X152862769Y-98077535D01*
X152837676Y-98072583D01*
X152808274Y-98066915D01*
X152775569Y-98060731D01*
X152743367Y-98054745D01*
X152708667Y-98048247D01*
X152676491Y-98042029D01*
X152647817Y-98036294D01*
X152623625Y-98031248D01*
X152604892Y-98027093D01*
X152592599Y-98024034D01*
X152587792Y-98022343D01*
X152586295Y-98019700D01*
X152585068Y-98014018D01*
X152584088Y-98004576D01*
X152583331Y-97990657D01*
X152582772Y-97971543D01*
X152582388Y-97946514D01*
X152582155Y-97914851D01*
X152582047Y-97875837D01*
X152582033Y-97850962D01*
X152582033Y-97684362D01*
X152591558Y-97678485D01*
X152597798Y-97676400D01*
X152611381Y-97673043D01*
X152631313Y-97668622D01*
X152656602Y-97663343D01*
X152686253Y-97657415D01*
X152719274Y-97651043D01*
X152754672Y-97644436D01*
X152755600Y-97644265D01*
X152790830Y-97637692D01*
X152823523Y-97631379D01*
X152852721Y-97625527D01*
X152877463Y-97620338D01*
X152896792Y-97616014D01*
X152909747Y-97612756D01*
X152915370Y-97610764D01*
X152915437Y-97610705D01*
X152918509Y-97605484D01*
X152924285Y-97593655D01*
X152932248Y-97576424D01*
X152941879Y-97554994D01*
X152952659Y-97530572D01*
X152964070Y-97504362D01*
X152975593Y-97477569D01*
X152986710Y-97451398D01*
X152996901Y-97427054D01*
X153005650Y-97405743D01*
X153012436Y-97388669D01*
X153016741Y-97377038D01*
X153018066Y-97372229D01*
X153015740Y-97367379D01*
X153009109Y-97356377D01*
X152998700Y-97340024D01*
X152985037Y-97319123D01*
X152968645Y-97294474D01*
X152950050Y-97266881D01*
X152929776Y-97237144D01*
X152926552Y-97232446D01*
X152905973Y-97202348D01*
X152886896Y-97174192D01*
X152869861Y-97148795D01*
X152855410Y-97126974D01*
X152844082Y-97109546D01*
X152836419Y-97097330D01*
X152832962Y-97091142D01*
X152832844Y-97090804D01*
X152833478Y-97087383D01*
X152836945Y-97081623D01*
X152843698Y-97073029D01*
X152854188Y-97061107D01*
X152868868Y-97045362D01*
X152888190Y-97025298D01*
X152912607Y-97000422D01*
X152942570Y-96970238D01*
X152948600Y-96964191D01*
X152978615Y-96934308D01*
X153005397Y-96908049D01*
X153028490Y-96885843D01*
X153047439Y-96868118D01*
X153061786Y-96855301D01*
X153071078Y-96847821D01*
X153074538Y-96845967D01*
X153079733Y-96848294D01*
X153091064Y-96854923D01*
X153107711Y-96865325D01*
X153128857Y-96878972D01*
X153153684Y-96895335D01*
X153181372Y-96913885D01*
X153211105Y-96934093D01*
X153214339Y-96936308D01*
X153244350Y-96956840D01*
X153272452Y-96975995D01*
X153297811Y-96993211D01*
X153319596Y-97007925D01*
X153336974Y-97019576D01*
X153349113Y-97027601D01*
X153355180Y-97031439D01*
X153355393Y-97031556D01*
X153359104Y-97032684D01*
X153364549Y-97032521D01*
X153372649Y-97030759D01*
X153384324Y-97027095D01*
X153400493Y-97021223D01*
X153422077Y-97012837D01*
X153449997Y-97001631D01*
X153469693Y-96993624D01*
X153504572Y-96979384D01*
X153532423Y-96967936D01*
X153554067Y-96958885D01*
X153570320Y-96951838D01*
X153582001Y-96946402D01*
X153589929Y-96942184D01*
X153594922Y-96938788D01*
X153597797Y-96935823D01*
X153599373Y-96932895D01*
X153600054Y-96930934D01*
X153601400Y-96925014D01*
X153604094Y-96911738D01*
X153607950Y-96892079D01*
X153612781Y-96867008D01*
X153618398Y-96837495D01*
X153624617Y-96804513D01*
X153631249Y-96769032D01*
X153631929Y-96765374D01*
X153638643Y-96729801D01*
X153645074Y-96696733D01*
X153651020Y-96667122D01*
X153656283Y-96641923D01*
X153660663Y-96622090D01*
X153663961Y-96608577D01*
X153665976Y-96602337D01*
X153666110Y-96602136D01*
X153668635Y-96600598D01*
X153673902Y-96599340D01*
X153682653Y-96598339D01*
X153695627Y-96597568D01*
X153713566Y-96597001D01*
X153737210Y-96596614D01*
X153767299Y-96596380D01*
X153804575Y-96596275D01*
X153836677Y-96596265D01*
X153873455Y-96596365D01*
X153873455Y-96596365D01*
G37*
X153873455Y-96596365D02*
X153907672Y-96596623D01*
X153938383Y-96597020D01*
X153964640Y-96597536D01*
X153985498Y-96598152D01*
X154000011Y-96598848D01*
X154007231Y-96599604D01*
X154007775Y-96599793D01*
X154009923Y-96604793D01*
X154013369Y-96617556D01*
X154017989Y-96637501D01*
X154023657Y-96664044D01*
X154030249Y-96696604D01*
X154037639Y-96734598D01*
X154044184Y-96769275D01*
X154051060Y-96805734D01*
X154057601Y-96839621D01*
X154063621Y-96870024D01*
X154068932Y-96896031D01*
X154073348Y-96916732D01*
X154076681Y-96931214D01*
X154078744Y-96938567D01*
X154079102Y-96939262D01*
X154084307Y-96942209D01*
X154096059Y-96947664D01*
X154113164Y-96955141D01*
X154134425Y-96964159D01*
X154158648Y-96974234D01*
X154184639Y-96984882D01*
X154211201Y-96995622D01*
X154237140Y-97005969D01*
X154261260Y-97015440D01*
X154282367Y-97023553D01*
X154299266Y-97029823D01*
X154310762Y-97033769D01*
X154315659Y-97034906D01*
X154315665Y-97034904D01*
X154320090Y-97032178D01*
X154330703Y-97025174D01*
X154346724Y-97014421D01*
X154367370Y-97000448D01*
X154391862Y-96983784D01*
X154419417Y-96964958D01*
X154449255Y-96944500D01*
X154456481Y-96939535D01*
X154486838Y-96918798D01*
X154515224Y-96899655D01*
X154540839Y-96882629D01*
X154562883Y-96868239D01*
X154580558Y-96857005D01*
X154593064Y-96849449D01*
X154599601Y-96846090D01*
X154600172Y-96845966D01*
X154604940Y-96848893D01*
X154614769Y-96857144D01*
X154628867Y-96869927D01*
X154646441Y-96886448D01*
X154666700Y-96905917D01*
X154688850Y-96927539D01*
X154712100Y-96950522D01*
X154735658Y-96974075D01*
X154758730Y-96997402D01*
X154780524Y-97019714D01*
X154800248Y-97040216D01*
X154817111Y-97058115D01*
X154830318Y-97072620D01*
X154839079Y-97082938D01*
X154842600Y-97088276D01*
X154842633Y-97088515D01*
X154840303Y-97093615D01*
X154833666Y-97104842D01*
X154823257Y-97121377D01*
X154809609Y-97142399D01*
X154793253Y-97167088D01*
X154774723Y-97194625D01*
X154754551Y-97224188D01*
X154753257Y-97226071D01*
X154732845Y-97255838D01*
X154713850Y-97283683D01*
X154696833Y-97308770D01*
X154682357Y-97330265D01*
X154670983Y-97347335D01*
X154663273Y-97359144D01*
X154659789Y-97364859D01*
X154659740Y-97364959D01*
X154659087Y-97368893D01*
X154660027Y-97375426D01*
X154662849Y-97385353D01*
X154667844Y-97399470D01*
X154675301Y-97418572D01*
X154685509Y-97443456D01*
X154698759Y-97474916D01*
X154705725Y-97491277D01*
X154719282Y-97522611D01*
X154731776Y-97550658D01*
X154742792Y-97574540D01*
X154751913Y-97593377D01*
X154758722Y-97606288D01*
X154762803Y-97612394D01*
X154763192Y-97612690D01*
X154768900Y-97614340D01*
X154781973Y-97617318D01*
X154801447Y-97621429D01*
X154826357Y-97626476D01*
X154855739Y-97632266D01*
X154888630Y-97638604D01*
X154924065Y-97645293D01*
X154927941Y-97646017D01*
X154968555Y-97653717D01*
X155004311Y-97660751D01*
X155034592Y-97666985D01*
X155058782Y-97672286D01*
X155076264Y-97676520D01*
X155086421Y-97679554D01*
X155088809Y-97680828D01*
X155089577Y-97686147D01*
X155090288Y-97698986D01*
X155090924Y-97718399D01*
X155091466Y-97743439D01*
X155091893Y-97773162D01*
X155092186Y-97806619D01*
X155092326Y-97842866D01*
X155092335Y-97851923D01*
X155092308Y-97894857D01*
X155092172Y-97930068D01*
X155091902Y-97958300D01*
X155091472Y-97980297D01*
X155090857Y-97996804D01*
X155090030Y-98008563D01*
X155088966Y-98016319D01*
X155087639Y-98020816D01*
X155086430Y-98022518D01*
X155081013Y-98024400D01*
X155068236Y-98027566D01*
X155049071Y-98031815D01*
X155024493Y-98036942D01*
X154995476Y-98042745D01*
X154962992Y-98049019D01*
X154928738Y-98055430D01*
X154890276Y-98062648D01*
X154855766Y-98069384D01*
X154825986Y-98075472D01*
X154801714Y-98080743D01*
X154783729Y-98085032D01*
X154772808Y-98088171D01*
X154769872Y-98089511D01*
X154766520Y-98094888D01*
X154760695Y-98106889D01*
X154752862Y-98124357D01*
X154743486Y-98146135D01*
X154733033Y-98171067D01*
X154721967Y-98197995D01*
X154710754Y-98225762D01*
X154699860Y-98253213D01*
X154689750Y-98279190D01*
X154680888Y-98302536D01*
X154673741Y-98322095D01*
X154668773Y-98336709D01*
X154666451Y-98345223D01*
X154666397Y-98346769D01*
X154669184Y-98351365D01*
X154676223Y-98362118D01*
X154686964Y-98378211D01*
X154700855Y-98398827D01*
X154717347Y-98423149D01*
X154735890Y-98450360D01*
X154755527Y-98479052D01*
X154775506Y-98508398D01*
X154793872Y-98535785D01*
X154810086Y-98560379D01*
X154823607Y-98581343D01*
X154833898Y-98597842D01*
X154840420Y-98609040D01*
X154842633Y-98614057D01*
X154839714Y-98618782D01*
X154831485Y-98628581D01*
X154818736Y-98642662D01*
X154802259Y-98660231D01*
X154782842Y-98680495D01*
X154761278Y-98702660D01*
X154738357Y-98725932D01*
X154714870Y-98749519D01*
X154691606Y-98772625D01*
X154669358Y-98794459D01*
X154648915Y-98814227D01*
X154631068Y-98831134D01*
X154616608Y-98844388D01*
X154606326Y-98853195D01*
X154601012Y-98856762D01*
X154600761Y-98856800D01*
X154595864Y-98854474D01*
X154584842Y-98847857D01*
X154568519Y-98837487D01*
X154547722Y-98823905D01*
X154523279Y-98807651D01*
X154496015Y-98789262D01*
X154467829Y-98770017D01*
X154438593Y-98750073D01*
X154411345Y-98731744D01*
X154386916Y-98715571D01*
X154366139Y-98702093D01*
X154349847Y-98691852D01*
X154338873Y-98685386D01*
X154334110Y-98683233D01*
X154327922Y-98685167D01*
X154315846Y-98690488D01*
X154299397Y-98698476D01*
X154280093Y-98708409D01*
X154271225Y-98713135D01*
X154249933Y-98724189D01*
X154231362Y-98733046D01*
X154216910Y-98739085D01*
X154207980Y-98741687D01*
X154206620Y-98741710D01*
X154204463Y-98740548D01*
X154201662Y-98737277D01*
X154197989Y-98731384D01*
X154193215Y-98722356D01*
X154187112Y-98709678D01*
X154179451Y-98692838D01*
X154170003Y-98671321D01*
X154158541Y-98644614D01*
X154144837Y-98612204D01*
X154128660Y-98573577D01*
X154109784Y-98528219D01*
X154087979Y-98475616D01*
X154084151Y-98466366D01*
X154065315Y-98420673D01*
X154047526Y-98377185D01*
X154031040Y-98336546D01*
X154016111Y-98299399D01*
X154002994Y-98266388D01*
X153991943Y-98238158D01*
X153983214Y-98215353D01*
X153977060Y-98198617D01*
X153973737Y-98188593D01*
X153973234Y-98185908D01*
X153977557Y-98180981D01*
X153987369Y-98172589D01*
X154001128Y-98161986D01*
X154014411Y-98152424D01*
X154049540Y-98126542D01*
X154078228Y-98102093D01*
X154101936Y-98077469D01*
X154122127Y-98051064D01*
X154140262Y-98021273D01*
X154149153Y-98004332D01*
X154169064Y-97955641D01*
X154180997Y-97905365D01*
X154185083Y-97854361D01*
X154181453Y-97803482D01*
X154170236Y-97753583D01*
X154151564Y-97705518D01*
X154125566Y-97660142D01*
X154092373Y-97618310D01*
X154089820Y-97615576D01*
X154050115Y-97579261D01*
X154005774Y-97549752D01*
X153956228Y-97526696D01*
X153932317Y-97518406D01*
X153918378Y-97514379D01*
X153905238Y-97511593D01*
X153890812Y-97509832D01*
X153873015Y-97508878D01*
X153849761Y-97508513D01*
X153837217Y-97508483D01*
X153810863Y-97508659D01*
X153790880Y-97509330D01*
X153775178Y-97510715D01*
X153761664Y-97513031D01*
X153748249Y-97516497D01*
X153741967Y-97518402D01*
X153690305Y-97538738D01*
X153643401Y-97565808D01*
X153601741Y-97599203D01*
X153565812Y-97638511D01*
X153536101Y-97683323D01*
X153527874Y-97698983D01*
X153510731Y-97738031D01*
X153499462Y-97775005D01*
X153493317Y-97813103D01*
X153491539Y-97853500D01*
X153495589Y-97907724D01*
X153507594Y-97959454D01*
X153527340Y-98008159D01*
X153554614Y-98053306D01*
X153588396Y-98093546D01*
X153603550Y-98107709D01*
X153623236Y-98124226D01*
X153644890Y-98141110D01*
X153665953Y-98156373D01*
X153683862Y-98168028D01*
X153686049Y-98169303D01*
X153695793Y-98176721D01*
X153701660Y-98184620D01*
X153702037Y-98185774D01*
X153700827Y-98191335D01*
X153696467Y-98204261D01*
X153689127Y-98224126D01*
X153678973Y-98250505D01*
X153666173Y-98282973D01*
X153650894Y-98321103D01*
X153633305Y-98364471D01*
X153613572Y-98412651D01*
X153594040Y-98459966D01*
X153575350Y-98505051D01*
X153557528Y-98547972D01*
X153540853Y-98588066D01*
X153525599Y-98624671D01*
X153512045Y-98657124D01*
X153500468Y-98684761D01*
X153491145Y-98706922D01*
X153484352Y-98722941D01*
X153480366Y-98732158D01*
X153479478Y-98734074D01*
X153472617Y-98740831D01*
X153466943Y-98742500D01*
X153460515Y-98740562D01*
X153448221Y-98735229D01*
X153431592Y-98727223D01*
X153412159Y-98717264D01*
X153403135Y-98712460D01*
X153378295Y-98699560D01*
X153358697Y-98690391D01*
X153344996Y-98685239D01*
X153338285Y-98684264D01*
X153332333Y-98687124D01*
X153320548Y-98694150D01*
X153304024Y-98704638D01*
X153283855Y-98717887D01*
X153261134Y-98733193D01*
X153246667Y-98743117D01*
X153207569Y-98770085D01*
X153174836Y-98792579D01*
X153147893Y-98810977D01*
X153126167Y-98825655D01*
X153109084Y-98836991D01*
X153096069Y-98845363D01*
X153086549Y-98851148D01*
X153079949Y-98854724D01*
X153075695Y-98856467D01*
X153073756Y-98856800D01*
X153069368Y-98853899D01*
X153059713Y-98845632D01*
X153045483Y-98832647D01*
X153027368Y-98815598D01*
X153006057Y-98795134D01*
X152982240Y-98771906D01*
X152956608Y-98746564D01*
X152951542Y-98741518D01*
X152925713Y-98715625D01*
X152901776Y-98691385D01*
X152880397Y-98669494D01*
X152862247Y-98650645D01*
X152847994Y-98635536D01*
X152838306Y-98624860D01*
X152833851Y-98619313D01*
X152833656Y-98618911D01*
X152832906Y-98616430D01*
X152832644Y-98613894D01*
X152833296Y-98610617D01*
X152835288Y-98605910D01*
X152839048Y-98599087D01*
X152845000Y-98589460D01*
X152853571Y-98576342D01*
X152865188Y-98559046D01*
X152880277Y-98536883D01*
X152899263Y-98509168D01*
X152922575Y-98475211D01*
X152924696Y-98472122D01*
X152944401Y-98443254D01*
X152962488Y-98416432D01*
X152978411Y-98392489D01*
X152991626Y-98372257D01*
X153001588Y-98356571D01*
X153007751Y-98346265D01*
X153009600Y-98342291D01*
X153008076Y-98336959D01*
X153003758Y-98324780D01*
X152997029Y-98306755D01*
X152988269Y-98283887D01*
X152977860Y-98257178D01*
X152966184Y-98227628D01*
X152960345Y-98212989D01*
X152945564Y-98176328D01*
X152933438Y-98146942D01*
X152923663Y-98124172D01*
X152915938Y-98107360D01*
X152909961Y-98095845D01*
X152905429Y-98088971D01*
X152902137Y-98086116D01*
X152896005Y-98084501D01*
X152882547Y-98081574D01*
X152862769Y-98077535D01*
X152837676Y-98072583D01*
X152808274Y-98066915D01*
X152775569Y-98060731D01*
X152743367Y-98054745D01*
X152708667Y-98048247D01*
X152676491Y-98042029D01*
X152647817Y-98036294D01*
X152623625Y-98031248D01*
X152604892Y-98027093D01*
X152592599Y-98024034D01*
X152587792Y-98022343D01*
X152586295Y-98019700D01*
X152585068Y-98014018D01*
X152584088Y-98004576D01*
X152583331Y-97990657D01*
X152582772Y-97971543D01*
X152582388Y-97946514D01*
X152582155Y-97914851D01*
X152582047Y-97875837D01*
X152582033Y-97850962D01*
X152582033Y-97684362D01*
X152591558Y-97678485D01*
X152597798Y-97676400D01*
X152611381Y-97673043D01*
X152631313Y-97668622D01*
X152656602Y-97663343D01*
X152686253Y-97657415D01*
X152719274Y-97651043D01*
X152754672Y-97644436D01*
X152755600Y-97644265D01*
X152790830Y-97637692D01*
X152823523Y-97631379D01*
X152852721Y-97625527D01*
X152877463Y-97620338D01*
X152896792Y-97616014D01*
X152909747Y-97612756D01*
X152915370Y-97610764D01*
X152915437Y-97610705D01*
X152918509Y-97605484D01*
X152924285Y-97593655D01*
X152932248Y-97576424D01*
X152941879Y-97554994D01*
X152952659Y-97530572D01*
X152964070Y-97504362D01*
X152975593Y-97477569D01*
X152986710Y-97451398D01*
X152996901Y-97427054D01*
X153005650Y-97405743D01*
X153012436Y-97388669D01*
X153016741Y-97377038D01*
X153018066Y-97372229D01*
X153015740Y-97367379D01*
X153009109Y-97356377D01*
X152998700Y-97340024D01*
X152985037Y-97319123D01*
X152968645Y-97294474D01*
X152950050Y-97266881D01*
X152929776Y-97237144D01*
X152926552Y-97232446D01*
X152905973Y-97202348D01*
X152886896Y-97174192D01*
X152869861Y-97148795D01*
X152855410Y-97126974D01*
X152844082Y-97109546D01*
X152836419Y-97097330D01*
X152832962Y-97091142D01*
X152832844Y-97090804D01*
X152833478Y-97087383D01*
X152836945Y-97081623D01*
X152843698Y-97073029D01*
X152854188Y-97061107D01*
X152868868Y-97045362D01*
X152888190Y-97025298D01*
X152912607Y-97000422D01*
X152942570Y-96970238D01*
X152948600Y-96964191D01*
X152978615Y-96934308D01*
X153005397Y-96908049D01*
X153028490Y-96885843D01*
X153047439Y-96868118D01*
X153061786Y-96855301D01*
X153071078Y-96847821D01*
X153074538Y-96845967D01*
X153079733Y-96848294D01*
X153091064Y-96854923D01*
X153107711Y-96865325D01*
X153128857Y-96878972D01*
X153153684Y-96895335D01*
X153181372Y-96913885D01*
X153211105Y-96934093D01*
X153214339Y-96936308D01*
X153244350Y-96956840D01*
X153272452Y-96975995D01*
X153297811Y-96993211D01*
X153319596Y-97007925D01*
X153336974Y-97019576D01*
X153349113Y-97027601D01*
X153355180Y-97031439D01*
X153355393Y-97031556D01*
X153359104Y-97032684D01*
X153364549Y-97032521D01*
X153372649Y-97030759D01*
X153384324Y-97027095D01*
X153400493Y-97021223D01*
X153422077Y-97012837D01*
X153449997Y-97001631D01*
X153469693Y-96993624D01*
X153504572Y-96979384D01*
X153532423Y-96967936D01*
X153554067Y-96958885D01*
X153570320Y-96951838D01*
X153582001Y-96946402D01*
X153589929Y-96942184D01*
X153594922Y-96938788D01*
X153597797Y-96935823D01*
X153599373Y-96932895D01*
X153600054Y-96930934D01*
X153601400Y-96925014D01*
X153604094Y-96911738D01*
X153607950Y-96892079D01*
X153612781Y-96867008D01*
X153618398Y-96837495D01*
X153624617Y-96804513D01*
X153631249Y-96769032D01*
X153631929Y-96765374D01*
X153638643Y-96729801D01*
X153645074Y-96696733D01*
X153651020Y-96667122D01*
X153656283Y-96641923D01*
X153660663Y-96622090D01*
X153663961Y-96608577D01*
X153665976Y-96602337D01*
X153666110Y-96602136D01*
X153668635Y-96600598D01*
X153673902Y-96599340D01*
X153682653Y-96598339D01*
X153695627Y-96597568D01*
X153713566Y-96597001D01*
X153737210Y-96596614D01*
X153767299Y-96596380D01*
X153804575Y-96596275D01*
X153836677Y-96596265D01*
X153873455Y-96596365D01*
D12*
X150728750Y-99269250D02*
X150728750Y-98481750D01*
X151122500Y-98875500D02*
X150335000Y-98875500D01*
X150095000Y-94682437D02*
X149030563Y-93618000D01*
X150095000Y-99373563D02*
X149030563Y-100438000D01*
X150095000Y-99373563D02*
X150095000Y-98088000D01*
X150095000Y-94682437D02*
X150095000Y-95968000D01*
X149030563Y-93618000D02*
X143275000Y-93618000D01*
X149030563Y-100438000D02*
X143275000Y-100438000D01*
X143275000Y-100438000D02*
X143275000Y-98088000D01*
X143275000Y-93618000D02*
X143275000Y-95968000D01*
X142449000Y-88211000D02*
X142049000Y-88211000D01*
X142449000Y-88851000D02*
X142449000Y-88211000D01*
X136429000Y-95191000D02*
X136429000Y-88451000D01*
X142209000Y-95191000D02*
X142209000Y-88451000D01*
X142209000Y-88451000D02*
X136429000Y-88451000D01*
X142209000Y-95191000D02*
X136429000Y-95191000D01*
X142209000Y-94071000D02*
X136429000Y-94071000D01*
X142209000Y-88971000D02*
X136429000Y-88971000D01*
X137576779Y-96010000D02*
X137251221Y-96010000D01*
X137576779Y-97030000D02*
X137251221Y-97030000D01*
X136354000Y-98965000D02*
X136354000Y-98030000D01*
X136354000Y-98030000D02*
X137414000Y-98030000D01*
X136354000Y-108645000D02*
X140474000Y-108645000D01*
X140474000Y-108645000D02*
X140474000Y-102175000D01*
X136354000Y-102175000D02*
X140474000Y-102175000D01*
X136354000Y-108645000D02*
X136354000Y-102175000D01*
X138414000Y-108645000D02*
X138414000Y-102175000D01*
X139774000Y-100102083D02*
X139774000Y-99827917D01*
X139774000Y-102175000D02*
X139774000Y-101827917D01*
X139054000Y-100102083D02*
X139054000Y-99827917D01*
X139054000Y-102175000D02*
X139054000Y-101827917D01*
X137774000Y-100102083D02*
X137774000Y-99900000D01*
X137774000Y-102175000D02*
X137774000Y-101827917D01*
X137054000Y-100102083D02*
X137054000Y-99900000D01*
X137054000Y-102175000D02*
X137054000Y-101827917D01*
X138299888Y-108645000D02*
X138299888Y-102175000D01*
X138185770Y-108645000D02*
X138185770Y-102175000D01*
X138071652Y-108645000D02*
X138071652Y-102175000D01*
X137957534Y-108645000D02*
X137957534Y-102175000D01*
X137843416Y-108645000D02*
X137843416Y-102175000D01*
X137729298Y-108645000D02*
X137729298Y-102175000D01*
X137615180Y-108645000D02*
X137615180Y-102175000D01*
X137501062Y-108645000D02*
X137501062Y-102175000D01*
X137386944Y-108645000D02*
X137386944Y-102175000D01*
X137272826Y-108645000D02*
X137272826Y-102175000D01*
X137158708Y-108645000D02*
X137158708Y-102175000D01*
X137044590Y-108645000D02*
X137044590Y-102175000D01*
X136930472Y-108645000D02*
X136930472Y-102175000D01*
X136816354Y-108645000D02*
X136816354Y-102175000D01*
X136702236Y-108645000D02*
X136702236Y-102175000D01*
X136588118Y-108645000D02*
X136588118Y-102175000D01*
X136474000Y-108645000D02*
X136474000Y-102175000D01*
X135164000Y-99135000D02*
X135164000Y-100635000D01*
X135164000Y-100635000D02*
X127904000Y-100635000D01*
X135164000Y-91135000D02*
X127904000Y-91135000D01*
X135164000Y-91135000D02*
X135164000Y-92635000D01*
D10*
X150701828Y-95710828D02*
X150677638Y-95735019D01*
X150605066Y-95759209D01*
X150556685Y-95759209D01*
X150484114Y-95735019D01*
X150435733Y-95686638D01*
X150411542Y-95638257D01*
X150387352Y-95541495D01*
X150387352Y-95468923D01*
X150411542Y-95372161D01*
X150435733Y-95323780D01*
X150484114Y-95275400D01*
X150556685Y-95251209D01*
X150605066Y-95251209D01*
X150677638Y-95275400D01*
X150701828Y-95299590D01*
X151185638Y-95759209D02*
X150895352Y-95759209D01*
X151040495Y-95759209D02*
X151040495Y-95251209D01*
X150992114Y-95323780D01*
X150943733Y-95372161D01*
X150895352Y-95396352D01*
X151500114Y-95251209D02*
X151548495Y-95251209D01*
X151596876Y-95275400D01*
X151621066Y-95299590D01*
X151645257Y-95347971D01*
X151669447Y-95444733D01*
X151669447Y-95565685D01*
X151645257Y-95662447D01*
X151621066Y-95710828D01*
X151596876Y-95735019D01*
X151548495Y-95759209D01*
X151500114Y-95759209D01*
X151451733Y-95735019D01*
X151427542Y-95710828D01*
X151403352Y-95662447D01*
X151379161Y-95565685D01*
X151379161Y-95444733D01*
X151403352Y-95347971D01*
X151427542Y-95299590D01*
X151451733Y-95275400D01*
X151500114Y-95251209D01*
X140876866Y-95403609D02*
X140876866Y-95766466D01*
X140852676Y-95839038D01*
X140804295Y-95887419D01*
X140731723Y-95911609D01*
X140683342Y-95911609D01*
X141094580Y-95451990D02*
X141118771Y-95427800D01*
X141167152Y-95403609D01*
X141288104Y-95403609D01*
X141336485Y-95427800D01*
X141360676Y-95451990D01*
X141384866Y-95500371D01*
X141384866Y-95548752D01*
X141360676Y-95621323D01*
X141070390Y-95911609D01*
X141384866Y-95911609D01*
X139361333Y-96826009D02*
X139192000Y-96584104D01*
X139071047Y-96826009D02*
X139071047Y-96318009D01*
X139264571Y-96318009D01*
X139312952Y-96342200D01*
X139337142Y-96366390D01*
X139361333Y-96414771D01*
X139361333Y-96487342D01*
X139337142Y-96535723D01*
X139312952Y-96559914D01*
X139264571Y-96584104D01*
X139071047Y-96584104D01*
X139530666Y-96318009D02*
X139869333Y-96318009D01*
X139651619Y-96826009D01*
X140546666Y-99772409D02*
X140546666Y-100135266D01*
X140522476Y-100207838D01*
X140474095Y-100256219D01*
X140401523Y-100280409D01*
X140353142Y-100280409D01*
X140740190Y-99772409D02*
X141054666Y-99772409D01*
X140885333Y-99965933D01*
X140957904Y-99965933D01*
X141006285Y-99990123D01*
X141030476Y-100014314D01*
X141054666Y-100062695D01*
X141054666Y-100183647D01*
X141030476Y-100232028D01*
X141006285Y-100256219D01*
X140957904Y-100280409D01*
X140812761Y-100280409D01*
X140764380Y-100256219D01*
X140740190Y-100232028D01*
X130615266Y-100915409D02*
X130615266Y-101278266D01*
X130591076Y-101350838D01*
X130542695Y-101399219D01*
X130470123Y-101423409D01*
X130421742Y-101423409D01*
X131123266Y-101423409D02*
X130832980Y-101423409D01*
X130978123Y-101423409D02*
X130978123Y-100915409D01*
X130929742Y-100987980D01*
X130881361Y-101036361D01*
X130832980Y-101060552D01*
M02*
