G04 #@! TF.GenerationSoftware,KiCad,Pcbnew,(5.1.0-47-g8a7e501fe)*
G04 #@! TF.CreationDate,2019-04-01T01:15:26-05:00*
G04 #@! TF.ProjectId,usb_c_wien_bridge,7573625f-635f-4776-9965-6e5f62726964,0.1a*
G04 #@! TF.SameCoordinates,Original*
G04 #@! TF.FileFunction,Copper,L2,Bot*
G04 #@! TF.FilePolarity,Positive*
%FSLAX46Y46*%
G04 Gerber Fmt 4.6, Leading zero omitted, Abs format (unit mm)*
G04 Created by KiCad (PCBNEW (5.1.0-47-g8a7e501fe)) date 2019-04-01 01:15:26*
%MOMM*%
%LPD*%
G04 APERTURE LIST*
%ADD10C,0.100000*%
%ADD11C,0.950000*%
%ADD12C,0.875000*%
%ADD13C,2.100000*%
%ADD14R,2.100000X2.100000*%
%ADD15R,1.450000X0.450000*%
%ADD16R,1.060000X0.650000*%
%ADD17O,1.350000X1.350000*%
%ADD18R,1.350000X1.350000*%
%ADD19O,1.400000X0.800000*%
%ADD20C,0.609600*%
%ADD21C,0.457200*%
%ADD22C,0.304800*%
%ADD23C,0.254000*%
G04 APERTURE END LIST*
D10*
G36*
X149231779Y-99919144D02*
G01*
X149254834Y-99922563D01*
X149277443Y-99928227D01*
X149299387Y-99936079D01*
X149320457Y-99946044D01*
X149340448Y-99958026D01*
X149359168Y-99971910D01*
X149376438Y-99987562D01*
X149392090Y-100004832D01*
X149405974Y-100023552D01*
X149417956Y-100043543D01*
X149427921Y-100064613D01*
X149435773Y-100086557D01*
X149441437Y-100109166D01*
X149444856Y-100132221D01*
X149446000Y-100155500D01*
X149446000Y-100730500D01*
X149444856Y-100753779D01*
X149441437Y-100776834D01*
X149435773Y-100799443D01*
X149427921Y-100821387D01*
X149417956Y-100842457D01*
X149405974Y-100862448D01*
X149392090Y-100881168D01*
X149376438Y-100898438D01*
X149359168Y-100914090D01*
X149340448Y-100927974D01*
X149320457Y-100939956D01*
X149299387Y-100949921D01*
X149277443Y-100957773D01*
X149254834Y-100963437D01*
X149231779Y-100966856D01*
X149208500Y-100968000D01*
X148733500Y-100968000D01*
X148710221Y-100966856D01*
X148687166Y-100963437D01*
X148664557Y-100957773D01*
X148642613Y-100949921D01*
X148621543Y-100939956D01*
X148601552Y-100927974D01*
X148582832Y-100914090D01*
X148565562Y-100898438D01*
X148549910Y-100881168D01*
X148536026Y-100862448D01*
X148524044Y-100842457D01*
X148514079Y-100821387D01*
X148506227Y-100799443D01*
X148500563Y-100776834D01*
X148497144Y-100753779D01*
X148496000Y-100730500D01*
X148496000Y-100155500D01*
X148497144Y-100132221D01*
X148500563Y-100109166D01*
X148506227Y-100086557D01*
X148514079Y-100064613D01*
X148524044Y-100043543D01*
X148536026Y-100023552D01*
X148549910Y-100004832D01*
X148565562Y-99987562D01*
X148582832Y-99971910D01*
X148601552Y-99958026D01*
X148621543Y-99946044D01*
X148642613Y-99936079D01*
X148664557Y-99928227D01*
X148687166Y-99922563D01*
X148710221Y-99919144D01*
X148733500Y-99918000D01*
X149208500Y-99918000D01*
X149231779Y-99919144D01*
X149231779Y-99919144D01*
G37*
D11*
X148971000Y-100443000D03*
D10*
G36*
X149231779Y-98169144D02*
G01*
X149254834Y-98172563D01*
X149277443Y-98178227D01*
X149299387Y-98186079D01*
X149320457Y-98196044D01*
X149340448Y-98208026D01*
X149359168Y-98221910D01*
X149376438Y-98237562D01*
X149392090Y-98254832D01*
X149405974Y-98273552D01*
X149417956Y-98293543D01*
X149427921Y-98314613D01*
X149435773Y-98336557D01*
X149441437Y-98359166D01*
X149444856Y-98382221D01*
X149446000Y-98405500D01*
X149446000Y-98980500D01*
X149444856Y-99003779D01*
X149441437Y-99026834D01*
X149435773Y-99049443D01*
X149427921Y-99071387D01*
X149417956Y-99092457D01*
X149405974Y-99112448D01*
X149392090Y-99131168D01*
X149376438Y-99148438D01*
X149359168Y-99164090D01*
X149340448Y-99177974D01*
X149320457Y-99189956D01*
X149299387Y-99199921D01*
X149277443Y-99207773D01*
X149254834Y-99213437D01*
X149231779Y-99216856D01*
X149208500Y-99218000D01*
X148733500Y-99218000D01*
X148710221Y-99216856D01*
X148687166Y-99213437D01*
X148664557Y-99207773D01*
X148642613Y-99199921D01*
X148621543Y-99189956D01*
X148601552Y-99177974D01*
X148582832Y-99164090D01*
X148565562Y-99148438D01*
X148549910Y-99131168D01*
X148536026Y-99112448D01*
X148524044Y-99092457D01*
X148514079Y-99071387D01*
X148506227Y-99049443D01*
X148500563Y-99026834D01*
X148497144Y-99003779D01*
X148496000Y-98980500D01*
X148496000Y-98405500D01*
X148497144Y-98382221D01*
X148500563Y-98359166D01*
X148506227Y-98336557D01*
X148514079Y-98314613D01*
X148524044Y-98293543D01*
X148536026Y-98273552D01*
X148549910Y-98254832D01*
X148565562Y-98237562D01*
X148582832Y-98221910D01*
X148601552Y-98208026D01*
X148621543Y-98196044D01*
X148642613Y-98186079D01*
X148664557Y-98178227D01*
X148687166Y-98172563D01*
X148710221Y-98169144D01*
X148733500Y-98168000D01*
X149208500Y-98168000D01*
X149231779Y-98169144D01*
X149231779Y-98169144D01*
G37*
D11*
X148971000Y-98693000D03*
D10*
G36*
X128657779Y-93992144D02*
G01*
X128680834Y-93995563D01*
X128703443Y-94001227D01*
X128725387Y-94009079D01*
X128746457Y-94019044D01*
X128766448Y-94031026D01*
X128785168Y-94044910D01*
X128802438Y-94060562D01*
X128818090Y-94077832D01*
X128831974Y-94096552D01*
X128843956Y-94116543D01*
X128853921Y-94137613D01*
X128861773Y-94159557D01*
X128867437Y-94182166D01*
X128870856Y-94205221D01*
X128872000Y-94228500D01*
X128872000Y-94803500D01*
X128870856Y-94826779D01*
X128867437Y-94849834D01*
X128861773Y-94872443D01*
X128853921Y-94894387D01*
X128843956Y-94915457D01*
X128831974Y-94935448D01*
X128818090Y-94954168D01*
X128802438Y-94971438D01*
X128785168Y-94987090D01*
X128766448Y-95000974D01*
X128746457Y-95012956D01*
X128725387Y-95022921D01*
X128703443Y-95030773D01*
X128680834Y-95036437D01*
X128657779Y-95039856D01*
X128634500Y-95041000D01*
X128159500Y-95041000D01*
X128136221Y-95039856D01*
X128113166Y-95036437D01*
X128090557Y-95030773D01*
X128068613Y-95022921D01*
X128047543Y-95012956D01*
X128027552Y-95000974D01*
X128008832Y-94987090D01*
X127991562Y-94971438D01*
X127975910Y-94954168D01*
X127962026Y-94935448D01*
X127950044Y-94915457D01*
X127940079Y-94894387D01*
X127932227Y-94872443D01*
X127926563Y-94849834D01*
X127923144Y-94826779D01*
X127922000Y-94803500D01*
X127922000Y-94228500D01*
X127923144Y-94205221D01*
X127926563Y-94182166D01*
X127932227Y-94159557D01*
X127940079Y-94137613D01*
X127950044Y-94116543D01*
X127962026Y-94096552D01*
X127975910Y-94077832D01*
X127991562Y-94060562D01*
X128008832Y-94044910D01*
X128027552Y-94031026D01*
X128047543Y-94019044D01*
X128068613Y-94009079D01*
X128090557Y-94001227D01*
X128113166Y-93995563D01*
X128136221Y-93992144D01*
X128159500Y-93991000D01*
X128634500Y-93991000D01*
X128657779Y-93992144D01*
X128657779Y-93992144D01*
G37*
D11*
X128397000Y-94516000D03*
D10*
G36*
X128657779Y-95742144D02*
G01*
X128680834Y-95745563D01*
X128703443Y-95751227D01*
X128725387Y-95759079D01*
X128746457Y-95769044D01*
X128766448Y-95781026D01*
X128785168Y-95794910D01*
X128802438Y-95810562D01*
X128818090Y-95827832D01*
X128831974Y-95846552D01*
X128843956Y-95866543D01*
X128853921Y-95887613D01*
X128861773Y-95909557D01*
X128867437Y-95932166D01*
X128870856Y-95955221D01*
X128872000Y-95978500D01*
X128872000Y-96553500D01*
X128870856Y-96576779D01*
X128867437Y-96599834D01*
X128861773Y-96622443D01*
X128853921Y-96644387D01*
X128843956Y-96665457D01*
X128831974Y-96685448D01*
X128818090Y-96704168D01*
X128802438Y-96721438D01*
X128785168Y-96737090D01*
X128766448Y-96750974D01*
X128746457Y-96762956D01*
X128725387Y-96772921D01*
X128703443Y-96780773D01*
X128680834Y-96786437D01*
X128657779Y-96789856D01*
X128634500Y-96791000D01*
X128159500Y-96791000D01*
X128136221Y-96789856D01*
X128113166Y-96786437D01*
X128090557Y-96780773D01*
X128068613Y-96772921D01*
X128047543Y-96762956D01*
X128027552Y-96750974D01*
X128008832Y-96737090D01*
X127991562Y-96721438D01*
X127975910Y-96704168D01*
X127962026Y-96685448D01*
X127950044Y-96665457D01*
X127940079Y-96644387D01*
X127932227Y-96622443D01*
X127926563Y-96599834D01*
X127923144Y-96576779D01*
X127922000Y-96553500D01*
X127922000Y-95978500D01*
X127923144Y-95955221D01*
X127926563Y-95932166D01*
X127932227Y-95909557D01*
X127940079Y-95887613D01*
X127950044Y-95866543D01*
X127962026Y-95846552D01*
X127975910Y-95827832D01*
X127991562Y-95810562D01*
X128008832Y-95794910D01*
X128027552Y-95781026D01*
X128047543Y-95769044D01*
X128068613Y-95759079D01*
X128090557Y-95751227D01*
X128113166Y-95745563D01*
X128136221Y-95742144D01*
X128159500Y-95741000D01*
X128634500Y-95741000D01*
X128657779Y-95742144D01*
X128657779Y-95742144D01*
G37*
D11*
X128397000Y-96266000D03*
D10*
G36*
X147580779Y-99919144D02*
G01*
X147603834Y-99922563D01*
X147626443Y-99928227D01*
X147648387Y-99936079D01*
X147669457Y-99946044D01*
X147689448Y-99958026D01*
X147708168Y-99971910D01*
X147725438Y-99987562D01*
X147741090Y-100004832D01*
X147754974Y-100023552D01*
X147766956Y-100043543D01*
X147776921Y-100064613D01*
X147784773Y-100086557D01*
X147790437Y-100109166D01*
X147793856Y-100132221D01*
X147795000Y-100155500D01*
X147795000Y-100730500D01*
X147793856Y-100753779D01*
X147790437Y-100776834D01*
X147784773Y-100799443D01*
X147776921Y-100821387D01*
X147766956Y-100842457D01*
X147754974Y-100862448D01*
X147741090Y-100881168D01*
X147725438Y-100898438D01*
X147708168Y-100914090D01*
X147689448Y-100927974D01*
X147669457Y-100939956D01*
X147648387Y-100949921D01*
X147626443Y-100957773D01*
X147603834Y-100963437D01*
X147580779Y-100966856D01*
X147557500Y-100968000D01*
X147082500Y-100968000D01*
X147059221Y-100966856D01*
X147036166Y-100963437D01*
X147013557Y-100957773D01*
X146991613Y-100949921D01*
X146970543Y-100939956D01*
X146950552Y-100927974D01*
X146931832Y-100914090D01*
X146914562Y-100898438D01*
X146898910Y-100881168D01*
X146885026Y-100862448D01*
X146873044Y-100842457D01*
X146863079Y-100821387D01*
X146855227Y-100799443D01*
X146849563Y-100776834D01*
X146846144Y-100753779D01*
X146845000Y-100730500D01*
X146845000Y-100155500D01*
X146846144Y-100132221D01*
X146849563Y-100109166D01*
X146855227Y-100086557D01*
X146863079Y-100064613D01*
X146873044Y-100043543D01*
X146885026Y-100023552D01*
X146898910Y-100004832D01*
X146914562Y-99987562D01*
X146931832Y-99971910D01*
X146950552Y-99958026D01*
X146970543Y-99946044D01*
X146991613Y-99936079D01*
X147013557Y-99928227D01*
X147036166Y-99922563D01*
X147059221Y-99919144D01*
X147082500Y-99918000D01*
X147557500Y-99918000D01*
X147580779Y-99919144D01*
X147580779Y-99919144D01*
G37*
D11*
X147320000Y-100443000D03*
D10*
G36*
X147580779Y-98169144D02*
G01*
X147603834Y-98172563D01*
X147626443Y-98178227D01*
X147648387Y-98186079D01*
X147669457Y-98196044D01*
X147689448Y-98208026D01*
X147708168Y-98221910D01*
X147725438Y-98237562D01*
X147741090Y-98254832D01*
X147754974Y-98273552D01*
X147766956Y-98293543D01*
X147776921Y-98314613D01*
X147784773Y-98336557D01*
X147790437Y-98359166D01*
X147793856Y-98382221D01*
X147795000Y-98405500D01*
X147795000Y-98980500D01*
X147793856Y-99003779D01*
X147790437Y-99026834D01*
X147784773Y-99049443D01*
X147776921Y-99071387D01*
X147766956Y-99092457D01*
X147754974Y-99112448D01*
X147741090Y-99131168D01*
X147725438Y-99148438D01*
X147708168Y-99164090D01*
X147689448Y-99177974D01*
X147669457Y-99189956D01*
X147648387Y-99199921D01*
X147626443Y-99207773D01*
X147603834Y-99213437D01*
X147580779Y-99216856D01*
X147557500Y-99218000D01*
X147082500Y-99218000D01*
X147059221Y-99216856D01*
X147036166Y-99213437D01*
X147013557Y-99207773D01*
X146991613Y-99199921D01*
X146970543Y-99189956D01*
X146950552Y-99177974D01*
X146931832Y-99164090D01*
X146914562Y-99148438D01*
X146898910Y-99131168D01*
X146885026Y-99112448D01*
X146873044Y-99092457D01*
X146863079Y-99071387D01*
X146855227Y-99049443D01*
X146849563Y-99026834D01*
X146846144Y-99003779D01*
X146845000Y-98980500D01*
X146845000Y-98405500D01*
X146846144Y-98382221D01*
X146849563Y-98359166D01*
X146855227Y-98336557D01*
X146863079Y-98314613D01*
X146873044Y-98293543D01*
X146885026Y-98273552D01*
X146898910Y-98254832D01*
X146914562Y-98237562D01*
X146931832Y-98221910D01*
X146950552Y-98208026D01*
X146970543Y-98196044D01*
X146991613Y-98186079D01*
X147013557Y-98178227D01*
X147036166Y-98172563D01*
X147059221Y-98169144D01*
X147082500Y-98168000D01*
X147557500Y-98168000D01*
X147580779Y-98169144D01*
X147580779Y-98169144D01*
G37*
D11*
X147320000Y-98693000D03*
D10*
G36*
X129182691Y-99030053D02*
G01*
X129203926Y-99033203D01*
X129224750Y-99038419D01*
X129244962Y-99045651D01*
X129264368Y-99054830D01*
X129282781Y-99065866D01*
X129300024Y-99078654D01*
X129315930Y-99093070D01*
X129330346Y-99108976D01*
X129343134Y-99126219D01*
X129354170Y-99144632D01*
X129363349Y-99164038D01*
X129370581Y-99184250D01*
X129375797Y-99205074D01*
X129378947Y-99226309D01*
X129380000Y-99247750D01*
X129380000Y-99685250D01*
X129378947Y-99706691D01*
X129375797Y-99727926D01*
X129370581Y-99748750D01*
X129363349Y-99768962D01*
X129354170Y-99788368D01*
X129343134Y-99806781D01*
X129330346Y-99824024D01*
X129315930Y-99839930D01*
X129300024Y-99854346D01*
X129282781Y-99867134D01*
X129264368Y-99878170D01*
X129244962Y-99887349D01*
X129224750Y-99894581D01*
X129203926Y-99899797D01*
X129182691Y-99902947D01*
X129161250Y-99904000D01*
X128648750Y-99904000D01*
X128627309Y-99902947D01*
X128606074Y-99899797D01*
X128585250Y-99894581D01*
X128565038Y-99887349D01*
X128545632Y-99878170D01*
X128527219Y-99867134D01*
X128509976Y-99854346D01*
X128494070Y-99839930D01*
X128479654Y-99824024D01*
X128466866Y-99806781D01*
X128455830Y-99788368D01*
X128446651Y-99768962D01*
X128439419Y-99748750D01*
X128434203Y-99727926D01*
X128431053Y-99706691D01*
X128430000Y-99685250D01*
X128430000Y-99247750D01*
X128431053Y-99226309D01*
X128434203Y-99205074D01*
X128439419Y-99184250D01*
X128446651Y-99164038D01*
X128455830Y-99144632D01*
X128466866Y-99126219D01*
X128479654Y-99108976D01*
X128494070Y-99093070D01*
X128509976Y-99078654D01*
X128527219Y-99065866D01*
X128545632Y-99054830D01*
X128565038Y-99045651D01*
X128585250Y-99038419D01*
X128606074Y-99033203D01*
X128627309Y-99030053D01*
X128648750Y-99029000D01*
X129161250Y-99029000D01*
X129182691Y-99030053D01*
X129182691Y-99030053D01*
G37*
D12*
X128905000Y-99466500D03*
D10*
G36*
X129182691Y-97455053D02*
G01*
X129203926Y-97458203D01*
X129224750Y-97463419D01*
X129244962Y-97470651D01*
X129264368Y-97479830D01*
X129282781Y-97490866D01*
X129300024Y-97503654D01*
X129315930Y-97518070D01*
X129330346Y-97533976D01*
X129343134Y-97551219D01*
X129354170Y-97569632D01*
X129363349Y-97589038D01*
X129370581Y-97609250D01*
X129375797Y-97630074D01*
X129378947Y-97651309D01*
X129380000Y-97672750D01*
X129380000Y-98110250D01*
X129378947Y-98131691D01*
X129375797Y-98152926D01*
X129370581Y-98173750D01*
X129363349Y-98193962D01*
X129354170Y-98213368D01*
X129343134Y-98231781D01*
X129330346Y-98249024D01*
X129315930Y-98264930D01*
X129300024Y-98279346D01*
X129282781Y-98292134D01*
X129264368Y-98303170D01*
X129244962Y-98312349D01*
X129224750Y-98319581D01*
X129203926Y-98324797D01*
X129182691Y-98327947D01*
X129161250Y-98329000D01*
X128648750Y-98329000D01*
X128627309Y-98327947D01*
X128606074Y-98324797D01*
X128585250Y-98319581D01*
X128565038Y-98312349D01*
X128545632Y-98303170D01*
X128527219Y-98292134D01*
X128509976Y-98279346D01*
X128494070Y-98264930D01*
X128479654Y-98249024D01*
X128466866Y-98231781D01*
X128455830Y-98213368D01*
X128446651Y-98193962D01*
X128439419Y-98173750D01*
X128434203Y-98152926D01*
X128431053Y-98131691D01*
X128430000Y-98110250D01*
X128430000Y-97672750D01*
X128431053Y-97651309D01*
X128434203Y-97630074D01*
X128439419Y-97609250D01*
X128446651Y-97589038D01*
X128455830Y-97569632D01*
X128466866Y-97551219D01*
X128479654Y-97533976D01*
X128494070Y-97518070D01*
X128509976Y-97503654D01*
X128527219Y-97490866D01*
X128545632Y-97479830D01*
X128565038Y-97470651D01*
X128585250Y-97463419D01*
X128606074Y-97458203D01*
X128627309Y-97455053D01*
X128648750Y-97454000D01*
X129161250Y-97454000D01*
X129182691Y-97455053D01*
X129182691Y-97455053D01*
G37*
D12*
X128905000Y-97891500D03*
D10*
G36*
X145929779Y-99919144D02*
G01*
X145952834Y-99922563D01*
X145975443Y-99928227D01*
X145997387Y-99936079D01*
X146018457Y-99946044D01*
X146038448Y-99958026D01*
X146057168Y-99971910D01*
X146074438Y-99987562D01*
X146090090Y-100004832D01*
X146103974Y-100023552D01*
X146115956Y-100043543D01*
X146125921Y-100064613D01*
X146133773Y-100086557D01*
X146139437Y-100109166D01*
X146142856Y-100132221D01*
X146144000Y-100155500D01*
X146144000Y-100730500D01*
X146142856Y-100753779D01*
X146139437Y-100776834D01*
X146133773Y-100799443D01*
X146125921Y-100821387D01*
X146115956Y-100842457D01*
X146103974Y-100862448D01*
X146090090Y-100881168D01*
X146074438Y-100898438D01*
X146057168Y-100914090D01*
X146038448Y-100927974D01*
X146018457Y-100939956D01*
X145997387Y-100949921D01*
X145975443Y-100957773D01*
X145952834Y-100963437D01*
X145929779Y-100966856D01*
X145906500Y-100968000D01*
X145431500Y-100968000D01*
X145408221Y-100966856D01*
X145385166Y-100963437D01*
X145362557Y-100957773D01*
X145340613Y-100949921D01*
X145319543Y-100939956D01*
X145299552Y-100927974D01*
X145280832Y-100914090D01*
X145263562Y-100898438D01*
X145247910Y-100881168D01*
X145234026Y-100862448D01*
X145222044Y-100842457D01*
X145212079Y-100821387D01*
X145204227Y-100799443D01*
X145198563Y-100776834D01*
X145195144Y-100753779D01*
X145194000Y-100730500D01*
X145194000Y-100155500D01*
X145195144Y-100132221D01*
X145198563Y-100109166D01*
X145204227Y-100086557D01*
X145212079Y-100064613D01*
X145222044Y-100043543D01*
X145234026Y-100023552D01*
X145247910Y-100004832D01*
X145263562Y-99987562D01*
X145280832Y-99971910D01*
X145299552Y-99958026D01*
X145319543Y-99946044D01*
X145340613Y-99936079D01*
X145362557Y-99928227D01*
X145385166Y-99922563D01*
X145408221Y-99919144D01*
X145431500Y-99918000D01*
X145906500Y-99918000D01*
X145929779Y-99919144D01*
X145929779Y-99919144D01*
G37*
D11*
X145669000Y-100443000D03*
D10*
G36*
X145929779Y-98169144D02*
G01*
X145952834Y-98172563D01*
X145975443Y-98178227D01*
X145997387Y-98186079D01*
X146018457Y-98196044D01*
X146038448Y-98208026D01*
X146057168Y-98221910D01*
X146074438Y-98237562D01*
X146090090Y-98254832D01*
X146103974Y-98273552D01*
X146115956Y-98293543D01*
X146125921Y-98314613D01*
X146133773Y-98336557D01*
X146139437Y-98359166D01*
X146142856Y-98382221D01*
X146144000Y-98405500D01*
X146144000Y-98980500D01*
X146142856Y-99003779D01*
X146139437Y-99026834D01*
X146133773Y-99049443D01*
X146125921Y-99071387D01*
X146115956Y-99092457D01*
X146103974Y-99112448D01*
X146090090Y-99131168D01*
X146074438Y-99148438D01*
X146057168Y-99164090D01*
X146038448Y-99177974D01*
X146018457Y-99189956D01*
X145997387Y-99199921D01*
X145975443Y-99207773D01*
X145952834Y-99213437D01*
X145929779Y-99216856D01*
X145906500Y-99218000D01*
X145431500Y-99218000D01*
X145408221Y-99216856D01*
X145385166Y-99213437D01*
X145362557Y-99207773D01*
X145340613Y-99199921D01*
X145319543Y-99189956D01*
X145299552Y-99177974D01*
X145280832Y-99164090D01*
X145263562Y-99148438D01*
X145247910Y-99131168D01*
X145234026Y-99112448D01*
X145222044Y-99092457D01*
X145212079Y-99071387D01*
X145204227Y-99049443D01*
X145198563Y-99026834D01*
X145195144Y-99003779D01*
X145194000Y-98980500D01*
X145194000Y-98405500D01*
X145195144Y-98382221D01*
X145198563Y-98359166D01*
X145204227Y-98336557D01*
X145212079Y-98314613D01*
X145222044Y-98293543D01*
X145234026Y-98273552D01*
X145247910Y-98254832D01*
X145263562Y-98237562D01*
X145280832Y-98221910D01*
X145299552Y-98208026D01*
X145319543Y-98196044D01*
X145340613Y-98186079D01*
X145362557Y-98178227D01*
X145385166Y-98172563D01*
X145408221Y-98169144D01*
X145431500Y-98168000D01*
X145906500Y-98168000D01*
X145929779Y-98169144D01*
X145929779Y-98169144D01*
G37*
D11*
X145669000Y-98693000D03*
D10*
G36*
X130880779Y-97443144D02*
G01*
X130903834Y-97446563D01*
X130926443Y-97452227D01*
X130948387Y-97460079D01*
X130969457Y-97470044D01*
X130989448Y-97482026D01*
X131008168Y-97495910D01*
X131025438Y-97511562D01*
X131041090Y-97528832D01*
X131054974Y-97547552D01*
X131066956Y-97567543D01*
X131076921Y-97588613D01*
X131084773Y-97610557D01*
X131090437Y-97633166D01*
X131093856Y-97656221D01*
X131095000Y-97679500D01*
X131095000Y-98154500D01*
X131093856Y-98177779D01*
X131090437Y-98200834D01*
X131084773Y-98223443D01*
X131076921Y-98245387D01*
X131066956Y-98266457D01*
X131054974Y-98286448D01*
X131041090Y-98305168D01*
X131025438Y-98322438D01*
X131008168Y-98338090D01*
X130989448Y-98351974D01*
X130969457Y-98363956D01*
X130948387Y-98373921D01*
X130926443Y-98381773D01*
X130903834Y-98387437D01*
X130880779Y-98390856D01*
X130857500Y-98392000D01*
X130282500Y-98392000D01*
X130259221Y-98390856D01*
X130236166Y-98387437D01*
X130213557Y-98381773D01*
X130191613Y-98373921D01*
X130170543Y-98363956D01*
X130150552Y-98351974D01*
X130131832Y-98338090D01*
X130114562Y-98322438D01*
X130098910Y-98305168D01*
X130085026Y-98286448D01*
X130073044Y-98266457D01*
X130063079Y-98245387D01*
X130055227Y-98223443D01*
X130049563Y-98200834D01*
X130046144Y-98177779D01*
X130045000Y-98154500D01*
X130045000Y-97679500D01*
X130046144Y-97656221D01*
X130049563Y-97633166D01*
X130055227Y-97610557D01*
X130063079Y-97588613D01*
X130073044Y-97567543D01*
X130085026Y-97547552D01*
X130098910Y-97528832D01*
X130114562Y-97511562D01*
X130131832Y-97495910D01*
X130150552Y-97482026D01*
X130170543Y-97470044D01*
X130191613Y-97460079D01*
X130213557Y-97452227D01*
X130236166Y-97446563D01*
X130259221Y-97443144D01*
X130282500Y-97442000D01*
X130857500Y-97442000D01*
X130880779Y-97443144D01*
X130880779Y-97443144D01*
G37*
D11*
X130570000Y-97917000D03*
D10*
G36*
X132630779Y-97443144D02*
G01*
X132653834Y-97446563D01*
X132676443Y-97452227D01*
X132698387Y-97460079D01*
X132719457Y-97470044D01*
X132739448Y-97482026D01*
X132758168Y-97495910D01*
X132775438Y-97511562D01*
X132791090Y-97528832D01*
X132804974Y-97547552D01*
X132816956Y-97567543D01*
X132826921Y-97588613D01*
X132834773Y-97610557D01*
X132840437Y-97633166D01*
X132843856Y-97656221D01*
X132845000Y-97679500D01*
X132845000Y-98154500D01*
X132843856Y-98177779D01*
X132840437Y-98200834D01*
X132834773Y-98223443D01*
X132826921Y-98245387D01*
X132816956Y-98266457D01*
X132804974Y-98286448D01*
X132791090Y-98305168D01*
X132775438Y-98322438D01*
X132758168Y-98338090D01*
X132739448Y-98351974D01*
X132719457Y-98363956D01*
X132698387Y-98373921D01*
X132676443Y-98381773D01*
X132653834Y-98387437D01*
X132630779Y-98390856D01*
X132607500Y-98392000D01*
X132032500Y-98392000D01*
X132009221Y-98390856D01*
X131986166Y-98387437D01*
X131963557Y-98381773D01*
X131941613Y-98373921D01*
X131920543Y-98363956D01*
X131900552Y-98351974D01*
X131881832Y-98338090D01*
X131864562Y-98322438D01*
X131848910Y-98305168D01*
X131835026Y-98286448D01*
X131823044Y-98266457D01*
X131813079Y-98245387D01*
X131805227Y-98223443D01*
X131799563Y-98200834D01*
X131796144Y-98177779D01*
X131795000Y-98154500D01*
X131795000Y-97679500D01*
X131796144Y-97656221D01*
X131799563Y-97633166D01*
X131805227Y-97610557D01*
X131813079Y-97588613D01*
X131823044Y-97567543D01*
X131835026Y-97547552D01*
X131848910Y-97528832D01*
X131864562Y-97511562D01*
X131881832Y-97495910D01*
X131900552Y-97482026D01*
X131920543Y-97470044D01*
X131941613Y-97460079D01*
X131963557Y-97452227D01*
X131986166Y-97446563D01*
X132009221Y-97443144D01*
X132032500Y-97442000D01*
X132607500Y-97442000D01*
X132630779Y-97443144D01*
X132630779Y-97443144D01*
G37*
D11*
X132320000Y-97917000D03*
D10*
G36*
X134262691Y-95194553D02*
G01*
X134283926Y-95197703D01*
X134304750Y-95202919D01*
X134324962Y-95210151D01*
X134344368Y-95219330D01*
X134362781Y-95230366D01*
X134380024Y-95243154D01*
X134395930Y-95257570D01*
X134410346Y-95273476D01*
X134423134Y-95290719D01*
X134434170Y-95309132D01*
X134443349Y-95328538D01*
X134450581Y-95348750D01*
X134455797Y-95369574D01*
X134458947Y-95390809D01*
X134460000Y-95412250D01*
X134460000Y-95849750D01*
X134458947Y-95871191D01*
X134455797Y-95892426D01*
X134450581Y-95913250D01*
X134443349Y-95933462D01*
X134434170Y-95952868D01*
X134423134Y-95971281D01*
X134410346Y-95988524D01*
X134395930Y-96004430D01*
X134380024Y-96018846D01*
X134362781Y-96031634D01*
X134344368Y-96042670D01*
X134324962Y-96051849D01*
X134304750Y-96059081D01*
X134283926Y-96064297D01*
X134262691Y-96067447D01*
X134241250Y-96068500D01*
X133728750Y-96068500D01*
X133707309Y-96067447D01*
X133686074Y-96064297D01*
X133665250Y-96059081D01*
X133645038Y-96051849D01*
X133625632Y-96042670D01*
X133607219Y-96031634D01*
X133589976Y-96018846D01*
X133574070Y-96004430D01*
X133559654Y-95988524D01*
X133546866Y-95971281D01*
X133535830Y-95952868D01*
X133526651Y-95933462D01*
X133519419Y-95913250D01*
X133514203Y-95892426D01*
X133511053Y-95871191D01*
X133510000Y-95849750D01*
X133510000Y-95412250D01*
X133511053Y-95390809D01*
X133514203Y-95369574D01*
X133519419Y-95348750D01*
X133526651Y-95328538D01*
X133535830Y-95309132D01*
X133546866Y-95290719D01*
X133559654Y-95273476D01*
X133574070Y-95257570D01*
X133589976Y-95243154D01*
X133607219Y-95230366D01*
X133625632Y-95219330D01*
X133645038Y-95210151D01*
X133665250Y-95202919D01*
X133686074Y-95197703D01*
X133707309Y-95194553D01*
X133728750Y-95193500D01*
X134241250Y-95193500D01*
X134262691Y-95194553D01*
X134262691Y-95194553D01*
G37*
D12*
X133985000Y-95631000D03*
D10*
G36*
X134262691Y-96769553D02*
G01*
X134283926Y-96772703D01*
X134304750Y-96777919D01*
X134324962Y-96785151D01*
X134344368Y-96794330D01*
X134362781Y-96805366D01*
X134380024Y-96818154D01*
X134395930Y-96832570D01*
X134410346Y-96848476D01*
X134423134Y-96865719D01*
X134434170Y-96884132D01*
X134443349Y-96903538D01*
X134450581Y-96923750D01*
X134455797Y-96944574D01*
X134458947Y-96965809D01*
X134460000Y-96987250D01*
X134460000Y-97424750D01*
X134458947Y-97446191D01*
X134455797Y-97467426D01*
X134450581Y-97488250D01*
X134443349Y-97508462D01*
X134434170Y-97527868D01*
X134423134Y-97546281D01*
X134410346Y-97563524D01*
X134395930Y-97579430D01*
X134380024Y-97593846D01*
X134362781Y-97606634D01*
X134344368Y-97617670D01*
X134324962Y-97626849D01*
X134304750Y-97634081D01*
X134283926Y-97639297D01*
X134262691Y-97642447D01*
X134241250Y-97643500D01*
X133728750Y-97643500D01*
X133707309Y-97642447D01*
X133686074Y-97639297D01*
X133665250Y-97634081D01*
X133645038Y-97626849D01*
X133625632Y-97617670D01*
X133607219Y-97606634D01*
X133589976Y-97593846D01*
X133574070Y-97579430D01*
X133559654Y-97563524D01*
X133546866Y-97546281D01*
X133535830Y-97527868D01*
X133526651Y-97508462D01*
X133519419Y-97488250D01*
X133514203Y-97467426D01*
X133511053Y-97446191D01*
X133510000Y-97424750D01*
X133510000Y-96987250D01*
X133511053Y-96965809D01*
X133514203Y-96944574D01*
X133519419Y-96923750D01*
X133526651Y-96903538D01*
X133535830Y-96884132D01*
X133546866Y-96865719D01*
X133559654Y-96848476D01*
X133574070Y-96832570D01*
X133589976Y-96818154D01*
X133607219Y-96805366D01*
X133625632Y-96794330D01*
X133645038Y-96785151D01*
X133665250Y-96777919D01*
X133686074Y-96772703D01*
X133707309Y-96769553D01*
X133728750Y-96768500D01*
X134241250Y-96768500D01*
X134262691Y-96769553D01*
X134262691Y-96769553D01*
G37*
D12*
X133985000Y-97206000D03*
D10*
G36*
X147707779Y-92680144D02*
G01*
X147730834Y-92683563D01*
X147753443Y-92689227D01*
X147775387Y-92697079D01*
X147796457Y-92707044D01*
X147816448Y-92719026D01*
X147835168Y-92732910D01*
X147852438Y-92748562D01*
X147868090Y-92765832D01*
X147881974Y-92784552D01*
X147893956Y-92804543D01*
X147903921Y-92825613D01*
X147911773Y-92847557D01*
X147917437Y-92870166D01*
X147920856Y-92893221D01*
X147922000Y-92916500D01*
X147922000Y-93491500D01*
X147920856Y-93514779D01*
X147917437Y-93537834D01*
X147911773Y-93560443D01*
X147903921Y-93582387D01*
X147893956Y-93603457D01*
X147881974Y-93623448D01*
X147868090Y-93642168D01*
X147852438Y-93659438D01*
X147835168Y-93675090D01*
X147816448Y-93688974D01*
X147796457Y-93700956D01*
X147775387Y-93710921D01*
X147753443Y-93718773D01*
X147730834Y-93724437D01*
X147707779Y-93727856D01*
X147684500Y-93729000D01*
X147209500Y-93729000D01*
X147186221Y-93727856D01*
X147163166Y-93724437D01*
X147140557Y-93718773D01*
X147118613Y-93710921D01*
X147097543Y-93700956D01*
X147077552Y-93688974D01*
X147058832Y-93675090D01*
X147041562Y-93659438D01*
X147025910Y-93642168D01*
X147012026Y-93623448D01*
X147000044Y-93603457D01*
X146990079Y-93582387D01*
X146982227Y-93560443D01*
X146976563Y-93537834D01*
X146973144Y-93514779D01*
X146972000Y-93491500D01*
X146972000Y-92916500D01*
X146973144Y-92893221D01*
X146976563Y-92870166D01*
X146982227Y-92847557D01*
X146990079Y-92825613D01*
X147000044Y-92804543D01*
X147012026Y-92784552D01*
X147025910Y-92765832D01*
X147041562Y-92748562D01*
X147058832Y-92732910D01*
X147077552Y-92719026D01*
X147097543Y-92707044D01*
X147118613Y-92697079D01*
X147140557Y-92689227D01*
X147163166Y-92683563D01*
X147186221Y-92680144D01*
X147209500Y-92679000D01*
X147684500Y-92679000D01*
X147707779Y-92680144D01*
X147707779Y-92680144D01*
G37*
D11*
X147447000Y-93204000D03*
D10*
G36*
X147707779Y-90930144D02*
G01*
X147730834Y-90933563D01*
X147753443Y-90939227D01*
X147775387Y-90947079D01*
X147796457Y-90957044D01*
X147816448Y-90969026D01*
X147835168Y-90982910D01*
X147852438Y-90998562D01*
X147868090Y-91015832D01*
X147881974Y-91034552D01*
X147893956Y-91054543D01*
X147903921Y-91075613D01*
X147911773Y-91097557D01*
X147917437Y-91120166D01*
X147920856Y-91143221D01*
X147922000Y-91166500D01*
X147922000Y-91741500D01*
X147920856Y-91764779D01*
X147917437Y-91787834D01*
X147911773Y-91810443D01*
X147903921Y-91832387D01*
X147893956Y-91853457D01*
X147881974Y-91873448D01*
X147868090Y-91892168D01*
X147852438Y-91909438D01*
X147835168Y-91925090D01*
X147816448Y-91938974D01*
X147796457Y-91950956D01*
X147775387Y-91960921D01*
X147753443Y-91968773D01*
X147730834Y-91974437D01*
X147707779Y-91977856D01*
X147684500Y-91979000D01*
X147209500Y-91979000D01*
X147186221Y-91977856D01*
X147163166Y-91974437D01*
X147140557Y-91968773D01*
X147118613Y-91960921D01*
X147097543Y-91950956D01*
X147077552Y-91938974D01*
X147058832Y-91925090D01*
X147041562Y-91909438D01*
X147025910Y-91892168D01*
X147012026Y-91873448D01*
X147000044Y-91853457D01*
X146990079Y-91832387D01*
X146982227Y-91810443D01*
X146976563Y-91787834D01*
X146973144Y-91764779D01*
X146972000Y-91741500D01*
X146972000Y-91166500D01*
X146973144Y-91143221D01*
X146976563Y-91120166D01*
X146982227Y-91097557D01*
X146990079Y-91075613D01*
X147000044Y-91054543D01*
X147012026Y-91034552D01*
X147025910Y-91015832D01*
X147041562Y-90998562D01*
X147058832Y-90982910D01*
X147077552Y-90969026D01*
X147097543Y-90957044D01*
X147118613Y-90947079D01*
X147140557Y-90939227D01*
X147163166Y-90933563D01*
X147186221Y-90930144D01*
X147209500Y-90929000D01*
X147684500Y-90929000D01*
X147707779Y-90930144D01*
X147707779Y-90930144D01*
G37*
D11*
X147447000Y-91454000D03*
D10*
G36*
X146092779Y-91093144D02*
G01*
X146115834Y-91096563D01*
X146138443Y-91102227D01*
X146160387Y-91110079D01*
X146181457Y-91120044D01*
X146201448Y-91132026D01*
X146220168Y-91145910D01*
X146237438Y-91161562D01*
X146253090Y-91178832D01*
X146266974Y-91197552D01*
X146278956Y-91217543D01*
X146288921Y-91238613D01*
X146296773Y-91260557D01*
X146302437Y-91283166D01*
X146305856Y-91306221D01*
X146307000Y-91329500D01*
X146307000Y-91804500D01*
X146305856Y-91827779D01*
X146302437Y-91850834D01*
X146296773Y-91873443D01*
X146288921Y-91895387D01*
X146278956Y-91916457D01*
X146266974Y-91936448D01*
X146253090Y-91955168D01*
X146237438Y-91972438D01*
X146220168Y-91988090D01*
X146201448Y-92001974D01*
X146181457Y-92013956D01*
X146160387Y-92023921D01*
X146138443Y-92031773D01*
X146115834Y-92037437D01*
X146092779Y-92040856D01*
X146069500Y-92042000D01*
X145494500Y-92042000D01*
X145471221Y-92040856D01*
X145448166Y-92037437D01*
X145425557Y-92031773D01*
X145403613Y-92023921D01*
X145382543Y-92013956D01*
X145362552Y-92001974D01*
X145343832Y-91988090D01*
X145326562Y-91972438D01*
X145310910Y-91955168D01*
X145297026Y-91936448D01*
X145285044Y-91916457D01*
X145275079Y-91895387D01*
X145267227Y-91873443D01*
X145261563Y-91850834D01*
X145258144Y-91827779D01*
X145257000Y-91804500D01*
X145257000Y-91329500D01*
X145258144Y-91306221D01*
X145261563Y-91283166D01*
X145267227Y-91260557D01*
X145275079Y-91238613D01*
X145285044Y-91217543D01*
X145297026Y-91197552D01*
X145310910Y-91178832D01*
X145326562Y-91161562D01*
X145343832Y-91145910D01*
X145362552Y-91132026D01*
X145382543Y-91120044D01*
X145403613Y-91110079D01*
X145425557Y-91102227D01*
X145448166Y-91096563D01*
X145471221Y-91093144D01*
X145494500Y-91092000D01*
X146069500Y-91092000D01*
X146092779Y-91093144D01*
X146092779Y-91093144D01*
G37*
D11*
X145782000Y-91567000D03*
D10*
G36*
X144342779Y-91093144D02*
G01*
X144365834Y-91096563D01*
X144388443Y-91102227D01*
X144410387Y-91110079D01*
X144431457Y-91120044D01*
X144451448Y-91132026D01*
X144470168Y-91145910D01*
X144487438Y-91161562D01*
X144503090Y-91178832D01*
X144516974Y-91197552D01*
X144528956Y-91217543D01*
X144538921Y-91238613D01*
X144546773Y-91260557D01*
X144552437Y-91283166D01*
X144555856Y-91306221D01*
X144557000Y-91329500D01*
X144557000Y-91804500D01*
X144555856Y-91827779D01*
X144552437Y-91850834D01*
X144546773Y-91873443D01*
X144538921Y-91895387D01*
X144528956Y-91916457D01*
X144516974Y-91936448D01*
X144503090Y-91955168D01*
X144487438Y-91972438D01*
X144470168Y-91988090D01*
X144451448Y-92001974D01*
X144431457Y-92013956D01*
X144410387Y-92023921D01*
X144388443Y-92031773D01*
X144365834Y-92037437D01*
X144342779Y-92040856D01*
X144319500Y-92042000D01*
X143744500Y-92042000D01*
X143721221Y-92040856D01*
X143698166Y-92037437D01*
X143675557Y-92031773D01*
X143653613Y-92023921D01*
X143632543Y-92013956D01*
X143612552Y-92001974D01*
X143593832Y-91988090D01*
X143576562Y-91972438D01*
X143560910Y-91955168D01*
X143547026Y-91936448D01*
X143535044Y-91916457D01*
X143525079Y-91895387D01*
X143517227Y-91873443D01*
X143511563Y-91850834D01*
X143508144Y-91827779D01*
X143507000Y-91804500D01*
X143507000Y-91329500D01*
X143508144Y-91306221D01*
X143511563Y-91283166D01*
X143517227Y-91260557D01*
X143525079Y-91238613D01*
X143535044Y-91217543D01*
X143547026Y-91197552D01*
X143560910Y-91178832D01*
X143576562Y-91161562D01*
X143593832Y-91145910D01*
X143612552Y-91132026D01*
X143632543Y-91120044D01*
X143653613Y-91110079D01*
X143675557Y-91102227D01*
X143698166Y-91096563D01*
X143721221Y-91093144D01*
X143744500Y-91092000D01*
X144319500Y-91092000D01*
X144342779Y-91093144D01*
X144342779Y-91093144D01*
G37*
D11*
X144032000Y-91567000D03*
D10*
G36*
X143933779Y-98205144D02*
G01*
X143956834Y-98208563D01*
X143979443Y-98214227D01*
X144001387Y-98222079D01*
X144022457Y-98232044D01*
X144042448Y-98244026D01*
X144061168Y-98257910D01*
X144078438Y-98273562D01*
X144094090Y-98290832D01*
X144107974Y-98309552D01*
X144119956Y-98329543D01*
X144129921Y-98350613D01*
X144137773Y-98372557D01*
X144143437Y-98395166D01*
X144146856Y-98418221D01*
X144148000Y-98441500D01*
X144148000Y-98916500D01*
X144146856Y-98939779D01*
X144143437Y-98962834D01*
X144137773Y-98985443D01*
X144129921Y-99007387D01*
X144119956Y-99028457D01*
X144107974Y-99048448D01*
X144094090Y-99067168D01*
X144078438Y-99084438D01*
X144061168Y-99100090D01*
X144042448Y-99113974D01*
X144022457Y-99125956D01*
X144001387Y-99135921D01*
X143979443Y-99143773D01*
X143956834Y-99149437D01*
X143933779Y-99152856D01*
X143910500Y-99154000D01*
X143335500Y-99154000D01*
X143312221Y-99152856D01*
X143289166Y-99149437D01*
X143266557Y-99143773D01*
X143244613Y-99135921D01*
X143223543Y-99125956D01*
X143203552Y-99113974D01*
X143184832Y-99100090D01*
X143167562Y-99084438D01*
X143151910Y-99067168D01*
X143138026Y-99048448D01*
X143126044Y-99028457D01*
X143116079Y-99007387D01*
X143108227Y-98985443D01*
X143102563Y-98962834D01*
X143099144Y-98939779D01*
X143098000Y-98916500D01*
X143098000Y-98441500D01*
X143099144Y-98418221D01*
X143102563Y-98395166D01*
X143108227Y-98372557D01*
X143116079Y-98350613D01*
X143126044Y-98329543D01*
X143138026Y-98309552D01*
X143151910Y-98290832D01*
X143167562Y-98273562D01*
X143184832Y-98257910D01*
X143203552Y-98244026D01*
X143223543Y-98232044D01*
X143244613Y-98222079D01*
X143266557Y-98214227D01*
X143289166Y-98208563D01*
X143312221Y-98205144D01*
X143335500Y-98204000D01*
X143910500Y-98204000D01*
X143933779Y-98205144D01*
X143933779Y-98205144D01*
G37*
D11*
X143623000Y-98679000D03*
D10*
G36*
X142183779Y-98205144D02*
G01*
X142206834Y-98208563D01*
X142229443Y-98214227D01*
X142251387Y-98222079D01*
X142272457Y-98232044D01*
X142292448Y-98244026D01*
X142311168Y-98257910D01*
X142328438Y-98273562D01*
X142344090Y-98290832D01*
X142357974Y-98309552D01*
X142369956Y-98329543D01*
X142379921Y-98350613D01*
X142387773Y-98372557D01*
X142393437Y-98395166D01*
X142396856Y-98418221D01*
X142398000Y-98441500D01*
X142398000Y-98916500D01*
X142396856Y-98939779D01*
X142393437Y-98962834D01*
X142387773Y-98985443D01*
X142379921Y-99007387D01*
X142369956Y-99028457D01*
X142357974Y-99048448D01*
X142344090Y-99067168D01*
X142328438Y-99084438D01*
X142311168Y-99100090D01*
X142292448Y-99113974D01*
X142272457Y-99125956D01*
X142251387Y-99135921D01*
X142229443Y-99143773D01*
X142206834Y-99149437D01*
X142183779Y-99152856D01*
X142160500Y-99154000D01*
X141585500Y-99154000D01*
X141562221Y-99152856D01*
X141539166Y-99149437D01*
X141516557Y-99143773D01*
X141494613Y-99135921D01*
X141473543Y-99125956D01*
X141453552Y-99113974D01*
X141434832Y-99100090D01*
X141417562Y-99084438D01*
X141401910Y-99067168D01*
X141388026Y-99048448D01*
X141376044Y-99028457D01*
X141366079Y-99007387D01*
X141358227Y-98985443D01*
X141352563Y-98962834D01*
X141349144Y-98939779D01*
X141348000Y-98916500D01*
X141348000Y-98441500D01*
X141349144Y-98418221D01*
X141352563Y-98395166D01*
X141358227Y-98372557D01*
X141366079Y-98350613D01*
X141376044Y-98329543D01*
X141388026Y-98309552D01*
X141401910Y-98290832D01*
X141417562Y-98273562D01*
X141434832Y-98257910D01*
X141453552Y-98244026D01*
X141473543Y-98232044D01*
X141494613Y-98222079D01*
X141516557Y-98214227D01*
X141539166Y-98208563D01*
X141562221Y-98205144D01*
X141585500Y-98204000D01*
X142160500Y-98204000D01*
X142183779Y-98205144D01*
X142183779Y-98205144D01*
G37*
D11*
X141873000Y-98679000D03*
D10*
G36*
X143933779Y-99856144D02*
G01*
X143956834Y-99859563D01*
X143979443Y-99865227D01*
X144001387Y-99873079D01*
X144022457Y-99883044D01*
X144042448Y-99895026D01*
X144061168Y-99908910D01*
X144078438Y-99924562D01*
X144094090Y-99941832D01*
X144107974Y-99960552D01*
X144119956Y-99980543D01*
X144129921Y-100001613D01*
X144137773Y-100023557D01*
X144143437Y-100046166D01*
X144146856Y-100069221D01*
X144148000Y-100092500D01*
X144148000Y-100567500D01*
X144146856Y-100590779D01*
X144143437Y-100613834D01*
X144137773Y-100636443D01*
X144129921Y-100658387D01*
X144119956Y-100679457D01*
X144107974Y-100699448D01*
X144094090Y-100718168D01*
X144078438Y-100735438D01*
X144061168Y-100751090D01*
X144042448Y-100764974D01*
X144022457Y-100776956D01*
X144001387Y-100786921D01*
X143979443Y-100794773D01*
X143956834Y-100800437D01*
X143933779Y-100803856D01*
X143910500Y-100805000D01*
X143335500Y-100805000D01*
X143312221Y-100803856D01*
X143289166Y-100800437D01*
X143266557Y-100794773D01*
X143244613Y-100786921D01*
X143223543Y-100776956D01*
X143203552Y-100764974D01*
X143184832Y-100751090D01*
X143167562Y-100735438D01*
X143151910Y-100718168D01*
X143138026Y-100699448D01*
X143126044Y-100679457D01*
X143116079Y-100658387D01*
X143108227Y-100636443D01*
X143102563Y-100613834D01*
X143099144Y-100590779D01*
X143098000Y-100567500D01*
X143098000Y-100092500D01*
X143099144Y-100069221D01*
X143102563Y-100046166D01*
X143108227Y-100023557D01*
X143116079Y-100001613D01*
X143126044Y-99980543D01*
X143138026Y-99960552D01*
X143151910Y-99941832D01*
X143167562Y-99924562D01*
X143184832Y-99908910D01*
X143203552Y-99895026D01*
X143223543Y-99883044D01*
X143244613Y-99873079D01*
X143266557Y-99865227D01*
X143289166Y-99859563D01*
X143312221Y-99856144D01*
X143335500Y-99855000D01*
X143910500Y-99855000D01*
X143933779Y-99856144D01*
X143933779Y-99856144D01*
G37*
D11*
X143623000Y-100330000D03*
D10*
G36*
X142183779Y-99856144D02*
G01*
X142206834Y-99859563D01*
X142229443Y-99865227D01*
X142251387Y-99873079D01*
X142272457Y-99883044D01*
X142292448Y-99895026D01*
X142311168Y-99908910D01*
X142328438Y-99924562D01*
X142344090Y-99941832D01*
X142357974Y-99960552D01*
X142369956Y-99980543D01*
X142379921Y-100001613D01*
X142387773Y-100023557D01*
X142393437Y-100046166D01*
X142396856Y-100069221D01*
X142398000Y-100092500D01*
X142398000Y-100567500D01*
X142396856Y-100590779D01*
X142393437Y-100613834D01*
X142387773Y-100636443D01*
X142379921Y-100658387D01*
X142369956Y-100679457D01*
X142357974Y-100699448D01*
X142344090Y-100718168D01*
X142328438Y-100735438D01*
X142311168Y-100751090D01*
X142292448Y-100764974D01*
X142272457Y-100776956D01*
X142251387Y-100786921D01*
X142229443Y-100794773D01*
X142206834Y-100800437D01*
X142183779Y-100803856D01*
X142160500Y-100805000D01*
X141585500Y-100805000D01*
X141562221Y-100803856D01*
X141539166Y-100800437D01*
X141516557Y-100794773D01*
X141494613Y-100786921D01*
X141473543Y-100776956D01*
X141453552Y-100764974D01*
X141434832Y-100751090D01*
X141417562Y-100735438D01*
X141401910Y-100718168D01*
X141388026Y-100699448D01*
X141376044Y-100679457D01*
X141366079Y-100658387D01*
X141358227Y-100636443D01*
X141352563Y-100613834D01*
X141349144Y-100590779D01*
X141348000Y-100567500D01*
X141348000Y-100092500D01*
X141349144Y-100069221D01*
X141352563Y-100046166D01*
X141358227Y-100023557D01*
X141366079Y-100001613D01*
X141376044Y-99980543D01*
X141388026Y-99960552D01*
X141401910Y-99941832D01*
X141417562Y-99924562D01*
X141434832Y-99908910D01*
X141453552Y-99895026D01*
X141473543Y-99883044D01*
X141494613Y-99873079D01*
X141516557Y-99865227D01*
X141539166Y-99859563D01*
X141562221Y-99856144D01*
X141585500Y-99855000D01*
X142160500Y-99855000D01*
X142183779Y-99856144D01*
X142183779Y-99856144D01*
G37*
D11*
X141873000Y-100330000D03*
D10*
G36*
X153041779Y-96109144D02*
G01*
X153064834Y-96112563D01*
X153087443Y-96118227D01*
X153109387Y-96126079D01*
X153130457Y-96136044D01*
X153150448Y-96148026D01*
X153169168Y-96161910D01*
X153186438Y-96177562D01*
X153202090Y-96194832D01*
X153215974Y-96213552D01*
X153227956Y-96233543D01*
X153237921Y-96254613D01*
X153245773Y-96276557D01*
X153251437Y-96299166D01*
X153254856Y-96322221D01*
X153256000Y-96345500D01*
X153256000Y-96920500D01*
X153254856Y-96943779D01*
X153251437Y-96966834D01*
X153245773Y-96989443D01*
X153237921Y-97011387D01*
X153227956Y-97032457D01*
X153215974Y-97052448D01*
X153202090Y-97071168D01*
X153186438Y-97088438D01*
X153169168Y-97104090D01*
X153150448Y-97117974D01*
X153130457Y-97129956D01*
X153109387Y-97139921D01*
X153087443Y-97147773D01*
X153064834Y-97153437D01*
X153041779Y-97156856D01*
X153018500Y-97158000D01*
X152543500Y-97158000D01*
X152520221Y-97156856D01*
X152497166Y-97153437D01*
X152474557Y-97147773D01*
X152452613Y-97139921D01*
X152431543Y-97129956D01*
X152411552Y-97117974D01*
X152392832Y-97104090D01*
X152375562Y-97088438D01*
X152359910Y-97071168D01*
X152346026Y-97052448D01*
X152334044Y-97032457D01*
X152324079Y-97011387D01*
X152316227Y-96989443D01*
X152310563Y-96966834D01*
X152307144Y-96943779D01*
X152306000Y-96920500D01*
X152306000Y-96345500D01*
X152307144Y-96322221D01*
X152310563Y-96299166D01*
X152316227Y-96276557D01*
X152324079Y-96254613D01*
X152334044Y-96233543D01*
X152346026Y-96213552D01*
X152359910Y-96194832D01*
X152375562Y-96177562D01*
X152392832Y-96161910D01*
X152411552Y-96148026D01*
X152431543Y-96136044D01*
X152452613Y-96126079D01*
X152474557Y-96118227D01*
X152497166Y-96112563D01*
X152520221Y-96109144D01*
X152543500Y-96108000D01*
X153018500Y-96108000D01*
X153041779Y-96109144D01*
X153041779Y-96109144D01*
G37*
D11*
X152781000Y-96633000D03*
D10*
G36*
X153041779Y-94359144D02*
G01*
X153064834Y-94362563D01*
X153087443Y-94368227D01*
X153109387Y-94376079D01*
X153130457Y-94386044D01*
X153150448Y-94398026D01*
X153169168Y-94411910D01*
X153186438Y-94427562D01*
X153202090Y-94444832D01*
X153215974Y-94463552D01*
X153227956Y-94483543D01*
X153237921Y-94504613D01*
X153245773Y-94526557D01*
X153251437Y-94549166D01*
X153254856Y-94572221D01*
X153256000Y-94595500D01*
X153256000Y-95170500D01*
X153254856Y-95193779D01*
X153251437Y-95216834D01*
X153245773Y-95239443D01*
X153237921Y-95261387D01*
X153227956Y-95282457D01*
X153215974Y-95302448D01*
X153202090Y-95321168D01*
X153186438Y-95338438D01*
X153169168Y-95354090D01*
X153150448Y-95367974D01*
X153130457Y-95379956D01*
X153109387Y-95389921D01*
X153087443Y-95397773D01*
X153064834Y-95403437D01*
X153041779Y-95406856D01*
X153018500Y-95408000D01*
X152543500Y-95408000D01*
X152520221Y-95406856D01*
X152497166Y-95403437D01*
X152474557Y-95397773D01*
X152452613Y-95389921D01*
X152431543Y-95379956D01*
X152411552Y-95367974D01*
X152392832Y-95354090D01*
X152375562Y-95338438D01*
X152359910Y-95321168D01*
X152346026Y-95302448D01*
X152334044Y-95282457D01*
X152324079Y-95261387D01*
X152316227Y-95239443D01*
X152310563Y-95216834D01*
X152307144Y-95193779D01*
X152306000Y-95170500D01*
X152306000Y-94595500D01*
X152307144Y-94572221D01*
X152310563Y-94549166D01*
X152316227Y-94526557D01*
X152324079Y-94504613D01*
X152334044Y-94483543D01*
X152346026Y-94463552D01*
X152359910Y-94444832D01*
X152375562Y-94427562D01*
X152392832Y-94411910D01*
X152411552Y-94398026D01*
X152431543Y-94386044D01*
X152452613Y-94376079D01*
X152474557Y-94368227D01*
X152497166Y-94362563D01*
X152520221Y-94359144D01*
X152543500Y-94358000D01*
X153018500Y-94358000D01*
X153041779Y-94359144D01*
X153041779Y-94359144D01*
G37*
D11*
X152781000Y-94883000D03*
D10*
G36*
X151390779Y-94359144D02*
G01*
X151413834Y-94362563D01*
X151436443Y-94368227D01*
X151458387Y-94376079D01*
X151479457Y-94386044D01*
X151499448Y-94398026D01*
X151518168Y-94411910D01*
X151535438Y-94427562D01*
X151551090Y-94444832D01*
X151564974Y-94463552D01*
X151576956Y-94483543D01*
X151586921Y-94504613D01*
X151594773Y-94526557D01*
X151600437Y-94549166D01*
X151603856Y-94572221D01*
X151605000Y-94595500D01*
X151605000Y-95170500D01*
X151603856Y-95193779D01*
X151600437Y-95216834D01*
X151594773Y-95239443D01*
X151586921Y-95261387D01*
X151576956Y-95282457D01*
X151564974Y-95302448D01*
X151551090Y-95321168D01*
X151535438Y-95338438D01*
X151518168Y-95354090D01*
X151499448Y-95367974D01*
X151479457Y-95379956D01*
X151458387Y-95389921D01*
X151436443Y-95397773D01*
X151413834Y-95403437D01*
X151390779Y-95406856D01*
X151367500Y-95408000D01*
X150892500Y-95408000D01*
X150869221Y-95406856D01*
X150846166Y-95403437D01*
X150823557Y-95397773D01*
X150801613Y-95389921D01*
X150780543Y-95379956D01*
X150760552Y-95367974D01*
X150741832Y-95354090D01*
X150724562Y-95338438D01*
X150708910Y-95321168D01*
X150695026Y-95302448D01*
X150683044Y-95282457D01*
X150673079Y-95261387D01*
X150665227Y-95239443D01*
X150659563Y-95216834D01*
X150656144Y-95193779D01*
X150655000Y-95170500D01*
X150655000Y-94595500D01*
X150656144Y-94572221D01*
X150659563Y-94549166D01*
X150665227Y-94526557D01*
X150673079Y-94504613D01*
X150683044Y-94483543D01*
X150695026Y-94463552D01*
X150708910Y-94444832D01*
X150724562Y-94427562D01*
X150741832Y-94411910D01*
X150760552Y-94398026D01*
X150780543Y-94386044D01*
X150801613Y-94376079D01*
X150823557Y-94368227D01*
X150846166Y-94362563D01*
X150869221Y-94359144D01*
X150892500Y-94358000D01*
X151367500Y-94358000D01*
X151390779Y-94359144D01*
X151390779Y-94359144D01*
G37*
D11*
X151130000Y-94883000D03*
D10*
G36*
X151390779Y-96109144D02*
G01*
X151413834Y-96112563D01*
X151436443Y-96118227D01*
X151458387Y-96126079D01*
X151479457Y-96136044D01*
X151499448Y-96148026D01*
X151518168Y-96161910D01*
X151535438Y-96177562D01*
X151551090Y-96194832D01*
X151564974Y-96213552D01*
X151576956Y-96233543D01*
X151586921Y-96254613D01*
X151594773Y-96276557D01*
X151600437Y-96299166D01*
X151603856Y-96322221D01*
X151605000Y-96345500D01*
X151605000Y-96920500D01*
X151603856Y-96943779D01*
X151600437Y-96966834D01*
X151594773Y-96989443D01*
X151586921Y-97011387D01*
X151576956Y-97032457D01*
X151564974Y-97052448D01*
X151551090Y-97071168D01*
X151535438Y-97088438D01*
X151518168Y-97104090D01*
X151499448Y-97117974D01*
X151479457Y-97129956D01*
X151458387Y-97139921D01*
X151436443Y-97147773D01*
X151413834Y-97153437D01*
X151390779Y-97156856D01*
X151367500Y-97158000D01*
X150892500Y-97158000D01*
X150869221Y-97156856D01*
X150846166Y-97153437D01*
X150823557Y-97147773D01*
X150801613Y-97139921D01*
X150780543Y-97129956D01*
X150760552Y-97117974D01*
X150741832Y-97104090D01*
X150724562Y-97088438D01*
X150708910Y-97071168D01*
X150695026Y-97052448D01*
X150683044Y-97032457D01*
X150673079Y-97011387D01*
X150665227Y-96989443D01*
X150659563Y-96966834D01*
X150656144Y-96943779D01*
X150655000Y-96920500D01*
X150655000Y-96345500D01*
X150656144Y-96322221D01*
X150659563Y-96299166D01*
X150665227Y-96276557D01*
X150673079Y-96254613D01*
X150683044Y-96233543D01*
X150695026Y-96213552D01*
X150708910Y-96194832D01*
X150724562Y-96177562D01*
X150741832Y-96161910D01*
X150760552Y-96148026D01*
X150780543Y-96136044D01*
X150801613Y-96126079D01*
X150823557Y-96118227D01*
X150846166Y-96112563D01*
X150869221Y-96109144D01*
X150892500Y-96108000D01*
X151367500Y-96108000D01*
X151390779Y-96109144D01*
X151390779Y-96109144D01*
G37*
D11*
X151130000Y-96633000D03*
D13*
X138049000Y-91821000D03*
D14*
X140589000Y-91821000D03*
D10*
G36*
X139869779Y-96173144D02*
G01*
X139892834Y-96176563D01*
X139915443Y-96182227D01*
X139937387Y-96190079D01*
X139958457Y-96200044D01*
X139978448Y-96212026D01*
X139997168Y-96225910D01*
X140014438Y-96241562D01*
X140030090Y-96258832D01*
X140043974Y-96277552D01*
X140055956Y-96297543D01*
X140065921Y-96318613D01*
X140073773Y-96340557D01*
X140079437Y-96363166D01*
X140082856Y-96386221D01*
X140084000Y-96409500D01*
X140084000Y-96884500D01*
X140082856Y-96907779D01*
X140079437Y-96930834D01*
X140073773Y-96953443D01*
X140065921Y-96975387D01*
X140055956Y-96996457D01*
X140043974Y-97016448D01*
X140030090Y-97035168D01*
X140014438Y-97052438D01*
X139997168Y-97068090D01*
X139978448Y-97081974D01*
X139958457Y-97093956D01*
X139937387Y-97103921D01*
X139915443Y-97111773D01*
X139892834Y-97117437D01*
X139869779Y-97120856D01*
X139846500Y-97122000D01*
X139271500Y-97122000D01*
X139248221Y-97120856D01*
X139225166Y-97117437D01*
X139202557Y-97111773D01*
X139180613Y-97103921D01*
X139159543Y-97093956D01*
X139139552Y-97081974D01*
X139120832Y-97068090D01*
X139103562Y-97052438D01*
X139087910Y-97035168D01*
X139074026Y-97016448D01*
X139062044Y-96996457D01*
X139052079Y-96975387D01*
X139044227Y-96953443D01*
X139038563Y-96930834D01*
X139035144Y-96907779D01*
X139034000Y-96884500D01*
X139034000Y-96409500D01*
X139035144Y-96386221D01*
X139038563Y-96363166D01*
X139044227Y-96340557D01*
X139052079Y-96318613D01*
X139062044Y-96297543D01*
X139074026Y-96277552D01*
X139087910Y-96258832D01*
X139103562Y-96241562D01*
X139120832Y-96225910D01*
X139139552Y-96212026D01*
X139159543Y-96200044D01*
X139180613Y-96190079D01*
X139202557Y-96182227D01*
X139225166Y-96176563D01*
X139248221Y-96173144D01*
X139271500Y-96172000D01*
X139846500Y-96172000D01*
X139869779Y-96173144D01*
X139869779Y-96173144D01*
G37*
D11*
X139559000Y-96647000D03*
D10*
G36*
X138119779Y-96173144D02*
G01*
X138142834Y-96176563D01*
X138165443Y-96182227D01*
X138187387Y-96190079D01*
X138208457Y-96200044D01*
X138228448Y-96212026D01*
X138247168Y-96225910D01*
X138264438Y-96241562D01*
X138280090Y-96258832D01*
X138293974Y-96277552D01*
X138305956Y-96297543D01*
X138315921Y-96318613D01*
X138323773Y-96340557D01*
X138329437Y-96363166D01*
X138332856Y-96386221D01*
X138334000Y-96409500D01*
X138334000Y-96884500D01*
X138332856Y-96907779D01*
X138329437Y-96930834D01*
X138323773Y-96953443D01*
X138315921Y-96975387D01*
X138305956Y-96996457D01*
X138293974Y-97016448D01*
X138280090Y-97035168D01*
X138264438Y-97052438D01*
X138247168Y-97068090D01*
X138228448Y-97081974D01*
X138208457Y-97093956D01*
X138187387Y-97103921D01*
X138165443Y-97111773D01*
X138142834Y-97117437D01*
X138119779Y-97120856D01*
X138096500Y-97122000D01*
X137521500Y-97122000D01*
X137498221Y-97120856D01*
X137475166Y-97117437D01*
X137452557Y-97111773D01*
X137430613Y-97103921D01*
X137409543Y-97093956D01*
X137389552Y-97081974D01*
X137370832Y-97068090D01*
X137353562Y-97052438D01*
X137337910Y-97035168D01*
X137324026Y-97016448D01*
X137312044Y-96996457D01*
X137302079Y-96975387D01*
X137294227Y-96953443D01*
X137288563Y-96930834D01*
X137285144Y-96907779D01*
X137284000Y-96884500D01*
X137284000Y-96409500D01*
X137285144Y-96386221D01*
X137288563Y-96363166D01*
X137294227Y-96340557D01*
X137302079Y-96318613D01*
X137312044Y-96297543D01*
X137324026Y-96277552D01*
X137337910Y-96258832D01*
X137353562Y-96241562D01*
X137370832Y-96225910D01*
X137389552Y-96212026D01*
X137409543Y-96200044D01*
X137430613Y-96190079D01*
X137452557Y-96182227D01*
X137475166Y-96176563D01*
X137498221Y-96173144D01*
X137521500Y-96172000D01*
X138096500Y-96172000D01*
X138119779Y-96173144D01*
X138119779Y-96173144D01*
G37*
D11*
X137809000Y-96647000D03*
D10*
G36*
X138119779Y-94522144D02*
G01*
X138142834Y-94525563D01*
X138165443Y-94531227D01*
X138187387Y-94539079D01*
X138208457Y-94549044D01*
X138228448Y-94561026D01*
X138247168Y-94574910D01*
X138264438Y-94590562D01*
X138280090Y-94607832D01*
X138293974Y-94626552D01*
X138305956Y-94646543D01*
X138315921Y-94667613D01*
X138323773Y-94689557D01*
X138329437Y-94712166D01*
X138332856Y-94735221D01*
X138334000Y-94758500D01*
X138334000Y-95233500D01*
X138332856Y-95256779D01*
X138329437Y-95279834D01*
X138323773Y-95302443D01*
X138315921Y-95324387D01*
X138305956Y-95345457D01*
X138293974Y-95365448D01*
X138280090Y-95384168D01*
X138264438Y-95401438D01*
X138247168Y-95417090D01*
X138228448Y-95430974D01*
X138208457Y-95442956D01*
X138187387Y-95452921D01*
X138165443Y-95460773D01*
X138142834Y-95466437D01*
X138119779Y-95469856D01*
X138096500Y-95471000D01*
X137521500Y-95471000D01*
X137498221Y-95469856D01*
X137475166Y-95466437D01*
X137452557Y-95460773D01*
X137430613Y-95452921D01*
X137409543Y-95442956D01*
X137389552Y-95430974D01*
X137370832Y-95417090D01*
X137353562Y-95401438D01*
X137337910Y-95384168D01*
X137324026Y-95365448D01*
X137312044Y-95345457D01*
X137302079Y-95324387D01*
X137294227Y-95302443D01*
X137288563Y-95279834D01*
X137285144Y-95256779D01*
X137284000Y-95233500D01*
X137284000Y-94758500D01*
X137285144Y-94735221D01*
X137288563Y-94712166D01*
X137294227Y-94689557D01*
X137302079Y-94667613D01*
X137312044Y-94646543D01*
X137324026Y-94626552D01*
X137337910Y-94607832D01*
X137353562Y-94590562D01*
X137370832Y-94574910D01*
X137389552Y-94561026D01*
X137409543Y-94549044D01*
X137430613Y-94539079D01*
X137452557Y-94531227D01*
X137475166Y-94525563D01*
X137498221Y-94522144D01*
X137521500Y-94521000D01*
X138096500Y-94521000D01*
X138119779Y-94522144D01*
X138119779Y-94522144D01*
G37*
D11*
X137809000Y-94996000D03*
D10*
G36*
X139869779Y-94522144D02*
G01*
X139892834Y-94525563D01*
X139915443Y-94531227D01*
X139937387Y-94539079D01*
X139958457Y-94549044D01*
X139978448Y-94561026D01*
X139997168Y-94574910D01*
X140014438Y-94590562D01*
X140030090Y-94607832D01*
X140043974Y-94626552D01*
X140055956Y-94646543D01*
X140065921Y-94667613D01*
X140073773Y-94689557D01*
X140079437Y-94712166D01*
X140082856Y-94735221D01*
X140084000Y-94758500D01*
X140084000Y-95233500D01*
X140082856Y-95256779D01*
X140079437Y-95279834D01*
X140073773Y-95302443D01*
X140065921Y-95324387D01*
X140055956Y-95345457D01*
X140043974Y-95365448D01*
X140030090Y-95384168D01*
X140014438Y-95401438D01*
X139997168Y-95417090D01*
X139978448Y-95430974D01*
X139958457Y-95442956D01*
X139937387Y-95452921D01*
X139915443Y-95460773D01*
X139892834Y-95466437D01*
X139869779Y-95469856D01*
X139846500Y-95471000D01*
X139271500Y-95471000D01*
X139248221Y-95469856D01*
X139225166Y-95466437D01*
X139202557Y-95460773D01*
X139180613Y-95452921D01*
X139159543Y-95442956D01*
X139139552Y-95430974D01*
X139120832Y-95417090D01*
X139103562Y-95401438D01*
X139087910Y-95384168D01*
X139074026Y-95365448D01*
X139062044Y-95345457D01*
X139052079Y-95324387D01*
X139044227Y-95302443D01*
X139038563Y-95279834D01*
X139035144Y-95256779D01*
X139034000Y-95233500D01*
X139034000Y-94758500D01*
X139035144Y-94735221D01*
X139038563Y-94712166D01*
X139044227Y-94689557D01*
X139052079Y-94667613D01*
X139062044Y-94646543D01*
X139074026Y-94626552D01*
X139087910Y-94607832D01*
X139103562Y-94590562D01*
X139120832Y-94574910D01*
X139139552Y-94561026D01*
X139159543Y-94549044D01*
X139180613Y-94539079D01*
X139202557Y-94531227D01*
X139225166Y-94525563D01*
X139248221Y-94522144D01*
X139271500Y-94521000D01*
X139846500Y-94521000D01*
X139869779Y-94522144D01*
X139869779Y-94522144D01*
G37*
D11*
X139559000Y-94996000D03*
D10*
G36*
X151009779Y-90930144D02*
G01*
X151032834Y-90933563D01*
X151055443Y-90939227D01*
X151077387Y-90947079D01*
X151098457Y-90957044D01*
X151118448Y-90969026D01*
X151137168Y-90982910D01*
X151154438Y-90998562D01*
X151170090Y-91015832D01*
X151183974Y-91034552D01*
X151195956Y-91054543D01*
X151205921Y-91075613D01*
X151213773Y-91097557D01*
X151219437Y-91120166D01*
X151222856Y-91143221D01*
X151224000Y-91166500D01*
X151224000Y-91741500D01*
X151222856Y-91764779D01*
X151219437Y-91787834D01*
X151213773Y-91810443D01*
X151205921Y-91832387D01*
X151195956Y-91853457D01*
X151183974Y-91873448D01*
X151170090Y-91892168D01*
X151154438Y-91909438D01*
X151137168Y-91925090D01*
X151118448Y-91938974D01*
X151098457Y-91950956D01*
X151077387Y-91960921D01*
X151055443Y-91968773D01*
X151032834Y-91974437D01*
X151009779Y-91977856D01*
X150986500Y-91979000D01*
X150511500Y-91979000D01*
X150488221Y-91977856D01*
X150465166Y-91974437D01*
X150442557Y-91968773D01*
X150420613Y-91960921D01*
X150399543Y-91950956D01*
X150379552Y-91938974D01*
X150360832Y-91925090D01*
X150343562Y-91909438D01*
X150327910Y-91892168D01*
X150314026Y-91873448D01*
X150302044Y-91853457D01*
X150292079Y-91832387D01*
X150284227Y-91810443D01*
X150278563Y-91787834D01*
X150275144Y-91764779D01*
X150274000Y-91741500D01*
X150274000Y-91166500D01*
X150275144Y-91143221D01*
X150278563Y-91120166D01*
X150284227Y-91097557D01*
X150292079Y-91075613D01*
X150302044Y-91054543D01*
X150314026Y-91034552D01*
X150327910Y-91015832D01*
X150343562Y-90998562D01*
X150360832Y-90982910D01*
X150379552Y-90969026D01*
X150399543Y-90957044D01*
X150420613Y-90947079D01*
X150442557Y-90939227D01*
X150465166Y-90933563D01*
X150488221Y-90930144D01*
X150511500Y-90929000D01*
X150986500Y-90929000D01*
X151009779Y-90930144D01*
X151009779Y-90930144D01*
G37*
D11*
X150749000Y-91454000D03*
D10*
G36*
X151009779Y-92680144D02*
G01*
X151032834Y-92683563D01*
X151055443Y-92689227D01*
X151077387Y-92697079D01*
X151098457Y-92707044D01*
X151118448Y-92719026D01*
X151137168Y-92732910D01*
X151154438Y-92748562D01*
X151170090Y-92765832D01*
X151183974Y-92784552D01*
X151195956Y-92804543D01*
X151205921Y-92825613D01*
X151213773Y-92847557D01*
X151219437Y-92870166D01*
X151222856Y-92893221D01*
X151224000Y-92916500D01*
X151224000Y-93491500D01*
X151222856Y-93514779D01*
X151219437Y-93537834D01*
X151213773Y-93560443D01*
X151205921Y-93582387D01*
X151195956Y-93603457D01*
X151183974Y-93623448D01*
X151170090Y-93642168D01*
X151154438Y-93659438D01*
X151137168Y-93675090D01*
X151118448Y-93688974D01*
X151098457Y-93700956D01*
X151077387Y-93710921D01*
X151055443Y-93718773D01*
X151032834Y-93724437D01*
X151009779Y-93727856D01*
X150986500Y-93729000D01*
X150511500Y-93729000D01*
X150488221Y-93727856D01*
X150465166Y-93724437D01*
X150442557Y-93718773D01*
X150420613Y-93710921D01*
X150399543Y-93700956D01*
X150379552Y-93688974D01*
X150360832Y-93675090D01*
X150343562Y-93659438D01*
X150327910Y-93642168D01*
X150314026Y-93623448D01*
X150302044Y-93603457D01*
X150292079Y-93582387D01*
X150284227Y-93560443D01*
X150278563Y-93537834D01*
X150275144Y-93514779D01*
X150274000Y-93491500D01*
X150274000Y-92916500D01*
X150275144Y-92893221D01*
X150278563Y-92870166D01*
X150284227Y-92847557D01*
X150292079Y-92825613D01*
X150302044Y-92804543D01*
X150314026Y-92784552D01*
X150327910Y-92765832D01*
X150343562Y-92748562D01*
X150360832Y-92732910D01*
X150379552Y-92719026D01*
X150399543Y-92707044D01*
X150420613Y-92697079D01*
X150442557Y-92689227D01*
X150465166Y-92683563D01*
X150488221Y-92680144D01*
X150511500Y-92679000D01*
X150986500Y-92679000D01*
X151009779Y-92680144D01*
X151009779Y-92680144D01*
G37*
D11*
X150749000Y-93204000D03*
D10*
G36*
X144342779Y-92744144D02*
G01*
X144365834Y-92747563D01*
X144388443Y-92753227D01*
X144410387Y-92761079D01*
X144431457Y-92771044D01*
X144451448Y-92783026D01*
X144470168Y-92796910D01*
X144487438Y-92812562D01*
X144503090Y-92829832D01*
X144516974Y-92848552D01*
X144528956Y-92868543D01*
X144538921Y-92889613D01*
X144546773Y-92911557D01*
X144552437Y-92934166D01*
X144555856Y-92957221D01*
X144557000Y-92980500D01*
X144557000Y-93455500D01*
X144555856Y-93478779D01*
X144552437Y-93501834D01*
X144546773Y-93524443D01*
X144538921Y-93546387D01*
X144528956Y-93567457D01*
X144516974Y-93587448D01*
X144503090Y-93606168D01*
X144487438Y-93623438D01*
X144470168Y-93639090D01*
X144451448Y-93652974D01*
X144431457Y-93664956D01*
X144410387Y-93674921D01*
X144388443Y-93682773D01*
X144365834Y-93688437D01*
X144342779Y-93691856D01*
X144319500Y-93693000D01*
X143744500Y-93693000D01*
X143721221Y-93691856D01*
X143698166Y-93688437D01*
X143675557Y-93682773D01*
X143653613Y-93674921D01*
X143632543Y-93664956D01*
X143612552Y-93652974D01*
X143593832Y-93639090D01*
X143576562Y-93623438D01*
X143560910Y-93606168D01*
X143547026Y-93587448D01*
X143535044Y-93567457D01*
X143525079Y-93546387D01*
X143517227Y-93524443D01*
X143511563Y-93501834D01*
X143508144Y-93478779D01*
X143507000Y-93455500D01*
X143507000Y-92980500D01*
X143508144Y-92957221D01*
X143511563Y-92934166D01*
X143517227Y-92911557D01*
X143525079Y-92889613D01*
X143535044Y-92868543D01*
X143547026Y-92848552D01*
X143560910Y-92829832D01*
X143576562Y-92812562D01*
X143593832Y-92796910D01*
X143612552Y-92783026D01*
X143632543Y-92771044D01*
X143653613Y-92761079D01*
X143675557Y-92753227D01*
X143698166Y-92747563D01*
X143721221Y-92744144D01*
X143744500Y-92743000D01*
X144319500Y-92743000D01*
X144342779Y-92744144D01*
X144342779Y-92744144D01*
G37*
D11*
X144032000Y-93218000D03*
D10*
G36*
X146092779Y-92744144D02*
G01*
X146115834Y-92747563D01*
X146138443Y-92753227D01*
X146160387Y-92761079D01*
X146181457Y-92771044D01*
X146201448Y-92783026D01*
X146220168Y-92796910D01*
X146237438Y-92812562D01*
X146253090Y-92829832D01*
X146266974Y-92848552D01*
X146278956Y-92868543D01*
X146288921Y-92889613D01*
X146296773Y-92911557D01*
X146302437Y-92934166D01*
X146305856Y-92957221D01*
X146307000Y-92980500D01*
X146307000Y-93455500D01*
X146305856Y-93478779D01*
X146302437Y-93501834D01*
X146296773Y-93524443D01*
X146288921Y-93546387D01*
X146278956Y-93567457D01*
X146266974Y-93587448D01*
X146253090Y-93606168D01*
X146237438Y-93623438D01*
X146220168Y-93639090D01*
X146201448Y-93652974D01*
X146181457Y-93664956D01*
X146160387Y-93674921D01*
X146138443Y-93682773D01*
X146115834Y-93688437D01*
X146092779Y-93691856D01*
X146069500Y-93693000D01*
X145494500Y-93693000D01*
X145471221Y-93691856D01*
X145448166Y-93688437D01*
X145425557Y-93682773D01*
X145403613Y-93674921D01*
X145382543Y-93664956D01*
X145362552Y-93652974D01*
X145343832Y-93639090D01*
X145326562Y-93623438D01*
X145310910Y-93606168D01*
X145297026Y-93587448D01*
X145285044Y-93567457D01*
X145275079Y-93546387D01*
X145267227Y-93524443D01*
X145261563Y-93501834D01*
X145258144Y-93478779D01*
X145257000Y-93455500D01*
X145257000Y-92980500D01*
X145258144Y-92957221D01*
X145261563Y-92934166D01*
X145267227Y-92911557D01*
X145275079Y-92889613D01*
X145285044Y-92868543D01*
X145297026Y-92848552D01*
X145310910Y-92829832D01*
X145326562Y-92812562D01*
X145343832Y-92796910D01*
X145362552Y-92783026D01*
X145382543Y-92771044D01*
X145403613Y-92761079D01*
X145425557Y-92753227D01*
X145448166Y-92747563D01*
X145471221Y-92744144D01*
X145494500Y-92743000D01*
X146069500Y-92743000D01*
X146092779Y-92744144D01*
X146092779Y-92744144D01*
G37*
D11*
X145782000Y-93218000D03*
D10*
G36*
X149739779Y-94359144D02*
G01*
X149762834Y-94362563D01*
X149785443Y-94368227D01*
X149807387Y-94376079D01*
X149828457Y-94386044D01*
X149848448Y-94398026D01*
X149867168Y-94411910D01*
X149884438Y-94427562D01*
X149900090Y-94444832D01*
X149913974Y-94463552D01*
X149925956Y-94483543D01*
X149935921Y-94504613D01*
X149943773Y-94526557D01*
X149949437Y-94549166D01*
X149952856Y-94572221D01*
X149954000Y-94595500D01*
X149954000Y-95170500D01*
X149952856Y-95193779D01*
X149949437Y-95216834D01*
X149943773Y-95239443D01*
X149935921Y-95261387D01*
X149925956Y-95282457D01*
X149913974Y-95302448D01*
X149900090Y-95321168D01*
X149884438Y-95338438D01*
X149867168Y-95354090D01*
X149848448Y-95367974D01*
X149828457Y-95379956D01*
X149807387Y-95389921D01*
X149785443Y-95397773D01*
X149762834Y-95403437D01*
X149739779Y-95406856D01*
X149716500Y-95408000D01*
X149241500Y-95408000D01*
X149218221Y-95406856D01*
X149195166Y-95403437D01*
X149172557Y-95397773D01*
X149150613Y-95389921D01*
X149129543Y-95379956D01*
X149109552Y-95367974D01*
X149090832Y-95354090D01*
X149073562Y-95338438D01*
X149057910Y-95321168D01*
X149044026Y-95302448D01*
X149032044Y-95282457D01*
X149022079Y-95261387D01*
X149014227Y-95239443D01*
X149008563Y-95216834D01*
X149005144Y-95193779D01*
X149004000Y-95170500D01*
X149004000Y-94595500D01*
X149005144Y-94572221D01*
X149008563Y-94549166D01*
X149014227Y-94526557D01*
X149022079Y-94504613D01*
X149032044Y-94483543D01*
X149044026Y-94463552D01*
X149057910Y-94444832D01*
X149073562Y-94427562D01*
X149090832Y-94411910D01*
X149109552Y-94398026D01*
X149129543Y-94386044D01*
X149150613Y-94376079D01*
X149172557Y-94368227D01*
X149195166Y-94362563D01*
X149218221Y-94359144D01*
X149241500Y-94358000D01*
X149716500Y-94358000D01*
X149739779Y-94359144D01*
X149739779Y-94359144D01*
G37*
D11*
X149479000Y-94883000D03*
D10*
G36*
X149739779Y-96109144D02*
G01*
X149762834Y-96112563D01*
X149785443Y-96118227D01*
X149807387Y-96126079D01*
X149828457Y-96136044D01*
X149848448Y-96148026D01*
X149867168Y-96161910D01*
X149884438Y-96177562D01*
X149900090Y-96194832D01*
X149913974Y-96213552D01*
X149925956Y-96233543D01*
X149935921Y-96254613D01*
X149943773Y-96276557D01*
X149949437Y-96299166D01*
X149952856Y-96322221D01*
X149954000Y-96345500D01*
X149954000Y-96920500D01*
X149952856Y-96943779D01*
X149949437Y-96966834D01*
X149943773Y-96989443D01*
X149935921Y-97011387D01*
X149925956Y-97032457D01*
X149913974Y-97052448D01*
X149900090Y-97071168D01*
X149884438Y-97088438D01*
X149867168Y-97104090D01*
X149848448Y-97117974D01*
X149828457Y-97129956D01*
X149807387Y-97139921D01*
X149785443Y-97147773D01*
X149762834Y-97153437D01*
X149739779Y-97156856D01*
X149716500Y-97158000D01*
X149241500Y-97158000D01*
X149218221Y-97156856D01*
X149195166Y-97153437D01*
X149172557Y-97147773D01*
X149150613Y-97139921D01*
X149129543Y-97129956D01*
X149109552Y-97117974D01*
X149090832Y-97104090D01*
X149073562Y-97088438D01*
X149057910Y-97071168D01*
X149044026Y-97052448D01*
X149032044Y-97032457D01*
X149022079Y-97011387D01*
X149014227Y-96989443D01*
X149008563Y-96966834D01*
X149005144Y-96943779D01*
X149004000Y-96920500D01*
X149004000Y-96345500D01*
X149005144Y-96322221D01*
X149008563Y-96299166D01*
X149014227Y-96276557D01*
X149022079Y-96254613D01*
X149032044Y-96233543D01*
X149044026Y-96213552D01*
X149057910Y-96194832D01*
X149073562Y-96177562D01*
X149090832Y-96161910D01*
X149109552Y-96148026D01*
X149129543Y-96136044D01*
X149150613Y-96126079D01*
X149172557Y-96118227D01*
X149195166Y-96112563D01*
X149218221Y-96109144D01*
X149241500Y-96108000D01*
X149716500Y-96108000D01*
X149739779Y-96109144D01*
X149739779Y-96109144D01*
G37*
D11*
X149479000Y-96633000D03*
D10*
G36*
X149358779Y-90930144D02*
G01*
X149381834Y-90933563D01*
X149404443Y-90939227D01*
X149426387Y-90947079D01*
X149447457Y-90957044D01*
X149467448Y-90969026D01*
X149486168Y-90982910D01*
X149503438Y-90998562D01*
X149519090Y-91015832D01*
X149532974Y-91034552D01*
X149544956Y-91054543D01*
X149554921Y-91075613D01*
X149562773Y-91097557D01*
X149568437Y-91120166D01*
X149571856Y-91143221D01*
X149573000Y-91166500D01*
X149573000Y-91741500D01*
X149571856Y-91764779D01*
X149568437Y-91787834D01*
X149562773Y-91810443D01*
X149554921Y-91832387D01*
X149544956Y-91853457D01*
X149532974Y-91873448D01*
X149519090Y-91892168D01*
X149503438Y-91909438D01*
X149486168Y-91925090D01*
X149467448Y-91938974D01*
X149447457Y-91950956D01*
X149426387Y-91960921D01*
X149404443Y-91968773D01*
X149381834Y-91974437D01*
X149358779Y-91977856D01*
X149335500Y-91979000D01*
X148860500Y-91979000D01*
X148837221Y-91977856D01*
X148814166Y-91974437D01*
X148791557Y-91968773D01*
X148769613Y-91960921D01*
X148748543Y-91950956D01*
X148728552Y-91938974D01*
X148709832Y-91925090D01*
X148692562Y-91909438D01*
X148676910Y-91892168D01*
X148663026Y-91873448D01*
X148651044Y-91853457D01*
X148641079Y-91832387D01*
X148633227Y-91810443D01*
X148627563Y-91787834D01*
X148624144Y-91764779D01*
X148623000Y-91741500D01*
X148623000Y-91166500D01*
X148624144Y-91143221D01*
X148627563Y-91120166D01*
X148633227Y-91097557D01*
X148641079Y-91075613D01*
X148651044Y-91054543D01*
X148663026Y-91034552D01*
X148676910Y-91015832D01*
X148692562Y-90998562D01*
X148709832Y-90982910D01*
X148728552Y-90969026D01*
X148748543Y-90957044D01*
X148769613Y-90947079D01*
X148791557Y-90939227D01*
X148814166Y-90933563D01*
X148837221Y-90930144D01*
X148860500Y-90929000D01*
X149335500Y-90929000D01*
X149358779Y-90930144D01*
X149358779Y-90930144D01*
G37*
D11*
X149098000Y-91454000D03*
D10*
G36*
X149358779Y-92680144D02*
G01*
X149381834Y-92683563D01*
X149404443Y-92689227D01*
X149426387Y-92697079D01*
X149447457Y-92707044D01*
X149467448Y-92719026D01*
X149486168Y-92732910D01*
X149503438Y-92748562D01*
X149519090Y-92765832D01*
X149532974Y-92784552D01*
X149544956Y-92804543D01*
X149554921Y-92825613D01*
X149562773Y-92847557D01*
X149568437Y-92870166D01*
X149571856Y-92893221D01*
X149573000Y-92916500D01*
X149573000Y-93491500D01*
X149571856Y-93514779D01*
X149568437Y-93537834D01*
X149562773Y-93560443D01*
X149554921Y-93582387D01*
X149544956Y-93603457D01*
X149532974Y-93623448D01*
X149519090Y-93642168D01*
X149503438Y-93659438D01*
X149486168Y-93675090D01*
X149467448Y-93688974D01*
X149447457Y-93700956D01*
X149426387Y-93710921D01*
X149404443Y-93718773D01*
X149381834Y-93724437D01*
X149358779Y-93727856D01*
X149335500Y-93729000D01*
X148860500Y-93729000D01*
X148837221Y-93727856D01*
X148814166Y-93724437D01*
X148791557Y-93718773D01*
X148769613Y-93710921D01*
X148748543Y-93700956D01*
X148728552Y-93688974D01*
X148709832Y-93675090D01*
X148692562Y-93659438D01*
X148676910Y-93642168D01*
X148663026Y-93623448D01*
X148651044Y-93603457D01*
X148641079Y-93582387D01*
X148633227Y-93560443D01*
X148627563Y-93537834D01*
X148624144Y-93514779D01*
X148623000Y-93491500D01*
X148623000Y-92916500D01*
X148624144Y-92893221D01*
X148627563Y-92870166D01*
X148633227Y-92847557D01*
X148641079Y-92825613D01*
X148651044Y-92804543D01*
X148663026Y-92784552D01*
X148676910Y-92765832D01*
X148692562Y-92748562D01*
X148709832Y-92732910D01*
X148728552Y-92719026D01*
X148748543Y-92707044D01*
X148769613Y-92697079D01*
X148791557Y-92689227D01*
X148814166Y-92683563D01*
X148837221Y-92680144D01*
X148860500Y-92679000D01*
X149335500Y-92679000D01*
X149358779Y-92680144D01*
X149358779Y-92680144D01*
G37*
D11*
X149098000Y-93204000D03*
D15*
X147603000Y-96860000D03*
X147603000Y-96210000D03*
X147603000Y-95560000D03*
X147603000Y-94910000D03*
X141703000Y-94910000D03*
X141703000Y-95560000D03*
X141703000Y-96210000D03*
X141703000Y-96860000D03*
D16*
X132291000Y-96200000D03*
X132291000Y-94300000D03*
X130091000Y-94300000D03*
X130091000Y-95250000D03*
X130091000Y-96200000D03*
D17*
X139414000Y-100965000D03*
X139414000Y-98965000D03*
X137414000Y-100965000D03*
D18*
X137414000Y-98965000D03*
D19*
X132904000Y-91755000D03*
X132904000Y-100015000D03*
X126954000Y-100375000D03*
X126954000Y-91395000D03*
D20*
X131572000Y-92837000D03*
X137541000Y-93726000D03*
X135890000Y-91821000D03*
X130810000Y-100330000D03*
X152273000Y-93472000D03*
X145542000Y-94742000D03*
X128397000Y-93345000D03*
X127254000Y-94488000D03*
X148082000Y-99568000D03*
X154908250Y-100711000D03*
X154908250Y-95631000D03*
X154908250Y-91059000D03*
X144653000Y-99568000D03*
X142748000Y-99568000D03*
X131191000Y-94869000D03*
X131191000Y-95631000D03*
X146304000Y-96774000D03*
X146304000Y-96012000D03*
D21*
X147320000Y-100443000D02*
X145669000Y-100443000D01*
X143736000Y-100443000D02*
X143623000Y-100330000D01*
X145669000Y-100443000D02*
X143736000Y-100443000D01*
X143623000Y-100330000D02*
X143623000Y-98679000D01*
X144653000Y-99568000D02*
X142748000Y-99568000D01*
X148082000Y-99568000D02*
X148082000Y-100429000D01*
X148082000Y-100429000D02*
X148068000Y-100443000D01*
X148971000Y-100443000D02*
X148068000Y-100443000D01*
X148068000Y-100443000D02*
X147320000Y-100443000D01*
X138308072Y-94496928D02*
X137809000Y-94996000D01*
X138665010Y-94139990D02*
X138308072Y-94496928D01*
X141615190Y-94139990D02*
X138665010Y-94139990D01*
X141703000Y-94227800D02*
X141615190Y-94139990D01*
X141703000Y-94910000D02*
X141703000Y-94227800D01*
X129131000Y-95250000D02*
X128397000Y-94516000D01*
X130091000Y-95250000D02*
X129131000Y-95250000D01*
X132904000Y-100872200D02*
X132904000Y-100015000D01*
X132996800Y-100965000D02*
X132904000Y-100872200D01*
X137414000Y-100965000D02*
X132996800Y-100965000D01*
X130025000Y-96266000D02*
X130091000Y-96200000D01*
X128905000Y-97891500D02*
X128905000Y-96266000D01*
X128397000Y-96266000D02*
X128905000Y-96266000D01*
X128905000Y-96266000D02*
X130025000Y-96266000D01*
X139700000Y-98679000D02*
X139414000Y-98965000D01*
X141873000Y-98679000D02*
X139700000Y-98679000D01*
X131191000Y-95300052D02*
X131191000Y-94869000D01*
X131191000Y-95690802D02*
X131191000Y-95300052D01*
X130681802Y-96200000D02*
X131191000Y-95690802D01*
X130091000Y-96200000D02*
X130681802Y-96200000D01*
X142407802Y-96491000D02*
X141703000Y-96491000D01*
X144032000Y-94866802D02*
X142407802Y-96491000D01*
X144032000Y-93218000D02*
X144032000Y-94866802D01*
X141703000Y-96210000D02*
X141703000Y-96491000D01*
X141703000Y-96491000D02*
X141703000Y-96860000D01*
X144032000Y-91567000D02*
X144032000Y-93218000D01*
X150249928Y-90954928D02*
X150749000Y-91454000D01*
X149592000Y-90297000D02*
X150249928Y-90954928D01*
X145288000Y-90297000D02*
X149592000Y-90297000D01*
X144531072Y-91053928D02*
X145288000Y-90297000D01*
X144032000Y-91567000D02*
X144531072Y-91067928D01*
X144531072Y-91067928D02*
X144531072Y-91053928D01*
X148971000Y-98693000D02*
X147320000Y-98693000D01*
X147603000Y-96860000D02*
X147603000Y-98410000D01*
X132320000Y-96229000D02*
X132291000Y-96200000D01*
X132320000Y-97917000D02*
X132320000Y-96229000D01*
X133909000Y-97206000D02*
X133985000Y-97206000D01*
X132291000Y-96200000D02*
X132903000Y-96200000D01*
X132903000Y-96200000D02*
X133909000Y-97206000D01*
X137250000Y-97206000D02*
X137809000Y-96647000D01*
X133274000Y-97917000D02*
X133985000Y-97206000D01*
X132320000Y-97917000D02*
X133274000Y-97917000D01*
X140049000Y-100330000D02*
X139414000Y-100965000D01*
X141873000Y-100330000D02*
X140049000Y-100330000D01*
X149470072Y-99192072D02*
X148971000Y-98693000D01*
X149827010Y-99549010D02*
X149470072Y-99192072D01*
X149827010Y-100986696D02*
X149827010Y-99549010D01*
X149173707Y-101639999D02*
X149827010Y-100986696D01*
X140088999Y-101639999D02*
X149173707Y-101639999D01*
X139414000Y-100965000D02*
X140088999Y-101639999D01*
X135585000Y-99034642D02*
X135585000Y-97206000D01*
X133985000Y-97206000D02*
X135585000Y-97206000D01*
X135585000Y-97206000D02*
X137250000Y-97206000D01*
X135585000Y-99263000D02*
X135585000Y-99034642D01*
X136307199Y-99985199D02*
X135585000Y-99263000D01*
X139414000Y-100965000D02*
X138434199Y-99985199D01*
D22*
X138434199Y-99985199D02*
X136307199Y-99985199D01*
D21*
X149098000Y-91454000D02*
X147447000Y-91454000D01*
X149056000Y-96210000D02*
X149479000Y-96633000D01*
X147603000Y-96210000D02*
X149056000Y-96210000D01*
X151130000Y-96633000D02*
X152781000Y-96633000D01*
X151130000Y-96633000D02*
X149479000Y-96633000D01*
X154051000Y-95363000D02*
X154051000Y-93599000D01*
X152781000Y-96633000D02*
X154051000Y-95363000D01*
X149098000Y-93204000D02*
X149973000Y-92329000D01*
X152781000Y-92329000D02*
X151638000Y-92329000D01*
D23*
X151638000Y-92329000D02*
X149973000Y-92329000D01*
D21*
X154051000Y-93599000D02*
X152781000Y-92329000D01*
X146502000Y-96210000D02*
X146304000Y-96012000D01*
X147603000Y-96210000D02*
X146502000Y-96210000D01*
X146304000Y-96342948D02*
X146304000Y-96774000D01*
X146420800Y-96210000D02*
X146304000Y-96326800D01*
X146304000Y-96326800D02*
X146304000Y-96342948D01*
X147603000Y-96210000D02*
X146420800Y-96210000D01*
X130091000Y-93517800D02*
X130091000Y-94300000D01*
X130091000Y-92667000D02*
X130091000Y-93517800D01*
X132461000Y-90297000D02*
X130091000Y-92667000D01*
X140589000Y-91821000D02*
X139065000Y-90297000D01*
X139065000Y-90297000D02*
X132461000Y-90297000D01*
X145782000Y-91567000D02*
X145782000Y-93218000D01*
X147433000Y-93218000D02*
X147447000Y-93204000D01*
X145782000Y-93218000D02*
X147433000Y-93218000D01*
X147447000Y-94754000D02*
X147603000Y-94910000D01*
X147447000Y-93204000D02*
X147447000Y-94754000D01*
X148802000Y-95560000D02*
X149479000Y-94883000D01*
X147603000Y-95560000D02*
X148802000Y-95560000D01*
X151130000Y-94883000D02*
X152781000Y-94883000D01*
X150749000Y-94770000D02*
X150636000Y-94883000D01*
X150749000Y-93204000D02*
X150749000Y-94770000D01*
X149479000Y-94883000D02*
X150636000Y-94883000D01*
X150636000Y-94883000D02*
X151130000Y-94883000D01*
X141703000Y-95560000D02*
X139601000Y-95560000D01*
X139559000Y-94996000D02*
X139559000Y-95518000D01*
X139601000Y-95560000D02*
X139559000Y-95518000D01*
X139559000Y-95518000D02*
X139559000Y-96647000D01*
X140058072Y-97146072D02*
X139559000Y-96647000D01*
X140575000Y-97663000D02*
X140058072Y-97146072D01*
X145669000Y-98693000D02*
X144639000Y-97663000D01*
X144639000Y-97663000D02*
X140575000Y-97663000D01*
D23*
G36*
X155054300Y-101714300D02*
G01*
X150141116Y-101714300D01*
X150322283Y-101533133D01*
X150350384Y-101510071D01*
X150373447Y-101481969D01*
X150373452Y-101481964D01*
X150442434Y-101397909D01*
X150502078Y-101286322D01*
X150510832Y-101269945D01*
X150552952Y-101131095D01*
X150563610Y-101022882D01*
X150563610Y-101022881D01*
X150567174Y-100986696D01*
X150563610Y-100950510D01*
X150563610Y-99585196D01*
X150567174Y-99549010D01*
X150552952Y-99404611D01*
X150543095Y-99372117D01*
X150510832Y-99265761D01*
X150442434Y-99137797D01*
X150350385Y-99025635D01*
X150322273Y-99002564D01*
X149956457Y-98636748D01*
X149956457Y-98405500D01*
X149942085Y-98259581D01*
X149899522Y-98119269D01*
X149830404Y-97989957D01*
X149737385Y-97876615D01*
X149624043Y-97783596D01*
X149494731Y-97714478D01*
X149354419Y-97671915D01*
X149319310Y-97668457D01*
X149716500Y-97668457D01*
X149862419Y-97654085D01*
X150002731Y-97611522D01*
X150132043Y-97542404D01*
X150245385Y-97449385D01*
X150304500Y-97377354D01*
X150363615Y-97449385D01*
X150476957Y-97542404D01*
X150606269Y-97611522D01*
X150746581Y-97654085D01*
X150892500Y-97668457D01*
X151367500Y-97668457D01*
X151513419Y-97654085D01*
X151653731Y-97611522D01*
X151783043Y-97542404D01*
X151896385Y-97449385D01*
X151955500Y-97377354D01*
X152014615Y-97449385D01*
X152127957Y-97542404D01*
X152257269Y-97611522D01*
X152397581Y-97654085D01*
X152543500Y-97668457D01*
X153018500Y-97668457D01*
X153164419Y-97654085D01*
X153304731Y-97611522D01*
X153434043Y-97542404D01*
X153547385Y-97449385D01*
X153640404Y-97336043D01*
X153709522Y-97206731D01*
X153752085Y-97066419D01*
X153766457Y-96920500D01*
X153766457Y-96689252D01*
X154546273Y-95909437D01*
X154574374Y-95886375D01*
X154597437Y-95858273D01*
X154597442Y-95858268D01*
X154657571Y-95785000D01*
X154666424Y-95774213D01*
X154734822Y-95646249D01*
X154776942Y-95507399D01*
X154787600Y-95399186D01*
X154787600Y-95399177D01*
X154791163Y-95363001D01*
X154787600Y-95326825D01*
X154787600Y-93635175D01*
X154791163Y-93598999D01*
X154787600Y-93562823D01*
X154787600Y-93562814D01*
X154776942Y-93454601D01*
X154734822Y-93315751D01*
X154666424Y-93187787D01*
X154574375Y-93075625D01*
X154546269Y-93052559D01*
X153327445Y-91833736D01*
X153304375Y-91805625D01*
X153192213Y-91713576D01*
X153064249Y-91645178D01*
X152925399Y-91603058D01*
X152817186Y-91592400D01*
X152817183Y-91592400D01*
X152781000Y-91588836D01*
X152744817Y-91592400D01*
X151734457Y-91592400D01*
X151734457Y-91166500D01*
X151720085Y-91020581D01*
X151677522Y-90880269D01*
X151608404Y-90750957D01*
X151515385Y-90637615D01*
X151402043Y-90544596D01*
X151272731Y-90475478D01*
X151132419Y-90432915D01*
X150986500Y-90418543D01*
X150755253Y-90418543D01*
X150392409Y-90055700D01*
X155054301Y-90055700D01*
X155054300Y-101714300D01*
X155054300Y-101714300D01*
G37*
X155054300Y-101714300D02*
X150141116Y-101714300D01*
X150322283Y-101533133D01*
X150350384Y-101510071D01*
X150373447Y-101481969D01*
X150373452Y-101481964D01*
X150442434Y-101397909D01*
X150502078Y-101286322D01*
X150510832Y-101269945D01*
X150552952Y-101131095D01*
X150563610Y-101022882D01*
X150563610Y-101022881D01*
X150567174Y-100986696D01*
X150563610Y-100950510D01*
X150563610Y-99585196D01*
X150567174Y-99549010D01*
X150552952Y-99404611D01*
X150543095Y-99372117D01*
X150510832Y-99265761D01*
X150442434Y-99137797D01*
X150350385Y-99025635D01*
X150322273Y-99002564D01*
X149956457Y-98636748D01*
X149956457Y-98405500D01*
X149942085Y-98259581D01*
X149899522Y-98119269D01*
X149830404Y-97989957D01*
X149737385Y-97876615D01*
X149624043Y-97783596D01*
X149494731Y-97714478D01*
X149354419Y-97671915D01*
X149319310Y-97668457D01*
X149716500Y-97668457D01*
X149862419Y-97654085D01*
X150002731Y-97611522D01*
X150132043Y-97542404D01*
X150245385Y-97449385D01*
X150304500Y-97377354D01*
X150363615Y-97449385D01*
X150476957Y-97542404D01*
X150606269Y-97611522D01*
X150746581Y-97654085D01*
X150892500Y-97668457D01*
X151367500Y-97668457D01*
X151513419Y-97654085D01*
X151653731Y-97611522D01*
X151783043Y-97542404D01*
X151896385Y-97449385D01*
X151955500Y-97377354D01*
X152014615Y-97449385D01*
X152127957Y-97542404D01*
X152257269Y-97611522D01*
X152397581Y-97654085D01*
X152543500Y-97668457D01*
X153018500Y-97668457D01*
X153164419Y-97654085D01*
X153304731Y-97611522D01*
X153434043Y-97542404D01*
X153547385Y-97449385D01*
X153640404Y-97336043D01*
X153709522Y-97206731D01*
X153752085Y-97066419D01*
X153766457Y-96920500D01*
X153766457Y-96689252D01*
X154546273Y-95909437D01*
X154574374Y-95886375D01*
X154597437Y-95858273D01*
X154597442Y-95858268D01*
X154657571Y-95785000D01*
X154666424Y-95774213D01*
X154734822Y-95646249D01*
X154776942Y-95507399D01*
X154787600Y-95399186D01*
X154787600Y-95399177D01*
X154791163Y-95363001D01*
X154787600Y-95326825D01*
X154787600Y-93635175D01*
X154791163Y-93598999D01*
X154787600Y-93562823D01*
X154787600Y-93562814D01*
X154776942Y-93454601D01*
X154734822Y-93315751D01*
X154666424Y-93187787D01*
X154574375Y-93075625D01*
X154546269Y-93052559D01*
X153327445Y-91833736D01*
X153304375Y-91805625D01*
X153192213Y-91713576D01*
X153064249Y-91645178D01*
X152925399Y-91603058D01*
X152817186Y-91592400D01*
X152817183Y-91592400D01*
X152781000Y-91588836D01*
X152744817Y-91592400D01*
X151734457Y-91592400D01*
X151734457Y-91166500D01*
X151720085Y-91020581D01*
X151677522Y-90880269D01*
X151608404Y-90750957D01*
X151515385Y-90637615D01*
X151402043Y-90544596D01*
X151272731Y-90475478D01*
X151132419Y-90432915D01*
X150986500Y-90418543D01*
X150755253Y-90418543D01*
X150392409Y-90055700D01*
X155054301Y-90055700D01*
X155054300Y-101714300D01*
G36*
X129595732Y-92120559D02*
G01*
X129567625Y-92143626D01*
X129475576Y-92255788D01*
X129407178Y-92383752D01*
X129365058Y-92522602D01*
X129356229Y-92612247D01*
X129350836Y-92667000D01*
X129354400Y-92703183D01*
X129354400Y-93509416D01*
X129277405Y-93550571D01*
X129200052Y-93614052D01*
X129136571Y-93691405D01*
X129127712Y-93707980D01*
X129084696Y-93672678D01*
X129018508Y-93637299D01*
X128946689Y-93615513D01*
X128872000Y-93608157D01*
X128555750Y-93610000D01*
X128460500Y-93705250D01*
X128460500Y-94452500D01*
X128480500Y-94452500D01*
X128480500Y-94579500D01*
X128460500Y-94579500D01*
X128460500Y-94599500D01*
X128333500Y-94599500D01*
X128333500Y-94579500D01*
X127636250Y-94579500D01*
X127541000Y-94674750D01*
X127539157Y-95041000D01*
X127546513Y-95115689D01*
X127568299Y-95187508D01*
X127603678Y-95253696D01*
X127651289Y-95311711D01*
X127709304Y-95359322D01*
X127728278Y-95369464D01*
X127630615Y-95449615D01*
X127537596Y-95562957D01*
X127468478Y-95692269D01*
X127425915Y-95832581D01*
X127411543Y-95978500D01*
X127411543Y-96553500D01*
X127425915Y-96699419D01*
X127468478Y-96839731D01*
X127537596Y-96969043D01*
X127630615Y-97082385D01*
X127743957Y-97175404D01*
X127873269Y-97244522D01*
X128013581Y-97287085D01*
X128031112Y-97288812D01*
X127975051Y-97393695D01*
X127933555Y-97530489D01*
X127919543Y-97672750D01*
X127919543Y-98110250D01*
X127933555Y-98252511D01*
X127975051Y-98389305D01*
X128042437Y-98515376D01*
X128133123Y-98625877D01*
X128228900Y-98704480D01*
X128217304Y-98710678D01*
X128159289Y-98758289D01*
X128111678Y-98816304D01*
X128076299Y-98882492D01*
X128054513Y-98954311D01*
X128047157Y-99029000D01*
X128049000Y-99307750D01*
X128144250Y-99403000D01*
X128841500Y-99403000D01*
X128841500Y-99383000D01*
X128968500Y-99383000D01*
X128968500Y-99403000D01*
X129665750Y-99403000D01*
X129761000Y-99307750D01*
X129762843Y-99029000D01*
X129755487Y-98954311D01*
X129733701Y-98882492D01*
X129698322Y-98816304D01*
X129650711Y-98758289D01*
X129592696Y-98710678D01*
X129581100Y-98704480D01*
X129676877Y-98625877D01*
X129713892Y-98580775D01*
X129726678Y-98604696D01*
X129774289Y-98662711D01*
X129832304Y-98710322D01*
X129898492Y-98745701D01*
X129970311Y-98767487D01*
X130045000Y-98774843D01*
X130411250Y-98773000D01*
X130506500Y-98677750D01*
X130506500Y-97980500D01*
X130486500Y-97980500D01*
X130486500Y-97853500D01*
X130506500Y-97853500D01*
X130506500Y-97156250D01*
X130411250Y-97061000D01*
X130045000Y-97059157D01*
X129970311Y-97066513D01*
X129898492Y-97088299D01*
X129832304Y-97123678D01*
X129774289Y-97171289D01*
X129731396Y-97223555D01*
X129676877Y-97157123D01*
X129641600Y-97128172D01*
X129641600Y-97035457D01*
X130621000Y-97035457D01*
X130720585Y-97025649D01*
X130816343Y-96996601D01*
X130904595Y-96949429D01*
X130981948Y-96885948D01*
X130998260Y-96866071D01*
X131093015Y-96815424D01*
X131205177Y-96723375D01*
X131228247Y-96695264D01*
X131269329Y-96654182D01*
X131289399Y-96720343D01*
X131336571Y-96808595D01*
X131400052Y-96885948D01*
X131477405Y-96949429D01*
X131565657Y-96996601D01*
X131583401Y-97001983D01*
X131583400Y-97085136D01*
X131503615Y-97150615D01*
X131423464Y-97248278D01*
X131413322Y-97229304D01*
X131365711Y-97171289D01*
X131307696Y-97123678D01*
X131241508Y-97088299D01*
X131169689Y-97066513D01*
X131095000Y-97059157D01*
X130728750Y-97061000D01*
X130633500Y-97156250D01*
X130633500Y-97853500D01*
X130653500Y-97853500D01*
X130653500Y-97980500D01*
X130633500Y-97980500D01*
X130633500Y-98677750D01*
X130728750Y-98773000D01*
X131095000Y-98774843D01*
X131169689Y-98767487D01*
X131241508Y-98745701D01*
X131307696Y-98710322D01*
X131365711Y-98662711D01*
X131413322Y-98604696D01*
X131423464Y-98585722D01*
X131503615Y-98683385D01*
X131616957Y-98776404D01*
X131746269Y-98845522D01*
X131886581Y-98888085D01*
X132032500Y-98902457D01*
X132607500Y-98902457D01*
X132753419Y-98888085D01*
X132893731Y-98845522D01*
X133023043Y-98776404D01*
X133136385Y-98683385D01*
X133160829Y-98653600D01*
X133237817Y-98653600D01*
X133274000Y-98657164D01*
X133310183Y-98653600D01*
X133310186Y-98653600D01*
X133418399Y-98642942D01*
X133557249Y-98600822D01*
X133685213Y-98532424D01*
X133797375Y-98440375D01*
X133820445Y-98412264D01*
X134078752Y-98153957D01*
X134241250Y-98153957D01*
X134383511Y-98139945D01*
X134520305Y-98098449D01*
X134646376Y-98031063D01*
X134754168Y-97942600D01*
X134848401Y-97942600D01*
X134848400Y-98868064D01*
X134745870Y-98743130D01*
X134619029Y-98639035D01*
X134474318Y-98561685D01*
X134317296Y-98514053D01*
X134154000Y-98497970D01*
X133990705Y-98514053D01*
X133833683Y-98561685D01*
X133688972Y-98639035D01*
X133562130Y-98743130D01*
X133458035Y-98869971D01*
X133380685Y-99014682D01*
X133333053Y-99171704D01*
X133325875Y-99244581D01*
X133267500Y-99234000D01*
X132967500Y-99234000D01*
X132967500Y-99951500D01*
X132987500Y-99951500D01*
X132987500Y-100078500D01*
X132967500Y-100078500D01*
X132967500Y-100796000D01*
X133267500Y-100796000D01*
X133418645Y-100768605D01*
X133561542Y-100712250D01*
X133690699Y-100629100D01*
X133801152Y-100522350D01*
X133872112Y-100419973D01*
X133990704Y-100455947D01*
X134154000Y-100472030D01*
X134317295Y-100455947D01*
X134474317Y-100408315D01*
X134619028Y-100330965D01*
X134745870Y-100226870D01*
X134849965Y-100100029D01*
X134927315Y-99955318D01*
X134974947Y-99798296D01*
X134985283Y-99693351D01*
X135016388Y-99731252D01*
X135061625Y-99786374D01*
X135089732Y-99809441D01*
X135811931Y-100531641D01*
X135895986Y-100600623D01*
X136023951Y-100669021D01*
X136162800Y-100711141D01*
X136307199Y-100725363D01*
X136389383Y-100717269D01*
X136382819Y-100737385D01*
X136455158Y-100901500D01*
X137350500Y-100901500D01*
X137350500Y-100881500D01*
X137477500Y-100881500D01*
X137477500Y-100901500D01*
X137497500Y-100901500D01*
X137497500Y-101028500D01*
X137477500Y-101028500D01*
X137477500Y-101048500D01*
X137350500Y-101048500D01*
X137350500Y-101028500D01*
X136455158Y-101028500D01*
X136382819Y-101192615D01*
X136447038Y-101389415D01*
X136548417Y-101569905D01*
X136672058Y-101714300D01*
X126504700Y-101714300D01*
X126504700Y-101140449D01*
X126590500Y-101156000D01*
X126890500Y-101156000D01*
X126890500Y-100438500D01*
X127017500Y-100438500D01*
X127017500Y-101156000D01*
X127317500Y-101156000D01*
X127468645Y-101128605D01*
X127611542Y-101072250D01*
X127740699Y-100989100D01*
X127851152Y-100882350D01*
X127938657Y-100756103D01*
X127999851Y-100615210D01*
X128012897Y-100559489D01*
X127936804Y-100438500D01*
X127017500Y-100438500D01*
X126890500Y-100438500D01*
X126870500Y-100438500D01*
X126870500Y-100311500D01*
X126890500Y-100311500D01*
X126890500Y-99594000D01*
X127017500Y-99594000D01*
X127017500Y-100311500D01*
X127936804Y-100311500D01*
X128012897Y-100190511D01*
X127999851Y-100134790D01*
X127938657Y-99993897D01*
X127876348Y-99904000D01*
X128047157Y-99904000D01*
X128054513Y-99978689D01*
X128076299Y-100050508D01*
X128111678Y-100116696D01*
X128159289Y-100174711D01*
X128217304Y-100222322D01*
X128283492Y-100257701D01*
X128355311Y-100279487D01*
X128430000Y-100286843D01*
X128746250Y-100285000D01*
X128841500Y-100189750D01*
X128841500Y-99530000D01*
X128968500Y-99530000D01*
X128968500Y-100189750D01*
X129063750Y-100285000D01*
X129380000Y-100286843D01*
X129454689Y-100279487D01*
X129526508Y-100257701D01*
X129592696Y-100222322D01*
X129620518Y-100199489D01*
X131845103Y-100199489D01*
X131858149Y-100255210D01*
X131919343Y-100396103D01*
X132006848Y-100522350D01*
X132117301Y-100629100D01*
X132246458Y-100712250D01*
X132389355Y-100768605D01*
X132540500Y-100796000D01*
X132840500Y-100796000D01*
X132840500Y-100078500D01*
X131921196Y-100078500D01*
X131845103Y-100199489D01*
X129620518Y-100199489D01*
X129650711Y-100174711D01*
X129698322Y-100116696D01*
X129733701Y-100050508D01*
X129755487Y-99978689D01*
X129762843Y-99904000D01*
X129762358Y-99830511D01*
X131845103Y-99830511D01*
X131921196Y-99951500D01*
X132840500Y-99951500D01*
X132840500Y-99234000D01*
X132540500Y-99234000D01*
X132389355Y-99261395D01*
X132246458Y-99317750D01*
X132117301Y-99400900D01*
X132006848Y-99507650D01*
X131919343Y-99633897D01*
X131858149Y-99774790D01*
X131845103Y-99830511D01*
X129762358Y-99830511D01*
X129761000Y-99625250D01*
X129665750Y-99530000D01*
X128968500Y-99530000D01*
X128841500Y-99530000D01*
X128144250Y-99530000D01*
X128049000Y-99625250D01*
X128047157Y-99904000D01*
X127876348Y-99904000D01*
X127851152Y-99867650D01*
X127740699Y-99760900D01*
X127611542Y-99677750D01*
X127468645Y-99621395D01*
X127317500Y-99594000D01*
X127017500Y-99594000D01*
X126890500Y-99594000D01*
X126590500Y-99594000D01*
X126504700Y-99609551D01*
X126504700Y-93991000D01*
X127539157Y-93991000D01*
X127541000Y-94357250D01*
X127636250Y-94452500D01*
X128333500Y-94452500D01*
X128333500Y-93705250D01*
X128238250Y-93610000D01*
X127922000Y-93608157D01*
X127847311Y-93615513D01*
X127775492Y-93637299D01*
X127709304Y-93672678D01*
X127651289Y-93720289D01*
X127603678Y-93778304D01*
X127568299Y-93844492D01*
X127546513Y-93916311D01*
X127539157Y-93991000D01*
X126504700Y-93991000D01*
X126504700Y-92160449D01*
X126590500Y-92176000D01*
X126890500Y-92176000D01*
X126890500Y-91458500D01*
X127017500Y-91458500D01*
X127017500Y-92176000D01*
X127317500Y-92176000D01*
X127468645Y-92148605D01*
X127611542Y-92092250D01*
X127740699Y-92009100D01*
X127851152Y-91902350D01*
X127938657Y-91776103D01*
X127999851Y-91635210D01*
X128012897Y-91579489D01*
X127936804Y-91458500D01*
X127017500Y-91458500D01*
X126890500Y-91458500D01*
X126870500Y-91458500D01*
X126870500Y-91331500D01*
X126890500Y-91331500D01*
X126890500Y-90614000D01*
X127017500Y-90614000D01*
X127017500Y-91331500D01*
X127936804Y-91331500D01*
X128012897Y-91210511D01*
X127999851Y-91154790D01*
X127938657Y-91013897D01*
X127851152Y-90887650D01*
X127740699Y-90780900D01*
X127611542Y-90697750D01*
X127468645Y-90641395D01*
X127317500Y-90614000D01*
X127017500Y-90614000D01*
X126890500Y-90614000D01*
X126590500Y-90614000D01*
X126504700Y-90629551D01*
X126504700Y-90055700D01*
X131660590Y-90055700D01*
X129595732Y-92120559D01*
X129595732Y-92120559D01*
G37*
X129595732Y-92120559D02*
X129567625Y-92143626D01*
X129475576Y-92255788D01*
X129407178Y-92383752D01*
X129365058Y-92522602D01*
X129356229Y-92612247D01*
X129350836Y-92667000D01*
X129354400Y-92703183D01*
X129354400Y-93509416D01*
X129277405Y-93550571D01*
X129200052Y-93614052D01*
X129136571Y-93691405D01*
X129127712Y-93707980D01*
X129084696Y-93672678D01*
X129018508Y-93637299D01*
X128946689Y-93615513D01*
X128872000Y-93608157D01*
X128555750Y-93610000D01*
X128460500Y-93705250D01*
X128460500Y-94452500D01*
X128480500Y-94452500D01*
X128480500Y-94579500D01*
X128460500Y-94579500D01*
X128460500Y-94599500D01*
X128333500Y-94599500D01*
X128333500Y-94579500D01*
X127636250Y-94579500D01*
X127541000Y-94674750D01*
X127539157Y-95041000D01*
X127546513Y-95115689D01*
X127568299Y-95187508D01*
X127603678Y-95253696D01*
X127651289Y-95311711D01*
X127709304Y-95359322D01*
X127728278Y-95369464D01*
X127630615Y-95449615D01*
X127537596Y-95562957D01*
X127468478Y-95692269D01*
X127425915Y-95832581D01*
X127411543Y-95978500D01*
X127411543Y-96553500D01*
X127425915Y-96699419D01*
X127468478Y-96839731D01*
X127537596Y-96969043D01*
X127630615Y-97082385D01*
X127743957Y-97175404D01*
X127873269Y-97244522D01*
X128013581Y-97287085D01*
X128031112Y-97288812D01*
X127975051Y-97393695D01*
X127933555Y-97530489D01*
X127919543Y-97672750D01*
X127919543Y-98110250D01*
X127933555Y-98252511D01*
X127975051Y-98389305D01*
X128042437Y-98515376D01*
X128133123Y-98625877D01*
X128228900Y-98704480D01*
X128217304Y-98710678D01*
X128159289Y-98758289D01*
X128111678Y-98816304D01*
X128076299Y-98882492D01*
X128054513Y-98954311D01*
X128047157Y-99029000D01*
X128049000Y-99307750D01*
X128144250Y-99403000D01*
X128841500Y-99403000D01*
X128841500Y-99383000D01*
X128968500Y-99383000D01*
X128968500Y-99403000D01*
X129665750Y-99403000D01*
X129761000Y-99307750D01*
X129762843Y-99029000D01*
X129755487Y-98954311D01*
X129733701Y-98882492D01*
X129698322Y-98816304D01*
X129650711Y-98758289D01*
X129592696Y-98710678D01*
X129581100Y-98704480D01*
X129676877Y-98625877D01*
X129713892Y-98580775D01*
X129726678Y-98604696D01*
X129774289Y-98662711D01*
X129832304Y-98710322D01*
X129898492Y-98745701D01*
X129970311Y-98767487D01*
X130045000Y-98774843D01*
X130411250Y-98773000D01*
X130506500Y-98677750D01*
X130506500Y-97980500D01*
X130486500Y-97980500D01*
X130486500Y-97853500D01*
X130506500Y-97853500D01*
X130506500Y-97156250D01*
X130411250Y-97061000D01*
X130045000Y-97059157D01*
X129970311Y-97066513D01*
X129898492Y-97088299D01*
X129832304Y-97123678D01*
X129774289Y-97171289D01*
X129731396Y-97223555D01*
X129676877Y-97157123D01*
X129641600Y-97128172D01*
X129641600Y-97035457D01*
X130621000Y-97035457D01*
X130720585Y-97025649D01*
X130816343Y-96996601D01*
X130904595Y-96949429D01*
X130981948Y-96885948D01*
X130998260Y-96866071D01*
X131093015Y-96815424D01*
X131205177Y-96723375D01*
X131228247Y-96695264D01*
X131269329Y-96654182D01*
X131289399Y-96720343D01*
X131336571Y-96808595D01*
X131400052Y-96885948D01*
X131477405Y-96949429D01*
X131565657Y-96996601D01*
X131583401Y-97001983D01*
X131583400Y-97085136D01*
X131503615Y-97150615D01*
X131423464Y-97248278D01*
X131413322Y-97229304D01*
X131365711Y-97171289D01*
X131307696Y-97123678D01*
X131241508Y-97088299D01*
X131169689Y-97066513D01*
X131095000Y-97059157D01*
X130728750Y-97061000D01*
X130633500Y-97156250D01*
X130633500Y-97853500D01*
X130653500Y-97853500D01*
X130653500Y-97980500D01*
X130633500Y-97980500D01*
X130633500Y-98677750D01*
X130728750Y-98773000D01*
X131095000Y-98774843D01*
X131169689Y-98767487D01*
X131241508Y-98745701D01*
X131307696Y-98710322D01*
X131365711Y-98662711D01*
X131413322Y-98604696D01*
X131423464Y-98585722D01*
X131503615Y-98683385D01*
X131616957Y-98776404D01*
X131746269Y-98845522D01*
X131886581Y-98888085D01*
X132032500Y-98902457D01*
X132607500Y-98902457D01*
X132753419Y-98888085D01*
X132893731Y-98845522D01*
X133023043Y-98776404D01*
X133136385Y-98683385D01*
X133160829Y-98653600D01*
X133237817Y-98653600D01*
X133274000Y-98657164D01*
X133310183Y-98653600D01*
X133310186Y-98653600D01*
X133418399Y-98642942D01*
X133557249Y-98600822D01*
X133685213Y-98532424D01*
X133797375Y-98440375D01*
X133820445Y-98412264D01*
X134078752Y-98153957D01*
X134241250Y-98153957D01*
X134383511Y-98139945D01*
X134520305Y-98098449D01*
X134646376Y-98031063D01*
X134754168Y-97942600D01*
X134848401Y-97942600D01*
X134848400Y-98868064D01*
X134745870Y-98743130D01*
X134619029Y-98639035D01*
X134474318Y-98561685D01*
X134317296Y-98514053D01*
X134154000Y-98497970D01*
X133990705Y-98514053D01*
X133833683Y-98561685D01*
X133688972Y-98639035D01*
X133562130Y-98743130D01*
X133458035Y-98869971D01*
X133380685Y-99014682D01*
X133333053Y-99171704D01*
X133325875Y-99244581D01*
X133267500Y-99234000D01*
X132967500Y-99234000D01*
X132967500Y-99951500D01*
X132987500Y-99951500D01*
X132987500Y-100078500D01*
X132967500Y-100078500D01*
X132967500Y-100796000D01*
X133267500Y-100796000D01*
X133418645Y-100768605D01*
X133561542Y-100712250D01*
X133690699Y-100629100D01*
X133801152Y-100522350D01*
X133872112Y-100419973D01*
X133990704Y-100455947D01*
X134154000Y-100472030D01*
X134317295Y-100455947D01*
X134474317Y-100408315D01*
X134619028Y-100330965D01*
X134745870Y-100226870D01*
X134849965Y-100100029D01*
X134927315Y-99955318D01*
X134974947Y-99798296D01*
X134985283Y-99693351D01*
X135016388Y-99731252D01*
X135061625Y-99786374D01*
X135089732Y-99809441D01*
X135811931Y-100531641D01*
X135895986Y-100600623D01*
X136023951Y-100669021D01*
X136162800Y-100711141D01*
X136307199Y-100725363D01*
X136389383Y-100717269D01*
X136382819Y-100737385D01*
X136455158Y-100901500D01*
X137350500Y-100901500D01*
X137350500Y-100881500D01*
X137477500Y-100881500D01*
X137477500Y-100901500D01*
X137497500Y-100901500D01*
X137497500Y-101028500D01*
X137477500Y-101028500D01*
X137477500Y-101048500D01*
X137350500Y-101048500D01*
X137350500Y-101028500D01*
X136455158Y-101028500D01*
X136382819Y-101192615D01*
X136447038Y-101389415D01*
X136548417Y-101569905D01*
X136672058Y-101714300D01*
X126504700Y-101714300D01*
X126504700Y-101140449D01*
X126590500Y-101156000D01*
X126890500Y-101156000D01*
X126890500Y-100438500D01*
X127017500Y-100438500D01*
X127017500Y-101156000D01*
X127317500Y-101156000D01*
X127468645Y-101128605D01*
X127611542Y-101072250D01*
X127740699Y-100989100D01*
X127851152Y-100882350D01*
X127938657Y-100756103D01*
X127999851Y-100615210D01*
X128012897Y-100559489D01*
X127936804Y-100438500D01*
X127017500Y-100438500D01*
X126890500Y-100438500D01*
X126870500Y-100438500D01*
X126870500Y-100311500D01*
X126890500Y-100311500D01*
X126890500Y-99594000D01*
X127017500Y-99594000D01*
X127017500Y-100311500D01*
X127936804Y-100311500D01*
X128012897Y-100190511D01*
X127999851Y-100134790D01*
X127938657Y-99993897D01*
X127876348Y-99904000D01*
X128047157Y-99904000D01*
X128054513Y-99978689D01*
X128076299Y-100050508D01*
X128111678Y-100116696D01*
X128159289Y-100174711D01*
X128217304Y-100222322D01*
X128283492Y-100257701D01*
X128355311Y-100279487D01*
X128430000Y-100286843D01*
X128746250Y-100285000D01*
X128841500Y-100189750D01*
X128841500Y-99530000D01*
X128968500Y-99530000D01*
X128968500Y-100189750D01*
X129063750Y-100285000D01*
X129380000Y-100286843D01*
X129454689Y-100279487D01*
X129526508Y-100257701D01*
X129592696Y-100222322D01*
X129620518Y-100199489D01*
X131845103Y-100199489D01*
X131858149Y-100255210D01*
X131919343Y-100396103D01*
X132006848Y-100522350D01*
X132117301Y-100629100D01*
X132246458Y-100712250D01*
X132389355Y-100768605D01*
X132540500Y-100796000D01*
X132840500Y-100796000D01*
X132840500Y-100078500D01*
X131921196Y-100078500D01*
X131845103Y-100199489D01*
X129620518Y-100199489D01*
X129650711Y-100174711D01*
X129698322Y-100116696D01*
X129733701Y-100050508D01*
X129755487Y-99978689D01*
X129762843Y-99904000D01*
X129762358Y-99830511D01*
X131845103Y-99830511D01*
X131921196Y-99951500D01*
X132840500Y-99951500D01*
X132840500Y-99234000D01*
X132540500Y-99234000D01*
X132389355Y-99261395D01*
X132246458Y-99317750D01*
X132117301Y-99400900D01*
X132006848Y-99507650D01*
X131919343Y-99633897D01*
X131858149Y-99774790D01*
X131845103Y-99830511D01*
X129762358Y-99830511D01*
X129761000Y-99625250D01*
X129665750Y-99530000D01*
X128968500Y-99530000D01*
X128841500Y-99530000D01*
X128144250Y-99530000D01*
X128049000Y-99625250D01*
X128047157Y-99904000D01*
X127876348Y-99904000D01*
X127851152Y-99867650D01*
X127740699Y-99760900D01*
X127611542Y-99677750D01*
X127468645Y-99621395D01*
X127317500Y-99594000D01*
X127017500Y-99594000D01*
X126890500Y-99594000D01*
X126590500Y-99594000D01*
X126504700Y-99609551D01*
X126504700Y-93991000D01*
X127539157Y-93991000D01*
X127541000Y-94357250D01*
X127636250Y-94452500D01*
X128333500Y-94452500D01*
X128333500Y-93705250D01*
X128238250Y-93610000D01*
X127922000Y-93608157D01*
X127847311Y-93615513D01*
X127775492Y-93637299D01*
X127709304Y-93672678D01*
X127651289Y-93720289D01*
X127603678Y-93778304D01*
X127568299Y-93844492D01*
X127546513Y-93916311D01*
X127539157Y-93991000D01*
X126504700Y-93991000D01*
X126504700Y-92160449D01*
X126590500Y-92176000D01*
X126890500Y-92176000D01*
X126890500Y-91458500D01*
X127017500Y-91458500D01*
X127017500Y-92176000D01*
X127317500Y-92176000D01*
X127468645Y-92148605D01*
X127611542Y-92092250D01*
X127740699Y-92009100D01*
X127851152Y-91902350D01*
X127938657Y-91776103D01*
X127999851Y-91635210D01*
X128012897Y-91579489D01*
X127936804Y-91458500D01*
X127017500Y-91458500D01*
X126890500Y-91458500D01*
X126870500Y-91458500D01*
X126870500Y-91331500D01*
X126890500Y-91331500D01*
X126890500Y-90614000D01*
X127017500Y-90614000D01*
X127017500Y-91331500D01*
X127936804Y-91331500D01*
X128012897Y-91210511D01*
X127999851Y-91154790D01*
X127938657Y-91013897D01*
X127851152Y-90887650D01*
X127740699Y-90780900D01*
X127611542Y-90697750D01*
X127468645Y-90641395D01*
X127317500Y-90614000D01*
X127017500Y-90614000D01*
X126890500Y-90614000D01*
X126590500Y-90614000D01*
X126504700Y-90629551D01*
X126504700Y-90055700D01*
X131660590Y-90055700D01*
X129595732Y-92120559D01*
G36*
X144683543Y-98749253D02*
G01*
X144683543Y-98980500D01*
X144697915Y-99126419D01*
X144740478Y-99266731D01*
X144809596Y-99396043D01*
X144902615Y-99509385D01*
X145000278Y-99589536D01*
X144981304Y-99599678D01*
X144923289Y-99647289D01*
X144875678Y-99705304D01*
X144840299Y-99771492D01*
X144818513Y-99843311D01*
X144811157Y-99918000D01*
X144813000Y-100284250D01*
X144908250Y-100379500D01*
X145605500Y-100379500D01*
X145605500Y-100359500D01*
X145732500Y-100359500D01*
X145732500Y-100379500D01*
X146429750Y-100379500D01*
X146494500Y-100314750D01*
X146559250Y-100379500D01*
X147256500Y-100379500D01*
X147256500Y-100359500D01*
X147383500Y-100359500D01*
X147383500Y-100379500D01*
X148080750Y-100379500D01*
X148145500Y-100314750D01*
X148210250Y-100379500D01*
X148907500Y-100379500D01*
X148907500Y-100359500D01*
X149034500Y-100359500D01*
X149034500Y-100379500D01*
X149054500Y-100379500D01*
X149054500Y-100506500D01*
X149034500Y-100506500D01*
X149034500Y-100526500D01*
X148907500Y-100526500D01*
X148907500Y-100506500D01*
X148210250Y-100506500D01*
X148145500Y-100571250D01*
X148080750Y-100506500D01*
X147383500Y-100506500D01*
X147383500Y-100526500D01*
X147256500Y-100526500D01*
X147256500Y-100506500D01*
X146559250Y-100506500D01*
X146494500Y-100571250D01*
X146429750Y-100506500D01*
X145732500Y-100506500D01*
X145732500Y-100526500D01*
X145605500Y-100526500D01*
X145605500Y-100506500D01*
X144908250Y-100506500D01*
X144813000Y-100601750D01*
X144811482Y-100903399D01*
X144516295Y-100903399D01*
X144523487Y-100879689D01*
X144530843Y-100805000D01*
X144529000Y-100488750D01*
X144433750Y-100393500D01*
X143686500Y-100393500D01*
X143686500Y-100413500D01*
X143559500Y-100413500D01*
X143559500Y-100393500D01*
X143539500Y-100393500D01*
X143539500Y-100266500D01*
X143559500Y-100266500D01*
X143559500Y-99569250D01*
X143494750Y-99504500D01*
X143559500Y-99439750D01*
X143559500Y-98742500D01*
X143686500Y-98742500D01*
X143686500Y-99439750D01*
X143751250Y-99504500D01*
X143686500Y-99569250D01*
X143686500Y-100266500D01*
X144433750Y-100266500D01*
X144529000Y-100171250D01*
X144530843Y-99855000D01*
X144523487Y-99780311D01*
X144501701Y-99708492D01*
X144466322Y-99642304D01*
X144418711Y-99584289D01*
X144360696Y-99536678D01*
X144300497Y-99504500D01*
X144360696Y-99472322D01*
X144418711Y-99424711D01*
X144466322Y-99366696D01*
X144501701Y-99300508D01*
X144523487Y-99228689D01*
X144530843Y-99154000D01*
X144529000Y-98837750D01*
X144433750Y-98742500D01*
X143686500Y-98742500D01*
X143559500Y-98742500D01*
X143539500Y-98742500D01*
X143539500Y-98615500D01*
X143559500Y-98615500D01*
X143559500Y-98595500D01*
X143686500Y-98595500D01*
X143686500Y-98615500D01*
X144433750Y-98615500D01*
X144491770Y-98557480D01*
X144683543Y-98749253D01*
X144683543Y-98749253D01*
G37*
X144683543Y-98749253D02*
X144683543Y-98980500D01*
X144697915Y-99126419D01*
X144740478Y-99266731D01*
X144809596Y-99396043D01*
X144902615Y-99509385D01*
X145000278Y-99589536D01*
X144981304Y-99599678D01*
X144923289Y-99647289D01*
X144875678Y-99705304D01*
X144840299Y-99771492D01*
X144818513Y-99843311D01*
X144811157Y-99918000D01*
X144813000Y-100284250D01*
X144908250Y-100379500D01*
X145605500Y-100379500D01*
X145605500Y-100359500D01*
X145732500Y-100359500D01*
X145732500Y-100379500D01*
X146429750Y-100379500D01*
X146494500Y-100314750D01*
X146559250Y-100379500D01*
X147256500Y-100379500D01*
X147256500Y-100359500D01*
X147383500Y-100359500D01*
X147383500Y-100379500D01*
X148080750Y-100379500D01*
X148145500Y-100314750D01*
X148210250Y-100379500D01*
X148907500Y-100379500D01*
X148907500Y-100359500D01*
X149034500Y-100359500D01*
X149034500Y-100379500D01*
X149054500Y-100379500D01*
X149054500Y-100506500D01*
X149034500Y-100506500D01*
X149034500Y-100526500D01*
X148907500Y-100526500D01*
X148907500Y-100506500D01*
X148210250Y-100506500D01*
X148145500Y-100571250D01*
X148080750Y-100506500D01*
X147383500Y-100506500D01*
X147383500Y-100526500D01*
X147256500Y-100526500D01*
X147256500Y-100506500D01*
X146559250Y-100506500D01*
X146494500Y-100571250D01*
X146429750Y-100506500D01*
X145732500Y-100506500D01*
X145732500Y-100526500D01*
X145605500Y-100526500D01*
X145605500Y-100506500D01*
X144908250Y-100506500D01*
X144813000Y-100601750D01*
X144811482Y-100903399D01*
X144516295Y-100903399D01*
X144523487Y-100879689D01*
X144530843Y-100805000D01*
X144529000Y-100488750D01*
X144433750Y-100393500D01*
X143686500Y-100393500D01*
X143686500Y-100413500D01*
X143559500Y-100413500D01*
X143559500Y-100393500D01*
X143539500Y-100393500D01*
X143539500Y-100266500D01*
X143559500Y-100266500D01*
X143559500Y-99569250D01*
X143494750Y-99504500D01*
X143559500Y-99439750D01*
X143559500Y-98742500D01*
X143686500Y-98742500D01*
X143686500Y-99439750D01*
X143751250Y-99504500D01*
X143686500Y-99569250D01*
X143686500Y-100266500D01*
X144433750Y-100266500D01*
X144529000Y-100171250D01*
X144530843Y-99855000D01*
X144523487Y-99780311D01*
X144501701Y-99708492D01*
X144466322Y-99642304D01*
X144418711Y-99584289D01*
X144360696Y-99536678D01*
X144300497Y-99504500D01*
X144360696Y-99472322D01*
X144418711Y-99424711D01*
X144466322Y-99366696D01*
X144501701Y-99300508D01*
X144523487Y-99228689D01*
X144530843Y-99154000D01*
X144529000Y-98837750D01*
X144433750Y-98742500D01*
X143686500Y-98742500D01*
X143559500Y-98742500D01*
X143539500Y-98742500D01*
X143539500Y-98615500D01*
X143559500Y-98615500D01*
X143559500Y-98595500D01*
X143686500Y-98595500D01*
X143686500Y-98615500D01*
X144433750Y-98615500D01*
X144491770Y-98557480D01*
X144683543Y-98749253D01*
G36*
X148204615Y-99509385D02*
G01*
X148302278Y-99589536D01*
X148283304Y-99599678D01*
X148225289Y-99647289D01*
X148177678Y-99705304D01*
X148145500Y-99765503D01*
X148113322Y-99705304D01*
X148065711Y-99647289D01*
X148007696Y-99599678D01*
X147988722Y-99589536D01*
X148086385Y-99509385D01*
X148145500Y-99437354D01*
X148204615Y-99509385D01*
X148204615Y-99509385D01*
G37*
X148204615Y-99509385D02*
X148302278Y-99589536D01*
X148283304Y-99599678D01*
X148225289Y-99647289D01*
X148177678Y-99705304D01*
X148145500Y-99765503D01*
X148113322Y-99705304D01*
X148065711Y-99647289D01*
X148007696Y-99599678D01*
X147988722Y-99589536D01*
X148086385Y-99509385D01*
X148145500Y-99437354D01*
X148204615Y-99509385D01*
G36*
X142779678Y-99366696D02*
G01*
X142827289Y-99424711D01*
X142885304Y-99472322D01*
X142945503Y-99504500D01*
X142885304Y-99536678D01*
X142827289Y-99584289D01*
X142779678Y-99642304D01*
X142769536Y-99661278D01*
X142689385Y-99563615D01*
X142617354Y-99504500D01*
X142689385Y-99445385D01*
X142769536Y-99347722D01*
X142779678Y-99366696D01*
X142779678Y-99366696D01*
G37*
X142779678Y-99366696D02*
X142827289Y-99424711D01*
X142885304Y-99472322D01*
X142945503Y-99504500D01*
X142885304Y-99536678D01*
X142827289Y-99584289D01*
X142779678Y-99642304D01*
X142769536Y-99661278D01*
X142689385Y-99563615D01*
X142617354Y-99504500D01*
X142689385Y-99445385D01*
X142769536Y-99347722D01*
X142779678Y-99366696D01*
G36*
X144965615Y-93984385D02*
G01*
X145078957Y-94077404D01*
X145208269Y-94146522D01*
X145348581Y-94189085D01*
X145494500Y-94203457D01*
X146069500Y-94203457D01*
X146215419Y-94189085D01*
X146355731Y-94146522D01*
X146485043Y-94077404D01*
X146598385Y-93984385D01*
X146622829Y-93954600D01*
X146626626Y-93954600D01*
X146680615Y-94020385D01*
X146710401Y-94044830D01*
X146710401Y-94204983D01*
X146682657Y-94213399D01*
X146594405Y-94260571D01*
X146517052Y-94324052D01*
X146453571Y-94401405D01*
X146406399Y-94489657D01*
X146377351Y-94585415D01*
X146367543Y-94685000D01*
X146367543Y-95135000D01*
X146373866Y-95199200D01*
X146223946Y-95199200D01*
X146066915Y-95230435D01*
X145918995Y-95291706D01*
X145785870Y-95380657D01*
X145672657Y-95493870D01*
X145583706Y-95626995D01*
X145522435Y-95774915D01*
X145491200Y-95931946D01*
X145491200Y-96092054D01*
X145522435Y-96249085D01*
X145566709Y-96355972D01*
X145567400Y-96362983D01*
X145567400Y-96428361D01*
X145522435Y-96536915D01*
X145491200Y-96693946D01*
X145491200Y-96854054D01*
X145522435Y-97011085D01*
X145583706Y-97159005D01*
X145672657Y-97292130D01*
X145785870Y-97405343D01*
X145918995Y-97494294D01*
X146066915Y-97555565D01*
X146223946Y-97586800D01*
X146384054Y-97586800D01*
X146541085Y-97555565D01*
X146619755Y-97522979D01*
X146682657Y-97556601D01*
X146778415Y-97585649D01*
X146866400Y-97594315D01*
X146866401Y-97693204D01*
X146796269Y-97714478D01*
X146666957Y-97783596D01*
X146553615Y-97876615D01*
X146494500Y-97948646D01*
X146435385Y-97876615D01*
X146322043Y-97783596D01*
X146192731Y-97714478D01*
X146052419Y-97671915D01*
X145906500Y-97657543D01*
X145675253Y-97657543D01*
X145185445Y-97167736D01*
X145162375Y-97139625D01*
X145050213Y-97047576D01*
X144922249Y-96979178D01*
X144783399Y-96937058D01*
X144675186Y-96926400D01*
X144675183Y-96926400D01*
X144639000Y-96922836D01*
X144602817Y-96926400D01*
X143014111Y-96926400D01*
X144527269Y-95413243D01*
X144555375Y-95390177D01*
X144599643Y-95336237D01*
X144647424Y-95278015D01*
X144654987Y-95263866D01*
X144715822Y-95150051D01*
X144757942Y-95011201D01*
X144768600Y-94902988D01*
X144772164Y-94866802D01*
X144768600Y-94830616D01*
X144768600Y-94049864D01*
X144848385Y-93984385D01*
X144907000Y-93912964D01*
X144965615Y-93984385D01*
X144965615Y-93984385D01*
G37*
X144965615Y-93984385D02*
X145078957Y-94077404D01*
X145208269Y-94146522D01*
X145348581Y-94189085D01*
X145494500Y-94203457D01*
X146069500Y-94203457D01*
X146215419Y-94189085D01*
X146355731Y-94146522D01*
X146485043Y-94077404D01*
X146598385Y-93984385D01*
X146622829Y-93954600D01*
X146626626Y-93954600D01*
X146680615Y-94020385D01*
X146710401Y-94044830D01*
X146710401Y-94204983D01*
X146682657Y-94213399D01*
X146594405Y-94260571D01*
X146517052Y-94324052D01*
X146453571Y-94401405D01*
X146406399Y-94489657D01*
X146377351Y-94585415D01*
X146367543Y-94685000D01*
X146367543Y-95135000D01*
X146373866Y-95199200D01*
X146223946Y-95199200D01*
X146066915Y-95230435D01*
X145918995Y-95291706D01*
X145785870Y-95380657D01*
X145672657Y-95493870D01*
X145583706Y-95626995D01*
X145522435Y-95774915D01*
X145491200Y-95931946D01*
X145491200Y-96092054D01*
X145522435Y-96249085D01*
X145566709Y-96355972D01*
X145567400Y-96362983D01*
X145567400Y-96428361D01*
X145522435Y-96536915D01*
X145491200Y-96693946D01*
X145491200Y-96854054D01*
X145522435Y-97011085D01*
X145583706Y-97159005D01*
X145672657Y-97292130D01*
X145785870Y-97405343D01*
X145918995Y-97494294D01*
X146066915Y-97555565D01*
X146223946Y-97586800D01*
X146384054Y-97586800D01*
X146541085Y-97555565D01*
X146619755Y-97522979D01*
X146682657Y-97556601D01*
X146778415Y-97585649D01*
X146866400Y-97594315D01*
X146866401Y-97693204D01*
X146796269Y-97714478D01*
X146666957Y-97783596D01*
X146553615Y-97876615D01*
X146494500Y-97948646D01*
X146435385Y-97876615D01*
X146322043Y-97783596D01*
X146192731Y-97714478D01*
X146052419Y-97671915D01*
X145906500Y-97657543D01*
X145675253Y-97657543D01*
X145185445Y-97167736D01*
X145162375Y-97139625D01*
X145050213Y-97047576D01*
X144922249Y-96979178D01*
X144783399Y-96937058D01*
X144675186Y-96926400D01*
X144675183Y-96926400D01*
X144639000Y-96922836D01*
X144602817Y-96926400D01*
X143014111Y-96926400D01*
X144527269Y-95413243D01*
X144555375Y-95390177D01*
X144599643Y-95336237D01*
X144647424Y-95278015D01*
X144654987Y-95263866D01*
X144715822Y-95150051D01*
X144757942Y-95011201D01*
X144768600Y-94902988D01*
X144772164Y-94866802D01*
X144768600Y-94830616D01*
X144768600Y-94049864D01*
X144848385Y-93984385D01*
X144907000Y-93912964D01*
X144965615Y-93984385D01*
G36*
X144035804Y-90507487D02*
G01*
X144007698Y-90530553D01*
X143965851Y-90581543D01*
X143744500Y-90581543D01*
X143598581Y-90595915D01*
X143458269Y-90638478D01*
X143328957Y-90707596D01*
X143215615Y-90800615D01*
X143122596Y-90913957D01*
X143053478Y-91043269D01*
X143010915Y-91183581D01*
X142996543Y-91329500D01*
X142996543Y-91804500D01*
X143010915Y-91950419D01*
X143053478Y-92090731D01*
X143122596Y-92220043D01*
X143215615Y-92333385D01*
X143287646Y-92392500D01*
X143215615Y-92451615D01*
X143122596Y-92564957D01*
X143053478Y-92694269D01*
X143010915Y-92834581D01*
X142996543Y-92980500D01*
X142996543Y-93455500D01*
X143010915Y-93601419D01*
X143053478Y-93741731D01*
X143122596Y-93871043D01*
X143215615Y-93984385D01*
X143295401Y-94049864D01*
X143295401Y-94561691D01*
X142831360Y-95025732D01*
X142788948Y-94974052D01*
X142711595Y-94910571D01*
X142623343Y-94863399D01*
X142567635Y-94846500D01*
X142713750Y-94846500D01*
X142809000Y-94751250D01*
X142810843Y-94685000D01*
X142803487Y-94610311D01*
X142781701Y-94538492D01*
X142746322Y-94472304D01*
X142698711Y-94414289D01*
X142640696Y-94366678D01*
X142574508Y-94331299D01*
X142502689Y-94309513D01*
X142428000Y-94302157D01*
X141861750Y-94304000D01*
X141766500Y-94399250D01*
X141766500Y-94824543D01*
X141750791Y-94824543D01*
X141739186Y-94823400D01*
X141639500Y-94823400D01*
X141639500Y-94399250D01*
X141544250Y-94304000D01*
X140978000Y-94302157D01*
X140903311Y-94309513D01*
X140831492Y-94331299D01*
X140765304Y-94366678D01*
X140707289Y-94414289D01*
X140659678Y-94472304D01*
X140624299Y-94538492D01*
X140602513Y-94610311D01*
X140595157Y-94685000D01*
X140597000Y-94751250D01*
X140669150Y-94823400D01*
X140594457Y-94823400D01*
X140594457Y-94758500D01*
X140580085Y-94612581D01*
X140537522Y-94472269D01*
X140468404Y-94342957D01*
X140375385Y-94229615D01*
X140262043Y-94136596D01*
X140132731Y-94067478D01*
X139992419Y-94024915D01*
X139846500Y-94010543D01*
X139271500Y-94010543D01*
X139125581Y-94024915D01*
X138985269Y-94067478D01*
X138855957Y-94136596D01*
X138742615Y-94229615D01*
X138662464Y-94327278D01*
X138652322Y-94308304D01*
X138604711Y-94250289D01*
X138546696Y-94202678D01*
X138480508Y-94167299D01*
X138408689Y-94145513D01*
X138334000Y-94138157D01*
X137967750Y-94140000D01*
X137872500Y-94235250D01*
X137872500Y-94932500D01*
X137892500Y-94932500D01*
X137892500Y-95059500D01*
X137872500Y-95059500D01*
X137872500Y-95079500D01*
X137745500Y-95079500D01*
X137745500Y-95059500D01*
X136998250Y-95059500D01*
X136903000Y-95154750D01*
X136901157Y-95471000D01*
X136908513Y-95545689D01*
X136930299Y-95617508D01*
X136965678Y-95683696D01*
X137013289Y-95741711D01*
X137071304Y-95789322D01*
X137091016Y-95799858D01*
X136992615Y-95880615D01*
X136899596Y-95993957D01*
X136830478Y-96123269D01*
X136787915Y-96263581D01*
X136773543Y-96409500D01*
X136773543Y-96469400D01*
X135621186Y-96469400D01*
X135585000Y-96465836D01*
X135548814Y-96469400D01*
X134754168Y-96469400D01*
X134661100Y-96393020D01*
X134672696Y-96386822D01*
X134730711Y-96339211D01*
X134778322Y-96281196D01*
X134813701Y-96215008D01*
X134835487Y-96143189D01*
X134842843Y-96068500D01*
X134841000Y-95789750D01*
X134745750Y-95694500D01*
X134048500Y-95694500D01*
X134048500Y-95714500D01*
X133921500Y-95714500D01*
X133921500Y-95694500D01*
X133901500Y-95694500D01*
X133901500Y-95567500D01*
X133921500Y-95567500D01*
X133921500Y-94907750D01*
X134048500Y-94907750D01*
X134048500Y-95567500D01*
X134745750Y-95567500D01*
X134841000Y-95472250D01*
X134842843Y-95193500D01*
X134835487Y-95118811D01*
X134813701Y-95046992D01*
X134778322Y-94980804D01*
X134730711Y-94922789D01*
X134672696Y-94875178D01*
X134606508Y-94839799D01*
X134534689Y-94818013D01*
X134460000Y-94810657D01*
X134143750Y-94812500D01*
X134048500Y-94907750D01*
X133921500Y-94907750D01*
X133826250Y-94812500D01*
X133510000Y-94810657D01*
X133435311Y-94818013D01*
X133363492Y-94839799D01*
X133297304Y-94875178D01*
X133239289Y-94922789D01*
X133191678Y-94980804D01*
X133156299Y-95046992D01*
X133134513Y-95118811D01*
X133127157Y-95193500D01*
X133128989Y-95470590D01*
X133104595Y-95450571D01*
X133016343Y-95403399D01*
X132920585Y-95374351D01*
X132821000Y-95364543D01*
X131960399Y-95364543D01*
X131927600Y-95285361D01*
X131927600Y-95214639D01*
X131960399Y-95135457D01*
X132821000Y-95135457D01*
X132920585Y-95125649D01*
X133016343Y-95096601D01*
X133104595Y-95049429D01*
X133181948Y-94985948D01*
X133245429Y-94908595D01*
X133292601Y-94820343D01*
X133321649Y-94724585D01*
X133331457Y-94625000D01*
X133331457Y-94521000D01*
X136901157Y-94521000D01*
X136903000Y-94837250D01*
X136998250Y-94932500D01*
X137745500Y-94932500D01*
X137745500Y-94235250D01*
X137650250Y-94140000D01*
X137284000Y-94138157D01*
X137209311Y-94145513D01*
X137137492Y-94167299D01*
X137071304Y-94202678D01*
X137013289Y-94250289D01*
X136965678Y-94308304D01*
X136930299Y-94374492D01*
X136908513Y-94446311D01*
X136901157Y-94521000D01*
X133331457Y-94521000D01*
X133331457Y-93975000D01*
X133321649Y-93875415D01*
X133292601Y-93779657D01*
X133245429Y-93691405D01*
X133181948Y-93614052D01*
X133104595Y-93550571D01*
X133016343Y-93503399D01*
X132920585Y-93474351D01*
X132821000Y-93464543D01*
X131761000Y-93464543D01*
X131661415Y-93474351D01*
X131565657Y-93503399D01*
X131477405Y-93550571D01*
X131400052Y-93614052D01*
X131336571Y-93691405D01*
X131289399Y-93779657D01*
X131260351Y-93875415D01*
X131250543Y-93975000D01*
X131250543Y-94056200D01*
X131131457Y-94056200D01*
X131131457Y-93975000D01*
X131121649Y-93875415D01*
X131092601Y-93779657D01*
X131045429Y-93691405D01*
X130981948Y-93614052D01*
X130904595Y-93550571D01*
X130827600Y-93509416D01*
X130827600Y-92972109D01*
X131847971Y-91951739D01*
X131858149Y-91995210D01*
X131919343Y-92136103D01*
X132006848Y-92262350D01*
X132117301Y-92369100D01*
X132246458Y-92452250D01*
X132389355Y-92508605D01*
X132540500Y-92536000D01*
X132840500Y-92536000D01*
X132840500Y-91818500D01*
X132820500Y-91818500D01*
X132820500Y-91691500D01*
X132840500Y-91691500D01*
X132840500Y-91671500D01*
X132967500Y-91671500D01*
X132967500Y-91691500D01*
X132987500Y-91691500D01*
X132987500Y-91818500D01*
X132967500Y-91818500D01*
X132967500Y-92536000D01*
X133267500Y-92536000D01*
X133351576Y-92520761D01*
X133353011Y-92527977D01*
X133415805Y-92679574D01*
X133506966Y-92816007D01*
X133622993Y-92932034D01*
X133759426Y-93023195D01*
X133911023Y-93085989D01*
X134071957Y-93118000D01*
X134236043Y-93118000D01*
X134396977Y-93085989D01*
X134548574Y-93023195D01*
X134685007Y-92932034D01*
X134801034Y-92816007D01*
X134892195Y-92679574D01*
X134954989Y-92527977D01*
X134987000Y-92367043D01*
X134987000Y-92202957D01*
X134954989Y-92042023D01*
X134892195Y-91890426D01*
X134801034Y-91753993D01*
X134685007Y-91637966D01*
X134548574Y-91546805D01*
X134396977Y-91484011D01*
X134236043Y-91452000D01*
X134071957Y-91452000D01*
X133934458Y-91479350D01*
X133888657Y-91373897D01*
X133801152Y-91247650D01*
X133690699Y-91140900D01*
X133561542Y-91057750D01*
X133500306Y-91033600D01*
X136701334Y-91033600D01*
X136668319Y-91083010D01*
X136550874Y-91366548D01*
X136491000Y-91667550D01*
X136491000Y-91974450D01*
X136550874Y-92275452D01*
X136668319Y-92558990D01*
X136838823Y-92814167D01*
X137055833Y-93031177D01*
X137311010Y-93201681D01*
X137594548Y-93319126D01*
X137895550Y-93379000D01*
X138202450Y-93379000D01*
X138503452Y-93319126D01*
X138786990Y-93201681D01*
X139042167Y-93031177D01*
X139053342Y-93020002D01*
X139067399Y-93066343D01*
X139114571Y-93154595D01*
X139178052Y-93231948D01*
X139255405Y-93295429D01*
X139343657Y-93342601D01*
X139439415Y-93371649D01*
X139539000Y-93381457D01*
X141639000Y-93381457D01*
X141738585Y-93371649D01*
X141834343Y-93342601D01*
X141922595Y-93295429D01*
X141999948Y-93231948D01*
X142063429Y-93154595D01*
X142110601Y-93066343D01*
X142139649Y-92970585D01*
X142149457Y-92871000D01*
X142149457Y-90771000D01*
X142139649Y-90671415D01*
X142110601Y-90575657D01*
X142063429Y-90487405D01*
X141999948Y-90410052D01*
X141922595Y-90346571D01*
X141834343Y-90299399D01*
X141738585Y-90270351D01*
X141639000Y-90260543D01*
X140070252Y-90260543D01*
X139865409Y-90055700D01*
X144487590Y-90055700D01*
X144035804Y-90507487D01*
X144035804Y-90507487D01*
G37*
X144035804Y-90507487D02*
X144007698Y-90530553D01*
X143965851Y-90581543D01*
X143744500Y-90581543D01*
X143598581Y-90595915D01*
X143458269Y-90638478D01*
X143328957Y-90707596D01*
X143215615Y-90800615D01*
X143122596Y-90913957D01*
X143053478Y-91043269D01*
X143010915Y-91183581D01*
X142996543Y-91329500D01*
X142996543Y-91804500D01*
X143010915Y-91950419D01*
X143053478Y-92090731D01*
X143122596Y-92220043D01*
X143215615Y-92333385D01*
X143287646Y-92392500D01*
X143215615Y-92451615D01*
X143122596Y-92564957D01*
X143053478Y-92694269D01*
X143010915Y-92834581D01*
X142996543Y-92980500D01*
X142996543Y-93455500D01*
X143010915Y-93601419D01*
X143053478Y-93741731D01*
X143122596Y-93871043D01*
X143215615Y-93984385D01*
X143295401Y-94049864D01*
X143295401Y-94561691D01*
X142831360Y-95025732D01*
X142788948Y-94974052D01*
X142711595Y-94910571D01*
X142623343Y-94863399D01*
X142567635Y-94846500D01*
X142713750Y-94846500D01*
X142809000Y-94751250D01*
X142810843Y-94685000D01*
X142803487Y-94610311D01*
X142781701Y-94538492D01*
X142746322Y-94472304D01*
X142698711Y-94414289D01*
X142640696Y-94366678D01*
X142574508Y-94331299D01*
X142502689Y-94309513D01*
X142428000Y-94302157D01*
X141861750Y-94304000D01*
X141766500Y-94399250D01*
X141766500Y-94824543D01*
X141750791Y-94824543D01*
X141739186Y-94823400D01*
X141639500Y-94823400D01*
X141639500Y-94399250D01*
X141544250Y-94304000D01*
X140978000Y-94302157D01*
X140903311Y-94309513D01*
X140831492Y-94331299D01*
X140765304Y-94366678D01*
X140707289Y-94414289D01*
X140659678Y-94472304D01*
X140624299Y-94538492D01*
X140602513Y-94610311D01*
X140595157Y-94685000D01*
X140597000Y-94751250D01*
X140669150Y-94823400D01*
X140594457Y-94823400D01*
X140594457Y-94758500D01*
X140580085Y-94612581D01*
X140537522Y-94472269D01*
X140468404Y-94342957D01*
X140375385Y-94229615D01*
X140262043Y-94136596D01*
X140132731Y-94067478D01*
X139992419Y-94024915D01*
X139846500Y-94010543D01*
X139271500Y-94010543D01*
X139125581Y-94024915D01*
X138985269Y-94067478D01*
X138855957Y-94136596D01*
X138742615Y-94229615D01*
X138662464Y-94327278D01*
X138652322Y-94308304D01*
X138604711Y-94250289D01*
X138546696Y-94202678D01*
X138480508Y-94167299D01*
X138408689Y-94145513D01*
X138334000Y-94138157D01*
X137967750Y-94140000D01*
X137872500Y-94235250D01*
X137872500Y-94932500D01*
X137892500Y-94932500D01*
X137892500Y-95059500D01*
X137872500Y-95059500D01*
X137872500Y-95079500D01*
X137745500Y-95079500D01*
X137745500Y-95059500D01*
X136998250Y-95059500D01*
X136903000Y-95154750D01*
X136901157Y-95471000D01*
X136908513Y-95545689D01*
X136930299Y-95617508D01*
X136965678Y-95683696D01*
X137013289Y-95741711D01*
X137071304Y-95789322D01*
X137091016Y-95799858D01*
X136992615Y-95880615D01*
X136899596Y-95993957D01*
X136830478Y-96123269D01*
X136787915Y-96263581D01*
X136773543Y-96409500D01*
X136773543Y-96469400D01*
X135621186Y-96469400D01*
X135585000Y-96465836D01*
X135548814Y-96469400D01*
X134754168Y-96469400D01*
X134661100Y-96393020D01*
X134672696Y-96386822D01*
X134730711Y-96339211D01*
X134778322Y-96281196D01*
X134813701Y-96215008D01*
X134835487Y-96143189D01*
X134842843Y-96068500D01*
X134841000Y-95789750D01*
X134745750Y-95694500D01*
X134048500Y-95694500D01*
X134048500Y-95714500D01*
X133921500Y-95714500D01*
X133921500Y-95694500D01*
X133901500Y-95694500D01*
X133901500Y-95567500D01*
X133921500Y-95567500D01*
X133921500Y-94907750D01*
X134048500Y-94907750D01*
X134048500Y-95567500D01*
X134745750Y-95567500D01*
X134841000Y-95472250D01*
X134842843Y-95193500D01*
X134835487Y-95118811D01*
X134813701Y-95046992D01*
X134778322Y-94980804D01*
X134730711Y-94922789D01*
X134672696Y-94875178D01*
X134606508Y-94839799D01*
X134534689Y-94818013D01*
X134460000Y-94810657D01*
X134143750Y-94812500D01*
X134048500Y-94907750D01*
X133921500Y-94907750D01*
X133826250Y-94812500D01*
X133510000Y-94810657D01*
X133435311Y-94818013D01*
X133363492Y-94839799D01*
X133297304Y-94875178D01*
X133239289Y-94922789D01*
X133191678Y-94980804D01*
X133156299Y-95046992D01*
X133134513Y-95118811D01*
X133127157Y-95193500D01*
X133128989Y-95470590D01*
X133104595Y-95450571D01*
X133016343Y-95403399D01*
X132920585Y-95374351D01*
X132821000Y-95364543D01*
X131960399Y-95364543D01*
X131927600Y-95285361D01*
X131927600Y-95214639D01*
X131960399Y-95135457D01*
X132821000Y-95135457D01*
X132920585Y-95125649D01*
X133016343Y-95096601D01*
X133104595Y-95049429D01*
X133181948Y-94985948D01*
X133245429Y-94908595D01*
X133292601Y-94820343D01*
X133321649Y-94724585D01*
X133331457Y-94625000D01*
X133331457Y-94521000D01*
X136901157Y-94521000D01*
X136903000Y-94837250D01*
X136998250Y-94932500D01*
X137745500Y-94932500D01*
X137745500Y-94235250D01*
X137650250Y-94140000D01*
X137284000Y-94138157D01*
X137209311Y-94145513D01*
X137137492Y-94167299D01*
X137071304Y-94202678D01*
X137013289Y-94250289D01*
X136965678Y-94308304D01*
X136930299Y-94374492D01*
X136908513Y-94446311D01*
X136901157Y-94521000D01*
X133331457Y-94521000D01*
X133331457Y-93975000D01*
X133321649Y-93875415D01*
X133292601Y-93779657D01*
X133245429Y-93691405D01*
X133181948Y-93614052D01*
X133104595Y-93550571D01*
X133016343Y-93503399D01*
X132920585Y-93474351D01*
X132821000Y-93464543D01*
X131761000Y-93464543D01*
X131661415Y-93474351D01*
X131565657Y-93503399D01*
X131477405Y-93550571D01*
X131400052Y-93614052D01*
X131336571Y-93691405D01*
X131289399Y-93779657D01*
X131260351Y-93875415D01*
X131250543Y-93975000D01*
X131250543Y-94056200D01*
X131131457Y-94056200D01*
X131131457Y-93975000D01*
X131121649Y-93875415D01*
X131092601Y-93779657D01*
X131045429Y-93691405D01*
X130981948Y-93614052D01*
X130904595Y-93550571D01*
X130827600Y-93509416D01*
X130827600Y-92972109D01*
X131847971Y-91951739D01*
X131858149Y-91995210D01*
X131919343Y-92136103D01*
X132006848Y-92262350D01*
X132117301Y-92369100D01*
X132246458Y-92452250D01*
X132389355Y-92508605D01*
X132540500Y-92536000D01*
X132840500Y-92536000D01*
X132840500Y-91818500D01*
X132820500Y-91818500D01*
X132820500Y-91691500D01*
X132840500Y-91691500D01*
X132840500Y-91671500D01*
X132967500Y-91671500D01*
X132967500Y-91691500D01*
X132987500Y-91691500D01*
X132987500Y-91818500D01*
X132967500Y-91818500D01*
X132967500Y-92536000D01*
X133267500Y-92536000D01*
X133351576Y-92520761D01*
X133353011Y-92527977D01*
X133415805Y-92679574D01*
X133506966Y-92816007D01*
X133622993Y-92932034D01*
X133759426Y-93023195D01*
X133911023Y-93085989D01*
X134071957Y-93118000D01*
X134236043Y-93118000D01*
X134396977Y-93085989D01*
X134548574Y-93023195D01*
X134685007Y-92932034D01*
X134801034Y-92816007D01*
X134892195Y-92679574D01*
X134954989Y-92527977D01*
X134987000Y-92367043D01*
X134987000Y-92202957D01*
X134954989Y-92042023D01*
X134892195Y-91890426D01*
X134801034Y-91753993D01*
X134685007Y-91637966D01*
X134548574Y-91546805D01*
X134396977Y-91484011D01*
X134236043Y-91452000D01*
X134071957Y-91452000D01*
X133934458Y-91479350D01*
X133888657Y-91373897D01*
X133801152Y-91247650D01*
X133690699Y-91140900D01*
X133561542Y-91057750D01*
X133500306Y-91033600D01*
X136701334Y-91033600D01*
X136668319Y-91083010D01*
X136550874Y-91366548D01*
X136491000Y-91667550D01*
X136491000Y-91974450D01*
X136550874Y-92275452D01*
X136668319Y-92558990D01*
X136838823Y-92814167D01*
X137055833Y-93031177D01*
X137311010Y-93201681D01*
X137594548Y-93319126D01*
X137895550Y-93379000D01*
X138202450Y-93379000D01*
X138503452Y-93319126D01*
X138786990Y-93201681D01*
X139042167Y-93031177D01*
X139053342Y-93020002D01*
X139067399Y-93066343D01*
X139114571Y-93154595D01*
X139178052Y-93231948D01*
X139255405Y-93295429D01*
X139343657Y-93342601D01*
X139439415Y-93371649D01*
X139539000Y-93381457D01*
X141639000Y-93381457D01*
X141738585Y-93371649D01*
X141834343Y-93342601D01*
X141922595Y-93295429D01*
X141999948Y-93231948D01*
X142063429Y-93154595D01*
X142110601Y-93066343D01*
X142139649Y-92970585D01*
X142149457Y-92871000D01*
X142149457Y-90771000D01*
X142139649Y-90671415D01*
X142110601Y-90575657D01*
X142063429Y-90487405D01*
X141999948Y-90410052D01*
X141922595Y-90346571D01*
X141834343Y-90299399D01*
X141738585Y-90270351D01*
X141639000Y-90260543D01*
X140070252Y-90260543D01*
X139865409Y-90055700D01*
X144487590Y-90055700D01*
X144035804Y-90507487D01*
G36*
X129180000Y-95313502D02*
G01*
X129275248Y-95313502D01*
X129180000Y-95408750D01*
X129179332Y-95469046D01*
X129163385Y-95449615D01*
X129065722Y-95369464D01*
X129084696Y-95359322D01*
X129142711Y-95311711D01*
X129180000Y-95266274D01*
X129180000Y-95313502D01*
X129180000Y-95313502D01*
G37*
X129180000Y-95313502D02*
X129275248Y-95313502D01*
X129180000Y-95408750D01*
X129179332Y-95469046D01*
X129163385Y-95449615D01*
X129065722Y-95369464D01*
X129084696Y-95359322D01*
X129142711Y-95311711D01*
X129180000Y-95266274D01*
X129180000Y-95313502D01*
G36*
X130154500Y-95186500D02*
G01*
X130174500Y-95186500D01*
X130174500Y-95313500D01*
X130154500Y-95313500D01*
X130154500Y-95333500D01*
X130027500Y-95333500D01*
X130027500Y-95313500D01*
X130007500Y-95313500D01*
X130007500Y-95186500D01*
X130027500Y-95186500D01*
X130027500Y-95166500D01*
X130154500Y-95166500D01*
X130154500Y-95186500D01*
X130154500Y-95186500D01*
G37*
X130154500Y-95186500D02*
X130174500Y-95186500D01*
X130174500Y-95313500D01*
X130154500Y-95313500D01*
X130154500Y-95333500D01*
X130027500Y-95333500D01*
X130027500Y-95313500D01*
X130007500Y-95313500D01*
X130007500Y-95186500D01*
X130027500Y-95186500D01*
X130027500Y-95166500D01*
X130154500Y-95166500D01*
X130154500Y-95186500D01*
G36*
X129275248Y-95186498D02*
G01*
X129226007Y-95186498D01*
X129237468Y-95148718D01*
X129275248Y-95186498D01*
X129275248Y-95186498D01*
G37*
X129275248Y-95186498D02*
X129226007Y-95186498D01*
X129237468Y-95148718D01*
X129275248Y-95186498D01*
G36*
X153314401Y-93904111D02*
G01*
X153314401Y-93909647D01*
X153304731Y-93904478D01*
X153164419Y-93861915D01*
X153018500Y-93847543D01*
X152543500Y-93847543D01*
X152397581Y-93861915D01*
X152257269Y-93904478D01*
X152127957Y-93973596D01*
X152014615Y-94066615D01*
X151955500Y-94138646D01*
X151896385Y-94066615D01*
X151783043Y-93973596D01*
X151653731Y-93904478D01*
X151615908Y-93893004D01*
X151677522Y-93777731D01*
X151720085Y-93637419D01*
X151734457Y-93491500D01*
X151734457Y-93065600D01*
X152475891Y-93065600D01*
X153314401Y-93904111D01*
X153314401Y-93904111D01*
G37*
X153314401Y-93904111D02*
X153314401Y-93909647D01*
X153304731Y-93904478D01*
X153164419Y-93861915D01*
X153018500Y-93847543D01*
X152543500Y-93847543D01*
X152397581Y-93861915D01*
X152257269Y-93904478D01*
X152127957Y-93973596D01*
X152014615Y-94066615D01*
X151955500Y-94138646D01*
X151896385Y-94066615D01*
X151783043Y-93973596D01*
X151653731Y-93904478D01*
X151615908Y-93893004D01*
X151677522Y-93777731D01*
X151720085Y-93637419D01*
X151734457Y-93491500D01*
X151734457Y-93065600D01*
X152475891Y-93065600D01*
X153314401Y-93904111D01*
M02*
