G04 #@! TF.GenerationSoftware,KiCad,Pcbnew,(5.1.0-47-g8a7e501fe)*
G04 #@! TF.CreationDate,2019-04-01T01:15:26-05:00*
G04 #@! TF.ProjectId,usb_c_wien_bridge,7573625f-635f-4776-9965-6e5f62726964,0.1a*
G04 #@! TF.SameCoordinates,Original*
G04 #@! TF.FileFunction,Soldermask,Bot*
G04 #@! TF.FilePolarity,Negative*
%FSLAX46Y46*%
G04 Gerber Fmt 4.6, Leading zero omitted, Abs format (unit mm)*
G04 Created by KiCad (PCBNEW (5.1.0-47-g8a7e501fe)) date 2019-04-01 01:15:26*
%MOMM*%
%LPD*%
G04 APERTURE LIST*
%ADD10C,0.100000*%
G04 APERTURE END LIST*
D10*
G36*
X139556278Y-100249701D02*
G01*
X139612193Y-100266663D01*
X139693095Y-100291204D01*
X139819183Y-100358600D01*
X139929701Y-100449299D01*
X140020400Y-100559817D01*
X140087796Y-100685905D01*
X140094829Y-100709091D01*
X140129299Y-100822722D01*
X140143312Y-100965000D01*
X140129299Y-101107278D01*
X140107288Y-101179837D01*
X140087796Y-101244095D01*
X140020400Y-101370183D01*
X139929701Y-101480701D01*
X139819183Y-101571400D01*
X139693095Y-101638796D01*
X139628837Y-101658288D01*
X139556278Y-101680299D01*
X139449655Y-101690800D01*
X139378345Y-101690800D01*
X139271722Y-101680299D01*
X139199163Y-101658288D01*
X139134905Y-101638796D01*
X139008817Y-101571400D01*
X138898299Y-101480701D01*
X138807600Y-101370183D01*
X138740204Y-101244095D01*
X138720712Y-101179837D01*
X138698701Y-101107278D01*
X138684688Y-100965000D01*
X138698701Y-100822722D01*
X138733171Y-100709091D01*
X138740204Y-100685905D01*
X138807600Y-100559817D01*
X138898299Y-100449299D01*
X139008817Y-100358600D01*
X139134905Y-100291204D01*
X139215807Y-100266663D01*
X139271722Y-100249701D01*
X139378345Y-100239200D01*
X139449655Y-100239200D01*
X139556278Y-100249701D01*
X139556278Y-100249701D01*
G37*
G36*
X137556278Y-100249701D02*
G01*
X137612193Y-100266663D01*
X137693095Y-100291204D01*
X137819183Y-100358600D01*
X137929701Y-100449299D01*
X138020400Y-100559817D01*
X138087796Y-100685905D01*
X138094829Y-100709091D01*
X138129299Y-100822722D01*
X138143312Y-100965000D01*
X138129299Y-101107278D01*
X138107288Y-101179837D01*
X138087796Y-101244095D01*
X138020400Y-101370183D01*
X137929701Y-101480701D01*
X137819183Y-101571400D01*
X137693095Y-101638796D01*
X137628837Y-101658288D01*
X137556278Y-101680299D01*
X137449655Y-101690800D01*
X137378345Y-101690800D01*
X137271722Y-101680299D01*
X137199163Y-101658288D01*
X137134905Y-101638796D01*
X137008817Y-101571400D01*
X136898299Y-101480701D01*
X136807600Y-101370183D01*
X136740204Y-101244095D01*
X136720712Y-101179837D01*
X136698701Y-101107278D01*
X136684688Y-100965000D01*
X136698701Y-100822722D01*
X136733171Y-100709091D01*
X136740204Y-100685905D01*
X136807600Y-100559817D01*
X136898299Y-100449299D01*
X137008817Y-100358600D01*
X137134905Y-100291204D01*
X137215807Y-100266663D01*
X137271722Y-100249701D01*
X137378345Y-100239200D01*
X137449655Y-100239200D01*
X137556278Y-100249701D01*
X137556278Y-100249701D01*
G37*
G36*
X146003584Y-99872004D02*
G01*
X146048091Y-99885505D01*
X146089112Y-99907431D01*
X146125064Y-99936936D01*
X146154569Y-99972888D01*
X146176495Y-100013909D01*
X146189996Y-100058416D01*
X146194800Y-100107193D01*
X146194800Y-100778807D01*
X146189996Y-100827584D01*
X146176495Y-100872091D01*
X146154569Y-100913112D01*
X146125064Y-100949064D01*
X146089112Y-100978569D01*
X146048091Y-101000495D01*
X146003584Y-101013996D01*
X145954807Y-101018800D01*
X145383193Y-101018800D01*
X145334416Y-101013996D01*
X145289909Y-101000495D01*
X145248888Y-100978569D01*
X145212936Y-100949064D01*
X145183431Y-100913112D01*
X145161505Y-100872091D01*
X145148004Y-100827584D01*
X145143200Y-100778807D01*
X145143200Y-100107193D01*
X145148004Y-100058416D01*
X145161505Y-100013909D01*
X145183431Y-99972888D01*
X145212936Y-99936936D01*
X145248888Y-99907431D01*
X145289909Y-99885505D01*
X145334416Y-99872004D01*
X145383193Y-99867200D01*
X145954807Y-99867200D01*
X146003584Y-99872004D01*
X146003584Y-99872004D01*
G37*
G36*
X147654584Y-99872004D02*
G01*
X147699091Y-99885505D01*
X147740112Y-99907431D01*
X147776064Y-99936936D01*
X147805569Y-99972888D01*
X147827495Y-100013909D01*
X147840996Y-100058416D01*
X147845800Y-100107193D01*
X147845800Y-100778807D01*
X147840996Y-100827584D01*
X147827495Y-100872091D01*
X147805569Y-100913112D01*
X147776064Y-100949064D01*
X147740112Y-100978569D01*
X147699091Y-101000495D01*
X147654584Y-101013996D01*
X147605807Y-101018800D01*
X147034193Y-101018800D01*
X146985416Y-101013996D01*
X146940909Y-101000495D01*
X146899888Y-100978569D01*
X146863936Y-100949064D01*
X146834431Y-100913112D01*
X146812505Y-100872091D01*
X146799004Y-100827584D01*
X146794200Y-100778807D01*
X146794200Y-100107193D01*
X146799004Y-100058416D01*
X146812505Y-100013909D01*
X146834431Y-99972888D01*
X146863936Y-99936936D01*
X146899888Y-99907431D01*
X146940909Y-99885505D01*
X146985416Y-99872004D01*
X147034193Y-99867200D01*
X147605807Y-99867200D01*
X147654584Y-99872004D01*
X147654584Y-99872004D01*
G37*
G36*
X149305584Y-99872004D02*
G01*
X149350091Y-99885505D01*
X149391112Y-99907431D01*
X149427064Y-99936936D01*
X149456569Y-99972888D01*
X149478495Y-100013909D01*
X149491996Y-100058416D01*
X149496800Y-100107193D01*
X149496800Y-100778807D01*
X149491996Y-100827584D01*
X149478495Y-100872091D01*
X149456569Y-100913112D01*
X149427064Y-100949064D01*
X149391112Y-100978569D01*
X149350091Y-101000495D01*
X149305584Y-101013996D01*
X149256807Y-101018800D01*
X148685193Y-101018800D01*
X148636416Y-101013996D01*
X148591909Y-101000495D01*
X148550888Y-100978569D01*
X148514936Y-100949064D01*
X148485431Y-100913112D01*
X148463505Y-100872091D01*
X148450004Y-100827584D01*
X148445200Y-100778807D01*
X148445200Y-100107193D01*
X148450004Y-100058416D01*
X148463505Y-100013909D01*
X148485431Y-99972888D01*
X148514936Y-99936936D01*
X148550888Y-99907431D01*
X148591909Y-99885505D01*
X148636416Y-99872004D01*
X148685193Y-99867200D01*
X149256807Y-99867200D01*
X149305584Y-99872004D01*
X149305584Y-99872004D01*
G37*
G36*
X142257584Y-99809004D02*
G01*
X142302091Y-99822505D01*
X142343112Y-99844431D01*
X142379064Y-99873936D01*
X142408569Y-99909888D01*
X142430495Y-99950909D01*
X142443996Y-99995416D01*
X142448800Y-100044193D01*
X142448800Y-100615807D01*
X142443996Y-100664584D01*
X142430495Y-100709091D01*
X142408569Y-100750112D01*
X142379064Y-100786064D01*
X142343112Y-100815569D01*
X142302091Y-100837495D01*
X142257584Y-100850996D01*
X142208807Y-100855800D01*
X141537193Y-100855800D01*
X141488416Y-100850996D01*
X141443909Y-100837495D01*
X141402888Y-100815569D01*
X141366936Y-100786064D01*
X141337431Y-100750112D01*
X141315505Y-100709091D01*
X141302004Y-100664584D01*
X141297200Y-100615807D01*
X141297200Y-100044193D01*
X141302004Y-99995416D01*
X141315505Y-99950909D01*
X141337431Y-99909888D01*
X141366936Y-99873936D01*
X141402888Y-99844431D01*
X141443909Y-99822505D01*
X141488416Y-99809004D01*
X141537193Y-99804200D01*
X142208807Y-99804200D01*
X142257584Y-99809004D01*
X142257584Y-99809004D01*
G37*
G36*
X144007584Y-99809004D02*
G01*
X144052091Y-99822505D01*
X144093112Y-99844431D01*
X144129064Y-99873936D01*
X144158569Y-99909888D01*
X144180495Y-99950909D01*
X144193996Y-99995416D01*
X144198800Y-100044193D01*
X144198800Y-100615807D01*
X144193996Y-100664584D01*
X144180495Y-100709091D01*
X144158569Y-100750112D01*
X144129064Y-100786064D01*
X144093112Y-100815569D01*
X144052091Y-100837495D01*
X144007584Y-100850996D01*
X143958807Y-100855800D01*
X143287193Y-100855800D01*
X143238416Y-100850996D01*
X143193909Y-100837495D01*
X143152888Y-100815569D01*
X143116936Y-100786064D01*
X143087431Y-100750112D01*
X143065505Y-100709091D01*
X143052004Y-100664584D01*
X143047200Y-100615807D01*
X143047200Y-100044193D01*
X143052004Y-99995416D01*
X143065505Y-99950909D01*
X143087431Y-99909888D01*
X143116936Y-99873936D01*
X143152888Y-99844431D01*
X143193909Y-99822505D01*
X143238416Y-99809004D01*
X143287193Y-99804200D01*
X143958807Y-99804200D01*
X144007584Y-99809004D01*
X144007584Y-99809004D01*
G37*
G36*
X127342369Y-99930722D02*
G01*
X127342372Y-99930723D01*
X127427348Y-99956500D01*
X127505663Y-99998360D01*
X127574306Y-100054694D01*
X127630640Y-100123337D01*
X127672500Y-100201652D01*
X127683890Y-100239200D01*
X127698278Y-100286631D01*
X127706982Y-100375000D01*
X127698278Y-100463369D01*
X127695330Y-100473088D01*
X127672500Y-100548348D01*
X127630640Y-100626663D01*
X127574306Y-100695306D01*
X127505663Y-100751640D01*
X127427348Y-100793500D01*
X127354596Y-100815569D01*
X127342369Y-100819278D01*
X127276149Y-100825800D01*
X126631851Y-100825800D01*
X126565631Y-100819278D01*
X126553404Y-100815569D01*
X126480652Y-100793500D01*
X126402337Y-100751640D01*
X126333694Y-100695306D01*
X126277360Y-100626663D01*
X126235500Y-100548348D01*
X126212670Y-100473088D01*
X126209722Y-100463369D01*
X126201018Y-100375000D01*
X126209722Y-100286631D01*
X126224110Y-100239200D01*
X126235500Y-100201652D01*
X126277360Y-100123337D01*
X126333694Y-100054694D01*
X126402337Y-99998360D01*
X126480652Y-99956500D01*
X126565628Y-99930723D01*
X126565631Y-99930722D01*
X126631851Y-99924200D01*
X127276149Y-99924200D01*
X127342369Y-99930722D01*
X127342369Y-99930722D01*
G37*
G36*
X133292369Y-99570722D02*
G01*
X133292372Y-99570723D01*
X133377348Y-99596500D01*
X133455663Y-99638360D01*
X133524306Y-99694694D01*
X133580640Y-99763337D01*
X133622500Y-99841652D01*
X133636320Y-99887212D01*
X133648278Y-99926631D01*
X133656982Y-100015000D01*
X133648278Y-100103369D01*
X133648277Y-100103372D01*
X133622500Y-100188348D01*
X133580640Y-100266663D01*
X133524306Y-100335306D01*
X133455663Y-100391640D01*
X133377348Y-100433500D01*
X133325265Y-100449299D01*
X133292369Y-100459278D01*
X133226149Y-100465800D01*
X132581851Y-100465800D01*
X132515631Y-100459278D01*
X132482735Y-100449299D01*
X132430652Y-100433500D01*
X132352337Y-100391640D01*
X132283694Y-100335306D01*
X132227360Y-100266663D01*
X132185500Y-100188348D01*
X132159723Y-100103372D01*
X132159722Y-100103369D01*
X132151018Y-100015000D01*
X132159722Y-99926631D01*
X132171680Y-99887212D01*
X132185500Y-99841652D01*
X132227360Y-99763337D01*
X132283694Y-99694694D01*
X132352337Y-99638360D01*
X132430652Y-99596500D01*
X132515628Y-99570723D01*
X132515631Y-99570722D01*
X132581851Y-99564200D01*
X133226149Y-99564200D01*
X133292369Y-99570722D01*
X133292369Y-99570722D01*
G37*
G36*
X134227666Y-98964637D02*
G01*
X134227669Y-98964638D01*
X134227670Y-98964638D01*
X134298508Y-98986126D01*
X134363793Y-99021022D01*
X134363795Y-99021023D01*
X134363794Y-99021023D01*
X134421017Y-99067983D01*
X134458233Y-99113333D01*
X134467978Y-99125207D01*
X134502874Y-99190492D01*
X134521075Y-99250495D01*
X134524363Y-99261334D01*
X134529800Y-99316537D01*
X134529800Y-99653463D01*
X134524363Y-99708666D01*
X134524362Y-99708669D01*
X134524362Y-99708670D01*
X134502874Y-99779508D01*
X134467978Y-99844793D01*
X134467977Y-99844794D01*
X134421017Y-99902016D01*
X134386036Y-99930723D01*
X134363792Y-99948978D01*
X134298507Y-99983874D01*
X134227669Y-100005362D01*
X134227668Y-100005362D01*
X134227665Y-100005363D01*
X134154000Y-100012619D01*
X134080334Y-100005363D01*
X134080331Y-100005362D01*
X134080330Y-100005362D01*
X134009492Y-99983874D01*
X133944207Y-99948978D01*
X133916977Y-99926631D01*
X133886984Y-99902017D01*
X133840023Y-99844793D01*
X133840022Y-99844792D01*
X133805126Y-99779507D01*
X133783638Y-99708669D01*
X133783638Y-99708668D01*
X133783637Y-99708665D01*
X133778200Y-99653462D01*
X133778200Y-99316537D01*
X133783637Y-99261334D01*
X133786925Y-99250495D01*
X133805126Y-99190492D01*
X133840023Y-99125207D01*
X133855370Y-99106507D01*
X133886984Y-99067983D01*
X133944207Y-99021023D01*
X133944206Y-99021023D01*
X133944208Y-99021022D01*
X134009493Y-98986126D01*
X134080331Y-98964638D01*
X134080332Y-98964638D01*
X134080335Y-98964637D01*
X134154000Y-98957381D01*
X134227666Y-98964637D01*
X134227666Y-98964637D01*
G37*
G36*
X129254674Y-98982643D02*
G01*
X129295667Y-98995078D01*
X129333448Y-99015273D01*
X129366556Y-99042444D01*
X129393727Y-99075552D01*
X129413922Y-99113333D01*
X129426357Y-99154326D01*
X129430800Y-99199441D01*
X129430800Y-99733559D01*
X129426357Y-99778674D01*
X129413922Y-99819667D01*
X129393727Y-99857448D01*
X129366556Y-99890556D01*
X129333448Y-99917727D01*
X129295667Y-99937922D01*
X129254674Y-99950357D01*
X129209559Y-99954800D01*
X128600441Y-99954800D01*
X128555326Y-99950357D01*
X128514333Y-99937922D01*
X128476552Y-99917727D01*
X128443444Y-99890556D01*
X128416273Y-99857448D01*
X128396078Y-99819667D01*
X128383643Y-99778674D01*
X128379200Y-99733559D01*
X128379200Y-99199441D01*
X128383643Y-99154326D01*
X128396078Y-99113333D01*
X128416273Y-99075552D01*
X128443444Y-99042444D01*
X128476552Y-99015273D01*
X128514333Y-98995078D01*
X128555326Y-98982643D01*
X128600441Y-98978200D01*
X129209559Y-98978200D01*
X129254674Y-98982643D01*
X129254674Y-98982643D01*
G37*
G36*
X139556278Y-98249701D02*
G01*
X139623329Y-98270041D01*
X139693095Y-98291204D01*
X139819183Y-98358600D01*
X139929701Y-98449299D01*
X140020400Y-98559817D01*
X140087796Y-98685905D01*
X140107288Y-98750163D01*
X140129299Y-98822722D01*
X140143312Y-98965000D01*
X140129299Y-99107278D01*
X140111920Y-99164569D01*
X140087796Y-99244095D01*
X140020400Y-99370183D01*
X139929701Y-99480701D01*
X139819183Y-99571400D01*
X139693095Y-99638796D01*
X139644743Y-99653463D01*
X139556278Y-99680299D01*
X139449655Y-99690800D01*
X139378345Y-99690800D01*
X139271722Y-99680299D01*
X139183257Y-99653463D01*
X139134905Y-99638796D01*
X139008817Y-99571400D01*
X138898299Y-99480701D01*
X138807600Y-99370183D01*
X138740204Y-99244095D01*
X138716080Y-99164569D01*
X138698701Y-99107278D01*
X138684688Y-98965000D01*
X138698701Y-98822722D01*
X138720712Y-98750163D01*
X138740204Y-98685905D01*
X138807600Y-98559817D01*
X138898299Y-98449299D01*
X139008817Y-98358600D01*
X139134905Y-98291204D01*
X139204671Y-98270041D01*
X139271722Y-98249701D01*
X139378345Y-98239200D01*
X139449655Y-98239200D01*
X139556278Y-98249701D01*
X139556278Y-98249701D01*
G37*
G36*
X138139800Y-99690800D02*
G01*
X136688200Y-99690800D01*
X136688200Y-98239200D01*
X138139800Y-98239200D01*
X138139800Y-99690800D01*
X138139800Y-99690800D01*
G37*
G36*
X149305584Y-98122004D02*
G01*
X149350091Y-98135505D01*
X149391112Y-98157431D01*
X149427064Y-98186936D01*
X149456569Y-98222888D01*
X149478495Y-98263909D01*
X149491996Y-98308416D01*
X149496800Y-98357193D01*
X149496800Y-99028807D01*
X149491996Y-99077584D01*
X149478495Y-99122091D01*
X149456569Y-99163112D01*
X149427064Y-99199064D01*
X149391112Y-99228569D01*
X149350091Y-99250495D01*
X149305584Y-99263996D01*
X149256807Y-99268800D01*
X148685193Y-99268800D01*
X148636416Y-99263996D01*
X148591909Y-99250495D01*
X148550888Y-99228569D01*
X148514936Y-99199064D01*
X148485431Y-99163112D01*
X148463505Y-99122091D01*
X148450004Y-99077584D01*
X148445200Y-99028807D01*
X148445200Y-98357193D01*
X148450004Y-98308416D01*
X148463505Y-98263909D01*
X148485431Y-98222888D01*
X148514936Y-98186936D01*
X148550888Y-98157431D01*
X148591909Y-98135505D01*
X148636416Y-98122004D01*
X148685193Y-98117200D01*
X149256807Y-98117200D01*
X149305584Y-98122004D01*
X149305584Y-98122004D01*
G37*
G36*
X147654584Y-98122004D02*
G01*
X147699091Y-98135505D01*
X147740112Y-98157431D01*
X147776064Y-98186936D01*
X147805569Y-98222888D01*
X147827495Y-98263909D01*
X147840996Y-98308416D01*
X147845800Y-98357193D01*
X147845800Y-99028807D01*
X147840996Y-99077584D01*
X147827495Y-99122091D01*
X147805569Y-99163112D01*
X147776064Y-99199064D01*
X147740112Y-99228569D01*
X147699091Y-99250495D01*
X147654584Y-99263996D01*
X147605807Y-99268800D01*
X147034193Y-99268800D01*
X146985416Y-99263996D01*
X146940909Y-99250495D01*
X146899888Y-99228569D01*
X146863936Y-99199064D01*
X146834431Y-99163112D01*
X146812505Y-99122091D01*
X146799004Y-99077584D01*
X146794200Y-99028807D01*
X146794200Y-98357193D01*
X146799004Y-98308416D01*
X146812505Y-98263909D01*
X146834431Y-98222888D01*
X146863936Y-98186936D01*
X146899888Y-98157431D01*
X146940909Y-98135505D01*
X146985416Y-98122004D01*
X147034193Y-98117200D01*
X147605807Y-98117200D01*
X147654584Y-98122004D01*
X147654584Y-98122004D01*
G37*
G36*
X146003584Y-98122004D02*
G01*
X146048091Y-98135505D01*
X146089112Y-98157431D01*
X146125064Y-98186936D01*
X146154569Y-98222888D01*
X146176495Y-98263909D01*
X146189996Y-98308416D01*
X146194800Y-98357193D01*
X146194800Y-99028807D01*
X146189996Y-99077584D01*
X146176495Y-99122091D01*
X146154569Y-99163112D01*
X146125064Y-99199064D01*
X146089112Y-99228569D01*
X146048091Y-99250495D01*
X146003584Y-99263996D01*
X145954807Y-99268800D01*
X145383193Y-99268800D01*
X145334416Y-99263996D01*
X145289909Y-99250495D01*
X145248888Y-99228569D01*
X145212936Y-99199064D01*
X145183431Y-99163112D01*
X145161505Y-99122091D01*
X145148004Y-99077584D01*
X145143200Y-99028807D01*
X145143200Y-98357193D01*
X145148004Y-98308416D01*
X145161505Y-98263909D01*
X145183431Y-98222888D01*
X145212936Y-98186936D01*
X145248888Y-98157431D01*
X145289909Y-98135505D01*
X145334416Y-98122004D01*
X145383193Y-98117200D01*
X145954807Y-98117200D01*
X146003584Y-98122004D01*
X146003584Y-98122004D01*
G37*
G36*
X142257584Y-98158004D02*
G01*
X142302091Y-98171505D01*
X142343112Y-98193431D01*
X142379064Y-98222936D01*
X142408569Y-98258888D01*
X142430495Y-98299909D01*
X142443996Y-98344416D01*
X142448800Y-98393193D01*
X142448800Y-98964807D01*
X142443996Y-99013584D01*
X142430495Y-99058091D01*
X142408569Y-99099112D01*
X142379064Y-99135064D01*
X142343112Y-99164569D01*
X142302091Y-99186495D01*
X142257584Y-99199996D01*
X142208807Y-99204800D01*
X141537193Y-99204800D01*
X141488416Y-99199996D01*
X141443909Y-99186495D01*
X141402888Y-99164569D01*
X141366936Y-99135064D01*
X141337431Y-99099112D01*
X141315505Y-99058091D01*
X141302004Y-99013584D01*
X141297200Y-98964807D01*
X141297200Y-98393193D01*
X141302004Y-98344416D01*
X141315505Y-98299909D01*
X141337431Y-98258888D01*
X141366936Y-98222936D01*
X141402888Y-98193431D01*
X141443909Y-98171505D01*
X141488416Y-98158004D01*
X141537193Y-98153200D01*
X142208807Y-98153200D01*
X142257584Y-98158004D01*
X142257584Y-98158004D01*
G37*
G36*
X144007584Y-98158004D02*
G01*
X144052091Y-98171505D01*
X144093112Y-98193431D01*
X144129064Y-98222936D01*
X144158569Y-98258888D01*
X144180495Y-98299909D01*
X144193996Y-98344416D01*
X144198800Y-98393193D01*
X144198800Y-98964807D01*
X144193996Y-99013584D01*
X144180495Y-99058091D01*
X144158569Y-99099112D01*
X144129064Y-99135064D01*
X144093112Y-99164569D01*
X144052091Y-99186495D01*
X144007584Y-99199996D01*
X143958807Y-99204800D01*
X143287193Y-99204800D01*
X143238416Y-99199996D01*
X143193909Y-99186495D01*
X143152888Y-99164569D01*
X143116936Y-99135064D01*
X143087431Y-99099112D01*
X143065505Y-99058091D01*
X143052004Y-99013584D01*
X143047200Y-98964807D01*
X143047200Y-98393193D01*
X143052004Y-98344416D01*
X143065505Y-98299909D01*
X143087431Y-98258888D01*
X143116936Y-98222936D01*
X143152888Y-98193431D01*
X143193909Y-98171505D01*
X143238416Y-98158004D01*
X143287193Y-98153200D01*
X143958807Y-98153200D01*
X144007584Y-98158004D01*
X144007584Y-98158004D01*
G37*
G36*
X130954584Y-97396004D02*
G01*
X130999091Y-97409505D01*
X131040112Y-97431431D01*
X131076064Y-97460936D01*
X131105569Y-97496888D01*
X131127495Y-97537909D01*
X131140996Y-97582416D01*
X131145800Y-97631193D01*
X131145800Y-98202807D01*
X131140996Y-98251584D01*
X131127495Y-98296091D01*
X131105569Y-98337112D01*
X131076064Y-98373064D01*
X131040112Y-98402569D01*
X130999091Y-98424495D01*
X130954584Y-98437996D01*
X130905807Y-98442800D01*
X130234193Y-98442800D01*
X130185416Y-98437996D01*
X130140909Y-98424495D01*
X130099888Y-98402569D01*
X130063936Y-98373064D01*
X130034431Y-98337112D01*
X130012505Y-98296091D01*
X129999004Y-98251584D01*
X129994200Y-98202807D01*
X129994200Y-97631193D01*
X129999004Y-97582416D01*
X130012505Y-97537909D01*
X130034431Y-97496888D01*
X130063936Y-97460936D01*
X130099888Y-97431431D01*
X130140909Y-97409505D01*
X130185416Y-97396004D01*
X130234193Y-97391200D01*
X130905807Y-97391200D01*
X130954584Y-97396004D01*
X130954584Y-97396004D01*
G37*
G36*
X132704584Y-97396004D02*
G01*
X132749091Y-97409505D01*
X132790112Y-97431431D01*
X132826064Y-97460936D01*
X132855569Y-97496888D01*
X132877495Y-97537909D01*
X132890996Y-97582416D01*
X132895800Y-97631193D01*
X132895800Y-98202807D01*
X132890996Y-98251584D01*
X132877495Y-98296091D01*
X132855569Y-98337112D01*
X132826064Y-98373064D01*
X132790112Y-98402569D01*
X132749091Y-98424495D01*
X132704584Y-98437996D01*
X132655807Y-98442800D01*
X131984193Y-98442800D01*
X131935416Y-98437996D01*
X131890909Y-98424495D01*
X131849888Y-98402569D01*
X131813936Y-98373064D01*
X131784431Y-98337112D01*
X131762505Y-98296091D01*
X131749004Y-98251584D01*
X131744200Y-98202807D01*
X131744200Y-97631193D01*
X131749004Y-97582416D01*
X131762505Y-97537909D01*
X131784431Y-97496888D01*
X131813936Y-97460936D01*
X131849888Y-97431431D01*
X131890909Y-97409505D01*
X131935416Y-97396004D01*
X131984193Y-97391200D01*
X132655807Y-97391200D01*
X132704584Y-97396004D01*
X132704584Y-97396004D01*
G37*
G36*
X129254674Y-97407643D02*
G01*
X129295667Y-97420078D01*
X129333448Y-97440273D01*
X129366556Y-97467444D01*
X129393727Y-97500552D01*
X129413922Y-97538333D01*
X129426357Y-97579326D01*
X129430800Y-97624441D01*
X129430800Y-98158559D01*
X129426357Y-98203674D01*
X129413922Y-98244667D01*
X129393727Y-98282448D01*
X129366556Y-98315556D01*
X129333448Y-98342727D01*
X129295667Y-98362922D01*
X129254674Y-98375357D01*
X129209559Y-98379800D01*
X128600441Y-98379800D01*
X128555326Y-98375357D01*
X128514333Y-98362922D01*
X128476552Y-98342727D01*
X128443444Y-98315556D01*
X128416273Y-98282448D01*
X128396078Y-98244667D01*
X128383643Y-98203674D01*
X128379200Y-98158559D01*
X128379200Y-97624441D01*
X128383643Y-97579326D01*
X128396078Y-97538333D01*
X128416273Y-97500552D01*
X128443444Y-97467444D01*
X128476552Y-97440273D01*
X128514333Y-97420078D01*
X128555326Y-97407643D01*
X128600441Y-97403200D01*
X129209559Y-97403200D01*
X129254674Y-97407643D01*
X129254674Y-97407643D01*
G37*
G36*
X134334674Y-96722143D02*
G01*
X134375667Y-96734578D01*
X134413448Y-96754773D01*
X134446556Y-96781944D01*
X134473727Y-96815052D01*
X134493922Y-96852833D01*
X134506357Y-96893826D01*
X134510800Y-96938941D01*
X134510800Y-97473059D01*
X134506357Y-97518174D01*
X134493922Y-97559167D01*
X134473727Y-97596948D01*
X134446556Y-97630056D01*
X134413448Y-97657227D01*
X134375667Y-97677422D01*
X134334674Y-97689857D01*
X134289559Y-97694300D01*
X133680441Y-97694300D01*
X133635326Y-97689857D01*
X133594333Y-97677422D01*
X133556552Y-97657227D01*
X133523444Y-97630056D01*
X133496273Y-97596948D01*
X133476078Y-97559167D01*
X133463643Y-97518174D01*
X133459200Y-97473059D01*
X133459200Y-96938941D01*
X133463643Y-96893826D01*
X133476078Y-96852833D01*
X133496273Y-96815052D01*
X133523444Y-96781944D01*
X133556552Y-96754773D01*
X133594333Y-96734578D01*
X133635326Y-96722143D01*
X133680441Y-96717700D01*
X134289559Y-96717700D01*
X134334674Y-96722143D01*
X134334674Y-96722143D01*
G37*
G36*
X153115584Y-96062004D02*
G01*
X153160091Y-96075505D01*
X153201112Y-96097431D01*
X153237064Y-96126936D01*
X153266569Y-96162888D01*
X153288495Y-96203909D01*
X153301996Y-96248416D01*
X153306800Y-96297193D01*
X153306800Y-96968807D01*
X153301996Y-97017584D01*
X153288495Y-97062091D01*
X153266569Y-97103112D01*
X153237064Y-97139064D01*
X153201112Y-97168569D01*
X153160091Y-97190495D01*
X153115584Y-97203996D01*
X153066807Y-97208800D01*
X152495193Y-97208800D01*
X152446416Y-97203996D01*
X152401909Y-97190495D01*
X152360888Y-97168569D01*
X152324936Y-97139064D01*
X152295431Y-97103112D01*
X152273505Y-97062091D01*
X152260004Y-97017584D01*
X152255200Y-96968807D01*
X152255200Y-96297193D01*
X152260004Y-96248416D01*
X152273505Y-96203909D01*
X152295431Y-96162888D01*
X152324936Y-96126936D01*
X152360888Y-96097431D01*
X152401909Y-96075505D01*
X152446416Y-96062004D01*
X152495193Y-96057200D01*
X153066807Y-96057200D01*
X153115584Y-96062004D01*
X153115584Y-96062004D01*
G37*
G36*
X151464584Y-96062004D02*
G01*
X151509091Y-96075505D01*
X151550112Y-96097431D01*
X151586064Y-96126936D01*
X151615569Y-96162888D01*
X151637495Y-96203909D01*
X151650996Y-96248416D01*
X151655800Y-96297193D01*
X151655800Y-96968807D01*
X151650996Y-97017584D01*
X151637495Y-97062091D01*
X151615569Y-97103112D01*
X151586064Y-97139064D01*
X151550112Y-97168569D01*
X151509091Y-97190495D01*
X151464584Y-97203996D01*
X151415807Y-97208800D01*
X150844193Y-97208800D01*
X150795416Y-97203996D01*
X150750909Y-97190495D01*
X150709888Y-97168569D01*
X150673936Y-97139064D01*
X150644431Y-97103112D01*
X150622505Y-97062091D01*
X150609004Y-97017584D01*
X150604200Y-96968807D01*
X150604200Y-96297193D01*
X150609004Y-96248416D01*
X150622505Y-96203909D01*
X150644431Y-96162888D01*
X150673936Y-96126936D01*
X150709888Y-96097431D01*
X150750909Y-96075505D01*
X150795416Y-96062004D01*
X150844193Y-96057200D01*
X151415807Y-96057200D01*
X151464584Y-96062004D01*
X151464584Y-96062004D01*
G37*
G36*
X149813584Y-96062004D02*
G01*
X149858091Y-96075505D01*
X149899112Y-96097431D01*
X149935064Y-96126936D01*
X149964569Y-96162888D01*
X149986495Y-96203909D01*
X149999996Y-96248416D01*
X150004800Y-96297193D01*
X150004800Y-96968807D01*
X149999996Y-97017584D01*
X149986495Y-97062091D01*
X149964569Y-97103112D01*
X149935064Y-97139064D01*
X149899112Y-97168569D01*
X149858091Y-97190495D01*
X149813584Y-97203996D01*
X149764807Y-97208800D01*
X149193193Y-97208800D01*
X149144416Y-97203996D01*
X149099909Y-97190495D01*
X149058888Y-97168569D01*
X149022936Y-97139064D01*
X148993431Y-97103112D01*
X148971505Y-97062091D01*
X148958004Y-97017584D01*
X148953200Y-96968807D01*
X148953200Y-96297193D01*
X148958004Y-96248416D01*
X148971505Y-96203909D01*
X148993431Y-96162888D01*
X149022936Y-96126936D01*
X149058888Y-96097431D01*
X149099909Y-96075505D01*
X149144416Y-96062004D01*
X149193193Y-96057200D01*
X149764807Y-96057200D01*
X149813584Y-96062004D01*
X149813584Y-96062004D01*
G37*
G36*
X139943584Y-96126004D02*
G01*
X139988091Y-96139505D01*
X140029112Y-96161431D01*
X140065064Y-96190936D01*
X140094569Y-96226888D01*
X140116495Y-96267909D01*
X140129996Y-96312416D01*
X140134800Y-96361193D01*
X140134800Y-96932807D01*
X140129996Y-96981584D01*
X140116495Y-97026091D01*
X140094569Y-97067112D01*
X140065064Y-97103064D01*
X140029112Y-97132569D01*
X139988091Y-97154495D01*
X139943584Y-97167996D01*
X139894807Y-97172800D01*
X139223193Y-97172800D01*
X139174416Y-97167996D01*
X139129909Y-97154495D01*
X139088888Y-97132569D01*
X139052936Y-97103064D01*
X139023431Y-97067112D01*
X139001505Y-97026091D01*
X138988004Y-96981584D01*
X138983200Y-96932807D01*
X138983200Y-96361193D01*
X138988004Y-96312416D01*
X139001505Y-96267909D01*
X139023431Y-96226888D01*
X139052936Y-96190936D01*
X139088888Y-96161431D01*
X139129909Y-96139505D01*
X139174416Y-96126004D01*
X139223193Y-96121200D01*
X139894807Y-96121200D01*
X139943584Y-96126004D01*
X139943584Y-96126004D01*
G37*
G36*
X138193584Y-96126004D02*
G01*
X138238091Y-96139505D01*
X138279112Y-96161431D01*
X138315064Y-96190936D01*
X138344569Y-96226888D01*
X138366495Y-96267909D01*
X138379996Y-96312416D01*
X138384800Y-96361193D01*
X138384800Y-96932807D01*
X138379996Y-96981584D01*
X138366495Y-97026091D01*
X138344569Y-97067112D01*
X138315064Y-97103064D01*
X138279112Y-97132569D01*
X138238091Y-97154495D01*
X138193584Y-97167996D01*
X138144807Y-97172800D01*
X137473193Y-97172800D01*
X137424416Y-97167996D01*
X137379909Y-97154495D01*
X137338888Y-97132569D01*
X137302936Y-97103064D01*
X137273431Y-97067112D01*
X137251505Y-97026091D01*
X137238004Y-96981584D01*
X137233200Y-96932807D01*
X137233200Y-96361193D01*
X137238004Y-96312416D01*
X137251505Y-96267909D01*
X137273431Y-96226888D01*
X137302936Y-96190936D01*
X137338888Y-96161431D01*
X137379909Y-96139505D01*
X137424416Y-96126004D01*
X137473193Y-96121200D01*
X138144807Y-96121200D01*
X138193584Y-96126004D01*
X138193584Y-96126004D01*
G37*
G36*
X142478800Y-97135800D02*
G01*
X140927200Y-97135800D01*
X140927200Y-94634200D01*
X142478800Y-94634200D01*
X142478800Y-97135800D01*
X142478800Y-97135800D01*
G37*
G36*
X148378800Y-97135800D02*
G01*
X146827200Y-97135800D01*
X146827200Y-94634200D01*
X148378800Y-94634200D01*
X148378800Y-97135800D01*
X148378800Y-97135800D01*
G37*
G36*
X128731584Y-95695004D02*
G01*
X128776091Y-95708505D01*
X128817112Y-95730431D01*
X128853064Y-95759936D01*
X128882569Y-95795888D01*
X128904495Y-95836909D01*
X128917996Y-95881416D01*
X128922800Y-95930193D01*
X128922800Y-96601807D01*
X128917996Y-96650584D01*
X128904495Y-96695091D01*
X128882569Y-96736112D01*
X128853064Y-96772064D01*
X128817112Y-96801569D01*
X128776091Y-96823495D01*
X128731584Y-96836996D01*
X128682807Y-96841800D01*
X128111193Y-96841800D01*
X128062416Y-96836996D01*
X128017909Y-96823495D01*
X127976888Y-96801569D01*
X127940936Y-96772064D01*
X127911431Y-96736112D01*
X127889505Y-96695091D01*
X127876004Y-96650584D01*
X127871200Y-96601807D01*
X127871200Y-95930193D01*
X127876004Y-95881416D01*
X127889505Y-95836909D01*
X127911431Y-95795888D01*
X127940936Y-95759936D01*
X127976888Y-95730431D01*
X128017909Y-95708505D01*
X128062416Y-95695004D01*
X128111193Y-95690200D01*
X128682807Y-95690200D01*
X128731584Y-95695004D01*
X128731584Y-95695004D01*
G37*
G36*
X132871800Y-96575800D02*
G01*
X131710200Y-96575800D01*
X131710200Y-95824200D01*
X132871800Y-95824200D01*
X132871800Y-96575800D01*
X132871800Y-96575800D01*
G37*
G36*
X130671800Y-96575800D02*
G01*
X129510200Y-96575800D01*
X129510200Y-95824200D01*
X130671800Y-95824200D01*
X130671800Y-96575800D01*
X130671800Y-96575800D01*
G37*
G36*
X134334674Y-95147143D02*
G01*
X134375667Y-95159578D01*
X134413448Y-95179773D01*
X134446556Y-95206944D01*
X134473727Y-95240052D01*
X134493922Y-95277833D01*
X134506357Y-95318826D01*
X134510800Y-95363941D01*
X134510800Y-95898059D01*
X134506357Y-95943174D01*
X134493922Y-95984167D01*
X134473727Y-96021948D01*
X134446556Y-96055056D01*
X134413448Y-96082227D01*
X134375667Y-96102422D01*
X134334674Y-96114857D01*
X134289559Y-96119300D01*
X133680441Y-96119300D01*
X133635326Y-96114857D01*
X133594333Y-96102422D01*
X133556552Y-96082227D01*
X133523444Y-96055056D01*
X133496273Y-96021948D01*
X133476078Y-95984167D01*
X133463643Y-95943174D01*
X133459200Y-95898059D01*
X133459200Y-95363941D01*
X133463643Y-95318826D01*
X133476078Y-95277833D01*
X133496273Y-95240052D01*
X133523444Y-95206944D01*
X133556552Y-95179773D01*
X133594333Y-95159578D01*
X133635326Y-95147143D01*
X133680441Y-95142700D01*
X134289559Y-95142700D01*
X134334674Y-95147143D01*
X134334674Y-95147143D01*
G37*
G36*
X130671800Y-95625800D02*
G01*
X129510200Y-95625800D01*
X129510200Y-94874200D01*
X130671800Y-94874200D01*
X130671800Y-95625800D01*
X130671800Y-95625800D01*
G37*
G36*
X138193584Y-94475004D02*
G01*
X138238091Y-94488505D01*
X138279112Y-94510431D01*
X138315064Y-94539936D01*
X138344569Y-94575888D01*
X138366495Y-94616909D01*
X138379996Y-94661416D01*
X138384800Y-94710193D01*
X138384800Y-95281807D01*
X138379996Y-95330584D01*
X138366495Y-95375091D01*
X138344569Y-95416112D01*
X138315064Y-95452064D01*
X138279112Y-95481569D01*
X138238091Y-95503495D01*
X138193584Y-95516996D01*
X138144807Y-95521800D01*
X137473193Y-95521800D01*
X137424416Y-95516996D01*
X137379909Y-95503495D01*
X137338888Y-95481569D01*
X137302936Y-95452064D01*
X137273431Y-95416112D01*
X137251505Y-95375091D01*
X137238004Y-95330584D01*
X137233200Y-95281807D01*
X137233200Y-94710193D01*
X137238004Y-94661416D01*
X137251505Y-94616909D01*
X137273431Y-94575888D01*
X137302936Y-94539936D01*
X137338888Y-94510431D01*
X137379909Y-94488505D01*
X137424416Y-94475004D01*
X137473193Y-94470200D01*
X138144807Y-94470200D01*
X138193584Y-94475004D01*
X138193584Y-94475004D01*
G37*
G36*
X139943584Y-94475004D02*
G01*
X139988091Y-94488505D01*
X140029112Y-94510431D01*
X140065064Y-94539936D01*
X140094569Y-94575888D01*
X140116495Y-94616909D01*
X140129996Y-94661416D01*
X140134800Y-94710193D01*
X140134800Y-95281807D01*
X140129996Y-95330584D01*
X140116495Y-95375091D01*
X140094569Y-95416112D01*
X140065064Y-95452064D01*
X140029112Y-95481569D01*
X139988091Y-95503495D01*
X139943584Y-95516996D01*
X139894807Y-95521800D01*
X139223193Y-95521800D01*
X139174416Y-95516996D01*
X139129909Y-95503495D01*
X139088888Y-95481569D01*
X139052936Y-95452064D01*
X139023431Y-95416112D01*
X139001505Y-95375091D01*
X138988004Y-95330584D01*
X138983200Y-95281807D01*
X138983200Y-94710193D01*
X138988004Y-94661416D01*
X139001505Y-94616909D01*
X139023431Y-94575888D01*
X139052936Y-94539936D01*
X139088888Y-94510431D01*
X139129909Y-94488505D01*
X139174416Y-94475004D01*
X139223193Y-94470200D01*
X139894807Y-94470200D01*
X139943584Y-94475004D01*
X139943584Y-94475004D01*
G37*
G36*
X153115584Y-94312004D02*
G01*
X153160091Y-94325505D01*
X153201112Y-94347431D01*
X153237064Y-94376936D01*
X153266569Y-94412888D01*
X153288495Y-94453909D01*
X153301996Y-94498416D01*
X153306800Y-94547193D01*
X153306800Y-95218807D01*
X153301996Y-95267584D01*
X153288495Y-95312091D01*
X153266569Y-95353112D01*
X153237064Y-95389064D01*
X153201112Y-95418569D01*
X153160091Y-95440495D01*
X153115584Y-95453996D01*
X153066807Y-95458800D01*
X152495193Y-95458800D01*
X152446416Y-95453996D01*
X152401909Y-95440495D01*
X152360888Y-95418569D01*
X152324936Y-95389064D01*
X152295431Y-95353112D01*
X152273505Y-95312091D01*
X152260004Y-95267584D01*
X152255200Y-95218807D01*
X152255200Y-94547193D01*
X152260004Y-94498416D01*
X152273505Y-94453909D01*
X152295431Y-94412888D01*
X152324936Y-94376936D01*
X152360888Y-94347431D01*
X152401909Y-94325505D01*
X152446416Y-94312004D01*
X152495193Y-94307200D01*
X153066807Y-94307200D01*
X153115584Y-94312004D01*
X153115584Y-94312004D01*
G37*
G36*
X151464584Y-94312004D02*
G01*
X151509091Y-94325505D01*
X151550112Y-94347431D01*
X151586064Y-94376936D01*
X151615569Y-94412888D01*
X151637495Y-94453909D01*
X151650996Y-94498416D01*
X151655800Y-94547193D01*
X151655800Y-95218807D01*
X151650996Y-95267584D01*
X151637495Y-95312091D01*
X151615569Y-95353112D01*
X151586064Y-95389064D01*
X151550112Y-95418569D01*
X151509091Y-95440495D01*
X151464584Y-95453996D01*
X151415807Y-95458800D01*
X150844193Y-95458800D01*
X150795416Y-95453996D01*
X150750909Y-95440495D01*
X150709888Y-95418569D01*
X150673936Y-95389064D01*
X150644431Y-95353112D01*
X150622505Y-95312091D01*
X150609004Y-95267584D01*
X150604200Y-95218807D01*
X150604200Y-94547193D01*
X150609004Y-94498416D01*
X150622505Y-94453909D01*
X150644431Y-94412888D01*
X150673936Y-94376936D01*
X150709888Y-94347431D01*
X150750909Y-94325505D01*
X150795416Y-94312004D01*
X150844193Y-94307200D01*
X151415807Y-94307200D01*
X151464584Y-94312004D01*
X151464584Y-94312004D01*
G37*
G36*
X149813584Y-94312004D02*
G01*
X149858091Y-94325505D01*
X149899112Y-94347431D01*
X149935064Y-94376936D01*
X149964569Y-94412888D01*
X149986495Y-94453909D01*
X149999996Y-94498416D01*
X150004800Y-94547193D01*
X150004800Y-95218807D01*
X149999996Y-95267584D01*
X149986495Y-95312091D01*
X149964569Y-95353112D01*
X149935064Y-95389064D01*
X149899112Y-95418569D01*
X149858091Y-95440495D01*
X149813584Y-95453996D01*
X149764807Y-95458800D01*
X149193193Y-95458800D01*
X149144416Y-95453996D01*
X149099909Y-95440495D01*
X149058888Y-95418569D01*
X149022936Y-95389064D01*
X148993431Y-95353112D01*
X148971505Y-95312091D01*
X148958004Y-95267584D01*
X148953200Y-95218807D01*
X148953200Y-94547193D01*
X148958004Y-94498416D01*
X148971505Y-94453909D01*
X148993431Y-94412888D01*
X149022936Y-94376936D01*
X149058888Y-94347431D01*
X149099909Y-94325505D01*
X149144416Y-94312004D01*
X149193193Y-94307200D01*
X149764807Y-94307200D01*
X149813584Y-94312004D01*
X149813584Y-94312004D01*
G37*
G36*
X128731584Y-93945004D02*
G01*
X128776091Y-93958505D01*
X128817112Y-93980431D01*
X128853064Y-94009936D01*
X128882569Y-94045888D01*
X128904495Y-94086909D01*
X128917996Y-94131416D01*
X128922800Y-94180193D01*
X128922800Y-94851807D01*
X128917996Y-94900584D01*
X128904495Y-94945091D01*
X128882569Y-94986112D01*
X128853064Y-95022064D01*
X128817112Y-95051569D01*
X128776091Y-95073495D01*
X128731584Y-95086996D01*
X128682807Y-95091800D01*
X128111193Y-95091800D01*
X128062416Y-95086996D01*
X128017909Y-95073495D01*
X127976888Y-95051569D01*
X127940936Y-95022064D01*
X127911431Y-94986112D01*
X127889505Y-94945091D01*
X127876004Y-94900584D01*
X127871200Y-94851807D01*
X127871200Y-94180193D01*
X127876004Y-94131416D01*
X127889505Y-94086909D01*
X127911431Y-94045888D01*
X127940936Y-94009936D01*
X127976888Y-93980431D01*
X128017909Y-93958505D01*
X128062416Y-93945004D01*
X128111193Y-93940200D01*
X128682807Y-93940200D01*
X128731584Y-93945004D01*
X128731584Y-93945004D01*
G37*
G36*
X132871800Y-94675800D02*
G01*
X131710200Y-94675800D01*
X131710200Y-93924200D01*
X132871800Y-93924200D01*
X132871800Y-94675800D01*
X132871800Y-94675800D01*
G37*
G36*
X130671800Y-94675800D02*
G01*
X129510200Y-94675800D01*
X129510200Y-93924200D01*
X130671800Y-93924200D01*
X130671800Y-94675800D01*
X130671800Y-94675800D01*
G37*
G36*
X151083584Y-92633004D02*
G01*
X151128091Y-92646505D01*
X151169112Y-92668431D01*
X151205064Y-92697936D01*
X151234569Y-92733888D01*
X151256495Y-92774909D01*
X151269996Y-92819416D01*
X151274800Y-92868193D01*
X151274800Y-93539807D01*
X151269996Y-93588584D01*
X151256495Y-93633091D01*
X151234569Y-93674112D01*
X151205064Y-93710064D01*
X151169112Y-93739569D01*
X151128091Y-93761495D01*
X151083584Y-93774996D01*
X151034807Y-93779800D01*
X150463193Y-93779800D01*
X150414416Y-93774996D01*
X150369909Y-93761495D01*
X150328888Y-93739569D01*
X150292936Y-93710064D01*
X150263431Y-93674112D01*
X150241505Y-93633091D01*
X150228004Y-93588584D01*
X150223200Y-93539807D01*
X150223200Y-92868193D01*
X150228004Y-92819416D01*
X150241505Y-92774909D01*
X150263431Y-92733888D01*
X150292936Y-92697936D01*
X150328888Y-92668431D01*
X150369909Y-92646505D01*
X150414416Y-92633004D01*
X150463193Y-92628200D01*
X151034807Y-92628200D01*
X151083584Y-92633004D01*
X151083584Y-92633004D01*
G37*
G36*
X149432584Y-92633004D02*
G01*
X149477091Y-92646505D01*
X149518112Y-92668431D01*
X149554064Y-92697936D01*
X149583569Y-92733888D01*
X149605495Y-92774909D01*
X149618996Y-92819416D01*
X149623800Y-92868193D01*
X149623800Y-93539807D01*
X149618996Y-93588584D01*
X149605495Y-93633091D01*
X149583569Y-93674112D01*
X149554064Y-93710064D01*
X149518112Y-93739569D01*
X149477091Y-93761495D01*
X149432584Y-93774996D01*
X149383807Y-93779800D01*
X148812193Y-93779800D01*
X148763416Y-93774996D01*
X148718909Y-93761495D01*
X148677888Y-93739569D01*
X148641936Y-93710064D01*
X148612431Y-93674112D01*
X148590505Y-93633091D01*
X148577004Y-93588584D01*
X148572200Y-93539807D01*
X148572200Y-92868193D01*
X148577004Y-92819416D01*
X148590505Y-92774909D01*
X148612431Y-92733888D01*
X148641936Y-92697936D01*
X148677888Y-92668431D01*
X148718909Y-92646505D01*
X148763416Y-92633004D01*
X148812193Y-92628200D01*
X149383807Y-92628200D01*
X149432584Y-92633004D01*
X149432584Y-92633004D01*
G37*
G36*
X147781584Y-92633004D02*
G01*
X147826091Y-92646505D01*
X147867112Y-92668431D01*
X147903064Y-92697936D01*
X147932569Y-92733888D01*
X147954495Y-92774909D01*
X147967996Y-92819416D01*
X147972800Y-92868193D01*
X147972800Y-93539807D01*
X147967996Y-93588584D01*
X147954495Y-93633091D01*
X147932569Y-93674112D01*
X147903064Y-93710064D01*
X147867112Y-93739569D01*
X147826091Y-93761495D01*
X147781584Y-93774996D01*
X147732807Y-93779800D01*
X147161193Y-93779800D01*
X147112416Y-93774996D01*
X147067909Y-93761495D01*
X147026888Y-93739569D01*
X146990936Y-93710064D01*
X146961431Y-93674112D01*
X146939505Y-93633091D01*
X146926004Y-93588584D01*
X146921200Y-93539807D01*
X146921200Y-92868193D01*
X146926004Y-92819416D01*
X146939505Y-92774909D01*
X146961431Y-92733888D01*
X146990936Y-92697936D01*
X147026888Y-92668431D01*
X147067909Y-92646505D01*
X147112416Y-92633004D01*
X147161193Y-92628200D01*
X147732807Y-92628200D01*
X147781584Y-92633004D01*
X147781584Y-92633004D01*
G37*
G36*
X144416584Y-92697004D02*
G01*
X144461091Y-92710505D01*
X144502112Y-92732431D01*
X144538064Y-92761936D01*
X144567569Y-92797888D01*
X144589495Y-92838909D01*
X144602996Y-92883416D01*
X144607800Y-92932193D01*
X144607800Y-93503807D01*
X144602996Y-93552584D01*
X144589495Y-93597091D01*
X144567569Y-93638112D01*
X144538064Y-93674064D01*
X144502112Y-93703569D01*
X144461091Y-93725495D01*
X144416584Y-93738996D01*
X144367807Y-93743800D01*
X143696193Y-93743800D01*
X143647416Y-93738996D01*
X143602909Y-93725495D01*
X143561888Y-93703569D01*
X143525936Y-93674064D01*
X143496431Y-93638112D01*
X143474505Y-93597091D01*
X143461004Y-93552584D01*
X143456200Y-93503807D01*
X143456200Y-92932193D01*
X143461004Y-92883416D01*
X143474505Y-92838909D01*
X143496431Y-92797888D01*
X143525936Y-92761936D01*
X143561888Y-92732431D01*
X143602909Y-92710505D01*
X143647416Y-92697004D01*
X143696193Y-92692200D01*
X144367807Y-92692200D01*
X144416584Y-92697004D01*
X144416584Y-92697004D01*
G37*
G36*
X146166584Y-92697004D02*
G01*
X146211091Y-92710505D01*
X146252112Y-92732431D01*
X146288064Y-92761936D01*
X146317569Y-92797888D01*
X146339495Y-92838909D01*
X146352996Y-92883416D01*
X146357800Y-92932193D01*
X146357800Y-93503807D01*
X146352996Y-93552584D01*
X146339495Y-93597091D01*
X146317569Y-93638112D01*
X146288064Y-93674064D01*
X146252112Y-93703569D01*
X146211091Y-93725495D01*
X146166584Y-93738996D01*
X146117807Y-93743800D01*
X145446193Y-93743800D01*
X145397416Y-93738996D01*
X145352909Y-93725495D01*
X145311888Y-93703569D01*
X145275936Y-93674064D01*
X145246431Y-93638112D01*
X145224505Y-93597091D01*
X145211004Y-93552584D01*
X145206200Y-93503807D01*
X145206200Y-92932193D01*
X145211004Y-92883416D01*
X145224505Y-92838909D01*
X145246431Y-92797888D01*
X145275936Y-92761936D01*
X145311888Y-92732431D01*
X145352909Y-92710505D01*
X145397416Y-92697004D01*
X145446193Y-92692200D01*
X146117807Y-92692200D01*
X146166584Y-92697004D01*
X146166584Y-92697004D01*
G37*
G36*
X141689800Y-92921800D02*
G01*
X139488200Y-92921800D01*
X139488200Y-90720200D01*
X141689800Y-90720200D01*
X141689800Y-92921800D01*
X141689800Y-92921800D01*
G37*
G36*
X138370092Y-90762503D02*
G01*
X138570424Y-90845483D01*
X138750721Y-90965954D01*
X138904046Y-91119279D01*
X139024517Y-91299576D01*
X139107497Y-91499908D01*
X139149800Y-91712580D01*
X139149800Y-91929420D01*
X139107497Y-92142092D01*
X139024517Y-92342424D01*
X138904046Y-92522721D01*
X138750721Y-92676046D01*
X138570424Y-92796517D01*
X138370092Y-92879497D01*
X138157420Y-92921800D01*
X137940580Y-92921800D01*
X137727908Y-92879497D01*
X137527576Y-92796517D01*
X137347279Y-92676046D01*
X137193954Y-92522721D01*
X137073483Y-92342424D01*
X136990503Y-92142092D01*
X136948200Y-91929420D01*
X136948200Y-91712580D01*
X136990503Y-91499908D01*
X137073483Y-91299576D01*
X137193954Y-91119279D01*
X137347279Y-90965954D01*
X137527576Y-90845483D01*
X137727908Y-90762503D01*
X137940580Y-90720200D01*
X138157420Y-90720200D01*
X138370092Y-90762503D01*
X138370092Y-90762503D01*
G37*
G36*
X134263617Y-91923642D02*
G01*
X134332008Y-91951970D01*
X134393560Y-91993098D01*
X134445902Y-92045440D01*
X134487030Y-92106992D01*
X134515358Y-92175383D01*
X134529800Y-92247987D01*
X134529800Y-92322013D01*
X134515358Y-92394617D01*
X134487030Y-92463008D01*
X134445902Y-92524560D01*
X134393560Y-92576902D01*
X134332008Y-92618030D01*
X134263617Y-92646358D01*
X134191013Y-92660800D01*
X134116987Y-92660800D01*
X134044383Y-92646358D01*
X133975992Y-92618030D01*
X133914440Y-92576902D01*
X133862098Y-92524560D01*
X133820970Y-92463008D01*
X133792642Y-92394617D01*
X133778200Y-92322013D01*
X133778200Y-92247987D01*
X133792642Y-92175383D01*
X133820970Y-92106992D01*
X133862098Y-92045440D01*
X133914440Y-91993098D01*
X133975992Y-91951970D01*
X134044383Y-91923642D01*
X134116987Y-91909200D01*
X134191013Y-91909200D01*
X134263617Y-91923642D01*
X134263617Y-91923642D01*
G37*
G36*
X133292369Y-91310722D02*
G01*
X133292372Y-91310723D01*
X133377348Y-91336500D01*
X133455663Y-91378360D01*
X133524306Y-91434694D01*
X133580640Y-91503337D01*
X133622500Y-91581652D01*
X133642220Y-91646662D01*
X133648278Y-91666631D01*
X133656982Y-91755000D01*
X133648278Y-91843369D01*
X133645415Y-91852807D01*
X133622500Y-91928348D01*
X133580640Y-92006663D01*
X133524306Y-92075306D01*
X133455663Y-92131640D01*
X133377348Y-92173500D01*
X133302088Y-92196330D01*
X133292369Y-92199278D01*
X133226149Y-92205800D01*
X132581851Y-92205800D01*
X132515631Y-92199278D01*
X132505912Y-92196330D01*
X132430652Y-92173500D01*
X132352337Y-92131640D01*
X132283694Y-92075306D01*
X132227360Y-92006663D01*
X132185500Y-91928348D01*
X132162585Y-91852807D01*
X132159722Y-91843369D01*
X132151018Y-91755000D01*
X132159722Y-91666631D01*
X132165780Y-91646662D01*
X132185500Y-91581652D01*
X132227360Y-91503337D01*
X132283694Y-91434694D01*
X132352337Y-91378360D01*
X132430652Y-91336500D01*
X132515628Y-91310723D01*
X132515631Y-91310722D01*
X132581851Y-91304200D01*
X133226149Y-91304200D01*
X133292369Y-91310722D01*
X133292369Y-91310722D01*
G37*
G36*
X144416584Y-91046004D02*
G01*
X144461091Y-91059505D01*
X144502112Y-91081431D01*
X144538064Y-91110936D01*
X144567569Y-91146888D01*
X144589495Y-91187909D01*
X144602996Y-91232416D01*
X144607800Y-91281193D01*
X144607800Y-91852807D01*
X144602996Y-91901584D01*
X144589495Y-91946091D01*
X144567569Y-91987112D01*
X144538064Y-92023064D01*
X144502112Y-92052569D01*
X144461091Y-92074495D01*
X144416584Y-92087996D01*
X144367807Y-92092800D01*
X143696193Y-92092800D01*
X143647416Y-92087996D01*
X143602909Y-92074495D01*
X143561888Y-92052569D01*
X143525936Y-92023064D01*
X143496431Y-91987112D01*
X143474505Y-91946091D01*
X143461004Y-91901584D01*
X143456200Y-91852807D01*
X143456200Y-91281193D01*
X143461004Y-91232416D01*
X143474505Y-91187909D01*
X143496431Y-91146888D01*
X143525936Y-91110936D01*
X143561888Y-91081431D01*
X143602909Y-91059505D01*
X143647416Y-91046004D01*
X143696193Y-91041200D01*
X144367807Y-91041200D01*
X144416584Y-91046004D01*
X144416584Y-91046004D01*
G37*
G36*
X146166584Y-91046004D02*
G01*
X146211091Y-91059505D01*
X146252112Y-91081431D01*
X146288064Y-91110936D01*
X146317569Y-91146888D01*
X146339495Y-91187909D01*
X146352996Y-91232416D01*
X146357800Y-91281193D01*
X146357800Y-91852807D01*
X146352996Y-91901584D01*
X146339495Y-91946091D01*
X146317569Y-91987112D01*
X146288064Y-92023064D01*
X146252112Y-92052569D01*
X146211091Y-92074495D01*
X146166584Y-92087996D01*
X146117807Y-92092800D01*
X145446193Y-92092800D01*
X145397416Y-92087996D01*
X145352909Y-92074495D01*
X145311888Y-92052569D01*
X145275936Y-92023064D01*
X145246431Y-91987112D01*
X145224505Y-91946091D01*
X145211004Y-91901584D01*
X145206200Y-91852807D01*
X145206200Y-91281193D01*
X145211004Y-91232416D01*
X145224505Y-91187909D01*
X145246431Y-91146888D01*
X145275936Y-91110936D01*
X145311888Y-91081431D01*
X145352909Y-91059505D01*
X145397416Y-91046004D01*
X145446193Y-91041200D01*
X146117807Y-91041200D01*
X146166584Y-91046004D01*
X146166584Y-91046004D01*
G37*
G36*
X151083584Y-90883004D02*
G01*
X151128091Y-90896505D01*
X151169112Y-90918431D01*
X151205064Y-90947936D01*
X151234569Y-90983888D01*
X151256495Y-91024909D01*
X151269996Y-91069416D01*
X151274800Y-91118193D01*
X151274800Y-91789807D01*
X151269996Y-91838584D01*
X151256495Y-91883091D01*
X151234569Y-91924112D01*
X151205064Y-91960064D01*
X151169112Y-91989569D01*
X151128091Y-92011495D01*
X151083584Y-92024996D01*
X151034807Y-92029800D01*
X150463193Y-92029800D01*
X150414416Y-92024996D01*
X150369909Y-92011495D01*
X150328888Y-91989569D01*
X150292936Y-91960064D01*
X150263431Y-91924112D01*
X150241505Y-91883091D01*
X150228004Y-91838584D01*
X150223200Y-91789807D01*
X150223200Y-91118193D01*
X150228004Y-91069416D01*
X150241505Y-91024909D01*
X150263431Y-90983888D01*
X150292936Y-90947936D01*
X150328888Y-90918431D01*
X150369909Y-90896505D01*
X150414416Y-90883004D01*
X150463193Y-90878200D01*
X151034807Y-90878200D01*
X151083584Y-90883004D01*
X151083584Y-90883004D01*
G37*
G36*
X149432584Y-90883004D02*
G01*
X149477091Y-90896505D01*
X149518112Y-90918431D01*
X149554064Y-90947936D01*
X149583569Y-90983888D01*
X149605495Y-91024909D01*
X149618996Y-91069416D01*
X149623800Y-91118193D01*
X149623800Y-91789807D01*
X149618996Y-91838584D01*
X149605495Y-91883091D01*
X149583569Y-91924112D01*
X149554064Y-91960064D01*
X149518112Y-91989569D01*
X149477091Y-92011495D01*
X149432584Y-92024996D01*
X149383807Y-92029800D01*
X148812193Y-92029800D01*
X148763416Y-92024996D01*
X148718909Y-92011495D01*
X148677888Y-91989569D01*
X148641936Y-91960064D01*
X148612431Y-91924112D01*
X148590505Y-91883091D01*
X148577004Y-91838584D01*
X148572200Y-91789807D01*
X148572200Y-91118193D01*
X148577004Y-91069416D01*
X148590505Y-91024909D01*
X148612431Y-90983888D01*
X148641936Y-90947936D01*
X148677888Y-90918431D01*
X148718909Y-90896505D01*
X148763416Y-90883004D01*
X148812193Y-90878200D01*
X149383807Y-90878200D01*
X149432584Y-90883004D01*
X149432584Y-90883004D01*
G37*
G36*
X147781584Y-90883004D02*
G01*
X147826091Y-90896505D01*
X147867112Y-90918431D01*
X147903064Y-90947936D01*
X147932569Y-90983888D01*
X147954495Y-91024909D01*
X147967996Y-91069416D01*
X147972800Y-91118193D01*
X147972800Y-91789807D01*
X147967996Y-91838584D01*
X147954495Y-91883091D01*
X147932569Y-91924112D01*
X147903064Y-91960064D01*
X147867112Y-91989569D01*
X147826091Y-92011495D01*
X147781584Y-92024996D01*
X147732807Y-92029800D01*
X147161193Y-92029800D01*
X147112416Y-92024996D01*
X147067909Y-92011495D01*
X147026888Y-91989569D01*
X146990936Y-91960064D01*
X146961431Y-91924112D01*
X146939505Y-91883091D01*
X146926004Y-91838584D01*
X146921200Y-91789807D01*
X146921200Y-91118193D01*
X146926004Y-91069416D01*
X146939505Y-91024909D01*
X146961431Y-90983888D01*
X146990936Y-90947936D01*
X147026888Y-90918431D01*
X147067909Y-90896505D01*
X147112416Y-90883004D01*
X147161193Y-90878200D01*
X147732807Y-90878200D01*
X147781584Y-90883004D01*
X147781584Y-90883004D01*
G37*
G36*
X127342369Y-90950722D02*
G01*
X127342372Y-90950723D01*
X127427348Y-90976500D01*
X127505663Y-91018360D01*
X127574306Y-91074694D01*
X127630640Y-91143337D01*
X127672500Y-91221652D01*
X127675765Y-91232416D01*
X127698278Y-91306631D01*
X127706982Y-91395000D01*
X127698278Y-91483369D01*
X127698277Y-91483372D01*
X127672500Y-91568348D01*
X127630640Y-91646663D01*
X127574306Y-91715306D01*
X127505663Y-91771640D01*
X127427348Y-91813500D01*
X127352088Y-91836330D01*
X127342369Y-91839278D01*
X127276149Y-91845800D01*
X126631851Y-91845800D01*
X126565631Y-91839278D01*
X126555912Y-91836330D01*
X126480652Y-91813500D01*
X126402337Y-91771640D01*
X126333694Y-91715306D01*
X126277360Y-91646663D01*
X126235500Y-91568348D01*
X126209723Y-91483372D01*
X126209722Y-91483369D01*
X126201018Y-91395000D01*
X126209722Y-91306631D01*
X126232235Y-91232416D01*
X126235500Y-91221652D01*
X126277360Y-91143337D01*
X126333694Y-91074694D01*
X126402337Y-91018360D01*
X126480652Y-90976500D01*
X126565628Y-90950723D01*
X126565631Y-90950722D01*
X126631851Y-90944200D01*
X127276149Y-90944200D01*
X127342369Y-90950722D01*
X127342369Y-90950722D01*
G37*
M02*
