G04 #@! TF.GenerationSoftware,KiCad,Pcbnew,(5.1.0-47-g8a7e501fe)*
G04 #@! TF.CreationDate,2019-04-01T01:15:26-05:00*
G04 #@! TF.ProjectId,usb_c_wien_bridge,7573625f-635f-4776-9965-6e5f62726964,0.1a*
G04 #@! TF.SameCoordinates,Original*
G04 #@! TF.FileFunction,Legend,Bot*
G04 #@! TF.FilePolarity,Positive*
%FSLAX46Y46*%
G04 Gerber Fmt 4.6, Leading zero omitted, Abs format (unit mm)*
G04 Created by KiCad (PCBNEW (5.1.0-47-g8a7e501fe)) date 2019-04-01 01:15:26*
%MOMM*%
%LPD*%
G04 APERTURE LIST*
%ADD10C,0.120000*%
%ADD11C,0.150000*%
%ADD12C,0.127000*%
G04 APERTURE END LIST*
D10*
X149481000Y-99396733D02*
X149481000Y-99739267D01*
X148461000Y-99396733D02*
X148461000Y-99739267D01*
X127887000Y-95562267D02*
X127887000Y-95219733D01*
X128907000Y-95562267D02*
X128907000Y-95219733D01*
X147830000Y-99396733D02*
X147830000Y-99739267D01*
X146810000Y-99396733D02*
X146810000Y-99739267D01*
X129415000Y-98516221D02*
X129415000Y-98841779D01*
X128395000Y-98516221D02*
X128395000Y-98841779D01*
X146179000Y-99396733D02*
X146179000Y-99739267D01*
X145159000Y-99396733D02*
X145159000Y-99739267D01*
X131616267Y-98427000D02*
X131273733Y-98427000D01*
X131616267Y-97407000D02*
X131273733Y-97407000D01*
X133475000Y-96581279D02*
X133475000Y-96255721D01*
X134495000Y-96581279D02*
X134495000Y-96255721D01*
X147957000Y-92157733D02*
X147957000Y-92500267D01*
X146937000Y-92157733D02*
X146937000Y-92500267D01*
X144735733Y-91057000D02*
X145078267Y-91057000D01*
X144735733Y-92077000D02*
X145078267Y-92077000D01*
X142576733Y-98169000D02*
X142919267Y-98169000D01*
X142576733Y-99189000D02*
X142919267Y-99189000D01*
X142576733Y-99820000D02*
X142919267Y-99820000D01*
X142576733Y-100840000D02*
X142919267Y-100840000D01*
X153516000Y-94098000D02*
X153516000Y-96558000D01*
X152046000Y-94098000D02*
X153516000Y-94098000D01*
X152046000Y-96558000D02*
X152046000Y-94098000D01*
X150395000Y-97418000D02*
X150395000Y-94958000D01*
X151865000Y-97418000D02*
X150395000Y-97418000D01*
X151865000Y-94958000D02*
X151865000Y-97418000D01*
X138512733Y-96137000D02*
X138855267Y-96137000D01*
X138512733Y-97157000D02*
X138855267Y-97157000D01*
X138855267Y-95506000D02*
X138512733Y-95506000D01*
X138855267Y-94486000D02*
X138512733Y-94486000D01*
X150239000Y-92500267D02*
X150239000Y-92157733D01*
X151259000Y-92500267D02*
X151259000Y-92157733D01*
X145078267Y-93728000D02*
X144735733Y-93728000D01*
X145078267Y-92708000D02*
X144735733Y-92708000D01*
X148969000Y-95929267D02*
X148969000Y-95586733D01*
X149989000Y-95929267D02*
X149989000Y-95586733D01*
X148588000Y-92500267D02*
X148588000Y-92157733D01*
X149608000Y-92500267D02*
X149608000Y-92157733D01*
D11*
X142328000Y-97410000D02*
X140978000Y-97410000D01*
X142328000Y-94260000D02*
X146978000Y-94260000D01*
X142328000Y-97510000D02*
X146978000Y-97510000D01*
X142328000Y-94260000D02*
X142328000Y-94460000D01*
X146978000Y-94260000D02*
X146978000Y-94460000D01*
X146978000Y-97510000D02*
X146978000Y-97310000D01*
X142328000Y-97510000D02*
X142328000Y-97410000D01*
D10*
X132091000Y-96860000D02*
X129641000Y-96860000D01*
X130291000Y-93640000D02*
X132091000Y-93640000D01*
D12*
X148992166Y-101654428D02*
X149016357Y-101678619D01*
X149088928Y-101702809D01*
X149137309Y-101702809D01*
X149209880Y-101678619D01*
X149258261Y-101630238D01*
X149282452Y-101581857D01*
X149306642Y-101485095D01*
X149306642Y-101412523D01*
X149282452Y-101315761D01*
X149258261Y-101267380D01*
X149209880Y-101219000D01*
X149137309Y-101194809D01*
X149088928Y-101194809D01*
X149016357Y-101219000D01*
X148992166Y-101243190D01*
X148508357Y-101702809D02*
X148798642Y-101702809D01*
X148653500Y-101702809D02*
X148653500Y-101194809D01*
X148701880Y-101267380D01*
X148750261Y-101315761D01*
X148798642Y-101339952D01*
X127338666Y-96637928D02*
X127362857Y-96662119D01*
X127435428Y-96686309D01*
X127483809Y-96686309D01*
X127556380Y-96662119D01*
X127604761Y-96613738D01*
X127628952Y-96565357D01*
X127653142Y-96468595D01*
X127653142Y-96396023D01*
X127628952Y-96299261D01*
X127604761Y-96250880D01*
X127556380Y-96202500D01*
X127483809Y-96178309D01*
X127435428Y-96178309D01*
X127362857Y-96202500D01*
X127338666Y-96226690D01*
X127145142Y-96226690D02*
X127120952Y-96202500D01*
X127072571Y-96178309D01*
X126951619Y-96178309D01*
X126903238Y-96202500D01*
X126879047Y-96226690D01*
X126854857Y-96275071D01*
X126854857Y-96323452D01*
X126879047Y-96396023D01*
X127169333Y-96686309D01*
X126854857Y-96686309D01*
X147404666Y-101654428D02*
X147428857Y-101678619D01*
X147501428Y-101702809D01*
X147549809Y-101702809D01*
X147622380Y-101678619D01*
X147670761Y-101630238D01*
X147694952Y-101581857D01*
X147719142Y-101485095D01*
X147719142Y-101412523D01*
X147694952Y-101315761D01*
X147670761Y-101267380D01*
X147622380Y-101219000D01*
X147549809Y-101194809D01*
X147501428Y-101194809D01*
X147428857Y-101219000D01*
X147404666Y-101243190D01*
X147235333Y-101194809D02*
X146920857Y-101194809D01*
X147090190Y-101388333D01*
X147017619Y-101388333D01*
X146969238Y-101412523D01*
X146945047Y-101436714D01*
X146920857Y-101485095D01*
X146920857Y-101606047D01*
X146945047Y-101654428D01*
X146969238Y-101678619D01*
X147017619Y-101702809D01*
X147162761Y-101702809D01*
X147211142Y-101678619D01*
X147235333Y-101654428D01*
X128989666Y-100574928D02*
X129013857Y-100599119D01*
X129086428Y-100623309D01*
X129134809Y-100623309D01*
X129207380Y-100599119D01*
X129255761Y-100550738D01*
X129279952Y-100502357D01*
X129304142Y-100405595D01*
X129304142Y-100333023D01*
X129279952Y-100236261D01*
X129255761Y-100187880D01*
X129207380Y-100139500D01*
X129134809Y-100115309D01*
X129086428Y-100115309D01*
X129013857Y-100139500D01*
X128989666Y-100163690D01*
X128554238Y-100284642D02*
X128554238Y-100623309D01*
X128675190Y-100091119D02*
X128796142Y-100453976D01*
X128481666Y-100453976D01*
X145690166Y-101654428D02*
X145714357Y-101678619D01*
X145786928Y-101702809D01*
X145835309Y-101702809D01*
X145907880Y-101678619D01*
X145956261Y-101630238D01*
X145980452Y-101581857D01*
X146004642Y-101485095D01*
X146004642Y-101412523D01*
X145980452Y-101315761D01*
X145956261Y-101267380D01*
X145907880Y-101219000D01*
X145835309Y-101194809D01*
X145786928Y-101194809D01*
X145714357Y-101219000D01*
X145690166Y-101243190D01*
X145230547Y-101194809D02*
X145472452Y-101194809D01*
X145496642Y-101436714D01*
X145472452Y-101412523D01*
X145424071Y-101388333D01*
X145303119Y-101388333D01*
X145254738Y-101412523D01*
X145230547Y-101436714D01*
X145206357Y-101485095D01*
X145206357Y-101606047D01*
X145230547Y-101654428D01*
X145254738Y-101678619D01*
X145303119Y-101702809D01*
X145424071Y-101702809D01*
X145472452Y-101678619D01*
X145496642Y-101654428D01*
X131529666Y-99177928D02*
X131553857Y-99202119D01*
X131626428Y-99226309D01*
X131674809Y-99226309D01*
X131747380Y-99202119D01*
X131795761Y-99153738D01*
X131819952Y-99105357D01*
X131844142Y-99008595D01*
X131844142Y-98936023D01*
X131819952Y-98839261D01*
X131795761Y-98790880D01*
X131747380Y-98742500D01*
X131674809Y-98718309D01*
X131626428Y-98718309D01*
X131553857Y-98742500D01*
X131529666Y-98766690D01*
X131094238Y-98718309D02*
X131191000Y-98718309D01*
X131239380Y-98742500D01*
X131263571Y-98766690D01*
X131311952Y-98839261D01*
X131336142Y-98936023D01*
X131336142Y-99129547D01*
X131311952Y-99177928D01*
X131287761Y-99202119D01*
X131239380Y-99226309D01*
X131142619Y-99226309D01*
X131094238Y-99202119D01*
X131070047Y-99177928D01*
X131045857Y-99129547D01*
X131045857Y-99008595D01*
X131070047Y-98960214D01*
X131094238Y-98936023D01*
X131142619Y-98911833D01*
X131239380Y-98911833D01*
X131287761Y-98936023D01*
X131311952Y-98960214D01*
X131336142Y-99008595D01*
X134133166Y-98352428D02*
X134157357Y-98376619D01*
X134229928Y-98400809D01*
X134278309Y-98400809D01*
X134350880Y-98376619D01*
X134399261Y-98328238D01*
X134423452Y-98279857D01*
X134447642Y-98183095D01*
X134447642Y-98110523D01*
X134423452Y-98013761D01*
X134399261Y-97965380D01*
X134350880Y-97917000D01*
X134278309Y-97892809D01*
X134229928Y-97892809D01*
X134157357Y-97917000D01*
X134133166Y-97941190D01*
X133963833Y-97892809D02*
X133625166Y-97892809D01*
X133842880Y-98400809D01*
X147531666Y-90605428D02*
X147555857Y-90629619D01*
X147628428Y-90653809D01*
X147676809Y-90653809D01*
X147749380Y-90629619D01*
X147797761Y-90581238D01*
X147821952Y-90532857D01*
X147846142Y-90436095D01*
X147846142Y-90363523D01*
X147821952Y-90266761D01*
X147797761Y-90218380D01*
X147749380Y-90170000D01*
X147676809Y-90145809D01*
X147628428Y-90145809D01*
X147555857Y-90170000D01*
X147531666Y-90194190D01*
X147241380Y-90363523D02*
X147289761Y-90339333D01*
X147313952Y-90315142D01*
X147338142Y-90266761D01*
X147338142Y-90242571D01*
X147313952Y-90194190D01*
X147289761Y-90170000D01*
X147241380Y-90145809D01*
X147144619Y-90145809D01*
X147096238Y-90170000D01*
X147072047Y-90194190D01*
X147047857Y-90242571D01*
X147047857Y-90266761D01*
X147072047Y-90315142D01*
X147096238Y-90339333D01*
X147144619Y-90363523D01*
X147241380Y-90363523D01*
X147289761Y-90387714D01*
X147313952Y-90411904D01*
X147338142Y-90460285D01*
X147338142Y-90557047D01*
X147313952Y-90605428D01*
X147289761Y-90629619D01*
X147241380Y-90653809D01*
X147144619Y-90653809D01*
X147096238Y-90629619D01*
X147072047Y-90605428D01*
X147047857Y-90557047D01*
X147047857Y-90460285D01*
X147072047Y-90411904D01*
X147096238Y-90387714D01*
X147144619Y-90363523D01*
X142832666Y-91684928D02*
X142856857Y-91709119D01*
X142929428Y-91733309D01*
X142977809Y-91733309D01*
X143050380Y-91709119D01*
X143098761Y-91660738D01*
X143122952Y-91612357D01*
X143147142Y-91515595D01*
X143147142Y-91443023D01*
X143122952Y-91346261D01*
X143098761Y-91297880D01*
X143050380Y-91249500D01*
X142977809Y-91225309D01*
X142929428Y-91225309D01*
X142856857Y-91249500D01*
X142832666Y-91273690D01*
X142590761Y-91733309D02*
X142494000Y-91733309D01*
X142445619Y-91709119D01*
X142421428Y-91684928D01*
X142373047Y-91612357D01*
X142348857Y-91515595D01*
X142348857Y-91322071D01*
X142373047Y-91273690D01*
X142397238Y-91249500D01*
X142445619Y-91225309D01*
X142542380Y-91225309D01*
X142590761Y-91249500D01*
X142614952Y-91273690D01*
X142639142Y-91322071D01*
X142639142Y-91443023D01*
X142614952Y-91491404D01*
X142590761Y-91515595D01*
X142542380Y-91539785D01*
X142445619Y-91539785D01*
X142397238Y-91515595D01*
X142373047Y-91491404D01*
X142348857Y-91443023D01*
X140471071Y-98878571D02*
X140446880Y-98902761D01*
X140422690Y-98975333D01*
X140422690Y-99023714D01*
X140446880Y-99096285D01*
X140495261Y-99144666D01*
X140543642Y-99168857D01*
X140640404Y-99193047D01*
X140712976Y-99193047D01*
X140809738Y-99168857D01*
X140858119Y-99144666D01*
X140906500Y-99096285D01*
X140930690Y-99023714D01*
X140930690Y-98975333D01*
X140906500Y-98902761D01*
X140882309Y-98878571D01*
X140422690Y-98394761D02*
X140422690Y-98685047D01*
X140422690Y-98539904D02*
X140930690Y-98539904D01*
X140858119Y-98588285D01*
X140809738Y-98636666D01*
X140785547Y-98685047D01*
X140422690Y-97910952D02*
X140422690Y-98201238D01*
X140422690Y-98056095D02*
X140930690Y-98056095D01*
X140858119Y-98104476D01*
X140809738Y-98152857D01*
X140785547Y-98201238D01*
X140471071Y-100974071D02*
X140446880Y-100998261D01*
X140422690Y-101070833D01*
X140422690Y-101119214D01*
X140446880Y-101191785D01*
X140495261Y-101240166D01*
X140543642Y-101264357D01*
X140640404Y-101288547D01*
X140712976Y-101288547D01*
X140809738Y-101264357D01*
X140858119Y-101240166D01*
X140906500Y-101191785D01*
X140930690Y-101119214D01*
X140930690Y-101070833D01*
X140906500Y-100998261D01*
X140882309Y-100974071D01*
X140422690Y-100490261D02*
X140422690Y-100780547D01*
X140422690Y-100635404D02*
X140930690Y-100635404D01*
X140858119Y-100683785D01*
X140809738Y-100732166D01*
X140785547Y-100780547D01*
X140882309Y-100296738D02*
X140906500Y-100272547D01*
X140930690Y-100224166D01*
X140930690Y-100103214D01*
X140906500Y-100054833D01*
X140882309Y-100030642D01*
X140833928Y-100006452D01*
X140785547Y-100006452D01*
X140712976Y-100030642D01*
X140422690Y-100320928D01*
X140422690Y-100006452D01*
X153155952Y-98083309D02*
X153155952Y-97575309D01*
X153035000Y-97575309D01*
X152962428Y-97599500D01*
X152914047Y-97647880D01*
X152889857Y-97696261D01*
X152865666Y-97793023D01*
X152865666Y-97865595D01*
X152889857Y-97962357D01*
X152914047Y-98010738D01*
X152962428Y-98059119D01*
X153035000Y-98083309D01*
X153155952Y-98083309D01*
X152381857Y-98083309D02*
X152672142Y-98083309D01*
X152527000Y-98083309D02*
X152527000Y-97575309D01*
X152575380Y-97647880D01*
X152623761Y-97696261D01*
X152672142Y-97720452D01*
X151504952Y-98083309D02*
X151504952Y-97575309D01*
X151384000Y-97575309D01*
X151311428Y-97599500D01*
X151263047Y-97647880D01*
X151238857Y-97696261D01*
X151214666Y-97793023D01*
X151214666Y-97865595D01*
X151238857Y-97962357D01*
X151263047Y-98010738D01*
X151311428Y-98059119D01*
X151384000Y-98083309D01*
X151504952Y-98083309D01*
X151021142Y-97623690D02*
X150996952Y-97599500D01*
X150948571Y-97575309D01*
X150827619Y-97575309D01*
X150779238Y-97599500D01*
X150755047Y-97623690D01*
X150730857Y-97672071D01*
X150730857Y-97720452D01*
X150755047Y-97793023D01*
X151045333Y-98083309D01*
X150730857Y-98083309D01*
X136736666Y-96876809D02*
X136906000Y-96634904D01*
X137026952Y-96876809D02*
X137026952Y-96368809D01*
X136833428Y-96368809D01*
X136785047Y-96393000D01*
X136760857Y-96417190D01*
X136736666Y-96465571D01*
X136736666Y-96538142D01*
X136760857Y-96586523D01*
X136785047Y-96610714D01*
X136833428Y-96634904D01*
X137026952Y-96634904D01*
X136252857Y-96876809D02*
X136543142Y-96876809D01*
X136398000Y-96876809D02*
X136398000Y-96368809D01*
X136446380Y-96441380D01*
X136494761Y-96489761D01*
X136543142Y-96513952D01*
X136736666Y-95225809D02*
X136906000Y-94983904D01*
X137026952Y-95225809D02*
X137026952Y-94717809D01*
X136833428Y-94717809D01*
X136785047Y-94742000D01*
X136760857Y-94766190D01*
X136736666Y-94814571D01*
X136736666Y-94887142D01*
X136760857Y-94935523D01*
X136785047Y-94959714D01*
X136833428Y-94983904D01*
X137026952Y-94983904D01*
X136543142Y-94766190D02*
X136518952Y-94742000D01*
X136470571Y-94717809D01*
X136349619Y-94717809D01*
X136301238Y-94742000D01*
X136277047Y-94766190D01*
X136252857Y-94814571D01*
X136252857Y-94862952D01*
X136277047Y-94935523D01*
X136567333Y-95225809D01*
X136252857Y-95225809D01*
X150833666Y-90653809D02*
X151003000Y-90411904D01*
X151123952Y-90653809D02*
X151123952Y-90145809D01*
X150930428Y-90145809D01*
X150882047Y-90170000D01*
X150857857Y-90194190D01*
X150833666Y-90242571D01*
X150833666Y-90315142D01*
X150857857Y-90363523D01*
X150882047Y-90387714D01*
X150930428Y-90411904D01*
X151123952Y-90411904D01*
X150664333Y-90145809D02*
X150349857Y-90145809D01*
X150519190Y-90339333D01*
X150446619Y-90339333D01*
X150398238Y-90363523D01*
X150374047Y-90387714D01*
X150349857Y-90436095D01*
X150349857Y-90557047D01*
X150374047Y-90605428D01*
X150398238Y-90629619D01*
X150446619Y-90653809D01*
X150591761Y-90653809D01*
X150640142Y-90629619D01*
X150664333Y-90605428D01*
X142832666Y-93447809D02*
X143002000Y-93205904D01*
X143122952Y-93447809D02*
X143122952Y-92939809D01*
X142929428Y-92939809D01*
X142881047Y-92964000D01*
X142856857Y-92988190D01*
X142832666Y-93036571D01*
X142832666Y-93109142D01*
X142856857Y-93157523D01*
X142881047Y-93181714D01*
X142929428Y-93205904D01*
X143122952Y-93205904D01*
X142397238Y-93109142D02*
X142397238Y-93447809D01*
X142518190Y-92915619D02*
X142639142Y-93278476D01*
X142324666Y-93278476D01*
X149500166Y-97892809D02*
X149669500Y-97650904D01*
X149790452Y-97892809D02*
X149790452Y-97384809D01*
X149596928Y-97384809D01*
X149548547Y-97409000D01*
X149524357Y-97433190D01*
X149500166Y-97481571D01*
X149500166Y-97554142D01*
X149524357Y-97602523D01*
X149548547Y-97626714D01*
X149596928Y-97650904D01*
X149790452Y-97650904D01*
X149040547Y-97384809D02*
X149282452Y-97384809D01*
X149306642Y-97626714D01*
X149282452Y-97602523D01*
X149234071Y-97578333D01*
X149113119Y-97578333D01*
X149064738Y-97602523D01*
X149040547Y-97626714D01*
X149016357Y-97675095D01*
X149016357Y-97796047D01*
X149040547Y-97844428D01*
X149064738Y-97868619D01*
X149113119Y-97892809D01*
X149234071Y-97892809D01*
X149282452Y-97868619D01*
X149306642Y-97844428D01*
X149182666Y-90653809D02*
X149352000Y-90411904D01*
X149472952Y-90653809D02*
X149472952Y-90145809D01*
X149279428Y-90145809D01*
X149231047Y-90170000D01*
X149206857Y-90194190D01*
X149182666Y-90242571D01*
X149182666Y-90315142D01*
X149206857Y-90363523D01*
X149231047Y-90387714D01*
X149279428Y-90411904D01*
X149472952Y-90411904D01*
X148747238Y-90145809D02*
X148844000Y-90145809D01*
X148892380Y-90170000D01*
X148916571Y-90194190D01*
X148964952Y-90266761D01*
X148989142Y-90363523D01*
X148989142Y-90557047D01*
X148964952Y-90605428D01*
X148940761Y-90629619D01*
X148892380Y-90653809D01*
X148795619Y-90653809D01*
X148747238Y-90629619D01*
X148723047Y-90605428D01*
X148698857Y-90557047D01*
X148698857Y-90436095D01*
X148723047Y-90387714D01*
X148747238Y-90363523D01*
X148795619Y-90339333D01*
X148892380Y-90339333D01*
X148940761Y-90363523D01*
X148964952Y-90387714D01*
X148989142Y-90436095D01*
X142182547Y-93638309D02*
X142182547Y-94049547D01*
X142158357Y-94097928D01*
X142134166Y-94122119D01*
X142085785Y-94146309D01*
X141989023Y-94146309D01*
X141940642Y-94122119D01*
X141916452Y-94097928D01*
X141892261Y-94049547D01*
X141892261Y-93638309D01*
X141384261Y-94146309D02*
X141674547Y-94146309D01*
X141529404Y-94146309D02*
X141529404Y-93638309D01*
X141577785Y-93710880D01*
X141626166Y-93759261D01*
X141674547Y-93783452D01*
X132975047Y-94971809D02*
X132975047Y-95383047D01*
X132950857Y-95431428D01*
X132926666Y-95455619D01*
X132878285Y-95479809D01*
X132781523Y-95479809D01*
X132733142Y-95455619D01*
X132708952Y-95431428D01*
X132684761Y-95383047D01*
X132684761Y-94971809D01*
X132467047Y-95020190D02*
X132442857Y-94996000D01*
X132394476Y-94971809D01*
X132273523Y-94971809D01*
X132225142Y-94996000D01*
X132200952Y-95020190D01*
X132176761Y-95068571D01*
X132176761Y-95116952D01*
X132200952Y-95189523D01*
X132491238Y-95479809D01*
X132176761Y-95479809D01*
M02*
