G04 #@! TF.GenerationSoftware,KiCad,Pcbnew,(5.1.0-47-g8a7e501fe)*
G04 #@! TF.CreationDate,2019-04-01T01:15:26-05:00*
G04 #@! TF.ProjectId,usb_c_wien_bridge,7573625f-635f-4776-9965-6e5f62726964,0.1a*
G04 #@! TF.SameCoordinates,Original*
G04 #@! TF.FileFunction,Soldermask,Top*
G04 #@! TF.FilePolarity,Negative*
%FSLAX46Y46*%
G04 Gerber Fmt 4.6, Leading zero omitted, Abs format (unit mm)*
G04 Created by KiCad (PCBNEW (5.1.0-47-g8a7e501fe)) date 2019-04-01 01:15:26*
%MOMM*%
%LPD*%
G04 APERTURE LIST*
%ADD10C,0.127000*%
%ADD11C,0.100000*%
G04 APERTURE END LIST*
D10*
X145110200Y-90511085D02*
X145134390Y-90486895D01*
X145182771Y-90462704D01*
X145279533Y-90511085D01*
X145327914Y-90486895D01*
X145352104Y-90462704D01*
X145497247Y-90196609D02*
X145835914Y-90196609D01*
X145618200Y-90704609D01*
X146126200Y-90196609D02*
X146174580Y-90196609D01*
X146222961Y-90220800D01*
X146247152Y-90244990D01*
X146271342Y-90293371D01*
X146295533Y-90390133D01*
X146295533Y-90511085D01*
X146271342Y-90607847D01*
X146247152Y-90656228D01*
X146222961Y-90680419D01*
X146174580Y-90704609D01*
X146126200Y-90704609D01*
X146077819Y-90680419D01*
X146053628Y-90656228D01*
X146029438Y-90607847D01*
X146005247Y-90511085D01*
X146005247Y-90390133D01*
X146029438Y-90293371D01*
X146053628Y-90244990D01*
X146077819Y-90220800D01*
X146126200Y-90196609D01*
X146610009Y-90196609D02*
X146658390Y-90196609D01*
X146706771Y-90220800D01*
X146730961Y-90244990D01*
X146755152Y-90293371D01*
X146779342Y-90390133D01*
X146779342Y-90511085D01*
X146755152Y-90607847D01*
X146730961Y-90656228D01*
X146706771Y-90680419D01*
X146658390Y-90704609D01*
X146610009Y-90704609D01*
X146561628Y-90680419D01*
X146537438Y-90656228D01*
X146513247Y-90607847D01*
X146489057Y-90511085D01*
X146489057Y-90390133D01*
X146513247Y-90293371D01*
X146537438Y-90244990D01*
X146561628Y-90220800D01*
X146610009Y-90196609D01*
X147384104Y-90704609D02*
X147384104Y-90196609D01*
X147384104Y-90438514D02*
X147674390Y-90438514D01*
X147674390Y-90704609D02*
X147674390Y-90196609D01*
X147867914Y-90365942D02*
X148134009Y-90365942D01*
X147867914Y-90704609D01*
X148134009Y-90704609D01*
X144239342Y-91085609D02*
X144360295Y-91593609D01*
X144457057Y-91230752D01*
X144553819Y-91593609D01*
X144674771Y-91085609D01*
X144868295Y-91593609D02*
X144868295Y-91085609D01*
X145110200Y-91327514D02*
X145279533Y-91327514D01*
X145352104Y-91593609D02*
X145110200Y-91593609D01*
X145110200Y-91085609D01*
X145352104Y-91085609D01*
X145569819Y-91593609D02*
X145569819Y-91085609D01*
X145860104Y-91593609D01*
X145860104Y-91085609D01*
X146658390Y-91327514D02*
X146730961Y-91351704D01*
X146755152Y-91375895D01*
X146779342Y-91424276D01*
X146779342Y-91496847D01*
X146755152Y-91545228D01*
X146730961Y-91569419D01*
X146682580Y-91593609D01*
X146489057Y-91593609D01*
X146489057Y-91085609D01*
X146658390Y-91085609D01*
X146706771Y-91109800D01*
X146730961Y-91133990D01*
X146755152Y-91182371D01*
X146755152Y-91230752D01*
X146730961Y-91279133D01*
X146706771Y-91303323D01*
X146658390Y-91327514D01*
X146489057Y-91327514D01*
X147287342Y-91593609D02*
X147118009Y-91351704D01*
X146997057Y-91593609D02*
X146997057Y-91085609D01*
X147190580Y-91085609D01*
X147238961Y-91109800D01*
X147263152Y-91133990D01*
X147287342Y-91182371D01*
X147287342Y-91254942D01*
X147263152Y-91303323D01*
X147238961Y-91327514D01*
X147190580Y-91351704D01*
X146997057Y-91351704D01*
X147505057Y-91593609D02*
X147505057Y-91085609D01*
X147746961Y-91593609D02*
X147746961Y-91085609D01*
X147867914Y-91085609D01*
X147940485Y-91109800D01*
X147988866Y-91158180D01*
X148013057Y-91206561D01*
X148037247Y-91303323D01*
X148037247Y-91375895D01*
X148013057Y-91472657D01*
X147988866Y-91521038D01*
X147940485Y-91569419D01*
X147867914Y-91593609D01*
X147746961Y-91593609D01*
X148521057Y-91109800D02*
X148472676Y-91085609D01*
X148400104Y-91085609D01*
X148327533Y-91109800D01*
X148279152Y-91158180D01*
X148254961Y-91206561D01*
X148230771Y-91303323D01*
X148230771Y-91375895D01*
X148254961Y-91472657D01*
X148279152Y-91521038D01*
X148327533Y-91569419D01*
X148400104Y-91593609D01*
X148448485Y-91593609D01*
X148521057Y-91569419D01*
X148545247Y-91545228D01*
X148545247Y-91375895D01*
X148448485Y-91375895D01*
X148762961Y-91327514D02*
X148932295Y-91327514D01*
X149004866Y-91593609D02*
X148762961Y-91593609D01*
X148762961Y-91085609D01*
X149004866Y-91085609D01*
X144626390Y-91974609D02*
X144723152Y-91974609D01*
X144771533Y-91998800D01*
X144819914Y-92047180D01*
X144844104Y-92143942D01*
X144844104Y-92313276D01*
X144819914Y-92410038D01*
X144771533Y-92458419D01*
X144723152Y-92482609D01*
X144626390Y-92482609D01*
X144578009Y-92458419D01*
X144529628Y-92410038D01*
X144505438Y-92313276D01*
X144505438Y-92143942D01*
X144529628Y-92047180D01*
X144578009Y-91998800D01*
X144626390Y-91974609D01*
X145037628Y-92458419D02*
X145110200Y-92482609D01*
X145231152Y-92482609D01*
X145279533Y-92458419D01*
X145303723Y-92434228D01*
X145327914Y-92385847D01*
X145327914Y-92337466D01*
X145303723Y-92289085D01*
X145279533Y-92264895D01*
X145231152Y-92240704D01*
X145134390Y-92216514D01*
X145086009Y-92192323D01*
X145061819Y-92168133D01*
X145037628Y-92119752D01*
X145037628Y-92071371D01*
X145061819Y-92022990D01*
X145086009Y-91998800D01*
X145134390Y-91974609D01*
X145255342Y-91974609D01*
X145327914Y-91998800D01*
X145835914Y-92434228D02*
X145811723Y-92458419D01*
X145739152Y-92482609D01*
X145690771Y-92482609D01*
X145618200Y-92458419D01*
X145569819Y-92410038D01*
X145545628Y-92361657D01*
X145521438Y-92264895D01*
X145521438Y-92192323D01*
X145545628Y-92095561D01*
X145569819Y-92047180D01*
X145618200Y-91998800D01*
X145690771Y-91974609D01*
X145739152Y-91974609D01*
X145811723Y-91998800D01*
X145835914Y-92022990D01*
X146053628Y-92482609D02*
X146053628Y-91974609D01*
X146537438Y-92482609D02*
X146295533Y-92482609D01*
X146295533Y-91974609D01*
X146948676Y-92482609D02*
X146706771Y-92482609D01*
X146706771Y-91974609D01*
X147093819Y-92337466D02*
X147335723Y-92337466D01*
X147045438Y-92482609D02*
X147214771Y-91974609D01*
X147384104Y-92482609D01*
X147480866Y-91974609D02*
X147771152Y-91974609D01*
X147626009Y-92482609D02*
X147626009Y-91974609D01*
X148037247Y-91974609D02*
X148134009Y-91974609D01*
X148182390Y-91998800D01*
X148230771Y-92047180D01*
X148254961Y-92143942D01*
X148254961Y-92313276D01*
X148230771Y-92410038D01*
X148182390Y-92458419D01*
X148134009Y-92482609D01*
X148037247Y-92482609D01*
X147988866Y-92458419D01*
X147940485Y-92410038D01*
X147916295Y-92313276D01*
X147916295Y-92143942D01*
X147940485Y-92047180D01*
X147988866Y-91998800D01*
X148037247Y-91974609D01*
X148762961Y-92482609D02*
X148593628Y-92240704D01*
X148472676Y-92482609D02*
X148472676Y-91974609D01*
X148666200Y-91974609D01*
X148714580Y-91998800D01*
X148738771Y-92022990D01*
X148762961Y-92071371D01*
X148762961Y-92143942D01*
X148738771Y-92192323D01*
X148714580Y-92216514D01*
X148666200Y-92240704D01*
X148472676Y-92240704D01*
X151387628Y-90514109D02*
X151387628Y-90006109D01*
X151387628Y-90248014D02*
X151677914Y-90248014D01*
X151677914Y-90514109D02*
X151677914Y-90006109D01*
X151895628Y-90368966D02*
X152137533Y-90368966D01*
X151847247Y-90514109D02*
X152016580Y-90006109D01*
X152185914Y-90514109D01*
X152355247Y-90514109D02*
X152355247Y-90006109D01*
X152548771Y-90006109D01*
X152597152Y-90030300D01*
X152621342Y-90054490D01*
X152645533Y-90102871D01*
X152645533Y-90175442D01*
X152621342Y-90223823D01*
X152597152Y-90248014D01*
X152548771Y-90272204D01*
X152355247Y-90272204D01*
X152863247Y-90514109D02*
X152863247Y-90006109D01*
X153056771Y-90006109D01*
X153105152Y-90030300D01*
X153129342Y-90054490D01*
X153153533Y-90102871D01*
X153153533Y-90175442D01*
X153129342Y-90223823D01*
X153105152Y-90248014D01*
X153056771Y-90272204D01*
X152863247Y-90272204D01*
X153468009Y-90272204D02*
X153468009Y-90514109D01*
X153298676Y-90006109D02*
X153468009Y-90272204D01*
X153637342Y-90006109D01*
X150988485Y-91137014D02*
X151061057Y-91161204D01*
X151085247Y-91185395D01*
X151109438Y-91233776D01*
X151109438Y-91306347D01*
X151085247Y-91354728D01*
X151061057Y-91378919D01*
X151012676Y-91403109D01*
X150819152Y-91403109D01*
X150819152Y-90895109D01*
X150988485Y-90895109D01*
X151036866Y-90919300D01*
X151061057Y-90943490D01*
X151085247Y-90991871D01*
X151085247Y-91040252D01*
X151061057Y-91088633D01*
X151036866Y-91112823D01*
X150988485Y-91137014D01*
X150819152Y-91137014D01*
X151327152Y-91403109D02*
X151327152Y-90895109D01*
X151859342Y-91403109D02*
X151690009Y-91161204D01*
X151569057Y-91403109D02*
X151569057Y-90895109D01*
X151762580Y-90895109D01*
X151810961Y-90919300D01*
X151835152Y-90943490D01*
X151859342Y-90991871D01*
X151859342Y-91064442D01*
X151835152Y-91112823D01*
X151810961Y-91137014D01*
X151762580Y-91161204D01*
X151569057Y-91161204D01*
X152004485Y-90895109D02*
X152294771Y-90895109D01*
X152149628Y-91403109D02*
X152149628Y-90895109D01*
X152464104Y-91403109D02*
X152464104Y-90895109D01*
X152464104Y-91137014D02*
X152754390Y-91137014D01*
X152754390Y-91403109D02*
X152754390Y-90895109D01*
X152996295Y-91403109D02*
X152996295Y-90895109D01*
X153117247Y-90895109D01*
X153189819Y-90919300D01*
X153238200Y-90967680D01*
X153262390Y-91016061D01*
X153286580Y-91112823D01*
X153286580Y-91185395D01*
X153262390Y-91282157D01*
X153238200Y-91330538D01*
X153189819Y-91378919D01*
X153117247Y-91403109D01*
X152996295Y-91403109D01*
X153480104Y-91257966D02*
X153722009Y-91257966D01*
X153431723Y-91403109D02*
X153601057Y-90895109D01*
X153770390Y-91403109D01*
X154036485Y-91161204D02*
X154036485Y-91403109D01*
X153867152Y-90895109D02*
X154036485Y-91161204D01*
X154205819Y-90895109D01*
X151073152Y-92292109D02*
X151073152Y-91784109D01*
X151363438Y-92292109D02*
X151145723Y-92001823D01*
X151363438Y-91784109D02*
X151073152Y-92074395D01*
X151556961Y-92146966D02*
X151798866Y-92146966D01*
X151508580Y-92292109D02*
X151677914Y-91784109D01*
X151847247Y-92292109D01*
X151944009Y-91784109D02*
X152234295Y-91784109D01*
X152089152Y-92292109D02*
X152089152Y-91784109D01*
X152693914Y-92292109D02*
X152524580Y-92050204D01*
X152403628Y-92292109D02*
X152403628Y-91784109D01*
X152597152Y-91784109D01*
X152645533Y-91808300D01*
X152669723Y-91832490D01*
X152693914Y-91880871D01*
X152693914Y-91953442D01*
X152669723Y-92001823D01*
X152645533Y-92026014D01*
X152597152Y-92050204D01*
X152403628Y-92050204D01*
X152911628Y-92292109D02*
X152911628Y-91784109D01*
X153153533Y-92292109D02*
X153153533Y-91784109D01*
X153443819Y-92292109D01*
X153443819Y-91784109D01*
X153661533Y-92146966D02*
X153903438Y-92146966D01*
X153613152Y-92292109D02*
X153782485Y-91784109D01*
X153951819Y-92292109D01*
X149839438Y-93156919D02*
X149912009Y-93181109D01*
X150032961Y-93181109D01*
X150081342Y-93156919D01*
X150105533Y-93132728D01*
X150129723Y-93084347D01*
X150129723Y-93035966D01*
X150105533Y-92987585D01*
X150081342Y-92963395D01*
X150032961Y-92939204D01*
X149936200Y-92915014D01*
X149887819Y-92890823D01*
X149863628Y-92866633D01*
X149839438Y-92818252D01*
X149839438Y-92769871D01*
X149863628Y-92721490D01*
X149887819Y-92697300D01*
X149936200Y-92673109D01*
X150057152Y-92673109D01*
X150129723Y-92697300D01*
X150637723Y-93132728D02*
X150613533Y-93156919D01*
X150540961Y-93181109D01*
X150492580Y-93181109D01*
X150420009Y-93156919D01*
X150371628Y-93108538D01*
X150347438Y-93060157D01*
X150323247Y-92963395D01*
X150323247Y-92890823D01*
X150347438Y-92794061D01*
X150371628Y-92745680D01*
X150420009Y-92697300D01*
X150492580Y-92673109D01*
X150540961Y-92673109D01*
X150613533Y-92697300D01*
X150637723Y-92721490D01*
X150855438Y-93181109D02*
X150855438Y-92673109D01*
X150855438Y-92915014D02*
X151145723Y-92915014D01*
X151145723Y-93181109D02*
X151145723Y-92673109D01*
X151677914Y-93181109D02*
X151508580Y-92939204D01*
X151387628Y-93181109D02*
X151387628Y-92673109D01*
X151581152Y-92673109D01*
X151629533Y-92697300D01*
X151653723Y-92721490D01*
X151677914Y-92769871D01*
X151677914Y-92842442D01*
X151653723Y-92890823D01*
X151629533Y-92915014D01*
X151581152Y-92939204D01*
X151387628Y-92939204D01*
X151992390Y-92673109D02*
X152089152Y-92673109D01*
X152137533Y-92697300D01*
X152185914Y-92745680D01*
X152210104Y-92842442D01*
X152210104Y-93011776D01*
X152185914Y-93108538D01*
X152137533Y-93156919D01*
X152089152Y-93181109D01*
X151992390Y-93181109D01*
X151944009Y-93156919D01*
X151895628Y-93108538D01*
X151871438Y-93011776D01*
X151871438Y-92842442D01*
X151895628Y-92745680D01*
X151944009Y-92697300D01*
X151992390Y-92673109D01*
X152427819Y-92915014D02*
X152597152Y-92915014D01*
X152669723Y-93181109D02*
X152427819Y-93181109D01*
X152427819Y-92673109D01*
X152669723Y-92673109D01*
X152887438Y-93181109D02*
X152887438Y-92673109D01*
X153008390Y-92673109D01*
X153080961Y-92697300D01*
X153129342Y-92745680D01*
X153153533Y-92794061D01*
X153177723Y-92890823D01*
X153177723Y-92963395D01*
X153153533Y-93060157D01*
X153129342Y-93108538D01*
X153080961Y-93156919D01*
X153008390Y-93181109D01*
X152887438Y-93181109D01*
X153395438Y-92915014D02*
X153564771Y-92915014D01*
X153637342Y-93181109D02*
X153395438Y-93181109D01*
X153395438Y-92673109D01*
X153637342Y-92673109D01*
X154145342Y-93181109D02*
X153976009Y-92939204D01*
X153855057Y-93181109D02*
X153855057Y-92673109D01*
X154048580Y-92673109D01*
X154096961Y-92697300D01*
X154121152Y-92721490D01*
X154145342Y-92769871D01*
X154145342Y-92842442D01*
X154121152Y-92890823D01*
X154096961Y-92915014D01*
X154048580Y-92939204D01*
X153855057Y-92939204D01*
X154750104Y-93132728D02*
X154774295Y-93156919D01*
X154750104Y-93181109D01*
X154725914Y-93156919D01*
X154750104Y-93132728D01*
X154750104Y-93181109D01*
X154750104Y-92866633D02*
X154774295Y-92890823D01*
X154750104Y-92915014D01*
X154725914Y-92890823D01*
X154750104Y-92866633D01*
X154750104Y-92915014D01*
X154943628Y-93374633D02*
X154967819Y-93350442D01*
X155016200Y-93277871D01*
X155040390Y-93229490D01*
X155064580Y-93156919D01*
X155088771Y-93035966D01*
X155088771Y-92939204D01*
X155064580Y-92818252D01*
X155040390Y-92745680D01*
X155016200Y-92697300D01*
X154967819Y-92624728D01*
X154943628Y-92600538D01*
D11*
G36*
X139556278Y-100249701D02*
G01*
X139612193Y-100266663D01*
X139693095Y-100291204D01*
X139819183Y-100358600D01*
X139929701Y-100449299D01*
X140020400Y-100559817D01*
X140087796Y-100685905D01*
X140107288Y-100750163D01*
X140129299Y-100822722D01*
X140143312Y-100965000D01*
X140129299Y-101107278D01*
X140107288Y-101179837D01*
X140087796Y-101244095D01*
X140020400Y-101370183D01*
X139929701Y-101480701D01*
X139819183Y-101571400D01*
X139693095Y-101638796D01*
X139628837Y-101658288D01*
X139556278Y-101680299D01*
X139449655Y-101690800D01*
X139378345Y-101690800D01*
X139271722Y-101680299D01*
X139199163Y-101658288D01*
X139134905Y-101638796D01*
X139008817Y-101571400D01*
X138898299Y-101480701D01*
X138807600Y-101370183D01*
X138740204Y-101244095D01*
X138720712Y-101179837D01*
X138698701Y-101107278D01*
X138684688Y-100965000D01*
X138698701Y-100822722D01*
X138720712Y-100750163D01*
X138740204Y-100685905D01*
X138807600Y-100559817D01*
X138898299Y-100449299D01*
X139008817Y-100358600D01*
X139134905Y-100291204D01*
X139215807Y-100266663D01*
X139271722Y-100249701D01*
X139378345Y-100239200D01*
X139449655Y-100239200D01*
X139556278Y-100249701D01*
X139556278Y-100249701D01*
G37*
G36*
X137556278Y-100249701D02*
G01*
X137612193Y-100266663D01*
X137693095Y-100291204D01*
X137819183Y-100358600D01*
X137929701Y-100449299D01*
X138020400Y-100559817D01*
X138087796Y-100685905D01*
X138107288Y-100750163D01*
X138129299Y-100822722D01*
X138143312Y-100965000D01*
X138129299Y-101107278D01*
X138107288Y-101179837D01*
X138087796Y-101244095D01*
X138020400Y-101370183D01*
X137929701Y-101480701D01*
X137819183Y-101571400D01*
X137693095Y-101638796D01*
X137628837Y-101658288D01*
X137556278Y-101680299D01*
X137449655Y-101690800D01*
X137378345Y-101690800D01*
X137271722Y-101680299D01*
X137199163Y-101658288D01*
X137134905Y-101638796D01*
X137008817Y-101571400D01*
X136898299Y-101480701D01*
X136807600Y-101370183D01*
X136740204Y-101244095D01*
X136720712Y-101179837D01*
X136698701Y-101107278D01*
X136684688Y-100965000D01*
X136698701Y-100822722D01*
X136720712Y-100750163D01*
X136740204Y-100685905D01*
X136807600Y-100559817D01*
X136898299Y-100449299D01*
X137008817Y-100358600D01*
X137134905Y-100291204D01*
X137215807Y-100266663D01*
X137271722Y-100249701D01*
X137378345Y-100239200D01*
X137449655Y-100239200D01*
X137556278Y-100249701D01*
X137556278Y-100249701D01*
G37*
G36*
X127342369Y-99930722D02*
G01*
X127342372Y-99930723D01*
X127427348Y-99956500D01*
X127505663Y-99998360D01*
X127574306Y-100054694D01*
X127630640Y-100123337D01*
X127672500Y-100201652D01*
X127683890Y-100239200D01*
X127698278Y-100286631D01*
X127706982Y-100375000D01*
X127698278Y-100463369D01*
X127695330Y-100473088D01*
X127672500Y-100548348D01*
X127630640Y-100626663D01*
X127574306Y-100695306D01*
X127505663Y-100751640D01*
X127427348Y-100793500D01*
X127352088Y-100816330D01*
X127342369Y-100819278D01*
X127276149Y-100825800D01*
X126631851Y-100825800D01*
X126565631Y-100819278D01*
X126555912Y-100816330D01*
X126480652Y-100793500D01*
X126402337Y-100751640D01*
X126333694Y-100695306D01*
X126277360Y-100626663D01*
X126235500Y-100548348D01*
X126212670Y-100473088D01*
X126209722Y-100463369D01*
X126201018Y-100375000D01*
X126209722Y-100286631D01*
X126224110Y-100239200D01*
X126235500Y-100201652D01*
X126277360Y-100123337D01*
X126333694Y-100054694D01*
X126402337Y-99998360D01*
X126480652Y-99956500D01*
X126565628Y-99930723D01*
X126565631Y-99930722D01*
X126631851Y-99924200D01*
X127276149Y-99924200D01*
X127342369Y-99930722D01*
X127342369Y-99930722D01*
G37*
G36*
X133292369Y-99570722D02*
G01*
X133292372Y-99570723D01*
X133377348Y-99596500D01*
X133455663Y-99638360D01*
X133524306Y-99694694D01*
X133580640Y-99763337D01*
X133622500Y-99841652D01*
X133640811Y-99902016D01*
X133648278Y-99926631D01*
X133656982Y-100015000D01*
X133648278Y-100103369D01*
X133648277Y-100103372D01*
X133622500Y-100188348D01*
X133580640Y-100266663D01*
X133524306Y-100335306D01*
X133455663Y-100391640D01*
X133377348Y-100433500D01*
X133325265Y-100449299D01*
X133292369Y-100459278D01*
X133226149Y-100465800D01*
X132581851Y-100465800D01*
X132515631Y-100459278D01*
X132482735Y-100449299D01*
X132430652Y-100433500D01*
X132352337Y-100391640D01*
X132283694Y-100335306D01*
X132227360Y-100266663D01*
X132185500Y-100188348D01*
X132159723Y-100103372D01*
X132159722Y-100103369D01*
X132151018Y-100015000D01*
X132159722Y-99926631D01*
X132167189Y-99902016D01*
X132185500Y-99841652D01*
X132227360Y-99763337D01*
X132283694Y-99694694D01*
X132352337Y-99638360D01*
X132430652Y-99596500D01*
X132515628Y-99570723D01*
X132515631Y-99570722D01*
X132581851Y-99564200D01*
X133226149Y-99564200D01*
X133292369Y-99570722D01*
X133292369Y-99570722D01*
G37*
G36*
X134227666Y-98964637D02*
G01*
X134227669Y-98964638D01*
X134227670Y-98964638D01*
X134298508Y-98986126D01*
X134363793Y-99021022D01*
X134363795Y-99021023D01*
X134363794Y-99021023D01*
X134421017Y-99067983D01*
X134463767Y-99120076D01*
X134467978Y-99125207D01*
X134502874Y-99190492D01*
X134502874Y-99190493D01*
X134524363Y-99261334D01*
X134529800Y-99316537D01*
X134529800Y-99653463D01*
X134524363Y-99708666D01*
X134524362Y-99708669D01*
X134524362Y-99708670D01*
X134502874Y-99779508D01*
X134467978Y-99844793D01*
X134467977Y-99844794D01*
X134421017Y-99902016D01*
X134386036Y-99930723D01*
X134363792Y-99948978D01*
X134298507Y-99983874D01*
X134227669Y-100005362D01*
X134227668Y-100005362D01*
X134227665Y-100005363D01*
X134154000Y-100012619D01*
X134080334Y-100005363D01*
X134080331Y-100005362D01*
X134080330Y-100005362D01*
X134009492Y-99983874D01*
X133944207Y-99948978D01*
X133916977Y-99926631D01*
X133886984Y-99902017D01*
X133840023Y-99844793D01*
X133838344Y-99841652D01*
X133805126Y-99779507D01*
X133783638Y-99708669D01*
X133783638Y-99708668D01*
X133783637Y-99708665D01*
X133778200Y-99653462D01*
X133778200Y-99316537D01*
X133783637Y-99261334D01*
X133788866Y-99244095D01*
X133805126Y-99190492D01*
X133840023Y-99125207D01*
X133854737Y-99107278D01*
X133886984Y-99067983D01*
X133944207Y-99021023D01*
X133944206Y-99021023D01*
X133944208Y-99021022D01*
X134009493Y-98986126D01*
X134080331Y-98964638D01*
X134080332Y-98964638D01*
X134080335Y-98964637D01*
X134154000Y-98957381D01*
X134227666Y-98964637D01*
X134227666Y-98964637D01*
G37*
G36*
X139556278Y-98249701D02*
G01*
X139628837Y-98271712D01*
X139693095Y-98291204D01*
X139819183Y-98358600D01*
X139929701Y-98449299D01*
X140020400Y-98559817D01*
X140087796Y-98685905D01*
X140107288Y-98750163D01*
X140129299Y-98822722D01*
X140143312Y-98965000D01*
X140129299Y-99107278D01*
X140123860Y-99125207D01*
X140087796Y-99244095D01*
X140020400Y-99370183D01*
X139929701Y-99480701D01*
X139819183Y-99571400D01*
X139693095Y-99638796D01*
X139644743Y-99653463D01*
X139556278Y-99680299D01*
X139449655Y-99690800D01*
X139378345Y-99690800D01*
X139271722Y-99680299D01*
X139183257Y-99653463D01*
X139134905Y-99638796D01*
X139008817Y-99571400D01*
X138898299Y-99480701D01*
X138807600Y-99370183D01*
X138740204Y-99244095D01*
X138704140Y-99125207D01*
X138698701Y-99107278D01*
X138684688Y-98965000D01*
X138698701Y-98822722D01*
X138720712Y-98750163D01*
X138740204Y-98685905D01*
X138807600Y-98559817D01*
X138898299Y-98449299D01*
X139008817Y-98358600D01*
X139134905Y-98291204D01*
X139199163Y-98271712D01*
X139271722Y-98249701D01*
X139378345Y-98239200D01*
X139449655Y-98239200D01*
X139556278Y-98249701D01*
X139556278Y-98249701D01*
G37*
G36*
X138139800Y-99690800D02*
G01*
X136688200Y-99690800D01*
X136688200Y-98239200D01*
X138139800Y-98239200D01*
X138139800Y-99690800D01*
X138139800Y-99690800D01*
G37*
G36*
X135214800Y-98835800D02*
G01*
X134413200Y-98835800D01*
X134413200Y-92934200D01*
X135214800Y-92934200D01*
X135214800Y-98835800D01*
X135214800Y-98835800D01*
G37*
G36*
X133514800Y-98585800D02*
G01*
X132713200Y-98585800D01*
X132713200Y-92684200D01*
X133514800Y-92684200D01*
X133514800Y-98585800D01*
X133514800Y-98585800D01*
G37*
G36*
X145599855Y-96181878D02*
G01*
X145643138Y-96195008D01*
X145683024Y-96216328D01*
X145717983Y-96245017D01*
X145746672Y-96279976D01*
X145767992Y-96319862D01*
X145781122Y-96363145D01*
X145785800Y-96410642D01*
X145785800Y-97645358D01*
X145781122Y-97692855D01*
X145767992Y-97736138D01*
X145746672Y-97776024D01*
X145717983Y-97810983D01*
X145683024Y-97839672D01*
X145643138Y-97860992D01*
X145599855Y-97874122D01*
X145552358Y-97878800D01*
X142417642Y-97878800D01*
X142370145Y-97874122D01*
X142326862Y-97860992D01*
X142286976Y-97839672D01*
X142252017Y-97810983D01*
X142223328Y-97776024D01*
X142202008Y-97736138D01*
X142188878Y-97692855D01*
X142184200Y-97645358D01*
X142184200Y-96410642D01*
X142188878Y-96363145D01*
X142202008Y-96319862D01*
X142223328Y-96279976D01*
X142252017Y-96245017D01*
X142286976Y-96216328D01*
X142326862Y-96195008D01*
X142370145Y-96181878D01*
X142417642Y-96177200D01*
X145552358Y-96177200D01*
X145599855Y-96181878D01*
X145599855Y-96181878D01*
G37*
G36*
X150999855Y-96181878D02*
G01*
X151043138Y-96195008D01*
X151083024Y-96216328D01*
X151117983Y-96245017D01*
X151146672Y-96279976D01*
X151167992Y-96319862D01*
X151181122Y-96363145D01*
X151185800Y-96410642D01*
X151185800Y-97645358D01*
X151181122Y-97692855D01*
X151167992Y-97736138D01*
X151146672Y-97776024D01*
X151117983Y-97810983D01*
X151083024Y-97839672D01*
X151043138Y-97860992D01*
X150999855Y-97874122D01*
X150952358Y-97878800D01*
X147817642Y-97878800D01*
X147770145Y-97874122D01*
X147726862Y-97860992D01*
X147686976Y-97839672D01*
X147652017Y-97810983D01*
X147623328Y-97776024D01*
X147602008Y-97736138D01*
X147588878Y-97692855D01*
X147584200Y-97645358D01*
X147584200Y-96410642D01*
X147588878Y-96363145D01*
X147602008Y-96319862D01*
X147623328Y-96279976D01*
X147652017Y-96245017D01*
X147686976Y-96216328D01*
X147726862Y-96195008D01*
X147770145Y-96181878D01*
X147817642Y-96177200D01*
X150952358Y-96177200D01*
X150999855Y-96181878D01*
X150999855Y-96181878D01*
G37*
G36*
X138513674Y-95998643D02*
G01*
X138554667Y-96011078D01*
X138592448Y-96031273D01*
X138625556Y-96058444D01*
X138652727Y-96091552D01*
X138672922Y-96129333D01*
X138685357Y-96170326D01*
X138689800Y-96215441D01*
X138689800Y-96824559D01*
X138685357Y-96869674D01*
X138672922Y-96910667D01*
X138652727Y-96948448D01*
X138625556Y-96981556D01*
X138592448Y-97008727D01*
X138554667Y-97028922D01*
X138513674Y-97041357D01*
X138468559Y-97045800D01*
X137934441Y-97045800D01*
X137889326Y-97041357D01*
X137848333Y-97028922D01*
X137810552Y-97008727D01*
X137777444Y-96981556D01*
X137750273Y-96948448D01*
X137730078Y-96910667D01*
X137717643Y-96869674D01*
X137713200Y-96824559D01*
X137713200Y-96215441D01*
X137717643Y-96170326D01*
X137730078Y-96129333D01*
X137750273Y-96091552D01*
X137777444Y-96058444D01*
X137810552Y-96031273D01*
X137848333Y-96011078D01*
X137889326Y-95998643D01*
X137934441Y-95994200D01*
X138468559Y-95994200D01*
X138513674Y-95998643D01*
X138513674Y-95998643D01*
G37*
G36*
X136938674Y-95998643D02*
G01*
X136979667Y-96011078D01*
X137017448Y-96031273D01*
X137050556Y-96058444D01*
X137077727Y-96091552D01*
X137097922Y-96129333D01*
X137110357Y-96170326D01*
X137114800Y-96215441D01*
X137114800Y-96824559D01*
X137110357Y-96869674D01*
X137097922Y-96910667D01*
X137077727Y-96948448D01*
X137050556Y-96981556D01*
X137017448Y-97008727D01*
X136979667Y-97028922D01*
X136938674Y-97041357D01*
X136893559Y-97045800D01*
X136359441Y-97045800D01*
X136314326Y-97041357D01*
X136273333Y-97028922D01*
X136235552Y-97008727D01*
X136202444Y-96981556D01*
X136175273Y-96948448D01*
X136155078Y-96910667D01*
X136142643Y-96869674D01*
X136138200Y-96824559D01*
X136138200Y-96215441D01*
X136142643Y-96170326D01*
X136155078Y-96129333D01*
X136175273Y-96091552D01*
X136202444Y-96058444D01*
X136235552Y-96031273D01*
X136273333Y-96011078D01*
X136314326Y-95998643D01*
X136359441Y-95994200D01*
X136893559Y-95994200D01*
X136938674Y-95998643D01*
X136938674Y-95998643D01*
G37*
G36*
X141689800Y-92921800D02*
G01*
X139488200Y-92921800D01*
X139488200Y-90720200D01*
X141689800Y-90720200D01*
X141689800Y-92921800D01*
X141689800Y-92921800D01*
G37*
G36*
X138370092Y-90762503D02*
G01*
X138570424Y-90845483D01*
X138750721Y-90965954D01*
X138904046Y-91119279D01*
X139024517Y-91299576D01*
X139107497Y-91499908D01*
X139149800Y-91712580D01*
X139149800Y-91929420D01*
X139107497Y-92142092D01*
X139024517Y-92342424D01*
X138904046Y-92522721D01*
X138750721Y-92676046D01*
X138570424Y-92796517D01*
X138370092Y-92879497D01*
X138157420Y-92921800D01*
X137940580Y-92921800D01*
X137727908Y-92879497D01*
X137527576Y-92796517D01*
X137347279Y-92676046D01*
X137193954Y-92522721D01*
X137073483Y-92342424D01*
X136990503Y-92142092D01*
X136948200Y-91929420D01*
X136948200Y-91712580D01*
X136990503Y-91499908D01*
X137073483Y-91299576D01*
X137193954Y-91119279D01*
X137347279Y-90965954D01*
X137527576Y-90845483D01*
X137727908Y-90762503D01*
X137940580Y-90720200D01*
X138157420Y-90720200D01*
X138370092Y-90762503D01*
X138370092Y-90762503D01*
G37*
G36*
X134263617Y-91923642D02*
G01*
X134332008Y-91951970D01*
X134393560Y-91993098D01*
X134445902Y-92045440D01*
X134487030Y-92106992D01*
X134515358Y-92175383D01*
X134529800Y-92247987D01*
X134529800Y-92322013D01*
X134515358Y-92394617D01*
X134487030Y-92463008D01*
X134445902Y-92524560D01*
X134393560Y-92576902D01*
X134332008Y-92618030D01*
X134263617Y-92646358D01*
X134191013Y-92660800D01*
X134116987Y-92660800D01*
X134044383Y-92646358D01*
X133975992Y-92618030D01*
X133914440Y-92576902D01*
X133862098Y-92524560D01*
X133820970Y-92463008D01*
X133792642Y-92394617D01*
X133778200Y-92322013D01*
X133778200Y-92247987D01*
X133792642Y-92175383D01*
X133820970Y-92106992D01*
X133862098Y-92045440D01*
X133914440Y-91993098D01*
X133975992Y-91951970D01*
X134044383Y-91923642D01*
X134116987Y-91909200D01*
X134191013Y-91909200D01*
X134263617Y-91923642D01*
X134263617Y-91923642D01*
G37*
G36*
X133292369Y-91310722D02*
G01*
X133292372Y-91310723D01*
X133377348Y-91336500D01*
X133455663Y-91378360D01*
X133524306Y-91434694D01*
X133580640Y-91503337D01*
X133622500Y-91581652D01*
X133642220Y-91646662D01*
X133648278Y-91666631D01*
X133656982Y-91755000D01*
X133648278Y-91843369D01*
X133645330Y-91853088D01*
X133622500Y-91928348D01*
X133580640Y-92006663D01*
X133524306Y-92075306D01*
X133455663Y-92131640D01*
X133377348Y-92173500D01*
X133302088Y-92196330D01*
X133292369Y-92199278D01*
X133226149Y-92205800D01*
X132581851Y-92205800D01*
X132515631Y-92199278D01*
X132505912Y-92196330D01*
X132430652Y-92173500D01*
X132352337Y-92131640D01*
X132283694Y-92075306D01*
X132227360Y-92006663D01*
X132185500Y-91928348D01*
X132162670Y-91853088D01*
X132159722Y-91843369D01*
X132151018Y-91755000D01*
X132159722Y-91666631D01*
X132165780Y-91646662D01*
X132185500Y-91581652D01*
X132227360Y-91503337D01*
X132283694Y-91434694D01*
X132352337Y-91378360D01*
X132430652Y-91336500D01*
X132515628Y-91310723D01*
X132515631Y-91310722D01*
X132581851Y-91304200D01*
X133226149Y-91304200D01*
X133292369Y-91310722D01*
X133292369Y-91310722D01*
G37*
G36*
X127342369Y-90950722D02*
G01*
X127342372Y-90950723D01*
X127427348Y-90976500D01*
X127505663Y-91018360D01*
X127574306Y-91074694D01*
X127630640Y-91143337D01*
X127672500Y-91221652D01*
X127695330Y-91296912D01*
X127698278Y-91306631D01*
X127706982Y-91395000D01*
X127698278Y-91483369D01*
X127698277Y-91483372D01*
X127672500Y-91568348D01*
X127630640Y-91646663D01*
X127574306Y-91715306D01*
X127505663Y-91771640D01*
X127427348Y-91813500D01*
X127352088Y-91836330D01*
X127342369Y-91839278D01*
X127276149Y-91845800D01*
X126631851Y-91845800D01*
X126565631Y-91839278D01*
X126555912Y-91836330D01*
X126480652Y-91813500D01*
X126402337Y-91771640D01*
X126333694Y-91715306D01*
X126277360Y-91646663D01*
X126235500Y-91568348D01*
X126209723Y-91483372D01*
X126209722Y-91483369D01*
X126201018Y-91395000D01*
X126209722Y-91306631D01*
X126212670Y-91296912D01*
X126235500Y-91221652D01*
X126277360Y-91143337D01*
X126333694Y-91074694D01*
X126402337Y-91018360D01*
X126480652Y-90976500D01*
X126565628Y-90950723D01*
X126565631Y-90950722D01*
X126631851Y-90944200D01*
X127276149Y-90944200D01*
X127342369Y-90950722D01*
X127342369Y-90950722D01*
G37*
M02*
