G04 #@! TF.GenerationSoftware,KiCad,Pcbnew,(5.1.0-47-g8a7e501fe)*
G04 #@! TF.CreationDate,2019-04-01T01:15:26-05:00*
G04 #@! TF.ProjectId,usb_c_wien_bridge,7573625f-635f-4776-9965-6e5f62726964,0.1a*
G04 #@! TF.SameCoordinates,Original*
G04 #@! TF.FileFunction,Copper,L1,Top*
G04 #@! TF.FilePolarity,Positive*
%FSLAX46Y46*%
G04 Gerber Fmt 4.6, Leading zero omitted, Abs format (unit mm)*
G04 Created by KiCad (PCBNEW (5.1.0-47-g8a7e501fe)) date 2019-04-01 01:15:26*
%MOMM*%
%LPD*%
G04 APERTURE LIST*
%ADD10C,0.100000*%
%ADD11C,1.600000*%
%ADD12C,2.100000*%
%ADD13R,2.100000X2.100000*%
%ADD14C,0.875000*%
%ADD15O,1.350000X1.350000*%
%ADD16R,1.350000X1.350000*%
%ADD17O,1.400000X0.800000*%
%ADD18R,0.700000X0.300000*%
%ADD19C,0.609600*%
%ADD20C,0.254000*%
%ADD21C,0.203200*%
%ADD22C,0.304800*%
%ADD23C,0.457200*%
G04 APERTURE END LIST*
D10*
G36*
X145509504Y-96229204D02*
G01*
X145533773Y-96232804D01*
X145557571Y-96238765D01*
X145580671Y-96247030D01*
X145602849Y-96257520D01*
X145623893Y-96270133D01*
X145643598Y-96284747D01*
X145661777Y-96301223D01*
X145678253Y-96319402D01*
X145692867Y-96339107D01*
X145705480Y-96360151D01*
X145715970Y-96382329D01*
X145724235Y-96405429D01*
X145730196Y-96429227D01*
X145733796Y-96453496D01*
X145735000Y-96478000D01*
X145735000Y-97578000D01*
X145733796Y-97602504D01*
X145730196Y-97626773D01*
X145724235Y-97650571D01*
X145715970Y-97673671D01*
X145705480Y-97695849D01*
X145692867Y-97716893D01*
X145678253Y-97736598D01*
X145661777Y-97754777D01*
X145643598Y-97771253D01*
X145623893Y-97785867D01*
X145602849Y-97798480D01*
X145580671Y-97808970D01*
X145557571Y-97817235D01*
X145533773Y-97823196D01*
X145509504Y-97826796D01*
X145485000Y-97828000D01*
X142485000Y-97828000D01*
X142460496Y-97826796D01*
X142436227Y-97823196D01*
X142412429Y-97817235D01*
X142389329Y-97808970D01*
X142367151Y-97798480D01*
X142346107Y-97785867D01*
X142326402Y-97771253D01*
X142308223Y-97754777D01*
X142291747Y-97736598D01*
X142277133Y-97716893D01*
X142264520Y-97695849D01*
X142254030Y-97673671D01*
X142245765Y-97650571D01*
X142239804Y-97626773D01*
X142236204Y-97602504D01*
X142235000Y-97578000D01*
X142235000Y-96478000D01*
X142236204Y-96453496D01*
X142239804Y-96429227D01*
X142245765Y-96405429D01*
X142254030Y-96382329D01*
X142264520Y-96360151D01*
X142277133Y-96339107D01*
X142291747Y-96319402D01*
X142308223Y-96301223D01*
X142326402Y-96284747D01*
X142346107Y-96270133D01*
X142367151Y-96257520D01*
X142389329Y-96247030D01*
X142412429Y-96238765D01*
X142436227Y-96232804D01*
X142460496Y-96229204D01*
X142485000Y-96228000D01*
X145485000Y-96228000D01*
X145509504Y-96229204D01*
X145509504Y-96229204D01*
G37*
D11*
X143985000Y-97028000D03*
D10*
G36*
X150909504Y-96229204D02*
G01*
X150933773Y-96232804D01*
X150957571Y-96238765D01*
X150980671Y-96247030D01*
X151002849Y-96257520D01*
X151023893Y-96270133D01*
X151043598Y-96284747D01*
X151061777Y-96301223D01*
X151078253Y-96319402D01*
X151092867Y-96339107D01*
X151105480Y-96360151D01*
X151115970Y-96382329D01*
X151124235Y-96405429D01*
X151130196Y-96429227D01*
X151133796Y-96453496D01*
X151135000Y-96478000D01*
X151135000Y-97578000D01*
X151133796Y-97602504D01*
X151130196Y-97626773D01*
X151124235Y-97650571D01*
X151115970Y-97673671D01*
X151105480Y-97695849D01*
X151092867Y-97716893D01*
X151078253Y-97736598D01*
X151061777Y-97754777D01*
X151043598Y-97771253D01*
X151023893Y-97785867D01*
X151002849Y-97798480D01*
X150980671Y-97808970D01*
X150957571Y-97817235D01*
X150933773Y-97823196D01*
X150909504Y-97826796D01*
X150885000Y-97828000D01*
X147885000Y-97828000D01*
X147860496Y-97826796D01*
X147836227Y-97823196D01*
X147812429Y-97817235D01*
X147789329Y-97808970D01*
X147767151Y-97798480D01*
X147746107Y-97785867D01*
X147726402Y-97771253D01*
X147708223Y-97754777D01*
X147691747Y-97736598D01*
X147677133Y-97716893D01*
X147664520Y-97695849D01*
X147654030Y-97673671D01*
X147645765Y-97650571D01*
X147639804Y-97626773D01*
X147636204Y-97602504D01*
X147635000Y-97578000D01*
X147635000Y-96478000D01*
X147636204Y-96453496D01*
X147639804Y-96429227D01*
X147645765Y-96405429D01*
X147654030Y-96382329D01*
X147664520Y-96360151D01*
X147677133Y-96339107D01*
X147691747Y-96319402D01*
X147708223Y-96301223D01*
X147726402Y-96284747D01*
X147746107Y-96270133D01*
X147767151Y-96257520D01*
X147789329Y-96247030D01*
X147812429Y-96238765D01*
X147836227Y-96232804D01*
X147860496Y-96229204D01*
X147885000Y-96228000D01*
X150885000Y-96228000D01*
X150909504Y-96229204D01*
X150909504Y-96229204D01*
G37*
D11*
X149385000Y-97028000D03*
D12*
X138049000Y-91821000D03*
D13*
X140589000Y-91821000D03*
D10*
G36*
X136866691Y-96046053D02*
G01*
X136887926Y-96049203D01*
X136908750Y-96054419D01*
X136928962Y-96061651D01*
X136948368Y-96070830D01*
X136966781Y-96081866D01*
X136984024Y-96094654D01*
X136999930Y-96109070D01*
X137014346Y-96124976D01*
X137027134Y-96142219D01*
X137038170Y-96160632D01*
X137047349Y-96180038D01*
X137054581Y-96200250D01*
X137059797Y-96221074D01*
X137062947Y-96242309D01*
X137064000Y-96263750D01*
X137064000Y-96776250D01*
X137062947Y-96797691D01*
X137059797Y-96818926D01*
X137054581Y-96839750D01*
X137047349Y-96859962D01*
X137038170Y-96879368D01*
X137027134Y-96897781D01*
X137014346Y-96915024D01*
X136999930Y-96930930D01*
X136984024Y-96945346D01*
X136966781Y-96958134D01*
X136948368Y-96969170D01*
X136928962Y-96978349D01*
X136908750Y-96985581D01*
X136887926Y-96990797D01*
X136866691Y-96993947D01*
X136845250Y-96995000D01*
X136407750Y-96995000D01*
X136386309Y-96993947D01*
X136365074Y-96990797D01*
X136344250Y-96985581D01*
X136324038Y-96978349D01*
X136304632Y-96969170D01*
X136286219Y-96958134D01*
X136268976Y-96945346D01*
X136253070Y-96930930D01*
X136238654Y-96915024D01*
X136225866Y-96897781D01*
X136214830Y-96879368D01*
X136205651Y-96859962D01*
X136198419Y-96839750D01*
X136193203Y-96818926D01*
X136190053Y-96797691D01*
X136189000Y-96776250D01*
X136189000Y-96263750D01*
X136190053Y-96242309D01*
X136193203Y-96221074D01*
X136198419Y-96200250D01*
X136205651Y-96180038D01*
X136214830Y-96160632D01*
X136225866Y-96142219D01*
X136238654Y-96124976D01*
X136253070Y-96109070D01*
X136268976Y-96094654D01*
X136286219Y-96081866D01*
X136304632Y-96070830D01*
X136324038Y-96061651D01*
X136344250Y-96054419D01*
X136365074Y-96049203D01*
X136386309Y-96046053D01*
X136407750Y-96045000D01*
X136845250Y-96045000D01*
X136866691Y-96046053D01*
X136866691Y-96046053D01*
G37*
D14*
X136626500Y-96520000D03*
D10*
G36*
X138441691Y-96046053D02*
G01*
X138462926Y-96049203D01*
X138483750Y-96054419D01*
X138503962Y-96061651D01*
X138523368Y-96070830D01*
X138541781Y-96081866D01*
X138559024Y-96094654D01*
X138574930Y-96109070D01*
X138589346Y-96124976D01*
X138602134Y-96142219D01*
X138613170Y-96160632D01*
X138622349Y-96180038D01*
X138629581Y-96200250D01*
X138634797Y-96221074D01*
X138637947Y-96242309D01*
X138639000Y-96263750D01*
X138639000Y-96776250D01*
X138637947Y-96797691D01*
X138634797Y-96818926D01*
X138629581Y-96839750D01*
X138622349Y-96859962D01*
X138613170Y-96879368D01*
X138602134Y-96897781D01*
X138589346Y-96915024D01*
X138574930Y-96930930D01*
X138559024Y-96945346D01*
X138541781Y-96958134D01*
X138523368Y-96969170D01*
X138503962Y-96978349D01*
X138483750Y-96985581D01*
X138462926Y-96990797D01*
X138441691Y-96993947D01*
X138420250Y-96995000D01*
X137982750Y-96995000D01*
X137961309Y-96993947D01*
X137940074Y-96990797D01*
X137919250Y-96985581D01*
X137899038Y-96978349D01*
X137879632Y-96969170D01*
X137861219Y-96958134D01*
X137843976Y-96945346D01*
X137828070Y-96930930D01*
X137813654Y-96915024D01*
X137800866Y-96897781D01*
X137789830Y-96879368D01*
X137780651Y-96859962D01*
X137773419Y-96839750D01*
X137768203Y-96818926D01*
X137765053Y-96797691D01*
X137764000Y-96776250D01*
X137764000Y-96263750D01*
X137765053Y-96242309D01*
X137768203Y-96221074D01*
X137773419Y-96200250D01*
X137780651Y-96180038D01*
X137789830Y-96160632D01*
X137800866Y-96142219D01*
X137813654Y-96124976D01*
X137828070Y-96109070D01*
X137843976Y-96094654D01*
X137861219Y-96081866D01*
X137879632Y-96070830D01*
X137899038Y-96061651D01*
X137919250Y-96054419D01*
X137940074Y-96049203D01*
X137961309Y-96046053D01*
X137982750Y-96045000D01*
X138420250Y-96045000D01*
X138441691Y-96046053D01*
X138441691Y-96046053D01*
G37*
D14*
X138201500Y-96520000D03*
D15*
X139414000Y-100965000D03*
X139414000Y-98965000D03*
X137414000Y-100965000D03*
D16*
X137414000Y-98965000D03*
D17*
X132904000Y-91755000D03*
D18*
X134814000Y-93135000D03*
X134814000Y-93635000D03*
X134814000Y-94135000D03*
X134814000Y-94635000D03*
X134814000Y-95135000D03*
X134814000Y-95635000D03*
X134814000Y-96135000D03*
X134814000Y-98635000D03*
X134814000Y-97635000D03*
X134814000Y-97135000D03*
X134814000Y-96635000D03*
X134814000Y-98135000D03*
X133114000Y-98385000D03*
D17*
X132904000Y-100015000D03*
X126954000Y-100375000D03*
X126954000Y-91395000D03*
D18*
X133114000Y-97885000D03*
X133114000Y-97385000D03*
X133114000Y-96885000D03*
X133114000Y-96385000D03*
X133114000Y-95885000D03*
X133114000Y-95385000D03*
X133114000Y-94885000D03*
X133114000Y-94385000D03*
X133114000Y-93885000D03*
X133114000Y-93385000D03*
X133114000Y-92885000D03*
D19*
X131572000Y-92837000D03*
X137541000Y-93726000D03*
X135890000Y-91821000D03*
X130810000Y-100330000D03*
X152273000Y-93472000D03*
X145542000Y-94742000D03*
X128397000Y-93345000D03*
X127254000Y-94488000D03*
X148082000Y-99568000D03*
X154908250Y-100711000D03*
X154908250Y-95631000D03*
X154908250Y-91059000D03*
X144653000Y-99568000D03*
X142748000Y-99568000D03*
X131191000Y-94869000D03*
X131191000Y-95631000D03*
X146304000Y-96774000D03*
X146304000Y-96012000D03*
D20*
X133841039Y-91632999D02*
X133719038Y-91755000D01*
X133204000Y-91755000D02*
X132904000Y-91755000D01*
X134466961Y-91632999D02*
X133841039Y-91632999D01*
X134814000Y-93135000D02*
X134814000Y-91980038D01*
X133719038Y-91755000D02*
X133204000Y-91755000D01*
X134814000Y-91980038D02*
X134466961Y-91632999D01*
X132904000Y-92675000D02*
X132904000Y-91755000D01*
X133114000Y-92885000D02*
X132904000Y-92675000D01*
X133416000Y-100015000D02*
X132904000Y-100015000D01*
X133731000Y-100330000D02*
X133416000Y-100015000D01*
X134381081Y-100330000D02*
X133731000Y-100330000D01*
X134814000Y-98635000D02*
X134814000Y-99897081D01*
X134814000Y-99897081D02*
X134381081Y-100330000D01*
X132969000Y-99950000D02*
X132904000Y-100015000D01*
X133114000Y-98385000D02*
X132969000Y-98530000D01*
X132969000Y-98530000D02*
X132969000Y-99950000D01*
D21*
X134356798Y-97135000D02*
X134814000Y-97135000D01*
X134106798Y-96885000D02*
X134356798Y-97135000D01*
X135367200Y-97135000D02*
X135763000Y-97530800D01*
X134814000Y-97135000D02*
X135367200Y-97135000D01*
D22*
X138739001Y-99639999D02*
X139414000Y-98965000D01*
X138434199Y-99944801D02*
X138739001Y-99639999D01*
X136495159Y-99944801D02*
X138434199Y-99944801D01*
X135763000Y-99212642D02*
X136495159Y-99944801D01*
X135763000Y-97530800D02*
X135763000Y-99212642D01*
D20*
X134210000Y-94635000D02*
X134814000Y-94635000D01*
X133968000Y-94635000D02*
X134210000Y-94635000D01*
X133718000Y-94385000D02*
X133968000Y-94635000D01*
X133114000Y-94385000D02*
X133718000Y-94385000D01*
X135418000Y-94635000D02*
X135763000Y-94290000D01*
X134814000Y-94635000D02*
X135418000Y-94635000D01*
D23*
X133969000Y-96885000D02*
X133969000Y-94636000D01*
D21*
X133969000Y-96885000D02*
X134106798Y-96885000D01*
X133969000Y-94636000D02*
X133968000Y-94635000D01*
X133114000Y-96885000D02*
X133969000Y-96885000D01*
D20*
X132207000Y-94609249D02*
X132207000Y-94688000D01*
X133114000Y-94385000D02*
X132431249Y-94385000D01*
X132431249Y-94385000D02*
X132207000Y-94609249D01*
X132510000Y-96885000D02*
X133114000Y-96885000D01*
X132207000Y-96582000D02*
X132510000Y-96885000D01*
D23*
X131191000Y-94869000D02*
X132207000Y-94869000D01*
X132207000Y-94688000D02*
X132207000Y-94869000D01*
X131191000Y-95631000D02*
X132207000Y-95631000D01*
X132207000Y-94869000D02*
X132207000Y-95631000D01*
X132207000Y-95631000D02*
X132207000Y-96582000D01*
X138049000Y-92004000D02*
X138049000Y-91821000D01*
X135763000Y-94290000D02*
X138049000Y-92004000D01*
X148514290Y-96157290D02*
X146412710Y-96157290D01*
X149385000Y-97028000D02*
X148514290Y-96157290D01*
X146304000Y-96012000D02*
X146304000Y-96266000D01*
X146412710Y-96157290D02*
X146304000Y-96266000D01*
X146304000Y-96266000D02*
X146304000Y-96774000D01*
X137414000Y-97832800D02*
X137414000Y-98965000D01*
X138218800Y-97028000D02*
X137414000Y-97832800D01*
X143985000Y-97028000D02*
X138218800Y-97028000D01*
X138201500Y-97010700D02*
X138218800Y-97028000D01*
X138201500Y-96520000D02*
X138201500Y-97010700D01*
D20*
G36*
X155054300Y-101714300D02*
G01*
X140329446Y-101714300D01*
X140402388Y-101625420D01*
X140512238Y-101419905D01*
X140579883Y-101196909D01*
X140602724Y-100965000D01*
X140579883Y-100733091D01*
X140512238Y-100510095D01*
X140402388Y-100304580D01*
X140254555Y-100124445D01*
X140074420Y-99976612D01*
X140052695Y-99965000D01*
X140074420Y-99953388D01*
X140254555Y-99805555D01*
X140402388Y-99625420D01*
X140512238Y-99419905D01*
X140579883Y-99196909D01*
X140602724Y-98965000D01*
X140579883Y-98733091D01*
X140512238Y-98510095D01*
X140402388Y-98304580D01*
X140254555Y-98124445D01*
X140074420Y-97976612D01*
X139868905Y-97866762D01*
X139645909Y-97799117D01*
X139472117Y-97782000D01*
X139355883Y-97782000D01*
X139182091Y-97799117D01*
X138959095Y-97866762D01*
X138753580Y-97976612D01*
X138573445Y-98124445D01*
X138570665Y-98127833D01*
X138560601Y-98094657D01*
X138513429Y-98006405D01*
X138449948Y-97929052D01*
X138400246Y-97888263D01*
X138523910Y-97764600D01*
X141750756Y-97764600D01*
X141782429Y-97869014D01*
X141852703Y-98000487D01*
X141947276Y-98115724D01*
X142062513Y-98210297D01*
X142193986Y-98280571D01*
X142336642Y-98323845D01*
X142485000Y-98338457D01*
X145485000Y-98338457D01*
X145633358Y-98323845D01*
X145776014Y-98280571D01*
X145907487Y-98210297D01*
X146022724Y-98115724D01*
X146117297Y-98000487D01*
X146187571Y-97869014D01*
X146230845Y-97726358D01*
X146244590Y-97586800D01*
X146384054Y-97586800D01*
X146541085Y-97555565D01*
X146689005Y-97494294D01*
X146822130Y-97405343D01*
X146935343Y-97292130D01*
X147024294Y-97159005D01*
X147085565Y-97011085D01*
X147108876Y-96893890D01*
X147124543Y-96893890D01*
X147124543Y-97578000D01*
X147139155Y-97726358D01*
X147182429Y-97869014D01*
X147252703Y-98000487D01*
X147347276Y-98115724D01*
X147462513Y-98210297D01*
X147593986Y-98280571D01*
X147736642Y-98323845D01*
X147885000Y-98338457D01*
X150885000Y-98338457D01*
X151033358Y-98323845D01*
X151176014Y-98280571D01*
X151307487Y-98210297D01*
X151422724Y-98115724D01*
X151517297Y-98000487D01*
X151587571Y-97869014D01*
X151630845Y-97726358D01*
X151645457Y-97578000D01*
X151645457Y-96478000D01*
X151630845Y-96329642D01*
X151587571Y-96186986D01*
X151517297Y-96055513D01*
X151422724Y-95940276D01*
X151307487Y-95845703D01*
X151176014Y-95775429D01*
X151033358Y-95732155D01*
X150885000Y-95717543D01*
X149116252Y-95717543D01*
X149060735Y-95662026D01*
X149037665Y-95633915D01*
X148925503Y-95541866D01*
X148797539Y-95473468D01*
X148658689Y-95431348D01*
X148550476Y-95420690D01*
X148550473Y-95420690D01*
X148514290Y-95417126D01*
X148478107Y-95420690D01*
X146862163Y-95420690D01*
X146822130Y-95380657D01*
X146689005Y-95291706D01*
X146541085Y-95230435D01*
X146384054Y-95199200D01*
X146223946Y-95199200D01*
X146066915Y-95230435D01*
X145918995Y-95291706D01*
X145785870Y-95380657D01*
X145672657Y-95493870D01*
X145583706Y-95626995D01*
X145543801Y-95723334D01*
X145485000Y-95717543D01*
X142485000Y-95717543D01*
X142336642Y-95732155D01*
X142193986Y-95775429D01*
X142062513Y-95845703D01*
X141947276Y-95940276D01*
X141852703Y-96055513D01*
X141782429Y-96186986D01*
X141750756Y-96291400D01*
X139149457Y-96291400D01*
X139149457Y-96263750D01*
X139135445Y-96121489D01*
X139093949Y-95984695D01*
X139026563Y-95858624D01*
X138935877Y-95748123D01*
X138825376Y-95657437D01*
X138699305Y-95590051D01*
X138562511Y-95548555D01*
X138420250Y-95534543D01*
X137982750Y-95534543D01*
X137840489Y-95548555D01*
X137703695Y-95590051D01*
X137577624Y-95657437D01*
X137467123Y-95748123D01*
X137388520Y-95843900D01*
X137382322Y-95832304D01*
X137334711Y-95774289D01*
X137276696Y-95726678D01*
X137210508Y-95691299D01*
X137138689Y-95669513D01*
X137064000Y-95662157D01*
X136785250Y-95664000D01*
X136690000Y-95759250D01*
X136690000Y-96456500D01*
X136710000Y-96456500D01*
X136710000Y-96583500D01*
X136690000Y-96583500D01*
X136690000Y-97280750D01*
X136785250Y-97376000D01*
X136835715Y-97376334D01*
X136798576Y-97421588D01*
X136730178Y-97549552D01*
X136688058Y-97688402D01*
X136678495Y-97785502D01*
X136639415Y-97789351D01*
X136543657Y-97818399D01*
X136455405Y-97865571D01*
X136423400Y-97891836D01*
X136423400Y-97498361D01*
X136413844Y-97401339D01*
X136406281Y-97376406D01*
X136467750Y-97376000D01*
X136563000Y-97280750D01*
X136563000Y-96583500D01*
X135903250Y-96583500D01*
X135808000Y-96678750D01*
X135807812Y-96710969D01*
X135800338Y-96701862D01*
X135707514Y-96625684D01*
X135674457Y-96608015D01*
X135674457Y-96485000D01*
X135664649Y-96385415D01*
X135664523Y-96385000D01*
X135664649Y-96384585D01*
X135674457Y-96285000D01*
X135674457Y-96045000D01*
X135806157Y-96045000D01*
X135808000Y-96361250D01*
X135903250Y-96456500D01*
X136563000Y-96456500D01*
X136563000Y-95759250D01*
X136467750Y-95664000D01*
X136189000Y-95662157D01*
X136114311Y-95669513D01*
X136042492Y-95691299D01*
X135976304Y-95726678D01*
X135918289Y-95774289D01*
X135870678Y-95832304D01*
X135835299Y-95898492D01*
X135813513Y-95970311D01*
X135806157Y-96045000D01*
X135674457Y-96045000D01*
X135674457Y-95985000D01*
X135664649Y-95885415D01*
X135664523Y-95885000D01*
X135664649Y-95884585D01*
X135674457Y-95785000D01*
X135674457Y-95485000D01*
X135664649Y-95385415D01*
X135664523Y-95385000D01*
X135664649Y-95384585D01*
X135674457Y-95285000D01*
X135674457Y-95217940D01*
X135772494Y-95165537D01*
X135869185Y-95086185D01*
X135889074Y-95061950D01*
X135947138Y-95003886D01*
X136046247Y-94973822D01*
X136174212Y-94905424D01*
X136258267Y-94836442D01*
X137745547Y-93349162D01*
X137895550Y-93379000D01*
X138202450Y-93379000D01*
X138503452Y-93319126D01*
X138786990Y-93201681D01*
X139042167Y-93031177D01*
X139053342Y-93020002D01*
X139067399Y-93066343D01*
X139114571Y-93154595D01*
X139178052Y-93231948D01*
X139255405Y-93295429D01*
X139343657Y-93342601D01*
X139439415Y-93371649D01*
X139539000Y-93381457D01*
X141639000Y-93381457D01*
X141738585Y-93371649D01*
X141834343Y-93342601D01*
X141922595Y-93295429D01*
X141999948Y-93231948D01*
X142063429Y-93154595D01*
X142110601Y-93066343D01*
X142139649Y-92970585D01*
X142149457Y-92871000D01*
X142149457Y-90771000D01*
X142139649Y-90671415D01*
X142110601Y-90575657D01*
X142063429Y-90487405D01*
X141999948Y-90410052D01*
X141922595Y-90346571D01*
X141834343Y-90299399D01*
X141738585Y-90270351D01*
X141639000Y-90260543D01*
X139539000Y-90260543D01*
X139439415Y-90270351D01*
X139343657Y-90299399D01*
X139255405Y-90346571D01*
X139178052Y-90410052D01*
X139114571Y-90487405D01*
X139067399Y-90575657D01*
X139053342Y-90621998D01*
X139042167Y-90610823D01*
X138786990Y-90440319D01*
X138503452Y-90322874D01*
X138202450Y-90263000D01*
X137895550Y-90263000D01*
X137594548Y-90322874D01*
X137311010Y-90440319D01*
X137055833Y-90610823D01*
X136838823Y-90827833D01*
X136668319Y-91083010D01*
X136550874Y-91366548D01*
X136491000Y-91667550D01*
X136491000Y-91974450D01*
X136550874Y-92275452D01*
X136605049Y-92406242D01*
X135655625Y-93355666D01*
X135635601Y-93289657D01*
X135588429Y-93201405D01*
X135524948Y-93124052D01*
X135477026Y-93084724D01*
X135545000Y-93016750D01*
X135546843Y-92985000D01*
X135539487Y-92910311D01*
X135517701Y-92838492D01*
X135482322Y-92772304D01*
X135434711Y-92714289D01*
X135376696Y-92666678D01*
X135310508Y-92631299D01*
X135238689Y-92609513D01*
X135164000Y-92602157D01*
X134972750Y-92604000D01*
X134882165Y-92694585D01*
X134892195Y-92679574D01*
X134954989Y-92527977D01*
X134987000Y-92367043D01*
X134987000Y-92202957D01*
X134954989Y-92042023D01*
X134892195Y-91890426D01*
X134801034Y-91753993D01*
X134685007Y-91637966D01*
X134548574Y-91546805D01*
X134396977Y-91484011D01*
X134236043Y-91452000D01*
X134071957Y-91452000D01*
X133934458Y-91479350D01*
X133888657Y-91373897D01*
X133801152Y-91247650D01*
X133690699Y-91140900D01*
X133561542Y-91057750D01*
X133418645Y-91001395D01*
X133267500Y-90974000D01*
X132967500Y-90974000D01*
X132967500Y-91691500D01*
X132987500Y-91691500D01*
X132987500Y-91818500D01*
X132967500Y-91818500D01*
X132967500Y-91838500D01*
X132840500Y-91838500D01*
X132840500Y-91818500D01*
X131921196Y-91818500D01*
X131845103Y-91939489D01*
X131858149Y-91995210D01*
X131919343Y-92136103D01*
X132006848Y-92262350D01*
X132117301Y-92369100D01*
X132246458Y-92452250D01*
X132389355Y-92508605D01*
X132448172Y-92519265D01*
X132445678Y-92522304D01*
X132410299Y-92588492D01*
X132388513Y-92660311D01*
X132381157Y-92735000D01*
X132383000Y-92766750D01*
X132450974Y-92834724D01*
X132403052Y-92874052D01*
X132339571Y-92951405D01*
X132292399Y-93039657D01*
X132263351Y-93135415D01*
X132253543Y-93235000D01*
X132253543Y-93535000D01*
X132263351Y-93634585D01*
X132263477Y-93635000D01*
X132263351Y-93635415D01*
X132253543Y-93735000D01*
X132253543Y-93775333D01*
X132187069Y-93795498D01*
X132076755Y-93854463D01*
X131980064Y-93933815D01*
X131960175Y-93958050D01*
X131902904Y-94015321D01*
X131795787Y-94072576D01*
X131722892Y-94132400D01*
X131536639Y-94132400D01*
X131428085Y-94087435D01*
X131271054Y-94056200D01*
X131110946Y-94056200D01*
X130953915Y-94087435D01*
X130805995Y-94148706D01*
X130672870Y-94237657D01*
X130559657Y-94350870D01*
X130470706Y-94483995D01*
X130409435Y-94631915D01*
X130378200Y-94788946D01*
X130378200Y-94949054D01*
X130409435Y-95106085D01*
X130469047Y-95250000D01*
X130409435Y-95393915D01*
X130378200Y-95550946D01*
X130378200Y-95711054D01*
X130409435Y-95868085D01*
X130470706Y-96016005D01*
X130559657Y-96149130D01*
X130672870Y-96262343D01*
X130805995Y-96351294D01*
X130953915Y-96412565D01*
X131110946Y-96443800D01*
X131271054Y-96443800D01*
X131428085Y-96412565D01*
X131470401Y-96395037D01*
X131470401Y-96618186D01*
X131481059Y-96726399D01*
X131523179Y-96865249D01*
X131591577Y-96993213D01*
X131683626Y-97105375D01*
X131795788Y-97197424D01*
X131923752Y-97265822D01*
X132022862Y-97295887D01*
X132038930Y-97311954D01*
X132058815Y-97336185D01*
X132083044Y-97356069D01*
X132155507Y-97415538D01*
X132222609Y-97451405D01*
X132253543Y-97467940D01*
X132253543Y-97535000D01*
X132263351Y-97634585D01*
X132263477Y-97635000D01*
X132263351Y-97635415D01*
X132253543Y-97735000D01*
X132253543Y-98035000D01*
X132263351Y-98134585D01*
X132292399Y-98230343D01*
X132339571Y-98318595D01*
X132403052Y-98395948D01*
X132450974Y-98435276D01*
X132383000Y-98503250D01*
X132381157Y-98535000D01*
X132388513Y-98609689D01*
X132410299Y-98681508D01*
X132445678Y-98747696D01*
X132493289Y-98805711D01*
X132551304Y-98853322D01*
X132617492Y-98888701D01*
X132689311Y-98910487D01*
X132764000Y-98917843D01*
X132955250Y-98916000D01*
X133050500Y-98820750D01*
X133050500Y-98545457D01*
X133177500Y-98545457D01*
X133177500Y-98820750D01*
X133272750Y-98916000D01*
X133432608Y-98917540D01*
X133380685Y-99014682D01*
X133333053Y-99171704D01*
X133325875Y-99244581D01*
X133267500Y-99234000D01*
X132967500Y-99234000D01*
X132967500Y-99951500D01*
X132987500Y-99951500D01*
X132987500Y-100078500D01*
X132967500Y-100078500D01*
X132967500Y-100796000D01*
X133267500Y-100796000D01*
X133418645Y-100768605D01*
X133561542Y-100712250D01*
X133690699Y-100629100D01*
X133801152Y-100522350D01*
X133872112Y-100419973D01*
X133990704Y-100455947D01*
X134154000Y-100472030D01*
X134317295Y-100455947D01*
X134474317Y-100408315D01*
X134619028Y-100330965D01*
X134745870Y-100226870D01*
X134849965Y-100100029D01*
X134927315Y-99955318D01*
X134974947Y-99798296D01*
X134987000Y-99675918D01*
X134987000Y-99294083D01*
X134974947Y-99171705D01*
X134973218Y-99166005D01*
X135102601Y-99167251D01*
X135102601Y-99180194D01*
X135099405Y-99212642D01*
X135112156Y-99342102D01*
X135149918Y-99466588D01*
X135149919Y-99466589D01*
X135211242Y-99581316D01*
X135293768Y-99681875D01*
X135318967Y-99702555D01*
X136005245Y-100388834D01*
X136025926Y-100414034D01*
X136126485Y-100496560D01*
X136241212Y-100557883D01*
X136365698Y-100595645D01*
X136427098Y-100601692D01*
X136382819Y-100737385D01*
X136455158Y-100901500D01*
X137350500Y-100901500D01*
X137350500Y-100881500D01*
X137477500Y-100881500D01*
X137477500Y-100901500D01*
X137497500Y-100901500D01*
X137497500Y-101028500D01*
X137477500Y-101028500D01*
X137477500Y-101048500D01*
X137350500Y-101048500D01*
X137350500Y-101028500D01*
X136455158Y-101028500D01*
X136382819Y-101192615D01*
X136447038Y-101389415D01*
X136548417Y-101569905D01*
X136672058Y-101714300D01*
X126504700Y-101714300D01*
X126504700Y-101140449D01*
X126590500Y-101156000D01*
X126890500Y-101156000D01*
X126890500Y-100438500D01*
X127017500Y-100438500D01*
X127017500Y-101156000D01*
X127317500Y-101156000D01*
X127468645Y-101128605D01*
X127611542Y-101072250D01*
X127740699Y-100989100D01*
X127851152Y-100882350D01*
X127938657Y-100756103D01*
X127999851Y-100615210D01*
X128012897Y-100559489D01*
X127936804Y-100438500D01*
X127017500Y-100438500D01*
X126890500Y-100438500D01*
X126870500Y-100438500D01*
X126870500Y-100311500D01*
X126890500Y-100311500D01*
X126890500Y-99594000D01*
X127017500Y-99594000D01*
X127017500Y-100311500D01*
X127936804Y-100311500D01*
X128007250Y-100199489D01*
X131845103Y-100199489D01*
X131858149Y-100255210D01*
X131919343Y-100396103D01*
X132006848Y-100522350D01*
X132117301Y-100629100D01*
X132246458Y-100712250D01*
X132389355Y-100768605D01*
X132540500Y-100796000D01*
X132840500Y-100796000D01*
X132840500Y-100078500D01*
X131921196Y-100078500D01*
X131845103Y-100199489D01*
X128007250Y-100199489D01*
X128012897Y-100190511D01*
X127999851Y-100134790D01*
X127938657Y-99993897D01*
X127851152Y-99867650D01*
X127812725Y-99830511D01*
X131845103Y-99830511D01*
X131921196Y-99951500D01*
X132840500Y-99951500D01*
X132840500Y-99234000D01*
X132540500Y-99234000D01*
X132389355Y-99261395D01*
X132246458Y-99317750D01*
X132117301Y-99400900D01*
X132006848Y-99507650D01*
X131919343Y-99633897D01*
X131858149Y-99774790D01*
X131845103Y-99830511D01*
X127812725Y-99830511D01*
X127740699Y-99760900D01*
X127611542Y-99677750D01*
X127468645Y-99621395D01*
X127317500Y-99594000D01*
X127017500Y-99594000D01*
X126890500Y-99594000D01*
X126590500Y-99594000D01*
X126504700Y-99609551D01*
X126504700Y-92160449D01*
X126590500Y-92176000D01*
X126890500Y-92176000D01*
X126890500Y-91458500D01*
X127017500Y-91458500D01*
X127017500Y-92176000D01*
X127317500Y-92176000D01*
X127468645Y-92148605D01*
X127611542Y-92092250D01*
X127740699Y-92009100D01*
X127851152Y-91902350D01*
X127938657Y-91776103D01*
X127999851Y-91635210D01*
X128012897Y-91579489D01*
X128007251Y-91570511D01*
X131845103Y-91570511D01*
X131921196Y-91691500D01*
X132840500Y-91691500D01*
X132840500Y-90974000D01*
X132540500Y-90974000D01*
X132389355Y-91001395D01*
X132246458Y-91057750D01*
X132117301Y-91140900D01*
X132006848Y-91247650D01*
X131919343Y-91373897D01*
X131858149Y-91514790D01*
X131845103Y-91570511D01*
X128007251Y-91570511D01*
X127936804Y-91458500D01*
X127017500Y-91458500D01*
X126890500Y-91458500D01*
X126870500Y-91458500D01*
X126870500Y-91331500D01*
X126890500Y-91331500D01*
X126890500Y-90614000D01*
X127017500Y-90614000D01*
X127017500Y-91331500D01*
X127936804Y-91331500D01*
X128012897Y-91210511D01*
X127999851Y-91154790D01*
X127938657Y-91013897D01*
X127851152Y-90887650D01*
X127740699Y-90780900D01*
X127611542Y-90697750D01*
X127468645Y-90641395D01*
X127317500Y-90614000D01*
X127017500Y-90614000D01*
X126890500Y-90614000D01*
X126590500Y-90614000D01*
X126504700Y-90629551D01*
X126504700Y-90055700D01*
X155054301Y-90055700D01*
X155054300Y-101714300D01*
X155054300Y-101714300D01*
G37*
X155054300Y-101714300D02*
X140329446Y-101714300D01*
X140402388Y-101625420D01*
X140512238Y-101419905D01*
X140579883Y-101196909D01*
X140602724Y-100965000D01*
X140579883Y-100733091D01*
X140512238Y-100510095D01*
X140402388Y-100304580D01*
X140254555Y-100124445D01*
X140074420Y-99976612D01*
X140052695Y-99965000D01*
X140074420Y-99953388D01*
X140254555Y-99805555D01*
X140402388Y-99625420D01*
X140512238Y-99419905D01*
X140579883Y-99196909D01*
X140602724Y-98965000D01*
X140579883Y-98733091D01*
X140512238Y-98510095D01*
X140402388Y-98304580D01*
X140254555Y-98124445D01*
X140074420Y-97976612D01*
X139868905Y-97866762D01*
X139645909Y-97799117D01*
X139472117Y-97782000D01*
X139355883Y-97782000D01*
X139182091Y-97799117D01*
X138959095Y-97866762D01*
X138753580Y-97976612D01*
X138573445Y-98124445D01*
X138570665Y-98127833D01*
X138560601Y-98094657D01*
X138513429Y-98006405D01*
X138449948Y-97929052D01*
X138400246Y-97888263D01*
X138523910Y-97764600D01*
X141750756Y-97764600D01*
X141782429Y-97869014D01*
X141852703Y-98000487D01*
X141947276Y-98115724D01*
X142062513Y-98210297D01*
X142193986Y-98280571D01*
X142336642Y-98323845D01*
X142485000Y-98338457D01*
X145485000Y-98338457D01*
X145633358Y-98323845D01*
X145776014Y-98280571D01*
X145907487Y-98210297D01*
X146022724Y-98115724D01*
X146117297Y-98000487D01*
X146187571Y-97869014D01*
X146230845Y-97726358D01*
X146244590Y-97586800D01*
X146384054Y-97586800D01*
X146541085Y-97555565D01*
X146689005Y-97494294D01*
X146822130Y-97405343D01*
X146935343Y-97292130D01*
X147024294Y-97159005D01*
X147085565Y-97011085D01*
X147108876Y-96893890D01*
X147124543Y-96893890D01*
X147124543Y-97578000D01*
X147139155Y-97726358D01*
X147182429Y-97869014D01*
X147252703Y-98000487D01*
X147347276Y-98115724D01*
X147462513Y-98210297D01*
X147593986Y-98280571D01*
X147736642Y-98323845D01*
X147885000Y-98338457D01*
X150885000Y-98338457D01*
X151033358Y-98323845D01*
X151176014Y-98280571D01*
X151307487Y-98210297D01*
X151422724Y-98115724D01*
X151517297Y-98000487D01*
X151587571Y-97869014D01*
X151630845Y-97726358D01*
X151645457Y-97578000D01*
X151645457Y-96478000D01*
X151630845Y-96329642D01*
X151587571Y-96186986D01*
X151517297Y-96055513D01*
X151422724Y-95940276D01*
X151307487Y-95845703D01*
X151176014Y-95775429D01*
X151033358Y-95732155D01*
X150885000Y-95717543D01*
X149116252Y-95717543D01*
X149060735Y-95662026D01*
X149037665Y-95633915D01*
X148925503Y-95541866D01*
X148797539Y-95473468D01*
X148658689Y-95431348D01*
X148550476Y-95420690D01*
X148550473Y-95420690D01*
X148514290Y-95417126D01*
X148478107Y-95420690D01*
X146862163Y-95420690D01*
X146822130Y-95380657D01*
X146689005Y-95291706D01*
X146541085Y-95230435D01*
X146384054Y-95199200D01*
X146223946Y-95199200D01*
X146066915Y-95230435D01*
X145918995Y-95291706D01*
X145785870Y-95380657D01*
X145672657Y-95493870D01*
X145583706Y-95626995D01*
X145543801Y-95723334D01*
X145485000Y-95717543D01*
X142485000Y-95717543D01*
X142336642Y-95732155D01*
X142193986Y-95775429D01*
X142062513Y-95845703D01*
X141947276Y-95940276D01*
X141852703Y-96055513D01*
X141782429Y-96186986D01*
X141750756Y-96291400D01*
X139149457Y-96291400D01*
X139149457Y-96263750D01*
X139135445Y-96121489D01*
X139093949Y-95984695D01*
X139026563Y-95858624D01*
X138935877Y-95748123D01*
X138825376Y-95657437D01*
X138699305Y-95590051D01*
X138562511Y-95548555D01*
X138420250Y-95534543D01*
X137982750Y-95534543D01*
X137840489Y-95548555D01*
X137703695Y-95590051D01*
X137577624Y-95657437D01*
X137467123Y-95748123D01*
X137388520Y-95843900D01*
X137382322Y-95832304D01*
X137334711Y-95774289D01*
X137276696Y-95726678D01*
X137210508Y-95691299D01*
X137138689Y-95669513D01*
X137064000Y-95662157D01*
X136785250Y-95664000D01*
X136690000Y-95759250D01*
X136690000Y-96456500D01*
X136710000Y-96456500D01*
X136710000Y-96583500D01*
X136690000Y-96583500D01*
X136690000Y-97280750D01*
X136785250Y-97376000D01*
X136835715Y-97376334D01*
X136798576Y-97421588D01*
X136730178Y-97549552D01*
X136688058Y-97688402D01*
X136678495Y-97785502D01*
X136639415Y-97789351D01*
X136543657Y-97818399D01*
X136455405Y-97865571D01*
X136423400Y-97891836D01*
X136423400Y-97498361D01*
X136413844Y-97401339D01*
X136406281Y-97376406D01*
X136467750Y-97376000D01*
X136563000Y-97280750D01*
X136563000Y-96583500D01*
X135903250Y-96583500D01*
X135808000Y-96678750D01*
X135807812Y-96710969D01*
X135800338Y-96701862D01*
X135707514Y-96625684D01*
X135674457Y-96608015D01*
X135674457Y-96485000D01*
X135664649Y-96385415D01*
X135664523Y-96385000D01*
X135664649Y-96384585D01*
X135674457Y-96285000D01*
X135674457Y-96045000D01*
X135806157Y-96045000D01*
X135808000Y-96361250D01*
X135903250Y-96456500D01*
X136563000Y-96456500D01*
X136563000Y-95759250D01*
X136467750Y-95664000D01*
X136189000Y-95662157D01*
X136114311Y-95669513D01*
X136042492Y-95691299D01*
X135976304Y-95726678D01*
X135918289Y-95774289D01*
X135870678Y-95832304D01*
X135835299Y-95898492D01*
X135813513Y-95970311D01*
X135806157Y-96045000D01*
X135674457Y-96045000D01*
X135674457Y-95985000D01*
X135664649Y-95885415D01*
X135664523Y-95885000D01*
X135664649Y-95884585D01*
X135674457Y-95785000D01*
X135674457Y-95485000D01*
X135664649Y-95385415D01*
X135664523Y-95385000D01*
X135664649Y-95384585D01*
X135674457Y-95285000D01*
X135674457Y-95217940D01*
X135772494Y-95165537D01*
X135869185Y-95086185D01*
X135889074Y-95061950D01*
X135947138Y-95003886D01*
X136046247Y-94973822D01*
X136174212Y-94905424D01*
X136258267Y-94836442D01*
X137745547Y-93349162D01*
X137895550Y-93379000D01*
X138202450Y-93379000D01*
X138503452Y-93319126D01*
X138786990Y-93201681D01*
X139042167Y-93031177D01*
X139053342Y-93020002D01*
X139067399Y-93066343D01*
X139114571Y-93154595D01*
X139178052Y-93231948D01*
X139255405Y-93295429D01*
X139343657Y-93342601D01*
X139439415Y-93371649D01*
X139539000Y-93381457D01*
X141639000Y-93381457D01*
X141738585Y-93371649D01*
X141834343Y-93342601D01*
X141922595Y-93295429D01*
X141999948Y-93231948D01*
X142063429Y-93154595D01*
X142110601Y-93066343D01*
X142139649Y-92970585D01*
X142149457Y-92871000D01*
X142149457Y-90771000D01*
X142139649Y-90671415D01*
X142110601Y-90575657D01*
X142063429Y-90487405D01*
X141999948Y-90410052D01*
X141922595Y-90346571D01*
X141834343Y-90299399D01*
X141738585Y-90270351D01*
X141639000Y-90260543D01*
X139539000Y-90260543D01*
X139439415Y-90270351D01*
X139343657Y-90299399D01*
X139255405Y-90346571D01*
X139178052Y-90410052D01*
X139114571Y-90487405D01*
X139067399Y-90575657D01*
X139053342Y-90621998D01*
X139042167Y-90610823D01*
X138786990Y-90440319D01*
X138503452Y-90322874D01*
X138202450Y-90263000D01*
X137895550Y-90263000D01*
X137594548Y-90322874D01*
X137311010Y-90440319D01*
X137055833Y-90610823D01*
X136838823Y-90827833D01*
X136668319Y-91083010D01*
X136550874Y-91366548D01*
X136491000Y-91667550D01*
X136491000Y-91974450D01*
X136550874Y-92275452D01*
X136605049Y-92406242D01*
X135655625Y-93355666D01*
X135635601Y-93289657D01*
X135588429Y-93201405D01*
X135524948Y-93124052D01*
X135477026Y-93084724D01*
X135545000Y-93016750D01*
X135546843Y-92985000D01*
X135539487Y-92910311D01*
X135517701Y-92838492D01*
X135482322Y-92772304D01*
X135434711Y-92714289D01*
X135376696Y-92666678D01*
X135310508Y-92631299D01*
X135238689Y-92609513D01*
X135164000Y-92602157D01*
X134972750Y-92604000D01*
X134882165Y-92694585D01*
X134892195Y-92679574D01*
X134954989Y-92527977D01*
X134987000Y-92367043D01*
X134987000Y-92202957D01*
X134954989Y-92042023D01*
X134892195Y-91890426D01*
X134801034Y-91753993D01*
X134685007Y-91637966D01*
X134548574Y-91546805D01*
X134396977Y-91484011D01*
X134236043Y-91452000D01*
X134071957Y-91452000D01*
X133934458Y-91479350D01*
X133888657Y-91373897D01*
X133801152Y-91247650D01*
X133690699Y-91140900D01*
X133561542Y-91057750D01*
X133418645Y-91001395D01*
X133267500Y-90974000D01*
X132967500Y-90974000D01*
X132967500Y-91691500D01*
X132987500Y-91691500D01*
X132987500Y-91818500D01*
X132967500Y-91818500D01*
X132967500Y-91838500D01*
X132840500Y-91838500D01*
X132840500Y-91818500D01*
X131921196Y-91818500D01*
X131845103Y-91939489D01*
X131858149Y-91995210D01*
X131919343Y-92136103D01*
X132006848Y-92262350D01*
X132117301Y-92369100D01*
X132246458Y-92452250D01*
X132389355Y-92508605D01*
X132448172Y-92519265D01*
X132445678Y-92522304D01*
X132410299Y-92588492D01*
X132388513Y-92660311D01*
X132381157Y-92735000D01*
X132383000Y-92766750D01*
X132450974Y-92834724D01*
X132403052Y-92874052D01*
X132339571Y-92951405D01*
X132292399Y-93039657D01*
X132263351Y-93135415D01*
X132253543Y-93235000D01*
X132253543Y-93535000D01*
X132263351Y-93634585D01*
X132263477Y-93635000D01*
X132263351Y-93635415D01*
X132253543Y-93735000D01*
X132253543Y-93775333D01*
X132187069Y-93795498D01*
X132076755Y-93854463D01*
X131980064Y-93933815D01*
X131960175Y-93958050D01*
X131902904Y-94015321D01*
X131795787Y-94072576D01*
X131722892Y-94132400D01*
X131536639Y-94132400D01*
X131428085Y-94087435D01*
X131271054Y-94056200D01*
X131110946Y-94056200D01*
X130953915Y-94087435D01*
X130805995Y-94148706D01*
X130672870Y-94237657D01*
X130559657Y-94350870D01*
X130470706Y-94483995D01*
X130409435Y-94631915D01*
X130378200Y-94788946D01*
X130378200Y-94949054D01*
X130409435Y-95106085D01*
X130469047Y-95250000D01*
X130409435Y-95393915D01*
X130378200Y-95550946D01*
X130378200Y-95711054D01*
X130409435Y-95868085D01*
X130470706Y-96016005D01*
X130559657Y-96149130D01*
X130672870Y-96262343D01*
X130805995Y-96351294D01*
X130953915Y-96412565D01*
X131110946Y-96443800D01*
X131271054Y-96443800D01*
X131428085Y-96412565D01*
X131470401Y-96395037D01*
X131470401Y-96618186D01*
X131481059Y-96726399D01*
X131523179Y-96865249D01*
X131591577Y-96993213D01*
X131683626Y-97105375D01*
X131795788Y-97197424D01*
X131923752Y-97265822D01*
X132022862Y-97295887D01*
X132038930Y-97311954D01*
X132058815Y-97336185D01*
X132083044Y-97356069D01*
X132155507Y-97415538D01*
X132222609Y-97451405D01*
X132253543Y-97467940D01*
X132253543Y-97535000D01*
X132263351Y-97634585D01*
X132263477Y-97635000D01*
X132263351Y-97635415D01*
X132253543Y-97735000D01*
X132253543Y-98035000D01*
X132263351Y-98134585D01*
X132292399Y-98230343D01*
X132339571Y-98318595D01*
X132403052Y-98395948D01*
X132450974Y-98435276D01*
X132383000Y-98503250D01*
X132381157Y-98535000D01*
X132388513Y-98609689D01*
X132410299Y-98681508D01*
X132445678Y-98747696D01*
X132493289Y-98805711D01*
X132551304Y-98853322D01*
X132617492Y-98888701D01*
X132689311Y-98910487D01*
X132764000Y-98917843D01*
X132955250Y-98916000D01*
X133050500Y-98820750D01*
X133050500Y-98545457D01*
X133177500Y-98545457D01*
X133177500Y-98820750D01*
X133272750Y-98916000D01*
X133432608Y-98917540D01*
X133380685Y-99014682D01*
X133333053Y-99171704D01*
X133325875Y-99244581D01*
X133267500Y-99234000D01*
X132967500Y-99234000D01*
X132967500Y-99951500D01*
X132987500Y-99951500D01*
X132987500Y-100078500D01*
X132967500Y-100078500D01*
X132967500Y-100796000D01*
X133267500Y-100796000D01*
X133418645Y-100768605D01*
X133561542Y-100712250D01*
X133690699Y-100629100D01*
X133801152Y-100522350D01*
X133872112Y-100419973D01*
X133990704Y-100455947D01*
X134154000Y-100472030D01*
X134317295Y-100455947D01*
X134474317Y-100408315D01*
X134619028Y-100330965D01*
X134745870Y-100226870D01*
X134849965Y-100100029D01*
X134927315Y-99955318D01*
X134974947Y-99798296D01*
X134987000Y-99675918D01*
X134987000Y-99294083D01*
X134974947Y-99171705D01*
X134973218Y-99166005D01*
X135102601Y-99167251D01*
X135102601Y-99180194D01*
X135099405Y-99212642D01*
X135112156Y-99342102D01*
X135149918Y-99466588D01*
X135149919Y-99466589D01*
X135211242Y-99581316D01*
X135293768Y-99681875D01*
X135318967Y-99702555D01*
X136005245Y-100388834D01*
X136025926Y-100414034D01*
X136126485Y-100496560D01*
X136241212Y-100557883D01*
X136365698Y-100595645D01*
X136427098Y-100601692D01*
X136382819Y-100737385D01*
X136455158Y-100901500D01*
X137350500Y-100901500D01*
X137350500Y-100881500D01*
X137477500Y-100881500D01*
X137477500Y-100901500D01*
X137497500Y-100901500D01*
X137497500Y-101028500D01*
X137477500Y-101028500D01*
X137477500Y-101048500D01*
X137350500Y-101048500D01*
X137350500Y-101028500D01*
X136455158Y-101028500D01*
X136382819Y-101192615D01*
X136447038Y-101389415D01*
X136548417Y-101569905D01*
X136672058Y-101714300D01*
X126504700Y-101714300D01*
X126504700Y-101140449D01*
X126590500Y-101156000D01*
X126890500Y-101156000D01*
X126890500Y-100438500D01*
X127017500Y-100438500D01*
X127017500Y-101156000D01*
X127317500Y-101156000D01*
X127468645Y-101128605D01*
X127611542Y-101072250D01*
X127740699Y-100989100D01*
X127851152Y-100882350D01*
X127938657Y-100756103D01*
X127999851Y-100615210D01*
X128012897Y-100559489D01*
X127936804Y-100438500D01*
X127017500Y-100438500D01*
X126890500Y-100438500D01*
X126870500Y-100438500D01*
X126870500Y-100311500D01*
X126890500Y-100311500D01*
X126890500Y-99594000D01*
X127017500Y-99594000D01*
X127017500Y-100311500D01*
X127936804Y-100311500D01*
X128007250Y-100199489D01*
X131845103Y-100199489D01*
X131858149Y-100255210D01*
X131919343Y-100396103D01*
X132006848Y-100522350D01*
X132117301Y-100629100D01*
X132246458Y-100712250D01*
X132389355Y-100768605D01*
X132540500Y-100796000D01*
X132840500Y-100796000D01*
X132840500Y-100078500D01*
X131921196Y-100078500D01*
X131845103Y-100199489D01*
X128007250Y-100199489D01*
X128012897Y-100190511D01*
X127999851Y-100134790D01*
X127938657Y-99993897D01*
X127851152Y-99867650D01*
X127812725Y-99830511D01*
X131845103Y-99830511D01*
X131921196Y-99951500D01*
X132840500Y-99951500D01*
X132840500Y-99234000D01*
X132540500Y-99234000D01*
X132389355Y-99261395D01*
X132246458Y-99317750D01*
X132117301Y-99400900D01*
X132006848Y-99507650D01*
X131919343Y-99633897D01*
X131858149Y-99774790D01*
X131845103Y-99830511D01*
X127812725Y-99830511D01*
X127740699Y-99760900D01*
X127611542Y-99677750D01*
X127468645Y-99621395D01*
X127317500Y-99594000D01*
X127017500Y-99594000D01*
X126890500Y-99594000D01*
X126590500Y-99594000D01*
X126504700Y-99609551D01*
X126504700Y-92160449D01*
X126590500Y-92176000D01*
X126890500Y-92176000D01*
X126890500Y-91458500D01*
X127017500Y-91458500D01*
X127017500Y-92176000D01*
X127317500Y-92176000D01*
X127468645Y-92148605D01*
X127611542Y-92092250D01*
X127740699Y-92009100D01*
X127851152Y-91902350D01*
X127938657Y-91776103D01*
X127999851Y-91635210D01*
X128012897Y-91579489D01*
X128007251Y-91570511D01*
X131845103Y-91570511D01*
X131921196Y-91691500D01*
X132840500Y-91691500D01*
X132840500Y-90974000D01*
X132540500Y-90974000D01*
X132389355Y-91001395D01*
X132246458Y-91057750D01*
X132117301Y-91140900D01*
X132006848Y-91247650D01*
X131919343Y-91373897D01*
X131858149Y-91514790D01*
X131845103Y-91570511D01*
X128007251Y-91570511D01*
X127936804Y-91458500D01*
X127017500Y-91458500D01*
X126890500Y-91458500D01*
X126870500Y-91458500D01*
X126870500Y-91331500D01*
X126890500Y-91331500D01*
X126890500Y-90614000D01*
X127017500Y-90614000D01*
X127017500Y-91331500D01*
X127936804Y-91331500D01*
X128012897Y-91210511D01*
X127999851Y-91154790D01*
X127938657Y-91013897D01*
X127851152Y-90887650D01*
X127740699Y-90780900D01*
X127611542Y-90697750D01*
X127468645Y-90641395D01*
X127317500Y-90614000D01*
X127017500Y-90614000D01*
X126890500Y-90614000D01*
X126590500Y-90614000D01*
X126504700Y-90629551D01*
X126504700Y-90055700D01*
X155054301Y-90055700D01*
X155054300Y-101714300D01*
M02*
