M48
; DRILL file {KiCad (5.1.0-47-g8a7e501fe)} date Mon 01 Apr 2019 01:16:13 AM CDT
; FORMAT={-:-/ absolute / inch / decimal}
; #@! TF.CreationDate,2019-04-01T01:16:13-05:00
; #@! TF.GenerationSoftware,Kicad,Pcbnew,(5.1.0-47-g8a7e501fe)
FMAT,2
INCH
T1C0.0120
T2C0.0197
T3C0.0315
T4C0.0433
T5C0.0256
%
G90
G05
T1
X5.01Y-3.72
X5.055Y-3.675
X5.15Y-3.95
X5.165Y-3.735
X5.165Y-3.765
X5.18Y-3.655
X5.35Y-3.615
X5.415Y-3.69
X5.62Y-3.92
X5.695Y-3.92
X5.73Y-3.73
X5.76Y-3.78
X5.76Y-3.81
X5.83Y-3.92
X5.995Y-3.68
X6.0987Y-3.585
X6.0987Y-3.765
X6.0987Y-3.965
T3
X5.41Y-3.8963
X5.41Y-3.975
X5.4887Y-3.8963
X5.4887Y-3.975
T4
X5.435Y-3.615
X5.535Y-3.615
T5
X5.2817Y-3.6333
T2
G00X5.01Y-3.5982
M15
G01X4.9864Y-3.5982
M16
G05
G00X5.01Y-3.9518
M15
G01X4.9864Y-3.9518
M16
G05
G00X5.2443Y-3.6124
M15
G01X5.2206Y-3.6124
M16
G05
G00X5.2443Y-3.9376
M15
G01X5.2206Y-3.9376
M16
G05
T5
G00X5.2817Y-3.9108
M15
G01X5.2817Y-3.9226
M16
G05
T0
M30
